<svg width="527" height="459" viewBox="0 0 527 459" fill="none" xmlns="http://www.w3.org/2000/svg">
<path d="M28.2717 291.587H116.412C121.4 291.587 124.726 287.152 124.173 282.164L121.4 264.422C119.737 251.117 110.867 240.03 99.2282 235.042C91.4676 240.03 82.0444 243.356 72.0642 243.356C62.0879 243.356 52.66 240.583 44.9002 235.042C33.2569 240.03 24.3903 250.564 22.7282 264.422L19.9557 282.164C19.4066 287.152 23.2851 291.587 28.2732 291.587H28.2717Z" fill="#4267B2"/>
<path d="M106.435 194.576C106.435 213.559 91.0488 228.949 72.0664 228.949C53.0839 228.949 37.6938 213.559 37.6938 194.576C37.6938 175.594 53.0839 160.208 72.0664 160.208C91.0488 160.208 106.435 175.594 106.435 194.576" fill="#4267B2"/>
<path d="M130.272 329.837H13.8587C6.09802 329.837 0 335.935 0 343.696V444.587C0 452.348 6.09802 458.446 13.8587 458.446H130.272C138.032 458.446 144.13 452.348 144.13 444.587V343.696C144.683 335.935 138.032 329.837 130.272 329.837Z" fill="#4267B2"/>
<path d="M219.522 211.761H307.662C312.65 211.761 315.976 207.326 315.423 202.337L313.207 184.596C311.544 171.291 302.673 160.204 291.035 155.216C283.274 160.204 273.851 163.53 263.871 163.53C253.895 163.53 244.467 160.757 236.707 155.216C225.064 160.204 216.197 170.738 214.535 184.596L211.762 202.337C210.653 207.33 214.531 211.761 219.523 211.761H219.522Z" fill="#142547"/>
<path d="M297.685 114.196C297.685 133.178 282.299 148.564 263.316 148.564C244.334 148.564 228.948 133.178 228.948 114.196C228.948 95.2132 244.334 79.8271 263.316 79.8271C282.299 79.8271 297.685 95.2132 297.685 114.196Z" fill="#142547"/>
<path d="M321.522 250.011H205.109C197.348 250.011 191.25 256.109 191.25 263.87V445.141C191.25 452.902 197.348 459 205.109 459H321.522C329.282 459 335.38 452.902 335.38 445.141V263.87C335.38 256.109 329.282 250.011 321.522 250.011V250.011Z" fill="#142547"/>
<path d="M410.217 131.935H498.358C503.346 131.935 506.671 127.499 506.118 122.511L503.903 104.77C502.24 91.4649 493.369 80.3779 481.731 75.3898C473.97 80.378 464.547 83.7034 454.567 83.7034C444.59 83.7034 435.163 80.9309 427.403 75.3898C415.759 80.378 406.893 91.4639 405.231 104.77L403.015 122.511C401.905 127.5 405.788 131.935 410.219 131.935H410.217Z" fill="#142547"/>
<path d="M488.935 34.3686C488.935 53.351 473.545 68.7411 454.562 68.7411C435.58 68.7411 420.194 53.351 420.194 34.3686C420.194 15.3861 435.58 0 454.562 0C473.545 0 488.935 15.3861 488.935 34.3686Z" fill="#142547"/>
<path d="M512.772 169.63H396.358C388.598 169.63 382.5 175.728 382.5 183.489V444.587C382.5 452.348 388.598 458.446 396.358 458.446H512.772C520.532 458.446 526.63 452.348 526.63 444.587V184.043C526.63 176.283 520.532 169.631 512.772 169.631V169.63Z" fill="#142547"/>
</svg>
