<svg width="512" height="525" fill="none" xmlns="http://www.w3.org/2000/svg"><path d="M368.682 409.97v81.209c18.25-3.184 32.214-18.373 33.807-36.869v-.367c.122-1.102.122-2.205.122-3.43.123-19.965-14.209-37.114-33.929-40.543zM275.35 346.64h-87.211c-.245 0-.612-.367-.612-.245v16.169h88.191v-16.169c-.123-.122-.245.245-.368.245z" fill="#142547"/><path d="M402.614 337.939a16.989 16.989 0 0 0-17.025-17.026 16.99 16.99 0 0 0-17.026 17.026c0 9.309 7.594 17.025 17.026 17.025a16.989 16.989 0 0 0 17.025-17.025z" fill="#4267B2"/><path d="M302.172 434.831h-1.347c-4.042 0-6.86 3.307-6.86 7.349v6.125h15.924v-6.125c-.122-4.164-3.552-7.349-7.717-7.349z" fill="#142547"/><path d="M324.838 377.258H138.782c-16.169 0-29.764 12.738-29.764 29.029v88.559c.122 16.291 13.473 29.397 29.764 29.397h185.811c16.169 0 29.397-13.228 29.397-29.397v-88.559c0-16.045-13.106-29.029-29.152-29.029zM184.953 455.65c-.122 4.164-3.552 7.349-7.716 7.349h-30.745c-4.042 0-6.859-3.307-6.859-7.349v-13.474c-.245-11.88 9.309-21.803 21.191-22.048h1.714c12.25 0 22.171 9.799 22.416 22.048l-.001 13.474zm84.517 24.619v1.348c.122 19.965-16.046 36.378-36.011 36.501h-3.185c-20.21.123-36.623-16.169-36.745-36.378v-1.47c0-4.042 3.307-7.349 7.349-7.472h61.611c3.92.123 7.105 3.307 6.982 7.349v.123l-.001-.001zm55.119-24.619c-.122 4.164-3.552 7.349-7.716 7.349h-30.744c-4.043 0-6.86-3.307-6.86-7.349v-13.474c-.245-11.88 9.309-21.803 21.191-22.048h1.715c12.249 0 22.17 9.799 22.415 22.048l-.001 13.474z" fill="#142547"/><path d="M230.275 503.424h2.818c10.044 0 18.618-6.124 21.19-15.924h-45.321c2.695 9.799 11.269 15.924 21.313 15.924zM.004 403.474c0 24.253 19.966 43.606 44.218 43.606h50.097v-40.788c0-24.375 20.088-43.728 44.462-43.728h33.93v-16.169c0-8.329 6.981-14.453 15.311-14.453h36.134v-15.801c0-4.042 3.307-7.349 7.349-7.349s7.349 3.307 7.349 7.349v15.801h36.502c8.329 0 14.944 6.247 14.944 14.453v16.169h34.296c19.965-.123 37.481 13.228 42.625 32.459a66.297 66.297 0 0 1 11.146 2.082v-28.417c-13.473-3.307-24.375-15.924-24.375-30.744.122-17.516 14.331-31.602 31.847-31.479a31.627 31.627 0 0 1 31.479 31.479c-.122 14.576-10.166 27.192-24.252 30.744v35.644c13.473 9.554 23.15 25.477 24.13 42.625h50.464c24.252 0 44.218-19.353 44.218-43.606V126.157H.001l.003 277.317zm195.241-98.48H36.008a8.521 8.521 0 0 1-8.574-8.574 8.521 8.521 0 0 1 8.574-8.574h159.237a8.521 8.521 0 0 1 8.574 8.574 8.521 8.521 0 0 1-8.574 8.574zm-44.83-62.468a8.521 8.521 0 0 1 8.574 8.574 8.521 8.521 0 0 1-8.574 8.574H71.043a8.521 8.521 0 0 1-8.574-8.574 8.521 8.521 0 0 1 8.574-8.574h79.372zm-33.072-36.746a8.522 8.522 0 0 1 8.575-8.574h197.077a8.521 8.521 0 0 1 8.574 8.574 8.521 8.521 0 0 1-8.574 8.574H125.918a8.522 8.522 0 0 1-8.575-8.574zm-21.803 8.574H36.012a8.521 8.521 0 0 1-8.574-8.574 8.521 8.521 0 0 1 8.574-8.574H95.54a8.522 8.522 0 0 1 8.575 8.574 8.522 8.522 0 0 1-8.575 8.574zm-59.528 28.172h.98a8.521 8.521 0 0 1 8.574 8.574 8.521 8.521 0 0 1-8.574 8.574h-.98a8.521 8.521 0 0 1-8.574-8.574c0-4.777 3.92-8.574 8.574-8.574zm144.286 17.148a8.521 8.521 0 0 1-8.574-8.574 8.522 8.522 0 0 1 8.574-8.575h51.322a8.522 8.522 0 0 1 8.574 8.575 8.521 8.521 0 0 1-8.574 8.574h-51.322zm124.329 45.32h-66.755a8.521 8.521 0 0 1-8.574-8.574 8.521 8.521 0 0 1 8.574-8.574h66.755a8.521 8.521 0 0 1 8.574 8.574 8.521 8.521 0 0 1-8.574 8.574zm35.031 0h-3.674a8.521 8.521 0 0 1-8.574-8.574 8.521 8.521 0 0 1 8.574-8.574h3.674a8.522 8.522 0 0 1 8.575 8.574 8.522 8.522 0 0 1-8.575 8.574zm95.173-45.32H261.999a8.521 8.521 0 0 1-8.574-8.574 8.522 8.522 0 0 1 8.574-8.575h172.832a8.522 8.522 0 0 1 8.574 8.575 8.521 8.521 0 0 1-8.574 8.574zm-86.353-53.895a8.521 8.521 0 0 1 8.574-8.574h14.698a8.521 8.521 0 0 1 8.574 8.574 8.521 8.521 0 0 1-8.574 8.574h-14.698c-4.655 0-8.574-3.797-8.574-8.574zm127.51 53.895h-10.289a8.521 8.521 0 0 1-8.574-8.574 8.522 8.522 0 0 1 8.574-8.575h10.289a8.522 8.522 0 0 1 8.574 8.575c0 4.777-3.92 8.574-8.574 8.574zm0-45.321H405.68a8.521 8.521 0 0 1-8.574-8.574 8.521 8.521 0 0 1 8.574-8.574h70.308a8.521 8.521 0 0 1 8.574 8.574c0 4.777-3.92 8.574-8.574 8.574zm-168.42-58.794h168.42a8.521 8.521 0 0 1 8.574 8.574 8.521 8.521 0 0 1-8.574 8.574h-168.42a8.521 8.521 0 0 1-8.574-8.574 8.521 8.521 0 0 1 8.574-8.574zm-87.578 0h53.405a8.521 8.521 0 0 1 8.574 8.574 8.521 8.521 0 0 1-8.574 8.574H219.99a8.521 8.521 0 0 1-8.574-8.574 8.521 8.521 0 0 1 8.574-8.574zm-30.255 0h.613a8.522 8.522 0 0 1 8.574 8.574 8.522 8.522 0 0 1-8.574 8.574h-.613a8.521 8.521 0 0 1-8.574-8.574c0-4.777 3.92-8.574 8.574-8.574zm-153.727 0H155.68a8.521 8.521 0 0 1 8.574 8.574 8.521 8.521 0 0 1-8.574 8.574H36.009a8.521 8.521 0 0 1-8.575-8.574c0-4.777 3.92-8.574 8.574-8.574z" fill="#142547"/><path d="M162.545 434.831h-1.348c-4.042 0-6.859 3.307-6.859 7.349v6.125h15.924v-6.125c-.123-4.164-3.553-7.349-7.717-7.349zM50.097 44.094c-6.614-.122-12.004 5.267-12.126 11.759v.122c0 3.063 1.225 6.125 3.552 8.207 2.327 2.205 5.39 3.307 8.574 3.185 6.614.122 12.004-5.145 12.126-11.637v-.122c0-3.063-1.225-6.125-3.552-8.207-2.327-2.205-5.39-3.43-8.574-3.307zM224.765 44.094c-6.736 0-12.249 5.512-12.126 12.25 0 3.184 1.348 6.246 3.552 8.451 4.655 4.777 12.372 4.777 17.026.123 2.327-2.205 3.552-5.39 3.552-8.574 0-3.185-1.225-6.37-3.552-8.697-2.082-2.205-5.145-3.552-8.452-3.552zM137.426 44.094c-6.737 0-12.126 5.39-12.126 12.004 0 3.307 1.225 6.37 3.552 8.697 2.205 2.327 5.267 3.674 8.574 3.797 6.737 0 12.249-5.512 12.249-12.25 0-6.737-5.512-12.249-12.249-12.249v.001z" fill="#142547"/><path d="M467.78 0H44.217C19.842 0 .122 19.598 0 43.973v67.491h512v-67.49C511.878 19.597 492.035 0 467.782 0h-.002zM50.22 82.066c-.122 0-.122 0 0 0h-.245c-7.104.123-13.84-2.694-18.863-7.594a26.039 26.039 0 0 1-7.84-18.618c.123-14.698 12.005-26.457 26.703-26.335h.245c7.104-.123 13.964 2.695 18.863 7.717a26.041 26.041 0 0 1 7.84 18.618C76.8 70.307 64.796 82.189 50.22 82.066zm87.211 1.225c-14.944 0-27.07-12.126-26.947-26.947.124-14.82 12.127-26.946 26.947-26.946h.123c14.943 0 26.946 12.126 26.946 26.946-.122 14.944-12.249 26.947-27.07 26.947h.001zm106.197-7.839c-5.023 5.022-11.759 7.84-18.864 7.84h-.122c-7.105 0-13.964-2.94-18.864-7.963-10.534-10.533-10.411-27.682.245-38.093 5.022-4.9 11.759-7.717 18.74-7.84h.123c14.944.123 26.825 12.372 26.702 27.192-.122 7.105-2.939 13.84-7.961 18.864h.001z" fill="#4267B2"/></svg>