<svg xmlns="http://www.w3.org/2000/svg" width="447" height="494" fill="none" xmlns:v="https://vecta.io/nano"><path d="M283.418 294.205L243.089 237l-3.008.2-1.081.105.004 255.695h155.041c2.108 0 4.096-.729 5.594-2.058 1.521-1.349 2.361-3.146 2.361-5.061V304.338l-97.916-.007c-8.469 0-16.195-3.784-20.669-10.127l.003.001zm23.678-92.713l-7.336 5.704-1.679 1.199-1.215.867-.18.125-4.34 2.828-1.359.863-.211.133-.473.297-3.386 1.945-1.828 1.02-3.364 1.773-.679.332-2.075 1.008-3.789 1.742-2.504 1.051-.847.356-2.813 1.109-3.172 1.125-3.172 1.09-4.73 1.386-1.641.481 36.648 59.66c1.078 1.754 2.922 2.801 4.934 2.801l106.75.008c.289-.028.57-.086.867-.086h34.648c2.254 0 4.324-1.27 5.402-3.317a6.24 6.24 0 0 0 .52-1.383 5.77 5.77 0 0 0 .113-.738l.063-.512c-.004-1.144-.317-2.293-.957-3.297L394.4 201.433l-87.234-.007c-.028.027-.055.043-.075.066h.005zM209 237.333l-1.088-.105-3.276-.228-40.555 57.391c-4.494 6.361-12.263 10.162-20.784 10.169L45 304.563v182.291c0 1.919.846 3.726 2.376 5.08 1.507 1.334 3.507 2.066 5.629 2.066H209V237.333zm-28.984-12.571l-2.519-.902-2.981-1.176-.562-.234-.379-.16-2.238-.946-3.997-1.832-1.898-.921-.687-.336-3.461-1.821-1.7-.949-3.468-1.996-.258-.16-.438-.281-1.214-.77-5.844-3.894-1.653-1.18-7.324-5.695c-.027-.024-.058-.039-.082-.063l-87.5-.008-50.852 79.57a6.15 6.15 0 0 0-.719 5.016c.043.148.121.285.176.43.137.367.293.73.504 1.07.176.285.379.543.594.789l.281.332a6.15 6.15 0 0 0 1.117.871c.883.52 1.879.805 2.914.805h35.148c.082 0 .16.023.25.027l107.14-.008c2.008 0 3.856-1.051 4.93-2.801l36.645-59.652-3.18-.941-2.925-.863-3.817-1.321h-.003z" fill="#142547"/><path d="M152.95 193.917l6.14 4.985 1.952 1.399 5.794 3.892 1.922 1.183 7.067 3.865.803.417 8.602 3.745.161.064 8.561 2.837 1.693.455 7.063 1.647 2.353.45 8.28 1.149.968.075 9.157.42 9.158-.42.968-.075 8.133-1.126 2.559-.484 6.868-1.603 1.843-.491 8.546-2.834.161-.064 8.509-3.704 1.107-.571 6.781-3.711 2.027-1.239 5.701-3.828 2.008-1.441 6.14-4.984c23.209-20.236 37.951-50.227 37.951-83.675C331.926 49.455 283.267 0 223.463 0S115 49.458 115 110.25c0 33.447 14.746 63.438 37.955 83.675l-.005-.008zm107.272-95.304c-3.678-1.494-5.57-5.6-4.324-9.386a7.51 7.51 0 0 1 10.092-4.586l29.856 12.809c3.632 1.561 5.986 5.146 5.986 9.113s-2.353 7.558-5.986 9.112l-29.856 12.813c-4.053 1.741-8.714-.383-10.092-4.586v-.008a7.58 7.58 0 0 1 4.324-9.386l19.56-7.949-19.56-7.946zm-55.186 41.389l22.372-65.044c1.002-2.905 3.719-4.856 6.774-4.856 4.924 0 8.381 4.875 6.782 9.559l-22.23 65.044c-.994 2.912-3.719 4.867-6.781 4.867h-.143c-4.928 0-8.384-4.882-6.774-9.57h0zm-54.149-42.556l29.859-12.809c4.054-1.738 8.711.383 10.093 4.586 1.246 3.787-.653 7.893-4.324 9.386l-19.561 7.948 19.569 7.949c3.674 1.494 5.566 5.6 4.323 9.387l-.003.007c-1.378 4.208-6.047 6.328-10.093 4.59l-29.855-12.817c-3.629-1.561-5.986-5.145-5.986-9.112-.008-3.971 2.345-7.562 5.979-9.116h-.001z" fill="#4267b2"/></svg>