<?xml version="1.0" encoding="UTF-8"?>
<svg width="32px" height="23px" viewBox="0 0 32 23" version="1.1" xmlns="http://www.w3.org/2000/svg" xmlns:xlink="http://www.w3.org/1999/xlink">
    <title>back_arrow_small</title>
    <g id="About" stroke="none" stroke-width="1" fill="none" fill-rule="evenodd">
        <g id="Group-4" transform="translate(-61.000000, -14.000000)" fill="#907F8B" fill-rule="nonzero">
            <g id="back_arrow_small" transform="translate(61.000000, 14.000000)">
                <path d="M10.273,1.009 C10.717,0.565 11.416,0.565 11.86,1.009 C12.289,1.438 12.289,2.152 11.86,2.58 L3.813,10.627 L30.367,10.627 C30.986,10.627 31.494,11.119 31.494,11.738 C31.494,12.357 30.986,12.865 30.367,12.865 L3.813,12.865 L11.86,20.897 C12.289,21.341 12.289,22.056 11.86,22.484 C11.416,22.928 10.717,22.928 10.273,22.484 L0.321,12.532 C-0.108,12.103 -0.108,11.389 0.321,10.961 L10.273,1.009 Z" id="Shape"></path>
            </g>
        </g>
    </g>
</svg>