<?xml version="1.0" encoding="UTF-8"?>
<svg width="760px" height="479px" viewBox="0 0 760 479" version="1.1" xmlns="http://www.w3.org/2000/svg" xmlns:xlink="http://www.w3.org/1999/xlink">
    <title>pic</title>
    <defs>
        <linearGradient x1="50.2341457%" y1="54.8871704%" x2="50.2341457%" y2="119.061759%" id="linearGradient-1">
            <stop stop-color="#FBEEF5" offset="0%"></stop>
            <stop stop-color="#C0D0EA" offset="100%"></stop>
        </linearGradient>
        <linearGradient x1="46.7325252%" y1="10.619343%" x2="51.1738014%" y2="73.2531666%" id="linearGradient-2">
            <stop stop-color="#FDEFF5" offset="0%"></stop>
            <stop stop-color="#E1E1F0" offset="100%"></stop>
        </linearGradient>
        <linearGradient x1="54.139006%" y1="29.6622784%" x2="41.0220033%" y2="127.418131%" id="linearGradient-3">
            <stop stop-color="#F7ECF4" offset="0%"></stop>
            <stop stop-color="#EFE8F3" offset="35.8864%"></stop>
            <stop stop-color="#E0E1F0" offset="100%"></stop>
        </linearGradient>
        <linearGradient x1="46.7604037%" y1="62.8671779%" x2="55.7154855%" y2="38.1051093%" id="linearGradient-4">
            <stop stop-color="#B4C1E4" offset="0%"></stop>
            <stop stop-color="#C4C1DC" offset="100%"></stop>
        </linearGradient>
    </defs>
    <g id="profile-website-design" stroke="none" stroke-width="1" fill="none" fill-rule="evenodd">
        <g id="pic">
            <g id="form" transform="translate(35.000000, 0.000000)">
                <g id="undraw_Upvote_re_qn2k" fill-rule="nonzero">
                    <path d="M708.22382,434.54785 L67.38531,434.54785 C58.2768768,434.537561 50.8955989,427.156283 50.88531,418.04785 L50.88531,22.89404 C50.8927384,16.2210804 56.3002507,10.8133579 62.97321,10.80567 L712.4267,10.80567 C719.215107,10.8133854 724.716237,16.3146227 724.72382,23.10303 L724.72382,418.04785 C724.713531,427.156283 717.332253,434.537561 708.22382,434.54785 Z" id="Path" fill="#FFF5F9" opacity="0.8671875"></path>
                    <path d="M687.50401,413.71553 L90.25926,413.71553 C81.50426,413.71553 74.38169,407.04561 74.38169,398.84737 L74.38169,54.74237 C74.38169,48.66229 79.65969,43.71551 86.14732,43.71551 L691.421,43.71551 C698.01622,43.71551 703.38169,48.74383 703.38169,54.92401 L703.38169,398.84737 C703.38169,407.04561 696.25891,413.71553 687.50401,413.71553 Z" id="Path" fill="#FFFFFF"></path>
                    <path d="M724.49408,24.9502 L50.65375,24.9502 L50.65375,16.54981 C50.6669584,7.41107776 58.0750713,0.00755011991 67.21381,2.84217094e-14 L707.93402,2.84217094e-14 C717.072777,0.00750612281 724.480916,7.41105949 724.49408,16.54981 L724.49408,24.9502 Z" id="Path" fill="#3F3D56"></path>
                    <circle id="Oval" fill="#FFFFFF" cx="80.7491" cy="12.5" r="4.28342"></circle>
                    <circle id="Oval" fill="#FFFFFF" cx="97.00791" cy="12.5" r="4.28342"></circle>
                    <circle id="Oval" fill="#FFFFFF" cx="113.26671" cy="12.5" r="4.28342"></circle>
                    <path d="M225.3366,223.33785 L218.96013,216.47976 C218.670605,216.168311 218.264555,215.991325 217.839319,215.991325 C217.414084,215.991325 217.008005,216.168177 216.71843,216.47958 L210.34099,223.33785 C210.097538,223.599694 210.012272,223.971527 210.117309,224.313284 C210.222347,224.655041 210.50173,224.9148 210.850219,224.994714 C211.198708,225.074627 211.563359,224.962554 211.80681,224.70071 L216.83758,219.2886 L216.83758,232.57705 C216.83758,233.129335 217.285295,233.57705 217.83758,233.57705 C218.389865,233.57705 218.83758,233.129335 218.83758,232.57705 L218.83758,219.28469 L223.87029,224.70052 C224.246949,225.103666 224.878817,225.125971 225.282966,224.750388 C225.687115,224.374805 225.711104,223.742999 225.3366,223.33785 L225.3366,223.33785 Z" id="Path" fill="#FFFFFF"></path>
                    <path d="M225.3366,291.22665 L218.96013,284.36855 C218.670604,284.057103 218.264554,283.880119 217.839319,283.880119 C217.414085,283.880119 217.008006,284.05697 216.71843,284.36837 L210.34099,291.22665 C210.096751,291.488365 210.010906,291.860607 210.115863,292.202852 C210.220819,292.545097 210.50059,292.805215 210.849561,292.885009 C211.198531,292.964804 211.563546,292.852122 211.80681,292.5895 L216.83758,287.17739 L216.83758,300.46584 C216.83758,301.018125 217.285295,301.46584 217.83758,301.46584 C218.389865,301.46584 218.83758,301.018125 218.83758,300.46584 L218.83758,287.17348 L223.87029,292.58932 C224.246949,292.992466 224.878817,293.014771 225.282966,292.639188 C225.687115,292.263605 225.711104,291.631799 225.3366,291.22665 L225.3366,291.22665 Z" id="Path" fill="#FFFFFF"></path>
                    <path d="M225.3366,155.44906 L218.96013,148.59097 C218.670607,148.279519 218.264557,148.10253 217.839321,148.10253 C217.414086,148.10253 217.008006,148.279379 216.71843,148.59078 L210.34099,155.44906 C210.096751,155.710775 210.010906,156.083017 210.115863,156.425262 C210.220819,156.767507 210.50059,157.027625 210.849561,157.107419 C211.198531,157.187214 211.563546,157.074532 211.80681,156.81191 L216.83758,151.39981 L216.83758,164.68827 C216.83758,165.240555 217.285295,165.68827 217.83758,165.68827 C218.389865,165.68827 218.83758,165.240555 218.83758,164.68827 L218.83758,151.3959 L223.87029,156.81173 C224.246949,157.214876 224.878817,157.237181 225.282966,156.861598 C225.687115,156.486015 225.711104,155.854209 225.3366,155.44906 L225.3366,155.44906 Z" id="Path" fill="#FFFFFF"></path>
                    <path d="M207,476.68454 L1,476.68454 C0.44771525,476.68454 -2.84217094e-14,476.236825 -2.84217094e-14,475.68454 C-2.84217094e-14,475.132255 0.44771525,474.68454 1,474.68454 L207,474.68454 C207.552285,474.68454 208,475.132255 208,475.68454 C208,476.236825 207.552285,476.68454 207,476.68454 Z" id="Path" fill="#CCCCCC"></path>
                </g>
                <text id="Want-to-collaborate" font-family="Chalkboard" font-size="32" font-weight="normal" fill="#3F3D56">
                    <tspan x="225" y="97">Want to collaborate ?</tspan>
                </text>
                <rect id="Rectangle" stroke="#3F3D56" fill="#FCE48D" x="226.5" y="290.5" width="194" height="37" rx="5"></rect>
                <text id="Get-In-Touch" font-family="Chalkboard" font-size="22" font-weight="normal" fill="#3F3D56">
                    <tspan x="259" y="317">Get In Touch</tspan>
                </text>
                <text id="Name" font-family="Chalkboard" font-size="20" font-weight="normal" fill="#CACACA">
                    <tspan x="225" y="148">Name</tspan>
                </text>
                <text id="Or-find-me-here" font-family="Chalkboard" font-size="16" font-weight="normal" fill="#CACACA">
                    <tspan x="225" y="392">Or find me here </tspan>
                </text>
                <line x1="225.602503" y1="161" x2="547" y2="162" id="Path-22" stroke="#C4C4C4"></line>
                <text id="Write-anything-to-me" font-family="Chalkboard" font-size="20" font-weight="normal" fill="#CACACA">
                    <tspan x="225" y="231">Write anything to me…</tspan>
                </text>
                <line x1="225.602503" y1="244" x2="547" y2="245" id="Path-22" stroke="#C4C4C4"></line>
                <text id="LinkedIn" font-family="Chalkboard-Bold, Chalkboard" font-size="16" font-weight="bold" fill="#3F3D56">
                    <tspan x="362" y="391">LinkedIn</tspan>
                </text>
                <text id="Behance" font-family="Chalkboard-Bold, Chalkboard" font-size="16" font-weight="bold" fill="#3F3D56">
                    <tspan x="449" y="391">Behance</tspan>
                </text>
            </g>
            <g id="lovelygirl" transform="translate(0.000000, 181.000000)">
                <path d="M95.8996872,147.714248 C90.4463921,150.631295 85.6005527,130.253444 85.6005527,130.253444 L85.3934656,127.39861 L85,122 L91.6613034,122.850229 C91.5612113,124.016357 91.5612113,125.188705 91.6613034,126.354832 C91.7786528,127.737319 92.1168952,129.182017 92.9107293,129.762662 C94.6847759,131.103673 101.346079,144.804114 95.8996872,147.714248 Z" id="Path" fill="#EDDFE1" fill-rule="nonzero"></path>
                <path d="M2.10033658,149.714248 C7.55365427,152.631295 12.3994448,132.253444 12.3994448,132.253444 L12.6065328,129.39861 L13,124 L6.33873792,124.850229 C6.43931367,126.016357 6.43931367,127.188705 6.33873792,128.354832 C6.22138805,129.737319 5.88314429,131.182017 5.08930691,131.762662 C3.31525292,133.103673 -3.3461127,146.804114 2.10033658,149.714248 Z" id="Path" fill="#EDDFE1" fill-rule="nonzero"></path>
                <path d="M57,173 L57,186.850071 C57,187.451112 57,188.049402 57,188.644941 C57.1430231,193.819119 57.6058386,198.979543 58.3858826,204.09733 C58.5714522,205.34755 58.6017338,206.61565 58.4759649,207.872746 C57.990906,212.583421 59.1689062,230.566508 59.1689062,230.566508 L61.2477994,253.858559 C61.2477994,253.858559 60.0351521,266.525804 60.5548581,268.300043 C60.6927534,269.027619 60.7364087,269.769636 60.6865169,270.507527 C60.6172228,272.570597 60.2568933,275.218202 60.1390933,276.009045 L60.1390933,276.249737 L60.2153168,276.304752 L70.3807655,284 C68.7592829,282.535221 68.3435181,279.12428 68.3504475,275.960907 C68.3504475,275.617062 68.3504475,275.273217 68.3504475,274.929372 C68.3504475,271.972307 68.2347263,269.015241 68.0039769,266.058175 C67.671365,261.196208 69.6254595,253.748529 71.0529185,249.1135 C72.8753541,243.206245 74.7047191,208.691097 73.7276719,206.882473 C72.7506246,205.073849 71.5934127,200.067468 72.8060599,197.412986 C73.5197895,195.796915 72.3896022,190.97621 72.805367,186.850071 C73.0686847,184.346881 73.7276719,180.908432 73.7276719,180.908432 L57,173 Z" id="Path" fill="#EDDFE1" fill-rule="nonzero"></path>
                <path d="M25,175 L25,188.852646 C25,189.70554 25,190.565312 25,191.418205 C25.1554192,196.334725 25.5947512,201.238177 26.3156101,206.103111 C26.4982958,207.353563 26.5280164,208.621899 26.4042263,209.879229 C25.927062,214.59078 27.0858896,232.577209 27.0858896,232.577209 L29.1308793,255.87359 C29.1308793,255.87359 27.931152,268.54319 28.4083163,270.317759 C28.5468984,271.042719 28.5904567,271.782811 28.5378323,272.518776 C28.469666,274.582228 28.1083845,277.271595 27.9993183,278.021316 C27.9993183,278.172636 27.9652352,278.248296 27.9652352,278.248296 L28.0402181,278.303321 L38.0538514,286 C36.5064758,284.500558 36.1042945,281.130252 36.1111111,278.00756 C36.1111111,277.663651 36.1111111,277.319742 36.1111111,276.968955 C36.1111111,274.01134 35.9747785,271.053724 35.7770961,268.096109 C35.4567144,263.233238 37.3721881,255.791052 38.7764145,251.155162 C40.5760055,245.246809 42.3687798,210.725245 41.4076346,208.916285 C40.4464894,207.107324 41.530334,202.395774 42.7232447,199.740798 C43.1526926,198.805366 43.5616905,196.52869 43.9161554,193.997521 C44.5501022,189.4029 45,183.93475 45,183.93475 L25,175 Z" id="Path" fill="#EDDFE1" fill-rule="nonzero"></path>
                <path d="M60.1966602,281.27447 C61.2846624,283.71253 61.8328642,286.347661 61.8069594,289.006742 C61.7607508,291.19299 62.3299566,293.349131 63.4522652,295.240458 C63.6090943,295.508693 63.7897279,295.762558 63.9913654,296 C63.9913654,296 69.375366,295.958944 71.258716,294.433017 C71.4722556,294.278372 71.6486884,294.079933 71.7768122,293.851386 C72.8550126,291.750672 69.6764219,283.703635 69.6764219,283.703635 C68.0101122,277.497289 64.6214825,274.185413 64.6214825,274.185413 C58.5792196,272.638959 60.1966602,281.27447 60.1966602,281.27447 Z" id="Path" fill="#656181" fill-rule="nonzero"></path>
                <path d="M66,295.256911 C66.1412556,295.519335 66.3026009,295.767701 66.4834081,296 C66.4834081,296 71.3112108,295.959833 73,294.466961 C72.1713004,291.534773 69.5156951,282.664569 68.2789238,284.17083 C67.0421525,285.677091 66.2950673,292.425141 66,295.256911 Z" id="Path" fill="#000000" fill-rule="nonzero" opacity="0.1"></path>
                <path d="M66.632921,284.724881 L67,298 L65.213087,298 C65.213087,298 64.9291202,286.355862 64.1257019,284.724881 C63.3222836,283.093899 66.632921,284.724881 66.632921,284.724881 Z" id="Path" fill="#656181" fill-rule="nonzero"></path>
                <path d="M27.1954345,277.276122 C28.2899367,279.71254 28.8416376,282.347376 28.8141682,285.007526 C28.7679186,287.19353 29.3375587,289.349428 30.4609318,291.240543 C30.6202825,291.50738 30.8007257,291.761216 31.0005097,292 C31.0005097,292 36.389281,291.958948 38.2742999,290.433193 C38.4819322,290.273092 38.6536862,290.072622 38.7788402,289.844785 C39.8509885,287.744307 36.6765887,279.698172 36.6765887,279.698172 C35.0088026,273.492523 31.6171702,270.181019 31.6171702,270.181019 C25.5837084,268.655264 27.1954345,277.276122 27.1954345,277.276122 Z" id="Path" fill="#656181" fill-rule="nonzero"></path>
                <path d="M31,292.257319 C31.1427623,292.518261 31.3044215,292.76649 31.4834081,293 C31.4834081,293 36.3112108,292.959855 38,291.467801 C37.1713004,288.53722 34.5156951,279.665188 33.2789238,281.170623 C32.0421525,282.676058 31.2950673,289.407027 31,292.257319 Z" id="Path" fill="#000000" fill-rule="nonzero" opacity="0.1"></path>
                <path d="M31.6259625,281.725227 L32,295 L30.2132629,295 C30.2132629,295 29.9292548,283.356987 29.1259156,281.725227 C28.3225765,280.093466 31.6259625,281.725227 31.6259625,281.725227 Z" id="Path" fill="#656181" fill-rule="nonzero"></path>
                <path d="M43.9998616,36 C34.6111428,36 27,28.3888676 27,19 C27,9.61114628 34.6111428,2 43.9998616,2 C53.3886496,2 61,9.61114628 61,19 C61,28.3888676 53.3886496,36 43.9998616,36 Z" id="Path" fill="#EDDFE1" fill-rule="nonzero"></path>
                <path d="M63.2758975,96 L69.1253425,86.8169595 L72.4112293,71.7399468 C73.2414688,68.006343 73.1929089,64.1261618 72.2702707,60.4153406 C71.3469581,56.704588 69.5758705,53.2680502 67.0999899,50.385775 C64.6915535,47.5179105 61.651164,45.2699115 58.226207,43.8250683 C54.8014524,42.3802937 51.0895873,41.7795738 47.3932345,42.0720422 C47.1546165,42.0907761 46.9152566,42.1110883 46.6754247,42.1329788 C43.5172099,42.4222906 40.4485613,43.3555543 37.652455,44.8772545 C34.8562814,46.3990233 32.3898429,48.4779369 30.4002358,50.9902691 C28.3690155,53.5166003 26.8586001,56.4332553 25.958893,59.5662078 C25.0592534,62.699229 24.7888691,65.9844546 25.1637246,69.2263108 L31.9140908,95.3137767 L63.2758975,96 Z" id="Path" fill="url(#linearGradient-1)" fill-rule="nonzero"></path>
                <path d="M81.4882906,130.902742 C81.9159355,130.902742 82.2302613,130.431742 82.6208077,130.254174 L89.7167456,127.022992 C90.4000332,126.713106 91.6391242,125.769735 91.9433322,125.075233 C92.2475402,124.381417 96.2197815,118.942638 95.9904451,118.219341 L74.8618178,82.5687012 L74.8618178,57.3643159 C74.6979097,56.3582823 73.9309818,54.6355337 73.3940648,53.7741594 C72.8571479,52.9127851 71.8581855,51.9546741 71.033249,51.3745971 C70.207638,50.79452 69.9796506,51.364656 68.9975512,51.1578823 C68.0154518,50.9511772 67.0016501,50.9474064 66.0182016,51.1467758 C65.0340787,51.3461451 64.0998701,51.7446781 63.270212,52.3185849 C62.4412284,52.8924916 61.7343326,53.6300485 61.1906705,54.4873778 C60.6476828,55.3447757 60.2800701,56.304395 60.1094168,57.3091945 C59.938089,58.3139941 59.9684424,59.3434749 60.1971043,60.3363452 L67.3233955,85.9966474 L77.4411777,126.446412 C77.6307175,127.079211 77.9531375,131.537597 78.4765641,131.931126 C78.9993162,132.324654 80.83738,130.903427 81.4882906,130.902742 Z" id="Path" fill="url(#linearGradient-2)" fill-rule="nonzero" opacity="0.99"></path>
                <path d="M13.3159669,130.520513 C13.975788,130.520513 14.5110333,131.29314 15.041353,130.899628 C15.2762069,132.227559 18.2697221,132.217961 18.4618878,131.585189 L25.8744602,89.7659968 L34.8003457,60.3361861 C35.0321895,59.3433574 35.0624955,58.3139197 34.8892796,57.3090936 C34.7161321,56.3043361 34.3429518,55.3446885 33.7921773,54.4873265 C33.2413344,53.6299646 32.5240482,52.8924385 31.6830071,52.3185558 C30.841966,51.7446731 29.8943411,51.3461568 28.8964343,51.1467958 C27.8985959,50.9473662 26.870862,50.9512054 25.8744602,51.1579019 C24.8781269,51.3646669 23.9333752,51.770176 23.0965756,52.3502287 C22.2597075,52.9302815 21.5478942,53.6730863 21.0034135,54.5344931 C20.4588644,55.3958999 20.0927988,56.3582212 19.9270396,57.3642813 L18.4618878,87.3665349 L1.01716053,124.386803 C0.784085288,125.110069 2.99696604,124.766604 3.3056351,125.461076 C3.61430416,126.154864 4.16802032,126.710168 4.86047338,127.020041 L12.0578258,130.251088 C12.4536501,130.428648 12.8823799,130.520513 13.3159669,130.520513 Z" id="Path" fill="url(#linearGradient-3)" fill-rule="nonzero" opacity="0.9"></path>
                <polygon id="Path" fill="#CBD5EB" fill-rule="nonzero" opacity="0.8" points="75 88 94.3220339 121.902913 95 122.601942 93.9830508 124"></polygon>
                <polygon id="Path" fill="#CBD4EB" fill-rule="nonzero" opacity="0.8" points="75 89 92.3620546 122.990773 93 123.708645 91.897723 125"></polygon>
                <polygon id="Path" fill-opacity="0.58" fill="#B7C9E6" fill-rule="nonzero" opacity="0.9" points="78 90 92.5030796 125.30052 93 125.976767 91.6801584 127"></polygon>
                <polygon id="Path" fill="#CBD4EB" fill-rule="nonzero" opacity="0.9" points="18 89 8.65144474 127.003632 8.30745367 129 7 128.301481"></polygon>
                <polygon id="Path" fill="#CBD4EB" fill-rule="nonzero" opacity="0.9" points="18 90 10.6819854 127.983427 10.5068177 130 9 129.444328"></polygon>
                <polygon id="Path" fill="#CBD4EB" fill-rule="nonzero" opacity="0.9" points="18 90 6.74013714 126.125246 6.15891546 128 5 127.135095"></polygon>
                <path d="M66,51 L34,92.9761905 M63.2766073,94 L35.3616963,62.2619048" id="Shape" stroke="#D7C4DA" stroke-width="3" stroke-linejoin="round"></path>
                <path d="M59.1153823,8.30361382 C57.2253073,3.52857083 53.7269498,-1.58082529 49.0434445,0.462498492 L47.3281261,0.462498492 C44.9266804,0.462498492 38.4864146,1.25017504 35.3208975,3.91770277 C31.4381028,8.57740415 29.3694288,9.44604234 26.7445801,19.8116531 C25.1711528,26.0249384 25.7133306,29.8317435 25.7133306,40.2726086 C25.9648649,42.7425955 25.7133306,43.9980782 25.1381501,49.526404 C24.0000707,53.6726483 23.0554105,55.1646743 21.2552868,58.8857212 C20.0546326,61.3678704 19.1664407,61.4715956 21.2552868,63.2595944 C23.3442015,65.0475931 22.7517992,65.0526377 25.440252,65.5927551 C38.9702716,68.2916838 43.5547001,56.7823315 53.8463359,54.363689 C62.4234081,54.363689 69.5879499,54.0495419 71,52.9816076 C70.455901,49.6456776 66.9099949,47.2334618 65.1095967,44.3802929 C63.4738691,41.7876463 61.814127,38.6259968 61.0504673,37.0876711 C60.0214821,33.9779878 52.5737069,29.2287414 52.4743557,26.0310196 C52.3749358,22.8332977 58.6357107,20.8911278 59.2842383,17.7592622 C59.9328344,14.6273274 60.2917477,11.2754344 59.1153823,8.30361382 Z" id="Path" fill="#72708B" fill-rule="nonzero"></path>
                <path d="M40.2695263,258.077594 L33.3605753,258.077594 C33.3605753,258.077594 28.4267119,258.614699 27.8524176,258.077594 C27.2781921,257.540488 22.0500554,258.860644 22,258.077594 L26.1720852,235.650002 C22.8584464,182.619028 19.4319592,127.781487 30.7210661,103.234931 L32.3282088,94 L65.0327575,94 L68.2212923,103.848081 C78.5614813,123.808 78.2151559,174.75769 77.8805353,224.030294 L77.8805353,224.030294 C77.8426667,229.563032 77.903945,237.340789 77.8805353,242.832422 C77.8750272,243.646301 75.9499261,257.160951 75.3701925,257.735052 C74.7897703,258.309837 76.0490729,262.530639 64.6884976,257.735052 L64.280894,257.870698 C61.8524849,258.675672 59.2394838,258.747606 56.7702455,258.077594 L47.8194892,258.077594 L44.0326308,258.077594 C43.9643297,258.846943 41.6228118,256.022342 40.2695263,242.832422 C41.7282242,257.049968 41.8311579,256.325834 40.2695263,258.077594 Z" id="Path" fill="url(#linearGradient-4)" fill-rule="nonzero"></path>
                <path d="M60.5081688,94.7790634 C61.2923913,95.8831956 62.9193317,96 62.9193317,96 C62.9193317,96 63.2754459,94.3250689 62.4912233,93.2209366 C61.7076436,92.1168044 60.0807675,92 60.0807675,92 C60.0807675,92 59.724589,93.6749311 60.5081688,94.7790634 Z" id="Path" fill="#C4C1DC" fill-rule="nonzero"></path>
                <path d="M63.660862,95.3895603 C63.1388582,95.9418874 62.0537073,96 62.0537073,96 C62.0537073,96 61.8164912,95.1627668 62.339138,94.6104397 C62.8617847,94.0581126 63.9462927,94 63.9462927,94 C63.9462927,94 64.1835088,94.8372332 63.660862,95.3895603 Z" id="Path" fill="#C4C1DC" fill-rule="nonzero"></path>
                <path d="M55.5083804,94.7790634 C56.2922142,95.8831956 57.9192172,96 57.9192172,96 C57.9192172,96 58.2754877,94.3250689 57.491654,93.2209366 C56.7078203,92.1168044 55.080753,92 55.080753,92 C55.080753,92 54.7245467,93.6749311 55.5083804,94.7790634 Z" id="Path" fill="#C4C1DC" fill-rule="nonzero"></path>
                <path d="M58.6611161,95.3895603 C58.1385361,95.9418874 57.0538402,96 57.0538402,96 C57.0538402,96 56.8163681,95.1627668 57.3388839,94.6104397 C57.8614639,94.0581126 58.9461598,94 58.9461598,94 C58.9461598,94 59.1836319,94.8372332 58.6611161,95.3895603 Z" id="Path" fill="#C4C1DC" fill-rule="nonzero"></path>
                <path d="M50.5083804,94.7790634 C51.2922142,95.8831956 52.9192172,96 52.9192172,96 C52.9192172,96 53.2754877,94.3250689 52.491654,93.2209366 C51.7078203,92.1168044 50.080753,92 50.080753,92 C50.080753,92 49.7245467,93.6749311 50.5083804,94.7790634 Z" id="Path" fill="#C4C1DC" fill-rule="nonzero"></path>
                <path d="M54.6611161,95.3895603 C54.1385361,95.9418874 53.0538402,96 53.0538402,96 C53.0538402,96 52.8163681,95.1627668 53.3388839,94.6104397 C53.8614639,94.0581126 54.9461598,94 54.9461598,94 C54.9461598,94 55.1836319,94.8372332 54.6611161,95.3895603 Z" id="Path" fill="#C4C1DC" fill-rule="nonzero"></path>
                <path d="M46.5083804,94.7790634 C47.2922142,95.8831956 48.9192172,96 48.9192172,96 C48.9192172,96 49.2754877,94.3250689 48.491654,93.2209366 C47.7078203,92.1168044 46.080753,92 46.080753,92 C46.080753,92 45.7245467,93.6749311 46.5083804,94.7790634 Z" id="Path" fill="#C4C1DC" fill-rule="nonzero"></path>
                <path d="M50.6611161,95.3895603 C50.1385361,95.9418874 49.0538402,96 49.0538402,96 C49.0538402,96 48.8163681,95.1627668 49.3388839,94.6104397 C49.8614639,94.0581126 50.9461598,94 50.9461598,94 C50.9461598,94 51.1836319,94.8372332 50.6611161,95.3895603 Z" id="Path" fill="#C4C1DC" fill-rule="nonzero"></path>
                <path d="M41.5083804,94.7790634 C42.2922142,95.8831956 43.9192172,96 43.9192172,96 C43.9192172,96 44.2754877,94.3250689 43.491654,93.2209366 C42.7078203,92.1168044 41.080753,92 41.080753,92 C41.080753,92 40.7245467,93.6749311 41.5083804,94.7790634 Z" id="Path" fill="#C4C1DC" fill-rule="nonzero"></path>
                <path d="M44.6611161,95.3895603 C44.1385361,95.9418874 43.0538402,96 43.0538402,96 C43.0538402,96 42.8163681,95.1627668 43.3388839,94.6104397 C43.8614639,94.0581126 44.9461598,94 44.9461598,94 C44.9461598,94 45.1836319,94.8372332 44.6611161,95.3895603 Z" id="Path" fill="#C4C1DC" fill-rule="nonzero"></path>
                <path d="M36.5083804,94.7790634 C37.2922142,95.8831956 38.9192172,96 38.9192172,96 C38.9192172,96 39.2754877,94.3250689 38.491654,93.2209366 C37.7078203,92.1168044 36.080753,92 36.080753,92 C36.080753,92 35.7245467,93.6749311 36.5083804,94.7790634 Z" id="Path" fill="#C4C1DC" fill-rule="nonzero"></path>
                <path d="M40.6611161,94.3895603 C40.1385361,94.9418874 39.0538402,95 39.0538402,95 C39.0538402,95 38.8163681,94.1627668 39.3388839,93.6104397 C39.8614639,93.0581126 40.9461598,93 40.9461598,93 C40.9461598,93 41.1836319,93.8372332 40.6611161,94.3895603 Z" id="Path" fill="#C4C1DC" fill-rule="nonzero"></path>
                <path d="M31.5083804,94.7790634 C32.2922142,95.8831956 33.9192172,96 33.9192172,96 C33.9192172,96 34.2754877,94.3250689 33.491654,93.2209366 C32.7078203,92.1168044 31.080753,92 31.080753,92 C31.080753,92 30.7245467,93.6749311 31.5083804,94.7790634 Z" id="Path" fill="#C4C1DC" fill-rule="nonzero"></path>
                <path d="M35.6611161,95.3895603 C35.1385361,95.9418874 34.0538402,96 34.0538402,96 C34.0538402,96 33.8163681,95.1627668 34.3388839,94.6104397 C34.8614639,94.0581126 35.9461598,94 35.9461598,94 C35.9461598,94 36.1836319,94.8372332 35.6611161,95.3895603 Z" id="Path" fill="#C4C1DC" fill-rule="nonzero"></path>
                <path d="M51.4916196,23.7792227 C50.7077858,24.8837705 49.0807828,25 49.0807828,25 C49.0807828,25 48.7245123,23.3253986 49.508346,22.2208508 C50.2921797,21.1162295 51.919247,21 51.919247,21 C51.919247,21 52.2754533,22.6746014 51.4916196,23.7792227 Z" id="Path" fill="#E6E6E6" fill-rule="nonzero"></path>
                <path d="M47.3388839,24.3895803 C47.8614639,24.9418844 48.9461598,25 48.9461598,25 C48.9461598,25 49.1836319,24.1627237 48.6611161,23.6104197 C48.1385361,23.0581156 47.0538402,23 47.0538402,23 C47.0538402,23 46.8163681,23.8373277 47.3388839,24.3895803 Z" id="Path" fill="#E6E6E6" fill-rule="nonzero"></path>
                <path d="M47.4916196,19.7792227 C46.7077858,20.8837705 45.0807828,21 45.0807828,21 C45.0807828,21 44.7245123,19.3253986 45.508346,18.2208508 C46.2921797,17.1162295 47.919247,17 47.919247,17 C47.919247,17 48.2754533,18.6746014 47.4916196,19.7792227 Z" id="Path" fill="#E6E6E6" fill-rule="nonzero"></path>
                <path d="M43.3388839,20.3895803 C43.8614639,20.9418844 44.9461598,21 44.9461598,21 C44.9461598,21 45.1836319,20.1627237 44.6611161,19.6104197 C44.1385361,19.0581156 43.0538402,19 43.0538402,19 C43.0538402,19 42.8163681,19.8373277 43.3388839,20.3895803 Z" id="Path" fill="#E6E6E6" fill-rule="nonzero"></path>
                <path d="M44.4916196,16.7792227 C43.7077858,17.8837705 42.0807828,18 42.0807828,18 C42.0807828,18 41.7245123,16.3253986 42.508346,15.2208508 C43.2921797,14.1162295 44.919247,14 44.919247,14 C44.919247,14 45.2754533,15.6746014 44.4916196,16.7792227 Z" id="Path" fill="#E6E6E6" fill-rule="nonzero"></path>
                <path d="M40.3388839,16.3895803 C40.8614639,16.9418844 41.9461598,17 41.9461598,17 C41.9461598,17 42.1836319,16.1627237 41.6611161,15.6104197 C41.1385361,15.0581156 40.0538402,15 40.0538402,15 C40.0538402,15 39.8163681,15.8373277 40.3388839,16.3895803 Z" id="Path" fill="#E6E6E6" fill-rule="nonzero"></path>
            </g>
        </g>
    </g>
</svg>