<?xml version="1.0" encoding="UTF-8"?>
<svg width="1440px" height="2151px" viewBox="0 0 1440 2151" version="1.1" xmlns="http://www.w3.org/2000/svg" xmlns:xlink="http://www.w3.org/1999/xlink">
    <title>Artboard</title>
    <defs>
        <linearGradient x1="50%" y1="0%" x2="50%" y2="98.511402%" id="linearGradient-1">
            <stop stop-color="#D7A1A1" offset="0%"></stop>
            <stop stop-color="#FFFFFF" offset="100%"></stop>
        </linearGradient>
    </defs>
    <g id="Artboard" stroke="none" stroke-width="1" fill="none" fill-rule="evenodd">
        <path d="M0,0 L1440,0 L1440,2002 C1013.4511,1966.22251 718.292542,1935.1574 554.52432,1908.80465 C390.756098,1882.4519 205.914658,1815.47347 0,1707.86937 L0,0 Z" id="Rectangle" fill="#DFE6EB"></path>
        <line x1="1303" y1="626" x2="1303" y2="2128" id="Path-50" stroke="url(#linearGradient-1)" stroke-width="4" stroke-linecap="round" stroke-dasharray="10,17"></line>
        <path d="M445,1031 C601.296584,1031 876,676.504865 876,509.040948 C876,341.577032 601.296584,424.559512 445,424.559512 C288.703416,424.559512 162,560.31584 162,727.779756 C162,895.243673 288.703416,1031 445,1031 Z" id="Oval" fill="#B7C9E6" opacity="0.136416481"></path>
        <g id="DOTS-TRIN" opacity="0.618350074" transform="translate(693.500000, 751.500000) scale(-1, 1) translate(-693.500000, -751.500000) translate(580.000000, 614.000000)">
            <circle id="Oval" fill="#D7A1A1" cx="192" cy="34" r="3"></circle>
            <circle id="Oval" fill="#D7A1A1" cx="132" cy="34" r="3"></circle>
            <circle id="Oval" fill="#EBAF9A" cx="99" cy="34" r="3"></circle>
            <circle id="Oval" fill="#EBAF9A" cx="68" cy="34" r="3"></circle>
            <circle id="Oval" fill="#EBAF9A" cx="36" cy="34" r="3"></circle>
            <circle id="Oval" fill-opacity="0.753769668" fill="#D7A1A1" cx="4" cy="3" r="3"></circle>
            <circle id="Oval" fill-opacity="0.753769668" fill="#D7A1A1" cx="36" cy="3" r="3"></circle>
            <circle id="Oval" fill-opacity="0.753769668" fill="#D7A1A1" cx="224" cy="3" r="3"></circle>
            <circle id="Oval" fill-opacity="0.753769668" fill="#D7A1A1" cx="193" cy="3" r="3"></circle>
            <circle id="Oval" fill-opacity="0.753769668" fill="#D7A1A1" cx="164" cy="3" r="3"></circle>
            <circle id="Oval" fill-opacity="0.753769668" fill="#D7A1A1" cx="132" cy="3" r="3"></circle>
            <circle id="Oval" fill-opacity="0.753769668" fill="#D7A1A1" cx="99" cy="3" r="3"></circle>
            <circle id="Oval" fill-opacity="0.753769668" fill="#D7A1A1" cx="68" cy="3" r="3"></circle>
            <circle id="Oval" fill="#D7A1A1" cx="164" cy="34" r="3"></circle>
            <circle id="Oval" fill="#EBAF9A" cx="36" cy="75" r="3"></circle>
            <circle id="Oval" fill="#EBAF9A" cx="70" cy="75" r="3"></circle>
            <circle id="Oval" fill="#EBAF9A" cx="100" cy="75" r="3"></circle>
            <circle id="Oval" fill="#EBAF9A" cx="132" cy="75" r="3"></circle>
            <circle id="Oval" fill="#EBAF9A" cx="164" cy="75" r="3"></circle>
            <circle id="Oval" fill="#D7A1A1" cx="164" cy="75" r="3"></circle>
            <circle id="Oval" fill="#D7A1A1" opacity="0.700265067" cx="37" cy="109" r="4"></circle>
            <circle id="Oval" fill="#D7A1A1" opacity="0.700265067" cx="71" cy="109" r="4"></circle>
            <circle id="Oval" fill="#D7A1A1" opacity="0.700265067" cx="102" cy="109" r="4"></circle>
            <circle id="Oval" fill="#D7A1A1" opacity="0.700265067" cx="132" cy="109" r="4"></circle>
            <circle id="Oval" fill-opacity="0.615002185" fill="#EBAF9A" cx="69" cy="184" r="4"></circle>
            <circle id="Oval" fill-opacity="0.615002185" fill="#EBAF9A" cx="71" cy="147" r="4"></circle>
            <circle id="Oval" fill-opacity="0.615002185" fill="#EBAF9A" cx="71" cy="147" r="4"></circle>
            <circle id="Oval" fill-opacity="0.615002185" fill="#EBAF9A" cx="103" cy="146" r="3"></circle>
            <circle id="Oval" fill-opacity="0.615002185" fill="#EBAF9A" cx="38" cy="147" r="4"></circle>
            <circle id="Oval" fill-opacity="0.615002185" fill="#EBAF9A" cx="5" cy="147" r="4"></circle>
            <circle id="Oval" fill-opacity="0.615002185" fill="#EBAF9A" cx="5" cy="109" r="4"></circle>
            <circle id="Oval" fill-opacity="0.615002185" fill="#EBAF9A" cx="4" cy="75" r="3"></circle>
            <circle id="Oval" fill-opacity="0.615002185" fill="#EBAF9A" cx="4" cy="34" r="3"></circle>
            <circle id="Oval" fill-opacity="0.61557583" fill="#EBAF9A" cx="37" cy="184" r="4"></circle>
            <circle id="Oval" fill-opacity="0.61557583" fill="#EBAF9A" cx="5" cy="184" r="4"></circle>
            <circle id="Oval" fill-opacity="0.655184659" fill="#D7A1A1" cx="36" cy="228" r="4"></circle>
            <circle id="Oval" fill-opacity="0.614701705" fill="#D7A1A1" cx="4.5" cy="270.5" r="4.5"></circle>
            <circle id="Oval" fill-opacity="0.541985358" fill="#D7A1A1" cx="4" cy="228" r="4"></circle>
        </g>
        <g id="DOTS-TRIN" opacity="0.618350074" transform="translate(606.500000, 1369.500000) scale(-1, 1) translate(-606.500000, -1369.500000) translate(493.000000, 1232.000000)">
            <circle id="Oval" fill="#D7A1A1" cx="192" cy="34" r="3"></circle>
            <circle id="Oval" fill="#D7A1A1" cx="132" cy="34" r="3"></circle>
            <circle id="Oval" fill="#EBAF9A" cx="99" cy="34" r="3"></circle>
            <circle id="Oval" fill="#EBAF9A" cx="68" cy="34" r="3"></circle>
            <circle id="Oval" fill="#EBAF9A" cx="36" cy="34" r="3"></circle>
            <circle id="Oval" fill-opacity="0.753769668" fill="#D7A1A1" cx="4" cy="3" r="3"></circle>
            <circle id="Oval" fill-opacity="0.753769668" fill="#D7A1A1" cx="36" cy="3" r="3"></circle>
            <circle id="Oval" fill-opacity="0.753769668" fill="#D7A1A1" cx="224" cy="3" r="3"></circle>
            <circle id="Oval" fill-opacity="0.753769668" fill="#D7A1A1" cx="193" cy="3" r="3"></circle>
            <circle id="Oval" fill-opacity="0.753769668" fill="#D7A1A1" cx="164" cy="3" r="3"></circle>
            <circle id="Oval" fill-opacity="0.753769668" fill="#D7A1A1" cx="132" cy="3" r="3"></circle>
            <circle id="Oval" fill-opacity="0.753769668" fill="#D7A1A1" cx="99" cy="3" r="3"></circle>
            <circle id="Oval" fill-opacity="0.753769668" fill="#D7A1A1" cx="68" cy="3" r="3"></circle>
            <circle id="Oval" fill="#D7A1A1" cx="164" cy="34" r="3"></circle>
            <circle id="Oval" fill="#EBAF9A" cx="36" cy="75" r="3"></circle>
            <circle id="Oval" fill="#EBAF9A" cx="70" cy="75" r="3"></circle>
            <circle id="Oval" fill="#EBAF9A" cx="100" cy="75" r="3"></circle>
            <circle id="Oval" fill="#EBAF9A" cx="132" cy="75" r="3"></circle>
            <circle id="Oval" fill="#EBAF9A" cx="164" cy="75" r="3"></circle>
            <circle id="Oval" fill="#D7A1A1" cx="164" cy="75" r="3"></circle>
            <circle id="Oval" fill="#D7A1A1" opacity="0.700265067" cx="37" cy="109" r="4"></circle>
            <circle id="Oval" fill="#D7A1A1" opacity="0.700265067" cx="71" cy="109" r="4"></circle>
            <circle id="Oval" fill="#D7A1A1" opacity="0.700265067" cx="102" cy="109" r="4"></circle>
            <circle id="Oval" fill="#D7A1A1" opacity="0.700265067" cx="132" cy="109" r="4"></circle>
            <circle id="Oval" fill-opacity="0.615002185" fill="#EBAF9A" cx="69" cy="184" r="4"></circle>
            <circle id="Oval" fill-opacity="0.615002185" fill="#EBAF9A" cx="71" cy="147" r="4"></circle>
            <circle id="Oval" fill-opacity="0.615002185" fill="#EBAF9A" cx="71" cy="147" r="4"></circle>
            <circle id="Oval" fill-opacity="0.615002185" fill="#EBAF9A" cx="103" cy="146" r="3"></circle>
            <circle id="Oval" fill-opacity="0.615002185" fill="#EBAF9A" cx="38" cy="147" r="4"></circle>
            <circle id="Oval" fill-opacity="0.615002185" fill="#EBAF9A" cx="5" cy="147" r="4"></circle>
            <circle id="Oval" fill-opacity="0.615002185" fill="#EBAF9A" cx="5" cy="109" r="4"></circle>
            <circle id="Oval" fill-opacity="0.615002185" fill="#EBAF9A" cx="4" cy="75" r="3"></circle>
            <circle id="Oval" fill-opacity="0.615002185" fill="#EBAF9A" cx="4" cy="34" r="3"></circle>
            <circle id="Oval" fill-opacity="0.61557583" fill="#EBAF9A" cx="37" cy="184" r="4"></circle>
            <circle id="Oval" fill-opacity="0.61557583" fill="#EBAF9A" cx="5" cy="184" r="4"></circle>
            <circle id="Oval" fill-opacity="0.655184659" fill="#D7A1A1" cx="36" cy="228" r="4"></circle>
            <circle id="Oval" fill-opacity="0.614701705" fill="#D7A1A1" cx="4.5" cy="270.5" r="4.5"></circle>
            <circle id="Oval" fill-opacity="0.541985358" fill="#D7A1A1" cx="4" cy="228" r="4"></circle>
        </g>
        <g id="Group" transform="translate(161.500000, 1634.000000) scale(-1, -1) rotate(180.000000) translate(-161.500000, -1634.000000) translate(87.000000, 1544.000000)" fill="#FFFFFF">
            <circle id="Oval" cx="127" cy="22" r="2"></circle>
            <circle id="Oval" cx="87" cy="22" r="2"></circle>
            <circle id="Oval" cx="67" cy="22" r="2"></circle>
            <circle id="Oval" cx="45" cy="22" r="2"></circle>
            <circle id="Oval" cx="24" cy="22" r="2"></circle>
            <circle id="Oval" cx="3" cy="22" r="2"></circle>
            <circle id="Oval" cx="3" cy="2" r="2"></circle>
            <circle id="Oval" cx="24" cy="2" r="2"></circle>
            <circle id="Oval" cx="45" cy="2" r="2"></circle>
            <circle id="Oval" cx="66" cy="2" r="2"></circle>
            <circle id="Oval" cx="87" cy="2" r="2"></circle>
            <circle id="Oval" cx="108" cy="2" r="2"></circle>
            <circle id="Oval" cx="127" cy="2" r="2"></circle>
            <circle id="Oval" cx="147" cy="2" r="2"></circle>
            <circle id="Oval" cx="108" cy="22" r="2"></circle>
            <circle id="Oval" cx="87.5" cy="49.5" r="2.5"></circle>
            <circle id="Oval" cx="66.5" cy="49.5" r="2.5"></circle>
            <circle id="Oval" cx="45.5" cy="49.5" r="2.5"></circle>
            <circle id="Oval" cx="24.5" cy="49.5" r="2.5"></circle>
            <circle id="Oval" cx="3.5" cy="49.5" r="2.5"></circle>
            <circle id="Oval" cx="108.5" cy="49.5" r="2.5"></circle>
            <circle id="Oval" cx="87.5" cy="71.5" r="2.5"></circle>
            <circle id="Oval" cx="66.5" cy="71.5" r="2.5"></circle>
            <circle id="Oval" cx="45.5" cy="71.5" r="2.5"></circle>
            <circle id="Oval" cx="24.5" cy="71.5" r="2.5"></circle>
            <circle id="Oval" cx="3.5" cy="71.5" r="2.5"></circle>
            <circle id="Oval" cx="45.5" cy="96.5" r="2.5"></circle>
            <circle id="Oval" cx="65.5" cy="96.5" r="2.5"></circle>
            <circle id="Oval" cx="24.5" cy="96.5" r="2.5"></circle>
            <circle id="Oval" cx="3.5" cy="96.5" r="2.5"></circle>
            <circle id="Oval" cx="45.5" cy="121.5" r="2.5"></circle>
            <circle id="Oval" cx="24.5" cy="121.5" r="2.5"></circle>
            <circle id="Oval" cx="3.5" cy="121.5" r="2.5"></circle>
            <circle id="Oval" cx="23.5" cy="149.5" r="2.5"></circle>
            <circle id="Oval" cx="2.5" cy="177.5" r="2.5"></circle>
            <circle id="Oval" cx="2.5" cy="149.5" r="2.5"></circle>
        </g>
        <path d="M439.362745,2128 C633.967316,2128 976,1739.0165 976,1555.26024 C976,1371.50398 633.967316,1462.55972 439.362745,1462.55972 C244.758175,1462.55972 87,1611.5236 87,1795.27986 C87,1979.03612 244.758175,2128 439.362745,2128 Z" id="Oval" fill="#B7C9E6" opacity="0.136416481"></path>
    </g>
</svg>