<?xml version="1.0" encoding="UTF-8"?>
<svg width="1456px" height="1443px" viewBox="0 0 1456 1443" version="1.1" xmlns="http://www.w3.org/2000/svg" xmlns:xlink="http://www.w3.org/1999/xlink">
    <title>bg_02</title>
    <g id="layout_profile-web" stroke="none" stroke-width="1" fill="none" fill-rule="evenodd">
        <g id="bg_02">
            <rect id="Rectangle" fill="#DFE6EB" x="16" y="0" width="1440" height="1443"></rect>
            <g id="DOTS-TRIN" opacity="0.618350074" transform="translate(197.500000, 148.328267) scale(1, -1) translate(-197.500000, -148.328267) translate(84.000000, 10.828267)">
                <circle id="Oval" fill="#D7A1A1" cx="192" cy="34" r="3"></circle>
                <circle id="Oval" fill="#D7A1A1" cx="132" cy="34" r="3"></circle>
                <circle id="Oval" fill="#EBAF9A" cx="99" cy="34" r="3"></circle>
                <circle id="Oval" fill="#EBAF9A" cx="68" cy="34" r="3"></circle>
                <circle id="Oval" fill="#EBAF9A" cx="36" cy="34" r="3"></circle>
                <circle id="Oval" fill-opacity="0.753769668" fill="#D7A1A1" cx="4" cy="3" r="3"></circle>
                <circle id="Oval" fill-opacity="0.753769668" fill="#D7A1A1" cx="36" cy="3" r="3"></circle>
                <circle id="Oval" fill-opacity="0.753769668" fill="#D7A1A1" cx="224" cy="3" r="3"></circle>
                <circle id="Oval" fill-opacity="0.753769668" fill="#D7A1A1" cx="193" cy="3" r="3"></circle>
                <circle id="Oval" fill-opacity="0.753769668" fill="#D7A1A1" cx="164" cy="3" r="3"></circle>
                <circle id="Oval" fill-opacity="0.753769668" fill="#D7A1A1" cx="132" cy="3" r="3"></circle>
                <circle id="Oval" fill-opacity="0.753769668" fill="#D7A1A1" cx="99" cy="3" r="3"></circle>
                <circle id="Oval" fill-opacity="0.753769668" fill="#D7A1A1" cx="68" cy="3" r="3"></circle>
                <circle id="Oval" fill="#D7A1A1" cx="164" cy="34" r="3"></circle>
                <circle id="Oval" fill="#EBAF9A" cx="36" cy="75" r="3"></circle>
                <circle id="Oval" fill="#EBAF9A" cx="70" cy="75" r="3"></circle>
                <circle id="Oval" fill="#EBAF9A" cx="100" cy="75" r="3"></circle>
                <circle id="Oval" fill="#EBAF9A" cx="132" cy="75" r="3"></circle>
                <circle id="Oval" fill="#EBAF9A" cx="164" cy="75" r="3"></circle>
                <circle id="Oval" fill="#D7A1A1" cx="164" cy="75" r="3"></circle>
                <circle id="Oval" fill="#D7A1A1" opacity="0.700265067" cx="37" cy="109" r="4"></circle>
                <circle id="Oval" fill="#D7A1A1" opacity="0.700265067" cx="71" cy="109" r="4"></circle>
                <circle id="Oval" fill="#D7A1A1" opacity="0.700265067" cx="102" cy="109" r="4"></circle>
                <circle id="Oval" fill="#D7A1A1" opacity="0.700265067" cx="132" cy="109" r="4"></circle>
                <circle id="Oval" fill-opacity="0.615002185" fill="#EBAF9A" cx="69" cy="184" r="4"></circle>
                <circle id="Oval" fill-opacity="0.615002185" fill="#EBAF9A" cx="71" cy="147" r="4"></circle>
                <circle id="Oval" fill-opacity="0.615002185" fill="#EBAF9A" cx="71" cy="147" r="4"></circle>
                <circle id="Oval" fill-opacity="0.615002185" fill="#EBAF9A" cx="103" cy="146" r="3"></circle>
                <circle id="Oval" fill-opacity="0.615002185" fill="#EBAF9A" cx="38" cy="147" r="4"></circle>
                <circle id="Oval" fill-opacity="0.615002185" fill="#EBAF9A" cx="5" cy="147" r="4"></circle>
                <circle id="Oval" fill-opacity="0.615002185" fill="#EBAF9A" cx="5" cy="109" r="4"></circle>
                <circle id="Oval" fill-opacity="0.615002185" fill="#EBAF9A" cx="4" cy="75" r="3"></circle>
                <circle id="Oval" fill-opacity="0.615002185" fill="#EBAF9A" cx="4" cy="34" r="3"></circle>
                <circle id="Oval" fill-opacity="0.61557583" fill="#EBAF9A" cx="37" cy="184" r="4"></circle>
                <circle id="Oval" fill-opacity="0.61557583" fill="#EBAF9A" cx="5" cy="184" r="4"></circle>
                <circle id="Oval" fill-opacity="0.655184659" fill="#D7A1A1" cx="36" cy="228" r="4"></circle>
                <circle id="Oval" fill-opacity="0.614701705" fill="#D7A1A1" cx="4.5" cy="270.5" r="4.5"></circle>
                <circle id="Oval" fill-opacity="0.541985358" fill="#D7A1A1" cx="4" cy="228" r="4"></circle>
            </g>
            <g id="DOTS-TRIN" opacity="0.618350074" transform="translate(1328.500000, 859.328267) scale(-1, -1) translate(-1328.500000, -859.328267) translate(1215.000000, 721.828267)">
                <circle id="Oval" fill="#D7A1A1" cx="192" cy="34" r="3"></circle>
                <circle id="Oval" fill="#D7A1A1" cx="132" cy="34" r="3"></circle>
                <circle id="Oval" fill="#EBAF9A" cx="99" cy="34" r="3"></circle>
                <circle id="Oval" fill="#EBAF9A" cx="68" cy="34" r="3"></circle>
                <circle id="Oval" fill="#EBAF9A" cx="36" cy="34" r="3"></circle>
                <circle id="Oval" fill-opacity="0.753769668" fill="#D7A1A1" cx="4" cy="3" r="3"></circle>
                <circle id="Oval" fill-opacity="0.753769668" fill="#D7A1A1" cx="36" cy="3" r="3"></circle>
                <circle id="Oval" fill-opacity="0.753769668" fill="#D7A1A1" cx="224" cy="3" r="3"></circle>
                <circle id="Oval" fill-opacity="0.753769668" fill="#D7A1A1" cx="193" cy="3" r="3"></circle>
                <circle id="Oval" fill-opacity="0.753769668" fill="#D7A1A1" cx="164" cy="3" r="3"></circle>
                <circle id="Oval" fill-opacity="0.753769668" fill="#D7A1A1" cx="132" cy="3" r="3"></circle>
                <circle id="Oval" fill-opacity="0.753769668" fill="#D7A1A1" cx="99" cy="3" r="3"></circle>
                <circle id="Oval" fill-opacity="0.753769668" fill="#D7A1A1" cx="68" cy="3" r="3"></circle>
                <circle id="Oval" fill="#D7A1A1" cx="164" cy="34" r="3"></circle>
                <circle id="Oval" fill="#EBAF9A" cx="36" cy="75" r="3"></circle>
                <circle id="Oval" fill="#EBAF9A" cx="70" cy="75" r="3"></circle>
                <circle id="Oval" fill="#EBAF9A" cx="100" cy="75" r="3"></circle>
                <circle id="Oval" fill="#EBAF9A" cx="132" cy="75" r="3"></circle>
                <circle id="Oval" fill="#EBAF9A" cx="164" cy="75" r="3"></circle>
                <circle id="Oval" fill="#D7A1A1" cx="164" cy="75" r="3"></circle>
                <circle id="Oval" fill="#D7A1A1" opacity="0.700265067" cx="37" cy="109" r="4"></circle>
                <circle id="Oval" fill="#D7A1A1" opacity="0.700265067" cx="71" cy="109" r="4"></circle>
                <circle id="Oval" fill="#D7A1A1" opacity="0.700265067" cx="102" cy="109" r="4"></circle>
                <circle id="Oval" fill="#D7A1A1" opacity="0.700265067" cx="132" cy="109" r="4"></circle>
                <circle id="Oval" fill-opacity="0.615002185" fill="#EBAF9A" cx="69" cy="184" r="4"></circle>
                <circle id="Oval" fill-opacity="0.615002185" fill="#EBAF9A" cx="71" cy="147" r="4"></circle>
                <circle id="Oval" fill-opacity="0.615002185" fill="#EBAF9A" cx="71" cy="147" r="4"></circle>
                <circle id="Oval" fill-opacity="0.615002185" fill="#EBAF9A" cx="103" cy="146" r="3"></circle>
                <circle id="Oval" fill-opacity="0.615002185" fill="#EBAF9A" cx="38" cy="147" r="4"></circle>
                <circle id="Oval" fill-opacity="0.615002185" fill="#EBAF9A" cx="5" cy="147" r="4"></circle>
                <circle id="Oval" fill-opacity="0.615002185" fill="#EBAF9A" cx="5" cy="109" r="4"></circle>
                <circle id="Oval" fill-opacity="0.615002185" fill="#EBAF9A" cx="4" cy="75" r="3"></circle>
                <circle id="Oval" fill-opacity="0.615002185" fill="#EBAF9A" cx="4" cy="34" r="3"></circle>
                <circle id="Oval" fill-opacity="0.61557583" fill="#EBAF9A" cx="37" cy="184" r="4"></circle>
                <circle id="Oval" fill-opacity="0.61557583" fill="#EBAF9A" cx="5" cy="184" r="4"></circle>
                <circle id="Oval" fill-opacity="0.655184659" fill="#D7A1A1" cx="36" cy="228" r="4"></circle>
                <circle id="Oval" fill-opacity="0.614701705" fill="#D7A1A1" cx="4.5" cy="270.5" r="4.5"></circle>
                <circle id="Oval" fill-opacity="0.541985358" fill="#D7A1A1" cx="4" cy="228" r="4"></circle>
            </g>
            <path d="M425,1068.82827 C581.296584,1068.82827 856,714.333132 856,546.869215 C856,379.405298 581.296584,462.387779 425,462.387779 C268.703416,462.387779 142,598.144106 142,765.608023 C142,933.071939 268.703416,1068.82827 425,1068.82827 Z" id="Oval" fill="#B7C9E6" opacity="0.138392857"></path>
            <path d="M283,880.828267 C439.296584,880.828267 714,526.333132 714,358.869215 C714,191.405298 439.296584,274.387779 283,274.387779 C126.703416,274.387779 0,410.144106 0,577.608023 C0,745.071939 126.703416,880.828267 283,880.828267 Z" id="Oval" fill="#B7C9E6" opacity="0.089750744"></path>
        </g>
    </g>
</svg>