<svg xmlns="http://www.w3.org/2000/svg" width="559" height="552" fill="none" xmlns:v="https://vecta.io/nano"><path d="M145.326 292.134h24.988v17.477h-24.988v-17.477zm100.21 75.16h24.988v17.5h-24.988v-17.5zm-100.21-150.339h24.988v17.5h-24.988v-17.5zm234.78 168.93c7.699-3.782 12.086-12.227 12.086-20.812s-4.645-16.543-12.086-20.812c-34.859-19.926-56.512-57.238-56.512-97.395l-.004-28.793c-10.805 0-19.602-8.797-19.602-19.602v-19.602c0-1.145.465-2.125.652-3.196L0 179.384v222.65c0 11.035 8.984 20.02 20.02 20.02h322.19c8.914-11.574 18.973-26.855 37.895-36.168l.001-.001zm-289.92 8.937c0 5.555-4.504 10.035-10.059 10.035H35.049c-5.555 0-10.059-4.48-10.059-10.035v-37.566c0-5.555 4.504-10.035 10.059-10.035h45.102c5.531 0 10.059 4.481 10.059 10.035v37.566h-.024zm0-75.156c0 5.555-4.504 10.035-10.059 10.035H35.049c-5.555 0-10.059-4.48-10.059-10.035v-37.59c0-5.555 4.504-10.035 10.059-10.035h45.102c5.531 0 10.059 4.481 10.059 10.035v37.59h-.024zm0-75.156c0 5.555-4.504 10.035-10.059 10.035H35.049c-5.555 0-10.059-4.48-10.059-10.035v-37.566c0-5.555 4.504-10.035 10.059-10.035h45.102c5.531 0 10.059 4.481 10.059 10.035v37.566h-.024zm100.24 150.31c0 5.555-4.504 10.035-10.059 10.035h-45.102c-5.555 0-10.059-4.48-10.059-10.035v-37.566c0-5.555 4.503-10.035 10.059-10.035h45.102c5.531 0 10.059 4.481 10.059 10.035v37.566zm0-75.156c0 5.555-4.504 10.035-10.059 10.035h-45.102c-5.555 0-10.059-4.48-10.059-10.035v-37.59c0-5.555 4.503-10.035 10.059-10.035h45.102c5.531 0 10.059 4.481 10.059 10.035v37.59zm0-75.156c0 5.555-4.504 10.035-10.059 10.035h-45.102c-5.555 0-10.059-4.48-10.059-10.035v-37.566c0-5.555 4.503-10.035 10.059-10.035h45.102c5.531 0 10.059 4.481 10.059 10.035v37.566zm100.21 150.31c0 5.555-4.504 10.035-10.059 10.035h-45.102c-5.532 0-10.059-4.48-10.059-10.035v-37.566c0-5.555 4.503-10.035 10.059-10.035h45.102c5.554 0 10.059 4.481 10.059 10.035v37.566zm0-75.156c0 5.555-4.504 10.035-10.059 10.035h-45.102c-5.532 0-10.059-4.48-10.059-10.035v-37.59c0-5.555 4.503-10.035 10.059-10.035h45.102c5.554 0 10.059 4.481 10.059 10.035v37.59zm0-75.156c0 5.555-4.504 10.035-10.059 10.035h-45.102c-5.532 0-10.059-4.48-10.059-10.035V206.94c0-5.555 4.503-10.035 10.059-10.035h45.102c5.554 0 10.059 4.481 10.059 10.035v37.566zm-45.1 47.628h24.988v17.477h-24.988v-17.477zm-200.43 75.16h24.988v17.5H45.106v-17.5z" fill="#142547"/><path d="M415.826 159.294V79.147c0-11.035-8.985-20.02-19.996-20.02h-4.993v20.02c0 13.836-11.246 25.058-25.082 25.058h-15.027c-13.836 0-25.105-11.222-25.105-25.058l-.003-20.02H90.19v20.02c0 13.836-11.246 25.058-25.082 25.058H50.081c-13.836 0-25.105-11.222-25.105-25.058v-20.02h-4.949c-11.035 0-20.02 9.008-20.02 20.02v80.124h415.82v.023zm-134.26-39.57h-149.61c-5.602 0-10.148-4.55-10.148-10.172 0-5.601 4.55-10.172 10.148-10.172h149.64c5.601 0 10.148 4.551 10.148 10.172-.024 5.622-4.575 10.172-10.172 10.172h-.006z" fill="#4267b2"/><path d="M145.326 367.294h24.988v17.5h-24.988v-17.5zm-100.22-75.16h24.988v17.477H45.106v-17.477zm0-75.179h24.988v17.5H45.106v-17.5zm200.43 0h24.988v17.5h-24.988v-17.5z" fill="#142547"/><path d="M49.992 85.14h15.027c2.731 0 4.969-2.238 4.969-4.992V4.992C69.988 2.238 67.75 0 65.019 0H49.992A5 5 0 0 0 45 4.992v75.18c.023 2.73 2.238 4.969 4.992 4.969v-.001z" fill="#4267b2"/><path d="M539.166 483.254c0-33.133-17.875-63.934-46.645-80.383a43.67 43.67 0 0 1-21.957-37.824c0-15.586 8.398-30.102 21.957-37.824 15.844-9.054 28.234-22.562 36.285-38.312-6.184 4.411-13.836 7.559-23.988 7.559-20.602 0-31.059-12.879-39.48-23.215-8.286-10.219-13.512-15.984-24.242-15.984s-15.961 5.762-24.242 15.984c-8.399 10.336-18.875 23.215-39.457 23.215-10.078 0-17.688-3.148-23.871-7.512 8.074 15.75 20.441 29.238 36.262 38.289 13.535 7.723 21.957 22.238 21.957 37.824s-8.399 30.102-21.957 37.824c-28.77 16.449-46.645 47.25-46.645 80.383v17.289l22.656-19.414c20.977-17.965 47.715-27.859 75.32-27.859s54.367 9.895 75.32 27.859l22.656 19.414v-17.312l.071-.001zm-108.12-183.98c0-5.601 4.55-10.172 10.148-10.172s10.148 4.551 10.148 10.172v48.23c0 5.602-4.551 10.172-10.148 10.172s-10.148-4.55-10.148-10.172v-48.23zm0 75.297c0-5.601 4.55-10.172 10.148-10.172s10.148 4.551 10.148 10.172v20.254c0 5.602-4.551 10.172-10.148 10.172s-10.148-4.55-10.148-10.172v-20.254zm10.148 64.68a10.336 10.336 0 1 1 0-20.672 10.33 10.33 0 0 1 10.336 10.336c0 5.696-4.641 10.336-10.336 10.336zm97.972-221.177h-195.98v28.793c0 1.121.187 2.215.234 3.313 3.57 3.429 6.836 7.047 9.801 10.711 8.285 10.219 13.488 15.984 24.219 15.984s15.961-5.762 24.242-15.984c8.398-10.336 18.875-23.215 39.457-23.215 20.602 0 31.059 12.879 39.457 23.215 8.308 10.219 13.512 15.984 24.266 15.984s15.961-5.762 24.266-15.984c2.988-3.688 6.254-7.328 9.847-10.781.047-1.098.211-2.149.211-3.242v-28.793l-.02-.001zm-215.581-39.179h235.18v19.602h-235.18v-19.602z" fill="#142547"/><path d="M350.642 85.14h15.027c2.731 0 4.969-2.238 4.969-4.992l.004-75.156c0-2.754-2.238-4.992-4.969-4.992h-15.027a5 5 0 0 0-4.992 4.992v75.18c.019 2.73 2.238 4.969 4.988 4.969v-.001z" fill="#4267b2"/><path d="M323.585 531.654h235.18v19.602h-235.18v-19.602z" fill="#142547"/><path d="M441.186 472.854c-22.938 0-45.148 8.215-62.578 23.172l-18.715 16.031h162.59l-18.715-16.031c-17.43-14.957-39.641-23.172-62.578-23.172h-.004z" fill="#4267b2"/></svg>