<svg width="760" height="479" viewBox="0 0 760 479" fill="none" xmlns="http://www.w3.org/2000/svg">
<g id="contact_part">
<g id="tablet">
<g id="screen">
<path id="Path" opacity="0.867188" d="M743.224 434.548H102.386C93.2773 434.538 85.896 427.156 85.8857 418.048V22.894C85.8932 16.2211 91.3007 10.8134 97.9736 10.8057H747.427C754.216 10.8134 759.717 16.3146 759.724 23.103V418.048C759.714 427.156 752.333 434.538 743.224 434.548Z" fill="#FFF5F9"/>
<path id="Path_2" d="M722.504 413.716H125.259C116.504 413.716 109.382 407.046 109.382 398.847V54.7424C109.382 48.6624 114.66 43.7156 121.147 43.7156H726.421C733.016 43.7156 738.382 48.7439 738.382 54.9241V398.847C738.382 407.046 731.259 413.716 722.504 413.716Z" fill="white"/>
<path id="Path_3" d="M759.494 24.9502H85.6533V16.5498C85.6665 7.41108 93.0746 0.00755012 102.213 0H742.934C752.072 0.00750612 759.48 7.41106 759.494 16.5498V24.9502Z" fill="#3F3D56"/>
<path id="Oval" d="M115.749 16.7834C118.115 16.7834 120.033 14.8656 120.033 12.5C120.033 10.1343 118.115 8.21655 115.749 8.21655C113.384 8.21655 111.466 10.1343 111.466 12.5C111.466 14.8656 113.384 16.7834 115.749 16.7834Z" fill="white"/>
<path id="Oval_2" d="M132.008 16.7834C134.374 16.7834 136.291 14.8656 136.291 12.5C136.291 10.1343 134.374 8.21655 132.008 8.21655C129.642 8.21655 127.725 10.1343 127.725 12.5C127.725 14.8656 129.642 16.7834 132.008 16.7834Z" fill="white"/>
<path id="Oval_3" d="M148.267 16.7834C150.632 16.7834 152.55 14.8656 152.55 12.5C152.55 10.1343 150.632 8.21655 148.267 8.21655C145.901 8.21655 143.983 10.1343 143.983 12.5C143.983 14.8656 145.901 16.7834 148.267 16.7834Z" fill="white"/>
<path id="Path_4" d="M260.337 223.338L253.96 216.48C253.671 216.168 253.265 215.991 252.839 215.991C252.414 215.991 252.008 216.168 251.719 216.479L245.341 223.338C245.098 223.6 245.012 223.971 245.117 224.313C245.222 224.655 245.502 224.915 245.85 224.995C246.199 225.075 246.563 224.962 246.807 224.701L251.838 219.288V232.577C251.838 233.129 252.285 233.577 252.838 233.577C253.39 233.577 253.838 233.129 253.838 232.577V219.285L258.87 224.7C259.247 225.104 259.879 225.126 260.283 224.75C260.687 224.375 260.711 223.743 260.337 223.338Z" fill="white"/>
<path id="Path_5" d="M260.337 291.227L253.961 284.369C253.671 284.057 253.265 283.88 252.84 283.88C252.414 283.88 252.008 284.057 251.719 284.368L245.341 291.227C245.097 291.488 245.011 291.861 245.116 292.203C245.221 292.545 245.501 292.805 245.85 292.885C246.199 292.965 246.564 292.852 246.807 292.59L251.838 287.177V300.466C251.838 301.018 252.286 301.466 252.838 301.466C253.39 301.466 253.838 301.018 253.838 300.466V287.173L258.871 292.589C259.247 292.992 259.879 293.015 260.283 292.639C260.688 292.264 260.712 291.632 260.337 291.227Z" fill="white"/>
<path id="Path_6" d="M260.337 155.449L253.961 148.591C253.671 148.28 253.265 148.103 252.84 148.103C252.414 148.103 252.008 148.279 251.719 148.591L245.341 155.449C245.097 155.711 245.011 156.083 245.116 156.425C245.221 156.768 245.501 157.028 245.85 157.107C246.199 157.187 246.564 157.075 246.807 156.812L251.838 151.4V164.688C251.838 165.241 252.286 165.688 252.838 165.688C253.39 165.688 253.838 165.241 253.838 164.688V151.396L258.871 156.812C259.247 157.215 259.879 157.237 260.283 156.862C260.688 156.486 260.712 155.854 260.337 155.449Z" fill="white"/>
<path id="Path_7" d="M242 476.685H36C35.4477 476.685 35 476.237 35 475.685C35 475.132 35.4477 474.685 36 474.685H242C242.552 474.685 243 475.132 243 475.685C243 476.237 242.552 476.685 242 476.685Z" fill="#CCCCCC"/>
</g>
<path id="Want to collaborate" d="M267.547 87.8281L267.984 90.8281L268.625 88.125L273.125 72.25H275.656L280.047 88.125L280.672 90.875L281.156 87.8125L284.688 72.25H287.703L282.188 95H279.453L274.766 78.4219L274.406 76.6875L274.047 78.4219L269.188 95H266.453L260.953 72.25H263.953L267.547 87.8281ZM300.5 95C300.333 94.6667 300.198 94.0729 300.094 93.2188C298.75 94.6146 297.146 95.3125 295.281 95.3125C293.615 95.3125 292.245 94.8438 291.172 93.9062C290.109 92.9583 289.578 91.7604 289.578 90.3125C289.578 88.5521 290.245 87.1875 291.578 86.2188C292.922 85.2396 294.807 84.75 297.234 84.75H300.047V83.4219C300.047 82.4115 299.745 81.6094 299.141 81.0156C298.536 80.4115 297.646 80.1094 296.469 80.1094C295.438 80.1094 294.573 80.3698 293.875 80.8906C293.177 81.4115 292.828 82.0417 292.828 82.7812H289.922C289.922 81.9375 290.219 81.125 290.812 80.3438C291.417 79.5521 292.229 78.9271 293.25 78.4688C294.281 78.0104 295.411 77.7812 296.641 77.7812C298.589 77.7812 300.115 78.2708 301.219 79.25C302.323 80.2188 302.896 81.5573 302.938 83.2656V91.0469C302.938 92.599 303.135 93.8333 303.531 94.75V95H300.5ZM295.703 92.7969C296.609 92.7969 297.469 92.5625 298.281 92.0938C299.094 91.625 299.682 91.0156 300.047 90.2656V86.7969H297.781C294.24 86.7969 292.469 87.8333 292.469 89.9062C292.469 90.8125 292.771 91.5208 293.375 92.0312C293.979 92.5417 294.755 92.7969 295.703 92.7969ZM310.203 78.0938L310.297 80.2188C311.589 78.5938 313.276 77.7812 315.359 77.7812C318.932 77.7812 320.734 79.7969 320.766 83.8281V95H317.875V83.8125C317.865 82.5938 317.583 81.6927 317.031 81.1094C316.49 80.526 315.641 80.2344 314.484 80.2344C313.547 80.2344 312.724 80.4844 312.016 80.9844C311.307 81.4844 310.755 82.1406 310.359 82.9531V95H307.469V78.0938H310.203ZM329.047 74V78.0938H332.203V80.3281H329.047V90.8125C329.047 91.4896 329.188 92 329.469 92.3438C329.75 92.6771 330.229 92.8438 330.906 92.8438C331.24 92.8438 331.698 92.7812 332.281 92.6562V95C331.521 95.2083 330.781 95.3125 330.062 95.3125C328.771 95.3125 327.797 94.9219 327.141 94.1406C326.484 93.3594 326.156 92.25 326.156 90.8125V80.3281H323.078V78.0938H326.156V74H329.047ZM347.453 74V78.0938H350.609V80.3281H347.453V90.8125C347.453 91.4896 347.594 92 347.875 92.3438C348.156 92.6771 348.635 92.8438 349.312 92.8438C349.646 92.8438 350.104 92.7812 350.688 92.6562V95C349.927 95.2083 349.188 95.3125 348.469 95.3125C347.177 95.3125 346.203 94.9219 345.547 94.1406C344.891 93.3594 344.562 92.25 344.562 90.8125V80.3281H341.484V78.0938H344.562V74H347.453ZM352.922 86.3906C352.922 84.7344 353.245 83.2448 353.891 81.9219C354.547 80.599 355.453 79.5781 356.609 78.8594C357.776 78.1406 359.104 77.7812 360.594 77.7812C362.896 77.7812 364.755 78.5781 366.172 80.1719C367.599 81.7656 368.312 83.8854 368.312 86.5312V86.7344C368.312 88.3802 367.995 89.8594 367.359 91.1719C366.734 92.474 365.833 93.4896 364.656 94.2188C363.49 94.9479 362.146 95.3125 360.625 95.3125C358.333 95.3125 356.474 94.5156 355.047 92.9219C353.63 91.3281 352.922 89.2188 352.922 86.5938V86.3906ZM355.828 86.7344C355.828 88.6094 356.26 90.1146 357.125 91.25C358 92.3854 359.167 92.9531 360.625 92.9531C362.094 92.9531 363.26 92.3802 364.125 91.2344C364.99 90.0781 365.422 88.4635 365.422 86.3906C365.422 84.5365 364.979 83.0365 364.094 81.8906C363.219 80.7344 362.052 80.1562 360.594 80.1562C359.167 80.1562 358.016 80.724 357.141 81.8594C356.266 82.9948 355.828 84.6198 355.828 86.7344ZM386.656 92.9531C387.688 92.9531 388.589 92.6406 389.359 92.0156C390.13 91.3906 390.557 90.6094 390.641 89.6719H393.375C393.323 90.6406 392.99 91.5625 392.375 92.4375C391.76 93.3125 390.938 94.0104 389.906 94.5312C388.885 95.0521 387.802 95.3125 386.656 95.3125C384.354 95.3125 382.521 94.5469 381.156 93.0156C379.802 91.474 379.125 89.3698 379.125 86.7031V86.2188C379.125 84.5729 379.427 83.1094 380.031 81.8281C380.635 80.5469 381.5 79.5521 382.625 78.8438C383.76 78.1354 385.099 77.7812 386.641 77.7812C388.536 77.7812 390.109 78.349 391.359 79.4844C392.62 80.6198 393.292 82.0938 393.375 83.9062H390.641C390.557 82.8125 390.141 81.9167 389.391 81.2188C388.651 80.5104 387.734 80.1562 386.641 80.1562C385.172 80.1562 384.031 80.6875 383.219 81.75C382.417 82.8021 382.016 84.3281 382.016 86.3281V86.875C382.016 88.8229 382.417 90.3229 383.219 91.375C384.021 92.4271 385.167 92.9531 386.656 92.9531ZM395.859 86.3906C395.859 84.7344 396.182 83.2448 396.828 81.9219C397.484 80.599 398.391 79.5781 399.547 78.8594C400.714 78.1406 402.042 77.7812 403.531 77.7812C405.833 77.7812 407.693 78.5781 409.109 80.1719C410.536 81.7656 411.25 83.8854 411.25 86.5312V86.7344C411.25 88.3802 410.932 89.8594 410.297 91.1719C409.672 92.474 408.771 93.4896 407.594 94.2188C406.427 94.9479 405.083 95.3125 403.562 95.3125C401.271 95.3125 399.411 94.5156 397.984 92.9219C396.568 91.3281 395.859 89.2188 395.859 86.5938V86.3906ZM398.766 86.7344C398.766 88.6094 399.198 90.1146 400.062 91.25C400.938 92.3854 402.104 92.9531 403.562 92.9531C405.031 92.9531 406.198 92.3802 407.062 91.2344C407.927 90.0781 408.359 88.4635 408.359 86.3906C408.359 84.5365 407.917 83.0365 407.031 81.8906C406.156 80.7344 404.99 80.1562 403.531 80.1562C402.104 80.1562 400.953 80.724 400.078 81.8594C399.203 82.9948 398.766 84.6198 398.766 86.7344ZM418.016 95H415.125V71H418.016V95ZM425.797 95H422.906V71H425.797V95ZM440.875 95C440.708 94.6667 440.573 94.0729 440.469 93.2188C439.125 94.6146 437.521 95.3125 435.656 95.3125C433.99 95.3125 432.62 94.8438 431.547 93.9062C430.484 92.9583 429.953 91.7604 429.953 90.3125C429.953 88.5521 430.62 87.1875 431.953 86.2188C433.297 85.2396 435.182 84.75 437.609 84.75H440.422V83.4219C440.422 82.4115 440.12 81.6094 439.516 81.0156C438.911 80.4115 438.021 80.1094 436.844 80.1094C435.812 80.1094 434.948 80.3698 434.25 80.8906C433.552 81.4115 433.203 82.0417 433.203 82.7812H430.297C430.297 81.9375 430.594 81.125 431.188 80.3438C431.792 79.5521 432.604 78.9271 433.625 78.4688C434.656 78.0104 435.786 77.7812 437.016 77.7812C438.964 77.7812 440.49 78.2708 441.594 79.25C442.698 80.2188 443.271 81.5573 443.312 83.2656V91.0469C443.312 92.599 443.51 93.8333 443.906 94.75V95H440.875ZM436.078 92.7969C436.984 92.7969 437.844 92.5625 438.656 92.0938C439.469 91.625 440.057 91.0156 440.422 90.2656V86.7969H438.156C434.615 86.7969 432.844 87.8333 432.844 89.9062C432.844 90.8125 433.146 91.5208 433.75 92.0312C434.354 92.5417 435.13 92.7969 436.078 92.7969ZM462.156 86.7344C462.156 89.3177 461.562 91.3958 460.375 92.9688C459.188 94.5312 457.594 95.3125 455.594 95.3125C453.458 95.3125 451.807 94.5573 450.641 93.0469L450.5 95H447.844V71H450.734V79.9531C451.901 78.5052 453.51 77.7812 455.562 77.7812C457.615 77.7812 459.224 78.5573 460.391 80.1094C461.568 81.6615 462.156 83.7865 462.156 86.4844V86.7344ZM459.266 86.4062C459.266 84.4375 458.885 82.9167 458.125 81.8438C457.365 80.7708 456.271 80.2344 454.844 80.2344C452.938 80.2344 451.568 81.1198 450.734 82.8906V90.2031C451.62 91.974 453 92.8594 454.875 92.8594C456.26 92.8594 457.339 92.3229 458.109 91.25C458.88 90.1771 459.266 88.5625 459.266 86.4062ZM465.047 86.3906C465.047 84.7344 465.37 83.2448 466.016 81.9219C466.672 80.599 467.578 79.5781 468.734 78.8594C469.901 78.1406 471.229 77.7812 472.719 77.7812C475.021 77.7812 476.88 78.5781 478.297 80.1719C479.724 81.7656 480.438 83.8854 480.438 86.5312V86.7344C480.438 88.3802 480.12 89.8594 479.484 91.1719C478.859 92.474 477.958 93.4896 476.781 94.2188C475.615 94.9479 474.271 95.3125 472.75 95.3125C470.458 95.3125 468.599 94.5156 467.172 92.9219C465.755 91.3281 465.047 89.2188 465.047 86.5938V86.3906ZM467.953 86.7344C467.953 88.6094 468.385 90.1146 469.25 91.25C470.125 92.3854 471.292 92.9531 472.75 92.9531C474.219 92.9531 475.385 92.3802 476.25 91.2344C477.115 90.0781 477.547 88.4635 477.547 86.3906C477.547 84.5365 477.104 83.0365 476.219 81.8906C475.344 80.7344 474.177 80.1562 472.719 80.1562C471.292 80.1562 470.141 80.724 469.266 81.8594C468.391 82.9948 467.953 84.6198 467.953 86.7344ZM492.234 80.6875C491.797 80.6146 491.323 80.5781 490.812 80.5781C488.917 80.5781 487.63 81.3854 486.953 83V95H484.062V78.0938H486.875L486.922 80.0469C487.87 78.5365 489.214 77.7812 490.953 77.7812C491.516 77.7812 491.943 77.8542 492.234 78V80.6875ZM504.719 95C504.552 94.6667 504.417 94.0729 504.312 93.2188C502.969 94.6146 501.365 95.3125 499.5 95.3125C497.833 95.3125 496.464 94.8438 495.391 93.9062C494.328 92.9583 493.797 91.7604 493.797 90.3125C493.797 88.5521 494.464 87.1875 495.797 86.2188C497.141 85.2396 499.026 84.75 501.453 84.75H504.266V83.4219C504.266 82.4115 503.964 81.6094 503.359 81.0156C502.755 80.4115 501.865 80.1094 500.688 80.1094C499.656 80.1094 498.792 80.3698 498.094 80.8906C497.396 81.4115 497.047 82.0417 497.047 82.7812H494.141C494.141 81.9375 494.438 81.125 495.031 80.3438C495.635 79.5521 496.448 78.9271 497.469 78.4688C498.5 78.0104 499.63 77.7812 500.859 77.7812C502.807 77.7812 504.333 78.2708 505.438 79.25C506.542 80.2188 507.115 81.5573 507.156 83.2656V91.0469C507.156 92.599 507.354 93.8333 507.75 94.75V95H504.719ZM499.922 92.7969C500.828 92.7969 501.688 92.5625 502.5 92.0938C503.312 91.625 503.901 91.0156 504.266 90.2656V86.7969H502C498.458 86.7969 496.688 87.8333 496.688 89.9062C496.688 90.8125 496.99 91.5208 497.594 92.0312C498.198 92.5417 498.974 92.7969 499.922 92.7969ZM515.609 74V78.0938H518.766V80.3281H515.609V90.8125C515.609 91.4896 515.75 92 516.031 92.3438C516.312 92.6771 516.792 92.8438 517.469 92.8438C517.802 92.8438 518.26 92.7812 518.844 92.6562V95C518.083 95.2083 517.344 95.3125 516.625 95.3125C515.333 95.3125 514.359 94.9219 513.703 94.1406C513.047 93.3594 512.719 92.25 512.719 90.8125V80.3281H509.641V78.0938H512.719V74H515.609ZM529.172 95.3125C526.88 95.3125 525.016 94.5625 523.578 93.0625C522.141 91.5521 521.422 89.5365 521.422 87.0156V86.4844C521.422 84.8073 521.74 83.3125 522.375 82C523.021 80.6771 523.917 79.6458 525.062 78.9062C526.219 78.1562 527.469 77.7812 528.812 77.7812C531.01 77.7812 532.719 78.5052 533.938 79.9531C535.156 81.401 535.766 83.474 535.766 86.1719V87.375H524.312C524.354 89.0417 524.839 90.3906 525.766 91.4219C526.703 92.4427 527.891 92.9531 529.328 92.9531C530.349 92.9531 531.214 92.7448 531.922 92.3281C532.63 91.9115 533.25 91.3594 533.781 90.6719L535.547 92.0469C534.13 94.224 532.005 95.3125 529.172 95.3125ZM528.812 80.1562C527.646 80.1562 526.667 80.5833 525.875 81.4375C525.083 82.2812 524.594 83.4688 524.406 85H532.875V84.7812C532.792 83.3125 532.396 82.1771 531.688 81.375C530.979 80.5625 530.021 80.1562 528.812 80.1562ZM550.453 88.5938C550.474 87.3542 550.615 86.375 550.875 85.6562C551.135 84.9375 551.667 84.1406 552.469 83.2656L554.516 81.1562C555.391 80.1667 555.828 79.1042 555.828 77.9688C555.828 76.875 555.542 76.0208 554.969 75.4062C554.396 74.7812 553.562 74.4688 552.469 74.4688C551.406 74.4688 550.552 74.75 549.906 75.3125C549.26 75.875 548.938 76.6302 548.938 77.5781H546.047C546.068 75.8906 546.667 74.5312 547.844 73.5C549.031 72.4583 550.573 71.9375 552.469 71.9375C554.438 71.9375 555.969 72.4688 557.062 73.5312C558.167 74.5833 558.719 76.0312 558.719 77.875C558.719 79.6979 557.875 81.4948 556.188 83.2656L554.484 84.9531C553.724 85.7969 553.344 87.0104 553.344 88.5938H550.453ZM550.328 93.5469C550.328 93.0781 550.469 92.6875 550.75 92.375C551.042 92.0521 551.469 91.8906 552.031 91.8906C552.594 91.8906 553.021 92.0521 553.312 92.375C553.604 92.6875 553.75 93.0781 553.75 93.5469C553.75 94.0156 553.604 94.4062 553.312 94.7188C553.021 95.0208 552.594 95.1719 552.031 95.1719C551.469 95.1719 551.042 95.0208 550.75 94.7188C550.469 94.4062 550.328 94.0156 550.328 93.5469Z" fill="#3F3D56"/>
<g id="button_get in touch">
<path id="Rectangle" d="M450.5 290.5H266.5C263.739 290.5 261.5 292.739 261.5 295.5V322.5C261.5 325.261 263.739 327.5 266.5 327.5H450.5C453.261 327.5 455.5 325.261 455.5 322.5V295.5C455.5 292.739 453.261 290.5 450.5 290.5Z" fill="#FCE48D" stroke="#3F3D56"/>
<path id="Get In Touch" d="M307.363 313.948C306.833 314.707 306.092 315.277 305.14 315.656C304.194 316.029 303.091 316.215 301.831 316.215C300.556 316.215 299.425 315.918 298.437 315.323C297.448 314.722 296.682 313.869 296.138 312.767C295.601 311.664 295.325 310.385 295.311 308.932V307.567C295.311 305.211 295.858 303.385 296.954 302.089C298.057 300.793 299.604 300.145 301.595 300.145C303.228 300.145 304.542 300.563 305.537 301.401C306.533 302.232 307.141 303.414 307.363 304.946H305.301C304.914 302.877 303.682 301.842 301.605 301.842C300.223 301.842 299.174 302.329 298.458 303.303C297.749 304.27 297.391 305.673 297.384 307.514V308.792C297.384 310.547 297.785 311.943 298.587 312.981C299.389 314.013 300.474 314.528 301.842 314.528C302.615 314.528 303.292 314.442 303.872 314.271C304.452 314.099 304.932 313.809 305.312 313.4V309.888H301.691V308.212H307.363V313.948ZM315.323 316.215C313.748 316.215 312.466 315.699 311.478 314.668C310.489 313.63 309.995 312.244 309.995 310.511V310.146C309.995 308.993 310.214 307.965 310.65 307.062C311.094 306.153 311.71 305.444 312.498 304.936C313.293 304.42 314.152 304.162 315.076 304.162C316.587 304.162 317.762 304.66 318.6 305.655C319.438 306.651 319.856 308.076 319.856 309.931V310.758H311.982C312.011 311.904 312.344 312.831 312.981 313.54C313.626 314.242 314.442 314.593 315.431 314.593C316.132 314.593 316.727 314.45 317.214 314.163C317.701 313.877 318.127 313.497 318.492 313.024L319.706 313.97C318.732 315.466 317.271 316.215 315.323 316.215ZM315.076 305.795C314.274 305.795 313.601 306.089 313.057 306.676C312.512 307.256 312.176 308.072 312.047 309.125H317.869V308.975C317.812 307.965 317.54 307.184 317.053 306.633C316.566 306.074 315.907 305.795 315.076 305.795ZM324.862 301.562V304.377H327.032V305.913H324.862V313.121C324.862 313.587 324.959 313.938 325.152 314.174C325.346 314.403 325.675 314.518 326.141 314.518C326.37 314.518 326.685 314.475 327.086 314.389V316C326.563 316.143 326.055 316.215 325.561 316.215C324.673 316.215 324.003 315.946 323.552 315.409C323.101 314.872 322.875 314.109 322.875 313.121V305.913H320.759V304.377H322.875V301.562H324.862ZM337.345 316H335.282V300.359H337.345V316ZM342.694 304.377L342.759 305.838C343.647 304.721 344.807 304.162 346.239 304.162C348.696 304.162 349.935 305.548 349.956 308.319V316H347.969V308.309C347.962 307.471 347.768 306.851 347.389 306.45C347.016 306.049 346.433 305.849 345.638 305.849C344.993 305.849 344.427 306.021 343.94 306.364C343.453 306.708 343.074 307.159 342.802 307.718V316H340.814V304.377H342.694ZM369.099 302.057H364.071V316H362.02V302.057H357.003V300.359H369.099V302.057ZM369.507 310.081C369.507 308.942 369.729 307.918 370.173 307.009C370.624 306.099 371.247 305.397 372.042 304.903C372.844 304.409 373.757 304.162 374.781 304.162C376.364 304.162 377.642 304.71 378.616 305.806C379.597 306.901 380.088 308.359 380.088 310.178V310.317C380.088 311.449 379.869 312.466 379.433 313.368C379.003 314.263 378.383 314.962 377.574 315.463C376.772 315.964 375.848 316.215 374.803 316.215C373.227 316.215 371.949 315.667 370.968 314.571C369.994 313.476 369.507 312.025 369.507 310.221V310.081ZM371.505 310.317C371.505 311.606 371.802 312.641 372.396 313.422C372.998 314.202 373.8 314.593 374.803 314.593C375.812 314.593 376.615 314.199 377.209 313.411C377.803 312.616 378.101 311.506 378.101 310.081C378.101 308.806 377.796 307.775 377.188 306.987C376.586 306.192 375.784 305.795 374.781 305.795C373.8 305.795 373.009 306.185 372.407 306.966C371.806 307.746 371.505 308.864 371.505 310.317ZM389.756 314.851C388.982 315.76 387.847 316.215 386.351 316.215C385.112 316.215 384.166 315.857 383.515 315.141C382.87 314.417 382.544 313.35 382.537 311.939V304.377H384.524V311.886C384.524 313.647 385.241 314.528 386.673 314.528C388.191 314.528 389.201 313.963 389.702 312.831V304.377H391.689V316H389.799L389.756 314.851ZM399.381 314.593C400.09 314.593 400.709 314.378 401.239 313.948C401.769 313.519 402.063 312.981 402.12 312.337H404C403.964 313.003 403.735 313.637 403.312 314.238C402.89 314.84 402.324 315.32 401.615 315.678C400.913 316.036 400.169 316.215 399.381 316.215C397.798 316.215 396.538 315.688 395.6 314.636C394.669 313.576 394.203 312.129 394.203 310.296V309.963C394.203 308.831 394.411 307.825 394.826 306.944C395.242 306.063 395.836 305.38 396.609 304.893C397.39 304.406 398.31 304.162 399.37 304.162C400.674 304.162 401.755 304.552 402.614 305.333C403.481 306.114 403.943 307.127 404 308.373H402.12C402.063 307.621 401.776 307.005 401.261 306.525C400.752 306.038 400.122 305.795 399.37 305.795C398.36 305.795 397.576 306.16 397.018 306.891C396.466 307.614 396.19 308.663 396.19 310.038V310.414C396.19 311.753 396.466 312.785 397.018 313.508C397.569 314.231 398.357 314.593 399.381 314.593ZM408.222 305.784C409.103 304.703 410.248 304.162 411.659 304.162C414.116 304.162 415.354 305.548 415.376 308.319V316H413.389V308.309C413.382 307.471 413.188 306.851 412.809 306.45C412.436 306.049 411.853 305.849 411.058 305.849C410.413 305.849 409.847 306.021 409.36 306.364C408.873 306.708 408.494 307.159 408.222 307.718V316H406.234V299.5H408.222V305.784Z" fill="#3F3D56"/>
</g>
<path id="Let&#226;&#128;&#153;s make a connection" d="M263.535 144.467H270.273V146H261.65V131.781H263.535V144.467ZM276.514 146.195C275.081 146.195 273.916 145.727 273.018 144.789C272.119 143.845 271.67 142.585 271.67 141.01V140.678C271.67 139.63 271.868 138.695 272.266 137.875C272.669 137.048 273.229 136.404 273.945 135.941C274.668 135.473 275.449 135.238 276.289 135.238C277.663 135.238 278.73 135.691 279.492 136.596C280.254 137.501 280.635 138.796 280.635 140.482V141.234H273.477C273.503 142.276 273.805 143.119 274.385 143.764C274.971 144.402 275.713 144.721 276.611 144.721C277.249 144.721 277.79 144.59 278.232 144.33C278.675 144.07 279.062 143.725 279.395 143.295L280.498 144.154C279.613 145.515 278.285 146.195 276.514 146.195ZM276.289 136.723C275.56 136.723 274.948 136.99 274.453 137.523C273.958 138.051 273.652 138.793 273.535 139.75H278.828V139.613C278.776 138.695 278.529 137.986 278.086 137.484C277.643 136.977 277.044 136.723 276.289 136.723ZM285.186 132.875V135.434H287.158V136.83H285.186V143.383C285.186 143.806 285.273 144.125 285.449 144.34C285.625 144.548 285.924 144.652 286.348 144.652C286.556 144.652 286.842 144.613 287.207 144.535V146C286.732 146.13 286.27 146.195 285.82 146.195C285.013 146.195 284.404 145.951 283.994 145.463C283.584 144.975 283.379 144.281 283.379 143.383V136.83H281.455V135.434H283.379V132.875H285.186ZM289.404 135.785L288.379 135.082C288.984 134.236 289.297 133.344 289.316 132.406V131H291.104V132.27C291.097 132.921 290.934 133.572 290.615 134.223C290.303 134.867 289.899 135.388 289.404 135.785ZM298.34 143.197C298.34 142.709 298.154 142.331 297.783 142.064C297.419 141.791 296.777 141.557 295.859 141.361C294.948 141.166 294.222 140.932 293.682 140.658C293.148 140.385 292.751 140.059 292.49 139.682C292.236 139.304 292.109 138.855 292.109 138.334C292.109 137.468 292.474 136.736 293.203 136.137C293.939 135.538 294.876 135.238 296.016 135.238C297.214 135.238 298.184 135.548 298.926 136.166C299.674 136.785 300.049 137.576 300.049 138.539H298.232C298.232 138.044 298.021 137.618 297.598 137.26C297.181 136.902 296.654 136.723 296.016 136.723C295.358 136.723 294.844 136.866 294.473 137.152C294.102 137.439 293.916 137.813 293.916 138.275C293.916 138.712 294.089 139.04 294.434 139.262C294.779 139.483 295.4 139.695 296.299 139.896C297.204 140.098 297.936 140.339 298.496 140.619C299.056 140.899 299.469 141.238 299.736 141.635C300.01 142.025 300.146 142.504 300.146 143.07C300.146 144.014 299.769 144.773 299.014 145.346C298.258 145.912 297.279 146.195 296.074 146.195C295.228 146.195 294.479 146.046 293.828 145.746C293.177 145.447 292.666 145.03 292.295 144.496C291.93 143.956 291.748 143.373 291.748 142.748H293.555C293.587 143.354 293.828 143.835 294.277 144.193C294.733 144.545 295.332 144.721 296.074 144.721C296.758 144.721 297.305 144.584 297.715 144.311C298.132 144.031 298.34 143.66 298.34 143.197ZM309.16 135.434L309.209 136.605C309.984 135.694 311.029 135.238 312.344 135.238C313.822 135.238 314.827 135.805 315.361 136.938C315.713 136.43 316.169 136.02 316.729 135.707C317.295 135.395 317.962 135.238 318.73 135.238C321.048 135.238 322.227 136.465 322.266 138.92V146H320.459V139.027C320.459 138.272 320.286 137.709 319.941 137.338C319.596 136.96 319.017 136.771 318.203 136.771C317.533 136.771 316.976 136.973 316.533 137.377C316.09 137.774 315.833 138.311 315.762 138.988V146H313.945V139.076C313.945 137.54 313.193 136.771 311.689 136.771C310.505 136.771 309.694 137.276 309.258 138.285V146H307.451V135.434H309.16ZM331.523 146C331.419 145.792 331.335 145.421 331.27 144.887C330.43 145.759 329.427 146.195 328.262 146.195C327.22 146.195 326.364 145.902 325.693 145.316C325.029 144.724 324.697 143.975 324.697 143.07C324.697 141.97 325.114 141.117 325.947 140.512C326.787 139.9 327.965 139.594 329.482 139.594H331.24V138.764C331.24 138.132 331.051 137.631 330.674 137.26C330.296 136.882 329.74 136.693 329.004 136.693C328.359 136.693 327.819 136.856 327.383 137.182C326.947 137.507 326.729 137.901 326.729 138.363H324.912C324.912 137.836 325.098 137.328 325.469 136.84C325.846 136.345 326.354 135.954 326.992 135.668C327.637 135.382 328.343 135.238 329.111 135.238C330.329 135.238 331.283 135.544 331.973 136.156C332.663 136.762 333.021 137.598 333.047 138.666V143.529C333.047 144.499 333.171 145.271 333.418 145.844V146H331.523ZM328.525 144.623C329.092 144.623 329.629 144.477 330.137 144.184C330.645 143.891 331.012 143.51 331.24 143.041V140.873H329.824C327.611 140.873 326.504 141.521 326.504 142.816C326.504 143.383 326.693 143.826 327.07 144.145C327.448 144.464 327.933 144.623 328.525 144.623ZM338.828 141.107L337.695 142.289V146H335.889V131H337.695V140.072L338.662 138.91L341.953 135.434H344.15L340.039 139.848L344.629 146H342.51L338.828 141.107ZM350.205 146.195C348.773 146.195 347.607 145.727 346.709 144.789C345.811 143.845 345.361 142.585 345.361 141.01V140.678C345.361 139.63 345.56 138.695 345.957 137.875C346.361 137.048 346.921 136.404 347.637 135.941C348.359 135.473 349.141 135.238 349.98 135.238C351.354 135.238 352.422 135.691 353.184 136.596C353.945 137.501 354.326 138.796 354.326 140.482V141.234H347.168C347.194 142.276 347.497 143.119 348.076 143.764C348.662 144.402 349.404 144.721 350.303 144.721C350.941 144.721 351.481 144.59 351.924 144.33C352.367 144.07 352.754 143.725 353.086 143.295L354.189 144.154C353.304 145.515 351.976 146.195 350.205 146.195ZM349.98 136.723C349.251 136.723 348.639 136.99 348.145 137.523C347.65 138.051 347.344 138.793 347.227 139.75H352.52V139.613C352.467 138.695 352.22 137.986 351.777 137.484C351.335 136.977 350.736 136.723 349.98 136.723ZM367.91 146C367.806 145.792 367.721 145.421 367.656 144.887C366.816 145.759 365.814 146.195 364.648 146.195C363.607 146.195 362.751 145.902 362.08 145.316C361.416 144.724 361.084 143.975 361.084 143.07C361.084 141.97 361.501 141.117 362.334 140.512C363.174 139.9 364.352 139.594 365.869 139.594H367.627V138.764C367.627 138.132 367.438 137.631 367.061 137.26C366.683 136.882 366.126 136.693 365.391 136.693C364.746 136.693 364.206 136.856 363.77 137.182C363.333 137.507 363.115 137.901 363.115 138.363H361.299C361.299 137.836 361.484 137.328 361.855 136.84C362.233 136.345 362.741 135.954 363.379 135.668C364.023 135.382 364.73 135.238 365.498 135.238C366.715 135.238 367.669 135.544 368.359 136.156C369.049 136.762 369.408 137.598 369.434 138.666V143.529C369.434 144.499 369.557 145.271 369.805 145.844V146H367.91ZM364.912 144.623C365.479 144.623 366.016 144.477 366.523 144.184C367.031 143.891 367.399 143.51 367.627 143.041V140.873H366.211C363.997 140.873 362.891 141.521 362.891 142.816C362.891 143.383 363.079 143.826 363.457 144.145C363.835 144.464 364.32 144.623 364.912 144.623ZM381.465 144.721C382.109 144.721 382.673 144.525 383.154 144.135C383.636 143.744 383.903 143.256 383.955 142.67H385.664C385.632 143.275 385.423 143.852 385.039 144.398C384.655 144.945 384.141 145.382 383.496 145.707C382.858 146.033 382.181 146.195 381.465 146.195C380.026 146.195 378.88 145.717 378.027 144.76C377.181 143.796 376.758 142.481 376.758 140.814V140.512C376.758 139.483 376.947 138.568 377.324 137.768C377.702 136.967 378.242 136.345 378.945 135.902C379.655 135.46 380.492 135.238 381.455 135.238C382.64 135.238 383.623 135.593 384.404 136.303C385.192 137.012 385.612 137.934 385.664 139.066H383.955C383.903 138.383 383.643 137.823 383.174 137.387C382.712 136.944 382.139 136.723 381.455 136.723C380.537 136.723 379.824 137.055 379.316 137.719C378.815 138.376 378.564 139.33 378.564 140.58V140.922C378.564 142.139 378.815 143.077 379.316 143.734C379.818 144.392 380.534 144.721 381.465 144.721ZM387.217 140.619C387.217 139.584 387.419 138.653 387.822 137.826C388.232 136.999 388.799 136.361 389.521 135.912C390.251 135.463 391.081 135.238 392.012 135.238C393.451 135.238 394.613 135.736 395.498 136.732C396.39 137.729 396.836 139.053 396.836 140.707V140.834C396.836 141.863 396.637 142.787 396.24 143.607C395.85 144.421 395.286 145.056 394.551 145.512C393.822 145.967 392.982 146.195 392.031 146.195C390.599 146.195 389.437 145.697 388.545 144.701C387.66 143.705 387.217 142.387 387.217 140.746V140.619ZM389.033 140.834C389.033 142.006 389.303 142.947 389.844 143.656C390.391 144.366 391.12 144.721 392.031 144.721C392.949 144.721 393.678 144.363 394.219 143.646C394.759 142.924 395.029 141.915 395.029 140.619C395.029 139.46 394.753 138.523 394.199 137.807C393.652 137.084 392.923 136.723 392.012 136.723C391.12 136.723 390.4 137.077 389.854 137.787C389.307 138.497 389.033 139.512 389.033 140.834ZM400.811 135.434L400.869 136.762C401.676 135.746 402.731 135.238 404.033 135.238C406.266 135.238 407.393 136.498 407.412 139.018V146H405.605V139.008C405.599 138.246 405.423 137.683 405.078 137.318C404.74 136.954 404.209 136.771 403.486 136.771C402.9 136.771 402.386 136.928 401.943 137.24C401.501 137.553 401.156 137.963 400.908 138.471V146H399.102V135.434H400.811ZM411.846 135.434L411.904 136.762C412.712 135.746 413.766 135.238 415.068 135.238C417.301 135.238 418.428 136.498 418.447 139.018V146H416.641V139.008C416.634 138.246 416.458 137.683 416.113 137.318C415.775 136.954 415.244 136.771 414.521 136.771C413.936 136.771 413.421 136.928 412.979 137.24C412.536 137.553 412.191 137.963 411.943 138.471V146H410.137V135.434H411.846ZM425.557 146.195C424.124 146.195 422.959 145.727 422.061 144.789C421.162 143.845 420.713 142.585 420.713 141.01V140.678C420.713 139.63 420.911 138.695 421.309 137.875C421.712 137.048 422.272 136.404 422.988 135.941C423.711 135.473 424.492 135.238 425.332 135.238C426.706 135.238 427.773 135.691 428.535 136.596C429.297 137.501 429.678 138.796 429.678 140.482V141.234H422.52C422.546 142.276 422.848 143.119 423.428 143.764C424.014 144.402 424.756 144.721 425.654 144.721C426.292 144.721 426.833 144.59 427.275 144.33C427.718 144.07 428.105 143.725 428.438 143.295L429.541 144.154C428.656 145.515 427.327 146.195 425.557 146.195ZM425.332 136.723C424.603 136.723 423.991 136.99 423.496 137.523C423.001 138.051 422.695 138.793 422.578 139.75H427.871V139.613C427.819 138.695 427.572 137.986 427.129 137.484C426.686 136.977 426.087 136.723 425.332 136.723ZM436.016 144.721C436.66 144.721 437.223 144.525 437.705 144.135C438.187 143.744 438.454 143.256 438.506 142.67H440.215C440.182 143.275 439.974 143.852 439.59 144.398C439.206 144.945 438.691 145.382 438.047 145.707C437.409 146.033 436.732 146.195 436.016 146.195C434.577 146.195 433.431 145.717 432.578 144.76C431.732 143.796 431.309 142.481 431.309 140.814V140.512C431.309 139.483 431.497 138.568 431.875 137.768C432.253 136.967 432.793 136.345 433.496 135.902C434.206 135.46 435.042 135.238 436.006 135.238C437.191 135.238 438.174 135.593 438.955 136.303C439.743 137.012 440.163 137.934 440.215 139.066H438.506C438.454 138.383 438.193 137.823 437.725 137.387C437.262 136.944 436.689 136.723 436.006 136.723C435.088 136.723 434.375 137.055 433.867 137.719C433.366 138.376 433.115 139.33 433.115 140.58V140.922C433.115 142.139 433.366 143.077 433.867 143.734C434.368 144.392 435.085 144.721 436.016 144.721ZM444.697 132.875V135.434H446.67V136.83H444.697V143.383C444.697 143.806 444.785 144.125 444.961 144.34C445.137 144.548 445.436 144.652 445.859 144.652C446.068 144.652 446.354 144.613 446.719 144.535V146C446.243 146.13 445.781 146.195 445.332 146.195C444.525 146.195 443.916 145.951 443.506 145.463C443.096 144.975 442.891 144.281 442.891 143.383V136.83H440.967V135.434H442.891V132.875H444.697ZM450.752 146H448.945V135.434H450.752V146ZM448.799 132.631C448.799 132.338 448.887 132.09 449.062 131.889C449.245 131.687 449.512 131.586 449.863 131.586C450.215 131.586 450.482 131.687 450.664 131.889C450.846 132.09 450.938 132.338 450.938 132.631C450.938 132.924 450.846 133.168 450.664 133.363C450.482 133.559 450.215 133.656 449.863 133.656C449.512 133.656 449.245 133.559 449.062 133.363C448.887 133.168 448.799 132.924 448.799 132.631ZM453.174 140.619C453.174 139.584 453.376 138.653 453.779 137.826C454.189 136.999 454.756 136.361 455.479 135.912C456.208 135.463 457.038 135.238 457.969 135.238C459.408 135.238 460.57 135.736 461.455 136.732C462.347 137.729 462.793 139.053 462.793 140.707V140.834C462.793 141.863 462.594 142.787 462.197 143.607C461.807 144.421 461.243 145.056 460.508 145.512C459.779 145.967 458.939 146.195 457.988 146.195C456.556 146.195 455.394 145.697 454.502 144.701C453.617 143.705 453.174 142.387 453.174 140.746V140.619ZM454.99 140.834C454.99 142.006 455.26 142.947 455.801 143.656C456.348 144.366 457.077 144.721 457.988 144.721C458.906 144.721 459.635 144.363 460.176 143.646C460.716 142.924 460.986 141.915 460.986 140.619C460.986 139.46 460.71 138.523 460.156 137.807C459.609 137.084 458.88 136.723 457.969 136.723C457.077 136.723 456.357 137.077 455.811 137.787C455.264 138.497 454.99 139.512 454.99 140.834ZM466.768 135.434L466.826 136.762C467.633 135.746 468.688 135.238 469.99 135.238C472.223 135.238 473.35 136.498 473.369 139.018V146H471.562V139.008C471.556 138.246 471.38 137.683 471.035 137.318C470.697 136.954 470.166 136.771 469.443 136.771C468.857 136.771 468.343 136.928 467.9 137.24C467.458 137.553 467.113 137.963 466.865 138.471V146H465.059V135.434H466.768Z" fill="#CACACA"/>
<path id="Or find me here" d="M270.07 385.68C270.07 386.794 269.883 387.768 269.508 388.602C269.133 389.43 268.602 390.062 267.914 390.5C267.227 390.938 266.424 391.156 265.508 391.156C264.612 391.156 263.818 390.938 263.125 390.5C262.432 390.057 261.893 389.43 261.508 388.617C261.128 387.799 260.932 386.854 260.922 385.781V384.961C260.922 383.867 261.112 382.901 261.492 382.062C261.872 381.224 262.409 380.583 263.102 380.141C263.799 379.693 264.596 379.469 265.492 379.469C266.404 379.469 267.206 379.69 267.898 380.133C268.596 380.57 269.133 381.208 269.508 382.047C269.883 382.88 270.07 383.852 270.07 384.961V385.68ZM268.578 384.945C268.578 383.596 268.307 382.562 267.766 381.844C267.224 381.12 266.466 380.758 265.492 380.758C264.544 380.758 263.797 381.12 263.25 381.844C262.708 382.562 262.43 383.562 262.414 384.844V385.68C262.414 386.987 262.688 388.016 263.234 388.766C263.786 389.51 264.544 389.883 265.508 389.883C266.477 389.883 267.227 389.531 267.758 388.828C268.289 388.12 268.562 387.107 268.578 385.789V384.945ZM276.18 383.844C275.961 383.807 275.724 383.789 275.469 383.789C274.521 383.789 273.878 384.193 273.539 385V391H272.094V382.547H273.5L273.523 383.523C273.997 382.768 274.669 382.391 275.539 382.391C275.82 382.391 276.034 382.427 276.18 382.5V383.844ZM281.969 391V383.664H280.633V382.547H281.969V381.828C281.969 380.885 282.237 380.151 282.773 379.625C283.315 379.099 284.078 378.836 285.062 378.836C285.646 378.836 286.383 378.995 287.273 379.312L287.031 380.531C286.38 380.271 285.76 380.141 285.172 380.141C284.552 380.141 284.104 380.281 283.828 380.562C283.557 380.839 283.422 381.255 283.422 381.812V382.547H285.148V383.664H283.422V391H281.969ZM287.992 391H286.539V382.547H287.992V391ZM291.711 382.547L291.758 383.609C292.404 382.797 293.247 382.391 294.289 382.391C296.076 382.391 296.977 383.398 296.992 385.414V391H295.547V385.406C295.542 384.797 295.401 384.346 295.125 384.055C294.854 383.763 294.43 383.617 293.852 383.617C293.383 383.617 292.971 383.742 292.617 383.992C292.263 384.242 291.987 384.57 291.789 384.977V391H290.344V382.547H291.711ZM298.82 386.703C298.82 385.406 299.128 384.365 299.742 383.578C300.357 382.786 301.161 382.391 302.156 382.391C303.146 382.391 303.93 382.729 304.508 383.406V379H305.953V391H304.625L304.555 390.094C303.977 390.802 303.172 391.156 302.141 391.156C301.161 391.156 300.362 390.755 299.742 389.953C299.128 389.151 298.82 388.104 298.82 386.812V386.703ZM300.266 386.867C300.266 387.826 300.464 388.576 300.859 389.117C301.255 389.659 301.802 389.93 302.5 389.93C303.417 389.93 304.086 389.518 304.508 388.695V384.812C304.076 384.016 303.411 383.617 302.516 383.617C301.807 383.617 301.255 383.891 300.859 384.438C300.464 384.984 300.266 385.794 300.266 386.867ZM313.531 382.547L313.57 383.484C314.19 382.755 315.026 382.391 316.078 382.391C317.26 382.391 318.065 382.844 318.492 383.75C318.773 383.344 319.138 383.016 319.586 382.766C320.039 382.516 320.573 382.391 321.188 382.391C323.042 382.391 323.984 383.372 324.016 385.336V391H322.57V385.422C322.57 384.818 322.432 384.367 322.156 384.07C321.88 383.768 321.417 383.617 320.766 383.617C320.229 383.617 319.784 383.779 319.43 384.102C319.076 384.419 318.87 384.849 318.812 385.391V391H317.359V385.461C317.359 384.232 316.758 383.617 315.555 383.617C314.607 383.617 313.958 384.021 313.609 384.828V391H312.164V382.547H313.531ZM329.711 391.156C328.565 391.156 327.633 390.781 326.914 390.031C326.195 389.276 325.836 388.268 325.836 387.008V386.742C325.836 385.904 325.995 385.156 326.312 384.5C326.635 383.839 327.083 383.323 327.656 382.953C328.234 382.578 328.859 382.391 329.531 382.391C330.63 382.391 331.484 382.753 332.094 383.477C332.703 384.201 333.008 385.237 333.008 386.586V387.188H327.281C327.302 388.021 327.544 388.695 328.008 389.211C328.477 389.721 329.07 389.977 329.789 389.977C330.299 389.977 330.732 389.872 331.086 389.664C331.44 389.456 331.75 389.18 332.016 388.836L332.898 389.523C332.19 390.612 331.128 391.156 329.711 391.156ZM329.531 383.578C328.948 383.578 328.458 383.792 328.062 384.219C327.667 384.641 327.422 385.234 327.328 386H331.562V385.891C331.521 385.156 331.323 384.589 330.969 384.188C330.615 383.781 330.135 383.578 329.531 383.578ZM340.102 383.57C340.742 382.784 341.576 382.391 342.602 382.391C344.388 382.391 345.289 383.398 345.305 385.414V391H343.859V385.406C343.854 384.797 343.714 384.346 343.438 384.055C343.167 383.763 342.742 383.617 342.164 383.617C341.695 383.617 341.284 383.742 340.93 383.992C340.576 384.242 340.299 384.57 340.102 384.977V391H338.656V379H340.102V383.57ZM350.977 391.156C349.831 391.156 348.898 390.781 348.18 390.031C347.461 389.276 347.102 388.268 347.102 387.008V386.742C347.102 385.904 347.26 385.156 347.578 384.5C347.901 383.839 348.349 383.323 348.922 382.953C349.5 382.578 350.125 382.391 350.797 382.391C351.896 382.391 352.75 382.753 353.359 383.477C353.969 384.201 354.273 385.237 354.273 386.586V387.188H348.547C348.568 388.021 348.81 388.695 349.273 389.211C349.742 389.721 350.336 389.977 351.055 389.977C351.565 389.977 351.997 389.872 352.352 389.664C352.706 389.456 353.016 389.18 353.281 388.836L354.164 389.523C353.456 390.612 352.393 391.156 350.977 391.156ZM350.797 383.578C350.214 383.578 349.724 383.792 349.328 384.219C348.932 384.641 348.688 385.234 348.594 386H352.828V385.891C352.786 385.156 352.589 384.589 352.234 384.188C351.88 383.781 351.401 383.578 350.797 383.578ZM360.039 383.844C359.82 383.807 359.583 383.789 359.328 383.789C358.38 383.789 357.737 384.193 357.398 385V391H355.953V382.547H357.359L357.383 383.523C357.857 382.768 358.529 382.391 359.398 382.391C359.68 382.391 359.893 382.427 360.039 382.5V383.844ZM364.727 391.156C363.581 391.156 362.648 390.781 361.93 390.031C361.211 389.276 360.852 388.268 360.852 387.008V386.742C360.852 385.904 361.01 385.156 361.328 384.5C361.651 383.839 362.099 383.323 362.672 382.953C363.25 382.578 363.875 382.391 364.547 382.391C365.646 382.391 366.5 382.753 367.109 383.477C367.719 384.201 368.023 385.237 368.023 386.586V387.188H362.297C362.318 388.021 362.56 388.695 363.023 389.211C363.492 389.721 364.086 389.977 364.805 389.977C365.315 389.977 365.747 389.872 366.102 389.664C366.456 389.456 366.766 389.18 367.031 388.836L367.914 389.523C367.206 390.612 366.143 391.156 364.727 391.156ZM364.547 383.578C363.964 383.578 363.474 383.792 363.078 384.219C362.682 384.641 362.438 385.234 362.344 386H366.578V385.891C366.536 385.156 366.339 384.589 365.984 384.188C365.63 383.781 365.151 383.578 364.547 383.578Z" fill="#CACACA"/>
<path id="Path 22" d="M260.603 161L582 162" stroke="#C4C4C4"/>
<path id="to empower our design:)" d="M263.818 215.875V218.434H265.791V219.83H263.818V226.383C263.818 226.806 263.906 227.125 264.082 227.34C264.258 227.548 264.557 227.652 264.98 227.652C265.189 227.652 265.475 227.613 265.84 227.535V229C265.365 229.13 264.902 229.195 264.453 229.195C263.646 229.195 263.037 228.951 262.627 228.463C262.217 227.975 262.012 227.281 262.012 226.383V219.83H260.088V218.434H262.012V215.875H263.818ZM267.236 223.619C267.236 222.584 267.438 221.653 267.842 220.826C268.252 219.999 268.818 219.361 269.541 218.912C270.27 218.463 271.1 218.238 272.031 218.238C273.47 218.238 274.632 218.736 275.518 219.732C276.41 220.729 276.855 222.053 276.855 223.707V223.834C276.855 224.863 276.657 225.787 276.26 226.607C275.869 227.421 275.306 228.056 274.57 228.512C273.841 228.967 273.001 229.195 272.051 229.195C270.618 229.195 269.456 228.697 268.564 227.701C267.679 226.705 267.236 225.387 267.236 223.746V223.619ZM269.053 223.834C269.053 225.006 269.323 225.947 269.863 226.656C270.41 227.366 271.139 227.721 272.051 227.721C272.969 227.721 273.698 227.363 274.238 226.646C274.779 225.924 275.049 224.915 275.049 223.619C275.049 222.46 274.772 221.523 274.219 220.807C273.672 220.084 272.943 219.723 272.031 219.723C271.139 219.723 270.42 220.077 269.873 220.787C269.326 221.497 269.053 222.512 269.053 223.834ZM288.467 229.195C287.035 229.195 285.869 228.727 284.971 227.789C284.072 226.845 283.623 225.585 283.623 224.01V223.678C283.623 222.63 283.822 221.695 284.219 220.875C284.622 220.048 285.182 219.404 285.898 218.941C286.621 218.473 287.402 218.238 288.242 218.238C289.616 218.238 290.684 218.691 291.445 219.596C292.207 220.501 292.588 221.796 292.588 223.482V224.234H285.43C285.456 225.276 285.758 226.119 286.338 226.764C286.924 227.402 287.666 227.721 288.564 227.721C289.202 227.721 289.743 227.59 290.186 227.33C290.628 227.07 291.016 226.725 291.348 226.295L292.451 227.154C291.566 228.515 290.238 229.195 288.467 229.195ZM288.242 219.723C287.513 219.723 286.901 219.99 286.406 220.523C285.911 221.051 285.605 221.793 285.488 222.75H290.781V222.613C290.729 221.695 290.482 220.986 290.039 220.484C289.596 219.977 288.997 219.723 288.242 219.723ZM296.387 218.434L296.436 219.605C297.21 218.694 298.255 218.238 299.57 218.238C301.048 218.238 302.054 218.805 302.588 219.938C302.939 219.43 303.395 219.02 303.955 218.707C304.521 218.395 305.189 218.238 305.957 218.238C308.275 218.238 309.453 219.465 309.492 221.92V229H307.686V222.027C307.686 221.272 307.513 220.709 307.168 220.338C306.823 219.96 306.243 219.771 305.43 219.771C304.759 219.771 304.202 219.973 303.76 220.377C303.317 220.774 303.06 221.311 302.988 221.988V229H301.172V222.076C301.172 220.54 300.42 219.771 298.916 219.771C297.731 219.771 296.921 220.276 296.484 221.285V229H294.678V218.434H296.387ZM321.152 223.834C321.152 225.442 320.785 226.738 320.049 227.721C319.313 228.704 318.317 229.195 317.061 229.195C315.778 229.195 314.769 228.788 314.033 227.975V233.062H312.227V218.434H313.877L313.965 219.605C314.701 218.694 315.723 218.238 317.031 218.238C318.301 218.238 319.303 218.717 320.039 219.674C320.781 220.631 321.152 221.962 321.152 223.668V223.834ZM319.346 223.629C319.346 222.438 319.092 221.497 318.584 220.807C318.076 220.117 317.38 219.771 316.494 219.771C315.4 219.771 314.58 220.257 314.033 221.227V226.275C314.574 227.239 315.4 227.721 316.514 227.721C317.38 227.721 318.066 227.379 318.574 226.695C319.089 226.005 319.346 224.983 319.346 223.629ZM322.979 223.619C322.979 222.584 323.18 221.653 323.584 220.826C323.994 219.999 324.561 219.361 325.283 218.912C326.012 218.463 326.842 218.238 327.773 218.238C329.212 218.238 330.374 218.736 331.26 219.732C332.152 220.729 332.598 222.053 332.598 223.707V223.834C332.598 224.863 332.399 225.787 332.002 226.607C331.611 227.421 331.048 228.056 330.312 228.512C329.583 228.967 328.743 229.195 327.793 229.195C326.361 229.195 325.199 228.697 324.307 227.701C323.421 226.705 322.979 225.387 322.979 223.746V223.619ZM324.795 223.834C324.795 225.006 325.065 225.947 325.605 226.656C326.152 227.366 326.882 227.721 327.793 227.721C328.711 227.721 329.44 227.363 329.98 226.646C330.521 225.924 330.791 224.915 330.791 223.619C330.791 222.46 330.514 221.523 329.961 220.807C329.414 220.084 328.685 219.723 327.773 219.723C326.882 219.723 326.162 220.077 325.615 220.787C325.068 221.497 324.795 222.512 324.795 223.834ZM344.219 226.51L346.25 218.434H348.057L344.98 229H343.516L340.947 220.992L338.447 229H336.982L333.916 218.434H335.713L337.793 226.344L340.254 218.434H341.709L344.219 226.51ZM354.287 229.195C352.855 229.195 351.689 228.727 350.791 227.789C349.893 226.845 349.443 225.585 349.443 224.01V223.678C349.443 222.63 349.642 221.695 350.039 220.875C350.443 220.048 351.003 219.404 351.719 218.941C352.441 218.473 353.223 218.238 354.062 218.238C355.436 218.238 356.504 218.691 357.266 219.596C358.027 220.501 358.408 221.796 358.408 223.482V224.234H351.25C351.276 225.276 351.579 226.119 352.158 226.764C352.744 227.402 353.486 227.721 354.385 227.721C355.023 227.721 355.563 227.59 356.006 227.33C356.449 227.07 356.836 226.725 357.168 226.295L358.271 227.154C357.386 228.515 356.058 229.195 354.287 229.195ZM354.062 219.723C353.333 219.723 352.721 219.99 352.227 220.523C351.732 221.051 351.426 221.793 351.309 222.75H356.602V222.613C356.549 221.695 356.302 220.986 355.859 220.484C355.417 219.977 354.818 219.723 354.062 219.723ZM365.615 220.055C365.342 220.009 365.046 219.986 364.727 219.986C363.542 219.986 362.738 220.491 362.314 221.5V229H360.508V218.434H362.266L362.295 219.654C362.887 218.71 363.727 218.238 364.814 218.238C365.166 218.238 365.433 218.284 365.615 218.375V220.055ZM371.768 223.619C371.768 222.584 371.969 221.653 372.373 220.826C372.783 219.999 373.35 219.361 374.072 218.912C374.801 218.463 375.632 218.238 376.562 218.238C378.001 218.238 379.163 218.736 380.049 219.732C380.941 220.729 381.387 222.053 381.387 223.707V223.834C381.387 224.863 381.188 225.787 380.791 226.607C380.4 227.421 379.837 228.056 379.102 228.512C378.372 228.967 377.533 229.195 376.582 229.195C375.15 229.195 373.988 228.697 373.096 227.701C372.21 226.705 371.768 225.387 371.768 223.746V223.619ZM373.584 223.834C373.584 225.006 373.854 225.947 374.395 226.656C374.941 227.366 375.671 227.721 376.582 227.721C377.5 227.721 378.229 227.363 378.77 226.646C379.31 225.924 379.58 224.915 379.58 223.619C379.58 222.46 379.303 221.523 378.75 220.807C378.203 220.084 377.474 219.723 376.562 219.723C375.671 219.723 374.951 220.077 374.404 220.787C373.857 221.497 373.584 222.512 373.584 223.834ZM390.176 227.955C389.473 228.782 388.441 229.195 387.08 229.195C385.954 229.195 385.094 228.87 384.502 228.219C383.916 227.561 383.62 226.591 383.613 225.309V218.434H385.42V225.26C385.42 226.861 386.071 227.662 387.373 227.662C388.753 227.662 389.671 227.148 390.127 226.119V218.434H391.934V229H390.215L390.176 227.955ZM399.795 220.055C399.521 220.009 399.225 219.986 398.906 219.986C397.721 219.986 396.917 220.491 396.494 221.5V229H394.688V218.434H396.445L396.475 219.654C397.067 218.71 397.907 218.238 398.994 218.238C399.346 218.238 399.613 218.284 399.795 218.375V220.055ZM405.986 223.629C405.986 222.008 406.37 220.706 407.139 219.723C407.907 218.733 408.913 218.238 410.156 218.238C411.393 218.238 412.373 218.661 413.096 219.508V214H414.902V229H413.242L413.154 227.867C412.432 228.753 411.426 229.195 410.137 229.195C408.913 229.195 407.913 228.694 407.139 227.691C406.37 226.689 405.986 225.38 405.986 223.766V223.629ZM407.793 223.834C407.793 225.032 408.04 225.969 408.535 226.646C409.03 227.324 409.714 227.662 410.586 227.662C411.732 227.662 412.568 227.148 413.096 226.119V221.266C412.555 220.27 411.725 219.771 410.605 219.771C409.72 219.771 409.03 220.113 408.535 220.797C408.04 221.48 407.793 222.493 407.793 223.834ZM422.1 229.195C420.667 229.195 419.502 228.727 418.604 227.789C417.705 226.845 417.256 225.585 417.256 224.01V223.678C417.256 222.63 417.454 221.695 417.852 220.875C418.255 220.048 418.815 219.404 419.531 218.941C420.254 218.473 421.035 218.238 421.875 218.238C423.249 218.238 424.316 218.691 425.078 219.596C425.84 220.501 426.221 221.796 426.221 223.482V224.234H419.062C419.089 225.276 419.391 226.119 419.971 226.764C420.557 227.402 421.299 227.721 422.197 227.721C422.835 227.721 423.376 227.59 423.818 227.33C424.261 227.07 424.648 226.725 424.98 226.295L426.084 227.154C425.199 228.515 423.87 229.195 422.1 229.195ZM421.875 219.723C421.146 219.723 420.534 219.99 420.039 220.523C419.544 221.051 419.238 221.793 419.121 222.75H424.414V222.613C424.362 221.695 424.115 220.986 423.672 220.484C423.229 219.977 422.63 219.723 421.875 219.723ZM434.473 226.197C434.473 225.709 434.287 225.331 433.916 225.064C433.551 224.791 432.91 224.557 431.992 224.361C431.081 224.166 430.355 223.932 429.814 223.658C429.281 223.385 428.883 223.059 428.623 222.682C428.369 222.304 428.242 221.855 428.242 221.334C428.242 220.468 428.607 219.736 429.336 219.137C430.072 218.538 431.009 218.238 432.148 218.238C433.346 218.238 434.316 218.548 435.059 219.166C435.807 219.785 436.182 220.576 436.182 221.539H434.365C434.365 221.044 434.154 220.618 433.73 220.26C433.314 219.902 432.786 219.723 432.148 219.723C431.491 219.723 430.977 219.866 430.605 220.152C430.234 220.439 430.049 220.813 430.049 221.275C430.049 221.712 430.221 222.04 430.566 222.262C430.911 222.483 431.533 222.695 432.432 222.896C433.337 223.098 434.069 223.339 434.629 223.619C435.189 223.899 435.602 224.238 435.869 224.635C436.143 225.025 436.279 225.504 436.279 226.07C436.279 227.014 435.902 227.773 435.146 228.346C434.391 228.912 433.411 229.195 432.207 229.195C431.361 229.195 430.612 229.046 429.961 228.746C429.31 228.447 428.799 228.03 428.428 227.496C428.063 226.956 427.881 226.373 427.881 225.748H429.688C429.72 226.354 429.961 226.835 430.41 227.193C430.866 227.545 431.465 227.721 432.207 227.721C432.891 227.721 433.438 227.584 433.848 227.311C434.264 227.031 434.473 226.66 434.473 226.197ZM440.596 229H438.789V218.434H440.596V229ZM438.643 215.631C438.643 215.338 438.73 215.09 438.906 214.889C439.089 214.687 439.355 214.586 439.707 214.586C440.059 214.586 440.326 214.687 440.508 214.889C440.69 215.09 440.781 215.338 440.781 215.631C440.781 215.924 440.69 216.168 440.508 216.363C440.326 216.559 440.059 216.656 439.707 216.656C439.355 216.656 439.089 216.559 438.906 216.363C438.73 216.168 438.643 215.924 438.643 215.631ZM443.066 223.629C443.066 221.982 443.447 220.673 444.209 219.703C444.971 218.727 445.98 218.238 447.236 218.238C448.525 218.238 449.531 218.694 450.254 219.605L450.342 218.434H451.992V228.746C451.992 230.113 451.585 231.191 450.771 231.979C449.964 232.766 448.877 233.16 447.51 233.16C446.748 233.16 446.003 232.997 445.273 232.672C444.544 232.346 443.988 231.9 443.604 231.334L444.541 230.25C445.316 231.207 446.263 231.686 447.383 231.686C448.262 231.686 448.945 231.438 449.434 230.943C449.928 230.449 450.176 229.752 450.176 228.854V227.945C449.453 228.779 448.467 229.195 447.217 229.195C445.98 229.195 444.977 228.697 444.209 227.701C443.447 226.705 443.066 225.348 443.066 223.629ZM444.883 223.834C444.883 225.025 445.127 225.963 445.615 226.646C446.104 227.324 446.787 227.662 447.666 227.662C448.805 227.662 449.642 227.145 450.176 226.109V221.285C449.622 220.276 448.792 219.771 447.686 219.771C446.807 219.771 446.12 220.113 445.625 220.797C445.13 221.48 444.883 222.493 444.883 223.834ZM456.436 218.434L456.494 219.762C457.301 218.746 458.356 218.238 459.658 218.238C461.891 218.238 463.018 219.498 463.037 222.018V229H461.23V222.008C461.224 221.246 461.048 220.683 460.703 220.318C460.365 219.954 459.834 219.771 459.111 219.771C458.525 219.771 458.011 219.928 457.568 220.24C457.126 220.553 456.781 220.963 456.533 221.471V229H454.727V218.434H456.436ZM465.703 228.053C465.703 227.74 465.794 227.48 465.977 227.271C466.165 227.063 466.445 226.959 466.816 226.959C467.188 226.959 467.467 227.063 467.656 227.271C467.852 227.48 467.949 227.74 467.949 228.053C467.949 228.352 467.852 228.603 467.656 228.805C467.467 229.007 467.188 229.107 466.816 229.107C466.445 229.107 466.165 229.007 465.977 228.805C465.794 228.603 465.703 228.352 465.703 228.053ZM465.713 219.43C465.713 219.117 465.804 218.857 465.986 218.648C466.175 218.44 466.455 218.336 466.826 218.336C467.197 218.336 467.477 218.44 467.666 218.648C467.861 218.857 467.959 219.117 467.959 219.43C467.959 219.729 467.861 219.98 467.666 220.182C467.477 220.383 467.197 220.484 466.826 220.484C466.455 220.484 466.175 220.383 465.986 220.182C465.804 219.98 465.713 219.729 465.713 219.43ZM474.775 223.326C474.775 224.778 474.583 226.171 474.199 227.506C473.822 228.834 473.239 230.061 472.451 231.188C471.67 232.314 470.85 233.115 469.99 233.59L469.609 232.486C470.612 231.718 471.416 230.527 472.021 228.912C472.633 227.291 472.946 225.494 472.959 223.521V223.209C472.959 221.842 472.816 220.572 472.529 219.4C472.243 218.222 471.842 217.167 471.328 216.236C470.82 215.305 470.247 214.579 469.609 214.059L469.99 212.955C470.85 213.43 471.667 214.225 472.441 215.338C473.223 216.451 473.805 217.678 474.189 219.02C474.58 220.361 474.775 221.796 474.775 223.326Z" fill="#CACACA"/>
<path id="Path 22_2" d="M260.603 244L582 245" stroke="#C4C4C4"/>
<g id="Link1">
<path id="LinkedIn" d="M400.359 388.117H405.336V390H398.016V378.625H400.359V388.117ZM408.922 390H406.656V381.547H408.922V390ZM406.523 379.359C406.523 379.021 406.635 378.742 406.859 378.523C407.089 378.305 407.398 378.195 407.789 378.195C408.174 378.195 408.482 378.305 408.711 378.523C408.94 378.742 409.055 379.021 409.055 379.359C409.055 379.703 408.938 379.984 408.703 380.203C408.474 380.422 408.169 380.531 407.789 380.531C407.409 380.531 407.102 380.422 406.867 380.203C406.638 379.984 406.523 379.703 406.523 379.359ZM412.867 381.547L412.938 382.523C413.542 381.768 414.352 381.391 415.367 381.391C416.263 381.391 416.93 381.654 417.367 382.18C417.805 382.706 418.029 383.492 418.039 384.539V390H415.781V384.594C415.781 384.115 415.677 383.768 415.469 383.555C415.26 383.336 414.914 383.227 414.43 383.227C413.794 383.227 413.318 383.497 413 384.039V390H410.742V381.547H412.867ZM422.828 386.609L422.016 387.422V390H419.758V378H422.016V384.648L422.453 384.086L424.617 381.547H427.328L424.273 385.07L427.594 390H425L422.828 386.609ZM432.039 390.156C430.799 390.156 429.789 389.776 429.008 389.016C428.232 388.255 427.844 387.242 427.844 385.977V385.758C427.844 384.909 428.008 384.151 428.336 383.484C428.664 382.812 429.128 382.297 429.727 381.938C430.331 381.573 431.018 381.391 431.789 381.391C432.945 381.391 433.854 381.755 434.516 382.484C435.182 383.214 435.516 384.247 435.516 385.586V386.508H430.133C430.206 387.06 430.424 387.503 430.789 387.836C431.159 388.169 431.625 388.336 432.188 388.336C433.057 388.336 433.737 388.021 434.227 387.391L435.336 388.633C434.997 389.112 434.539 389.487 433.961 389.758C433.383 390.023 432.742 390.156 432.039 390.156ZM431.781 383.219C431.333 383.219 430.969 383.37 430.688 383.672C430.411 383.974 430.234 384.406 430.156 384.969H433.297V384.789C433.286 384.289 433.151 383.904 432.891 383.633C432.63 383.357 432.26 383.219 431.781 383.219ZM436.453 385.711C436.453 384.393 436.747 383.344 437.336 382.562C437.93 381.781 438.74 381.391 439.766 381.391C440.589 381.391 441.268 381.698 441.805 382.312V378H444.07V390H442.031L441.922 389.102C441.359 389.805 440.635 390.156 439.75 390.156C438.755 390.156 437.956 389.766 437.352 388.984C436.753 388.198 436.453 387.107 436.453 385.711ZM438.711 385.875C438.711 386.667 438.849 387.273 439.125 387.695C439.401 388.117 439.802 388.328 440.328 388.328C441.026 388.328 441.518 388.034 441.805 387.445V384.109C441.523 383.521 441.036 383.227 440.344 383.227C439.255 383.227 438.711 384.109 438.711 385.875ZM448.461 390H446.117V378.625H448.461V390ZM452.57 381.547L452.641 382.523C453.245 381.768 454.055 381.391 455.07 381.391C455.966 381.391 456.633 381.654 457.07 382.18C457.508 382.706 457.732 383.492 457.742 384.539V390H455.484V384.594C455.484 384.115 455.38 383.768 455.172 383.555C454.964 383.336 454.617 383.227 454.133 383.227C453.497 383.227 453.021 383.497 452.703 384.039V390H450.445V381.547H452.57Z" fill="#3F3D56"/>
</g>
<g id="Link2">
<path id="Behance" d="M485.016 390V378.625H489C490.38 378.625 491.427 378.891 492.141 379.422C492.854 379.948 493.211 380.721 493.211 381.742C493.211 382.299 493.068 382.792 492.781 383.219C492.495 383.641 492.096 383.951 491.586 384.148C492.169 384.294 492.628 384.589 492.961 385.031C493.299 385.474 493.469 386.016 493.469 386.656C493.469 387.75 493.12 388.578 492.422 389.141C491.724 389.703 490.729 389.99 489.438 390H485.016ZM487.359 385.047V388.117H489.367C489.919 388.117 490.349 387.987 490.656 387.727C490.969 387.461 491.125 387.096 491.125 386.633C491.125 385.591 490.586 385.062 489.508 385.047H487.359ZM487.359 383.391H489.094C490.276 383.37 490.867 382.898 490.867 381.977C490.867 381.461 490.716 381.091 490.414 380.867C490.117 380.638 489.646 380.523 489 380.523H487.359V383.391ZM498.977 390.156C497.737 390.156 496.727 389.776 495.945 389.016C495.169 388.255 494.781 387.242 494.781 385.977V385.758C494.781 384.909 494.945 384.151 495.273 383.484C495.602 382.812 496.065 382.297 496.664 381.938C497.268 381.573 497.956 381.391 498.727 381.391C499.883 381.391 500.792 381.755 501.453 382.484C502.12 383.214 502.453 384.247 502.453 385.586V386.508H497.07C497.143 387.06 497.362 387.503 497.727 387.836C498.096 388.169 498.562 388.336 499.125 388.336C499.995 388.336 500.674 388.021 501.164 387.391L502.273 388.633C501.935 389.112 501.477 389.487 500.898 389.758C500.32 390.023 499.68 390.156 498.977 390.156ZM498.719 383.219C498.271 383.219 497.906 383.37 497.625 383.672C497.349 383.974 497.172 384.406 497.094 384.969H500.234V384.789C500.224 384.289 500.089 383.904 499.828 383.633C499.568 383.357 499.198 383.219 498.719 383.219ZM505.945 382.469C506.544 381.75 507.297 381.391 508.203 381.391C510.036 381.391 510.966 382.456 510.992 384.586V390H508.734V384.648C508.734 384.164 508.63 383.807 508.422 383.578C508.214 383.344 507.867 383.227 507.383 383.227C506.721 383.227 506.242 383.482 505.945 383.992V390H503.688V378H505.945V382.469ZM517.594 390C517.49 389.797 517.414 389.544 517.367 389.242C516.82 389.852 516.109 390.156 515.234 390.156C514.406 390.156 513.719 389.917 513.172 389.438C512.63 388.958 512.359 388.354 512.359 387.625C512.359 386.729 512.69 386.042 513.352 385.562C514.018 385.083 514.979 384.841 516.234 384.836H517.273V384.352C517.273 383.961 517.172 383.648 516.969 383.414C516.771 383.18 516.456 383.062 516.023 383.062C515.643 383.062 515.344 383.154 515.125 383.336C514.911 383.518 514.805 383.768 514.805 384.086H512.547C512.547 383.596 512.698 383.143 513 382.727C513.302 382.31 513.729 381.984 514.281 381.75C514.833 381.51 515.453 381.391 516.141 381.391C517.182 381.391 518.008 381.654 518.617 382.18C519.232 382.701 519.539 383.435 519.539 384.383V388.047C519.544 388.849 519.656 389.456 519.875 389.867V390H517.594ZM515.727 388.43C516.06 388.43 516.367 388.357 516.648 388.211C516.93 388.06 517.138 387.859 517.273 387.609V386.156H516.43C515.299 386.156 514.698 386.547 514.625 387.328L514.617 387.461C514.617 387.742 514.716 387.974 514.914 388.156C515.112 388.339 515.383 388.43 515.727 388.43ZM523.352 381.547L523.422 382.523C524.026 381.768 524.836 381.391 525.852 381.391C526.747 381.391 527.414 381.654 527.852 382.18C528.289 382.706 528.513 383.492 528.523 384.539V390H526.266V384.594C526.266 384.115 526.161 383.768 525.953 383.555C525.745 383.336 525.398 383.227 524.914 383.227C524.279 383.227 523.802 383.497 523.484 384.039V390H521.227V381.547H523.352ZM533.758 388.336C534.174 388.336 534.513 388.221 534.773 387.992C535.034 387.763 535.169 387.458 535.18 387.078H537.297C537.292 387.651 537.135 388.177 536.828 388.656C536.521 389.13 536.099 389.5 535.562 389.766C535.031 390.026 534.443 390.156 533.797 390.156C532.589 390.156 531.635 389.773 530.938 389.008C530.24 388.237 529.891 387.174 529.891 385.82V385.672C529.891 384.37 530.237 383.331 530.93 382.555C531.622 381.779 532.573 381.391 533.781 381.391C534.839 381.391 535.685 381.693 536.32 382.297C536.961 382.896 537.286 383.695 537.297 384.695H535.18C535.169 384.258 535.034 383.904 534.773 383.633C534.513 383.357 534.169 383.219 533.742 383.219C533.216 383.219 532.818 383.411 532.547 383.797C532.281 384.177 532.148 384.797 532.148 385.656V385.891C532.148 386.76 532.281 387.385 532.547 387.766C532.812 388.146 533.216 388.336 533.758 388.336ZM542.477 390.156C541.237 390.156 540.227 389.776 539.445 389.016C538.669 388.255 538.281 387.242 538.281 385.977V385.758C538.281 384.909 538.445 384.151 538.773 383.484C539.102 382.812 539.565 382.297 540.164 381.938C540.768 381.573 541.456 381.391 542.227 381.391C543.383 381.391 544.292 381.755 544.953 382.484C545.62 383.214 545.953 384.247 545.953 385.586V386.508H540.57C540.643 387.06 540.862 387.503 541.227 387.836C541.596 388.169 542.062 388.336 542.625 388.336C543.495 388.336 544.174 388.021 544.664 387.391L545.773 388.633C545.435 389.112 544.977 389.487 544.398 389.758C543.82 390.023 543.18 390.156 542.477 390.156ZM542.219 383.219C541.771 383.219 541.406 383.37 541.125 383.672C540.849 383.974 540.672 384.406 540.594 384.969H543.734V384.789C543.724 384.289 543.589 383.904 543.328 383.633C543.068 383.357 542.698 383.219 542.219 383.219Z" fill="#3F3D56"/>
</g>
</g>
<g id="lovelygirl">
<path id="Path_8" d="M95.8997 328.714C90.4464 331.631 85.6006 311.253 85.6006 311.253L85.3935 308.399L85 303L91.6613 303.85C91.5612 305.016 91.5612 306.189 91.6613 307.355C91.7787 308.737 92.1169 310.182 92.9107 310.763C94.6848 312.104 101.346 325.804 95.8997 328.714Z" fill="#EDDFE1"/>
<path id="Path_9" d="M2.10034 330.714C7.55365 333.631 12.3994 313.253 12.3994 313.253L12.6065 310.399L13 305L6.33874 305.85C6.43931 307.016 6.43931 308.189 6.33874 309.355C6.22139 310.737 5.88314 312.182 5.08931 312.763C3.31525 314.104 -3.34611 327.804 2.10034 330.714Z" fill="#EDDFE1"/>
<path id="Path_10" d="M57 354V367.85C57 368.451 57 369.049 57 369.645C57.143 374.819 57.6058 379.98 58.3859 385.097C58.5715 386.348 58.6017 387.616 58.476 388.873C57.9909 393.583 59.1689 411.567 59.1689 411.567L61.2478 434.859C61.2478 434.859 60.0352 447.526 60.5549 449.3C60.6928 450.028 60.7364 450.77 60.6865 451.508C60.6172 453.571 60.2569 456.218 60.1391 457.009V457.25L60.2153 457.305L70.3808 465C68.7593 463.535 68.3435 460.124 68.3504 456.961C68.3504 456.617 68.3504 456.273 68.3504 455.929C68.3504 452.972 68.2347 450.015 68.004 447.058C67.6714 442.196 69.6255 434.749 71.0529 430.113C72.8754 424.206 74.7047 389.691 73.7277 387.882C72.7506 386.074 71.5934 381.067 72.8061 378.413C73.5198 376.797 72.3896 371.976 72.8054 367.85C73.0687 365.347 73.7277 361.908 73.7277 361.908L57 354Z" fill="#EDDFE1"/>
<path id="Path_11" d="M25 356V369.853C25 370.706 25 371.565 25 372.418C25.1554 377.335 25.5948 382.238 26.3156 387.103C26.4983 388.354 26.528 389.622 26.4042 390.879C25.9271 395.591 27.0859 413.577 27.0859 413.577L29.1309 436.874C29.1309 436.874 27.9312 449.543 28.4083 451.318C28.5469 452.043 28.5905 452.783 28.5378 453.519C28.4697 455.582 28.1084 458.272 27.9993 459.021C27.9993 459.173 27.9652 459.248 27.9652 459.248L28.0402 459.303L38.0539 467C36.5065 465.501 36.1043 462.13 36.1111 459.008C36.1111 458.664 36.1111 458.32 36.1111 457.969C36.1111 455.011 35.9748 452.054 35.7771 449.096C35.4567 444.233 37.3722 436.791 38.7764 432.155C40.576 426.247 42.3688 391.725 41.4076 389.916C40.4465 388.107 41.5303 383.396 42.7232 380.741C43.1527 379.805 43.5617 377.529 43.9162 374.998C44.5501 370.403 45 364.935 45 364.935L25 356Z" fill="#EDDFE1"/>
<path id="Path_12" d="M60.1967 462.274C61.2847 464.713 61.8329 467.348 61.807 470.007C61.7608 472.193 62.33 474.349 63.4523 476.24C63.6091 476.509 63.7897 476.763 63.9914 477C63.9914 477 69.3754 476.959 71.2587 475.433C71.4723 475.278 71.6487 475.08 71.7768 474.851C72.855 472.751 69.6764 464.704 69.6764 464.704C68.0101 458.497 64.6215 455.185 64.6215 455.185C58.5792 453.639 60.1967 462.274 60.1967 462.274Z" fill="#656181"/>
<path id="Path_13" opacity="0.1" d="M66 476.257C66.1413 476.519 66.3026 476.768 66.4834 477C66.4834 477 71.3112 476.96 73 475.467C72.1713 472.535 69.5157 463.665 68.2789 465.171C67.0422 466.677 66.2951 473.425 66 476.257Z" fill="black"/>
<path id="Path_14" d="M66.6329 465.725L67 479H65.2131C65.2131 479 64.9291 467.356 64.1257 465.725C63.3223 464.094 66.6329 465.725 66.6329 465.725Z" fill="#656181"/>
<path id="Path_15" d="M27.1954 458.276C28.2899 460.713 28.8416 463.347 28.8142 466.008C28.7679 468.194 29.3376 470.349 30.4609 472.241C30.6203 472.507 30.8007 472.761 31.0005 473C31.0005 473 36.3893 472.959 38.2743 471.433C38.4819 471.273 38.6537 471.073 38.7788 470.845C39.851 468.744 36.6766 460.698 36.6766 460.698C35.0088 454.493 31.6172 451.181 31.6172 451.181C25.5837 449.655 27.1954 458.276 27.1954 458.276Z" fill="#656181"/>
<path id="Path_16" opacity="0.1" d="M31 473.257C31.1428 473.518 31.3044 473.766 31.4834 474C31.4834 474 36.3112 473.96 38 472.468C37.1713 469.537 34.5157 460.665 33.2789 462.171C32.0422 463.676 31.2951 470.407 31 473.257Z" fill="black"/>
<path id="Path_17" d="M31.626 462.725L32 476H30.2133C30.2133 476 29.9293 464.357 29.1259 462.725C28.3226 461.093 31.626 462.725 31.626 462.725Z" fill="#656181"/>
<path id="Path_18" d="M43.9999 217C34.6111 217 27 209.389 27 200C27 190.611 34.6111 183 43.9999 183C53.3887 183 61 190.611 61 200C61 209.389 53.3887 217 43.9999 217Z" fill="#EDDFE1"/>
<path id="Path_19" d="M63.2759 277L69.1253 267.817L72.4112 252.74C73.2415 249.006 73.1929 245.126 72.2703 241.415C71.347 237.705 69.5759 234.268 67.1 231.386C64.6916 228.518 61.6512 226.27 58.2262 224.825C54.8015 223.38 51.0896 222.78 47.3932 223.072C47.1546 223.091 46.9153 223.111 46.6754 223.133C43.5172 223.422 40.4486 224.356 37.6525 225.877C34.8563 227.399 32.3898 229.478 30.4002 231.99C28.369 234.517 26.8586 237.433 25.9589 240.566C25.0593 243.699 24.7889 246.984 25.1637 250.226L31.9141 276.314L63.2759 277Z" fill="url(#paint0_linear)"/>
<path id="Path_20" opacity="0.99" d="M81.4883 311.903C81.9159 311.903 82.2303 311.432 82.6208 311.254L89.7167 308.023C90.4 307.713 91.6391 306.77 91.9433 306.075C92.2475 305.381 96.2198 299.943 95.9904 299.219L74.8618 263.569V238.364C74.6979 237.358 73.931 235.636 73.3941 234.774C72.8571 233.913 71.8582 232.955 71.0332 232.375C70.2076 231.795 69.9796 232.365 68.9976 232.158C68.0155 231.951 67.0017 231.947 66.0182 232.147C65.0341 232.346 64.0999 232.745 63.2702 233.319C62.4412 233.892 61.7343 234.63 61.1907 235.487C60.6477 236.345 60.2801 237.304 60.1094 238.309C59.9381 239.314 59.9684 240.343 60.1971 241.336L67.3234 266.997L77.4412 307.446C77.6307 308.079 77.9531 312.538 78.4766 312.931C78.9993 313.325 80.8374 311.903 81.4883 311.903Z" fill="url(#paint1_linear)"/>
<path id="Path_21" opacity="0.9" d="M13.316 311.521C13.9758 311.521 14.511 312.293 15.0414 311.9C15.2762 313.228 18.2697 313.218 18.4619 312.585L25.8745 270.766L34.8003 241.336C35.0322 240.343 35.0625 239.314 34.8893 238.309C34.7161 237.304 34.343 236.345 33.7922 235.487C33.2413 234.63 32.524 233.892 31.683 233.319C30.842 232.745 29.8943 232.346 28.8964 232.147C27.8986 231.947 26.8709 231.951 25.8745 232.158C24.8781 232.365 23.9334 232.77 23.0966 233.35C22.2597 233.93 21.5479 234.673 21.0034 235.534C20.4589 236.396 20.0928 237.358 19.927 238.364L18.4619 268.367L1.01716 305.387C0.784085 306.11 2.99697 305.767 3.30564 306.461C3.6143 307.155 4.16802 307.71 4.86047 308.02L12.0578 311.251C12.4537 311.429 12.8824 311.521 13.316 311.521Z" fill="url(#paint2_linear)"/>
<path id="Path_22" opacity="0.8" d="M75 269L94.322 302.903L95 303.602L93.983 305L75 269Z" fill="#CBD5EB"/>
<path id="Path_23" opacity="0.8" d="M75 270L92.3621 303.991L93 304.709L91.8977 306L75 270Z" fill="#CBD4EB"/>
<path id="Path_24" opacity="0.9" d="M78 271L92.5031 306.301L93 306.977L91.6802 308L78 271Z" fill="#B7C9E6" fill-opacity="0.58"/>
<path id="Path_25" opacity="0.9" d="M18 270L8.65144 308.004L8.30745 310L7 309.301L18 270Z" fill="#CBD4EB"/>
<path id="Path_26" opacity="0.9" d="M18 271L10.682 308.983L10.5068 311L9 310.444L18 271Z" fill="#CBD4EB"/>
<path id="Path_27" opacity="0.9" d="M18 271L6.74014 307.125L6.15892 309L5 308.135L18 271Z" fill="#CBD4EB"/>
<path id="Shape" d="M63.2766 275L35.3617 243.262M66 232L34 273.976L66 232Z" stroke="#D7C4DA" stroke-width="3" stroke-linejoin="round"/>
<path id="Path_28" d="M59.1154 189.304C57.2253 184.529 53.727 179.419 49.0434 181.462H47.3281C44.9267 181.462 38.4864 182.25 35.3209 184.918C31.4381 189.577 29.3694 190.446 26.7446 200.812C25.1712 207.025 25.7133 210.832 25.7133 221.273C25.9649 223.743 25.7133 224.998 25.1381 230.526C24.0001 234.673 23.0554 236.165 21.2553 239.886C20.0546 242.368 19.1664 242.472 21.2553 244.26C23.3442 246.048 22.7518 246.053 25.4403 246.593C38.9703 249.292 43.5547 237.782 53.8463 235.364C62.4234 235.364 69.5879 235.05 71 233.982C70.4559 230.646 66.91 228.233 65.1096 225.38C63.4739 222.788 61.8141 219.626 61.0505 218.088C60.0215 214.978 52.5737 210.229 52.4744 207.031C52.3749 203.833 58.6357 201.891 59.2842 198.759C59.9328 195.627 60.2917 192.275 59.1154 189.304Z" fill="#72708B"/>
<path id="Path_29" d="M40.2695 439.078H33.3606C33.3606 439.078 28.4267 439.615 27.8524 439.078C27.2782 438.541 22.0501 439.861 22 439.078L26.1721 416.65C22.8584 363.619 19.432 308.781 30.7211 284.235L32.3282 275H65.0328L68.2213 284.848C78.5615 304.808 78.2152 355.758 77.8805 405.03C77.8427 410.563 77.9039 418.341 77.8805 423.832C77.875 424.646 75.9499 438.161 75.3702 438.735C74.7898 439.31 76.0491 443.531 64.6885 438.735L64.2809 438.871C61.8525 439.676 59.2395 439.748 56.7702 439.078H47.8195H44.0326C43.9643 439.847 41.6228 437.022 40.2695 423.832C41.7282 438.05 41.8312 437.326 40.2695 439.078Z" fill="url(#paint3_linear)"/>
<path id="Path_30" d="M60.5082 275.779C61.2924 276.883 62.9193 277 62.9193 277C62.9193 277 63.2754 275.325 62.4912 274.221C61.7076 273.117 60.0808 273 60.0808 273C60.0808 273 59.7246 274.675 60.5082 275.779Z" fill="#C4C1DC"/>
<path id="Path_31" d="M63.6609 276.39C63.1389 276.942 62.0537 277 62.0537 277C62.0537 277 61.8165 276.163 62.3391 275.61C62.8618 275.058 63.9463 275 63.9463 275C63.9463 275 64.1835 275.837 63.6609 276.39Z" fill="#C4C1DC"/>
<path id="Path_32" d="M55.5084 275.779C56.2922 276.883 57.9192 277 57.9192 277C57.9192 277 58.2755 275.325 57.4917 274.221C56.7078 273.117 55.0808 273 55.0808 273C55.0808 273 54.7245 274.675 55.5084 275.779Z" fill="#C4C1DC"/>
<path id="Path_33" d="M58.6611 276.39C58.1385 276.942 57.0538 277 57.0538 277C57.0538 277 56.8164 276.163 57.3389 275.61C57.8615 275.058 58.9462 275 58.9462 275C58.9462 275 59.1836 275.837 58.6611 276.39Z" fill="#C4C1DC"/>
<path id="Path_34" d="M50.5084 275.779C51.2922 276.883 52.9192 277 52.9192 277C52.9192 277 53.2755 275.325 52.4917 274.221C51.7078 273.117 50.0808 273 50.0808 273C50.0808 273 49.7245 274.675 50.5084 275.779Z" fill="#C4C1DC"/>
<path id="Path_35" d="M54.6611 276.39C54.1385 276.942 53.0538 277 53.0538 277C53.0538 277 52.8164 276.163 53.3389 275.61C53.8615 275.058 54.9462 275 54.9462 275C54.9462 275 55.1836 275.837 54.6611 276.39Z" fill="#C4C1DC"/>
<path id="Path_36" d="M46.5084 275.779C47.2922 276.883 48.9192 277 48.9192 277C48.9192 277 49.2755 275.325 48.4917 274.221C47.7078 273.117 46.0808 273 46.0808 273C46.0808 273 45.7245 274.675 46.5084 275.779Z" fill="#C4C1DC"/>
<path id="Path_37" d="M50.6611 276.39C50.1385 276.942 49.0538 277 49.0538 277C49.0538 277 48.8164 276.163 49.3389 275.61C49.8615 275.058 50.9462 275 50.9462 275C50.9462 275 51.1836 275.837 50.6611 276.39Z" fill="#C4C1DC"/>
<path id="Path_38" d="M41.5084 275.779C42.2922 276.883 43.9192 277 43.9192 277C43.9192 277 44.2755 275.325 43.4917 274.221C42.7078 273.117 41.0808 273 41.0808 273C41.0808 273 40.7245 274.675 41.5084 275.779Z" fill="#C4C1DC"/>
<path id="Path_39" d="M44.6611 276.39C44.1385 276.942 43.0538 277 43.0538 277C43.0538 277 42.8164 276.163 43.3389 275.61C43.8615 275.058 44.9462 275 44.9462 275C44.9462 275 45.1836 275.837 44.6611 276.39Z" fill="#C4C1DC"/>
<path id="Path_40" d="M36.5084 275.779C37.2922 276.883 38.9192 277 38.9192 277C38.9192 277 39.2755 275.325 38.4917 274.221C37.7078 273.117 36.0808 273 36.0808 273C36.0808 273 35.7245 274.675 36.5084 275.779Z" fill="#C4C1DC"/>
<path id="Path_41" d="M40.6611 275.39C40.1385 275.942 39.0538 276 39.0538 276C39.0538 276 38.8164 275.163 39.3389 274.61C39.8615 274.058 40.9462 274 40.9462 274C40.9462 274 41.1836 274.837 40.6611 275.39Z" fill="#C4C1DC"/>
<path id="Path_42" d="M31.5084 275.779C32.2922 276.883 33.9192 277 33.9192 277C33.9192 277 34.2755 275.325 33.4917 274.221C32.7078 273.117 31.0808 273 31.0808 273C31.0808 273 30.7245 274.675 31.5084 275.779Z" fill="#C4C1DC"/>
<path id="Path_43" d="M35.6611 276.39C35.1385 276.942 34.0538 277 34.0538 277C34.0538 277 33.8164 276.163 34.3389 275.61C34.8615 275.058 35.9462 275 35.9462 275C35.9462 275 36.1836 275.837 35.6611 276.39Z" fill="#C4C1DC"/>
<path id="Path_44" d="M51.4916 204.779C50.7078 205.884 49.0808 206 49.0808 206C49.0808 206 48.7245 204.325 49.5083 203.221C50.2922 202.116 51.9192 202 51.9192 202C51.9192 202 52.2755 203.675 51.4916 204.779Z" fill="#E6E6E6"/>
<path id="Path_45" d="M47.3389 205.39C47.8615 205.942 48.9462 206 48.9462 206C48.9462 206 49.1836 205.163 48.6611 204.61C48.1385 204.058 47.0538 204 47.0538 204C47.0538 204 46.8164 204.837 47.3389 205.39Z" fill="#E6E6E6"/>
<path id="Path_46" d="M47.4916 200.779C46.7078 201.884 45.0808 202 45.0808 202C45.0808 202 44.7245 200.325 45.5083 199.221C46.2922 198.116 47.9192 198 47.9192 198C47.9192 198 48.2755 199.675 47.4916 200.779Z" fill="#E6E6E6"/>
<path id="Path_47" d="M43.3389 201.39C43.8615 201.942 44.9462 202 44.9462 202C44.9462 202 45.1836 201.163 44.6611 200.61C44.1385 200.058 43.0538 200 43.0538 200C43.0538 200 42.8164 200.837 43.3389 201.39Z" fill="#E6E6E6"/>
<path id="Path_48" d="M44.4916 197.779C43.7078 198.884 42.0808 199 42.0808 199C42.0808 199 41.7245 197.325 42.5083 196.221C43.2922 195.116 44.9192 195 44.9192 195C44.9192 195 45.2755 196.675 44.4916 197.779Z" fill="#E6E6E6"/>
<path id="Path_49" d="M40.3389 197.39C40.8615 197.942 41.9462 198 41.9462 198C41.9462 198 42.1836 197.163 41.6611 196.61C41.1385 196.058 40.0538 196 40.0538 196C40.0538 196 39.8164 196.837 40.3389 197.39Z" fill="#E6E6E6"/>
</g>
</g>
<defs>
<linearGradient id="paint0_linear" x1="49.1124" y1="252.639" x2="49.1124" y2="287.293" gradientUnits="userSpaceOnUse">
<stop stop-color="#FBEEF5"/>
<stop offset="1" stop-color="#C0D0EA"/>
</linearGradient>
<linearGradient id="paint1_linear" x1="76.8237" y1="240.602" x2="84.7567" y2="290.324" gradientUnits="userSpaceOnUse">
<stop stop-color="#FDEFF5"/>
<stop offset="1" stop-color="#E1E1F0"/>
</linearGradient>
<linearGradient id="paint2_linear" x1="19.4073" y1="256.026" x2="-3.97143" y2="329.161" gradientUnits="userSpaceOnUse">
<stop stop-color="#F7ECF4"/>
<stop offset="0.358864" stop-color="#EFE8F3"/>
<stop offset="1" stop-color="#E0E1F0"/>
</linearGradient>
<linearGradient id="paint3_linear" x1="48.1858" y1="379.36" x2="71.3703" y2="357.733" gradientUnits="userSpaceOnUse">
<stop stop-color="#B4C1E4"/>
<stop offset="1" stop-color="#C4C1DC"/>
</linearGradient>
</defs>
</svg>
