<?xml version="1.0" encoding="UTF-8"?>
<svg width="185px" height="103px" viewBox="0 0 185 103" version="1.1" xmlns="http://www.w3.org/2000/svg" xmlns:xlink="http://www.w3.org/1999/xlink">
    <title>cookpal_logo</title>
    <g id="Landing-page_02" stroke="none" stroke-width="1" fill="none" fill-rule="evenodd">
        <g id="Artboard" transform="translate(-284.000000, -258.000000)">
            <g id="cookpal_logo" transform="translate(284.000000, 258.000000)">
                <g id="Group-4" transform="translate(0.279326, 69.999674)" fill="#FFFFFF">
                    <path d="M50.7206736,-5.68434189e-14 C59.5776831,-5.68434189e-14 66.9405892,6.04162706 68.4411591,13.9993279 L33.0001882,13.9993279 C34.5007581,6.04162706 41.8636642,-5.68434189e-14 50.7206736,-5.68434189e-14 Z" id="Combined-Shape" fill-opacity="0.710008741" transform="translate(50.720674, 7.000163) rotate(180.000000) translate(-50.720674, -7.000163) "></path>
                    <path d="M76.7206736,5.68434189e-14 C85.5776831,5.68434189e-14 92.9405892,6.04162706 94.4411591,13.9993279 L59.0001882,13.9993279 C60.5007581,6.04162706 67.8636642,5.68434189e-14 76.7206736,5.68434189e-14 Z" id="Combined-Shape" fill-opacity="0.71" opacity="0.857081214" transform="translate(76.720674, 7.000163) rotate(180.000000) translate(-76.720674, -7.000163) "></path>
                </g>
                <g id="Group-3">
                    <text id="a" font-family="HanziPenTC-W3, HanziPen TC" font-size="73" font-weight="normal" fill="#F7B500" fill-opacity="0.787123033">
                        <tspan x="144.052654" y="77.016536">a</tspan>
                    </text>
                    <text id="k" font-family="HanziPenTC-W3, HanziPen TC" font-size="69" font-weight="normal" fill="#F7B500" fill-opacity="0.787123033">
                        <tspan x="92" y="77">k</tspan>
                    </text>
                    <text id="C" font-family="HanziPenTC-W3, HanziPen TC" font-size="68" font-weight="normal" fill="#F7B500" fill-opacity="0.787123033">
                        <tspan x="0" y="78">C</tspan>
                    </text>
                    <g id="spoon" transform="translate(127.001459, 26.727651)" stroke="#F6C12F">
                        <path d="M16.8817537,2.90719923 C6.38533851,10.8444539 7.70448628,15.6741972 8.57129333,20.2089391 C9.43810037,24.7436809 16.049066,26.5990623 20.7963661,23.3866784 C23.9612328,21.245089 26.0243995,16.3505414 26.985866,8.70303548 C27.2474012,-0.452358486 23.8793638,-2.3843039 16.8817537,2.90719923 Z" id="Path" stroke-width="4.4808753" fill="#F6C12F"></path>
                        <path d="M16.4985406,15.7366895 C13.6211612,23.2618973 11.2484991,28.9598458 9.38055418,32.830535 C7.5126093,36.7012242 4.38575791,42.3991727 0,49.9243805" id="Path-2" stroke-width="4" stroke-linecap="round"></path>
                    </g>
                    <path d="M44.517821,54.3610587 C41.8202851,58.3137385 40.4715171,61.6770769 40.4715171,64.4510739 C40.4715171,68.6120695 41.9913919,72.897158 46.4727318,74.3632686 C50.9540717,75.8293792 54.0008178,75.7437126 57.5407438,71.5170946 C61.0806698,67.2904766 61.0806698,66.4192223 61.3941441,61.0026924 C61.7076185,55.5861625 61.1912301,51.7583432 57.5407438,49.1795925 C55.2462224,47.558713 51.6516757,47.8562796 47.411671,51.1609938 C47.1353017,51.3763995 46.170685,52.4430878 44.517821,54.3610587 L44.517821,54.3610587 Z" id="Path-5" stroke="#F6C12F" stroke-width="5" fill="#F7C334" transform="translate(50.971517, 61.722590) rotate(-6.000000) translate(-50.971517, -61.722590) "></path>
                    <path d="M71.517821,54.3610587 C68.8202851,58.3137385 67.4715171,61.6770769 67.4715171,64.4510739 C67.4715171,68.6120695 68.9913919,72.897158 73.4727318,74.3632686 C77.9540717,75.8293792 81.0008178,75.7437126 84.5407438,71.5170946 C88.0806698,67.2904766 88.0806698,66.4192223 88.3941441,61.0026924 C88.7076185,55.5861625 88.1912301,51.7583432 84.5407438,49.1795925 C82.2462224,47.558713 78.6516757,47.8562796 74.411671,51.1609938 C74.1353017,51.3763995 73.170685,52.4430878 71.517821,54.3610587 L71.517821,54.3610587 Z" id="Path-5" stroke="#F6C12F" stroke-width="5" fill="#F7C334" transform="translate(77.971517, 61.722590) rotate(-6.000000) translate(-77.971517, -61.722590) "></path>
                    <path d="M183.128758,24.4205405 L183.46272,25.236787 C183.898427,26.3017103 184.12254,27.4413044 184.12254,28.5919139 L184.12254,78.4350789 L184.12254,78.4350789 C184.12254,80.0204452 183.391784,80.0204452 181.930273,78.4350789 C179.738005,76.0570293 178.499758,72.7009261 178.499758,67.670863 C178.499758,64.3174876 179.360459,60.567039 181.08186,56.4195172 L181.08186,24.4846237 C181.08186,24.0093716 181.467128,23.6241036 181.94238,23.6241036 C182.462858,23.6241036 182.931666,23.938823 183.128758,24.4205405 Z" id="Path-6" stroke="#F6C12F" fill="#F6C12F"></path>
                </g>
            </g>
        </g>
    </g>
</svg>