<?xml version="1.0" encoding="UTF-8"?>
<svg width="169px" height="74px" viewBox="0 0 169 74" version="1.1" xmlns="http://www.w3.org/2000/svg" xmlns:xlink="http://www.w3.org/1999/xlink">
    <title>cookpal</title>
    <g id="Logo" stroke="none" stroke-width="1" fill="none" fill-rule="evenodd">
        <g id="Artboard" transform="translate(-97.000000, -175.000000)">
            <g id="cookpal" transform="translate(97.000000, 175.000000)">
                <text id="l" font-family="MyanmarMN, Myanmar MN" font-size="48" font-weight="normal" fill="#F7B500" fill-opacity="0.787123033">
                    <tspan x="155" y="49.5">l</tspan>
                </text>
                <g id="Group-3">
                    <text id="k" font-family="MyanmarMN, Myanmar MN" font-size="50" font-weight="normal" fill="#F7B500" fill-opacity="0.787123033">
                        <tspan x="90" y="49">k</tspan>
                    </text>
                    <g id="C" opacity="0.969999969">
                        <text transform="translate(23.349274, 36.993192) rotate(5.000000) translate(-23.349274, -36.993192) " font-family="MyanmarMN, Myanmar MN" font-size="49" font-weight="normal" fill="#F7B500" fill-opacity="0.787123033">
                            <tspan x="3.84927443" y="49.9931916">C</tspan>
                        </text>
                        <path d="M39.6642333,27.1057851 L38.2414138,29.3364471 C37.9426191,29.1801661 37.7362201,29.0494071 37.622217,28.94417 C37.5082138,28.8389329 37.3808081,28.6676291 37.24,28.4302587 L39.6642333,27.1057851 Z" id="Path-13" fill="#F6C12F"></path>
                    </g>
                    <path d="M45.6609415,28.6837675 C43.2203138,32.3436563 42,35.4578585 42,38.0263743 C42,41.8791479 43.3751248,45.8468225 47.4296704,47.2043323 C51.484216,48.5618421 54.2407959,48.4825212 57.443586,44.568986 C60.6463762,40.6554508 60.6463762,39.8487339 60.9299959,34.8334284 C61.2136155,29.8181229 60.746407,26.2738458 57.443586,23.8861137 C55.3675905,22.3852994 52.1153816,22.660824 48.2791868,25.7207445 C48.0291384,25.9201943 47.15639,26.9078686 45.6609415,28.6837675 L45.6609415,28.6837675 Z" id="Path-5" stroke="#F6C12F" stroke-width="4.554" fill="#F7C334" transform="translate(51.500000, 35.500000) rotate(-6.000000) translate(-51.500000, -35.500000) "></path>
                    <path d="M71.6609415,29.4564168 C69.2203138,32.96991 68,35.9595442 68,38.4253193 C68,42.123982 69.3751248,45.9329496 73.4296704,47.236159 C77.484216,48.5393684 80.2407959,48.4632203 83.443586,44.7062265 C86.6463762,40.9492328 86.6463762,40.1747845 86.9299959,35.3600913 C87.2136155,30.545398 86.746407,27.142892 83.443586,24.8506692 C81.3675905,23.4098874 78.1153816,23.6743911 74.2791868,26.6119147 C74.0291384,26.8033865 73.15639,27.7515539 71.6609415,29.4564168 L71.6609415,29.4564168 Z" id="Path-5" stroke="#F6C12F" stroke-width="4.5" fill="#F7C334" transform="translate(77.500000, 36.000000) rotate(-6.000000) translate(-77.500000, -36.000000) "></path>
                    <path d="M129.845326,11.221132 L129.845326,14.805928 L129.845326,48.2689575 L129.845326,48.2689575 C129.799395,48.5770142 129.068639,48.5770142 127.653058,48.2689575 C125.783361,47.8620767 125.50658,47.3731363 124.460967,46.5625809 C122.724984,45.2168539 121.499758,43.1312677 121.499758,39.7026566 C121.499758,35.9444738 123.550858,32.6637769 127.653058,29.860566 L127.653058,11.221132 L129.845326,11.221132 Z" id="Path-6" stroke="#F6C12F" fill="#F6C12F" transform="translate(125.672542, 29.860566) scale(-1, -1) translate(-125.672542, -29.860566) "></path>
                </g>
                <g id="a" transform="translate(130.000000, 23.222590)">
                    <g id="Group-5" transform="translate(0.000000, 0.777410)">
                        <path d="M5.2503949,6.49294748 C3.07735471,10.0064406 1.99083462,12.9960748 1.99083462,15.4618499 C1.99083462,19.1605126 3.21519236,22.9694802 6.82520244,24.2726897 C7.77983407,24.6173106 8.65365213,24.8654749 9.4753736,24.9746238 C11.7610526,25.2782295 13.6436524,24.5062509 15.7412043,21.7427572 C16.4608933,20.7945776 18.6497504,18.3977228 19.572785,13.9236286 C20.5684763,9.09735645 18.6282311,3.40877647 15.7412043,1.88719982 C13.7611003,0.843607118 10.9971778,0.710921687 7.58157886,3.64844536 C7.35894547,3.83991715 6.58188415,4.78808453 5.2503949,6.49294748 L5.2503949,6.49294748 Z" id="Path-5" stroke="#F6C12F" stroke-width="2.2" transform="translate(10.913762, 13.123226) rotate(5.000000) translate(-10.913762, -13.123226) "></path>
                        <path d="M25.272,24.063656 C23.0679453,22.7110635 21.6182729,21.7066597 20.9229828,21.0504448 C19.8800478,20.0661224 19.9324037,18.9340259 20.2490425,15.4102677 C20.460135,13.0610955 20.3727818,10.7951631 19.9869828,8.61247059 C19.4585578,2.69873355 19.1131986,1.55682643 18.9509054,5.18674925 C18.7074655,10.6316335 18.0746013,19.1657114 19.0916876,20.9162412 C19.7846008,22.1088297 20.2848486,22.6348005 20.5585241,23.0226748 C20.8668013,23.4595892 21.5279584,23.8065829 22.5419955,24.063656 L25.272,24.063656 Z" id="Path-9"></path>
                    </g>
                    <g id="a_outer" transform="translate(0.471517, 0.000000)">
                        <g id="Group-5" stroke="#F6C12F" stroke-width="0.8">
                            <path d="M3.85362268,5.68376755 C1.28454089,9.34365626 0,12.4578585 0,15.0263743 C0,18.8791479 1.44749977,22.8468225 5.71544254,24.2043323 C9.98338531,25.5618421 13.2317367,27 17.0580815,23.1736849 C20.8844264,19.3473698 20.2299359,16.6478999 20.5284829,11.6325944 C20.8270299,6.61728889 19.73306,3.27384584 16.2564064,0.886113737 C14.0711479,-0.614700638 10.6477701,-0.339175983 6.60967031,2.72074451 C6.34646146,2.92019429 5.42777892,3.90786864 3.85362268,5.68376755 L3.85362268,5.68376755 Z" id="Path-5"></path>
                        </g>
                        <polygon id="Rectangle" stroke="#F7C334" stroke-width="1.7" fill="#F7C334" points="20.5284829 0.777410293 21.4305534 0.345506013 22 0.345506013 22 25.4774103 20.5284829 25.4774103"></polygon>
                    </g>
                </g>
            </g>
        </g>
    </g>
</svg>