<?xml version="1.0" encoding="UTF-8"?>
<svg width="169px" height="74px" viewBox="0 0 169 74" version="1.1" xmlns="http://www.w3.org/2000/svg" xmlns:xlink="http://www.w3.org/1999/xlink">
    <title>cookpal</title>
    <g id="Logo" stroke="none" stroke-width="1" fill="none" fill-rule="evenodd">
        <g id="Artboard" transform="translate(-105.000000, -379.000000)">
            <g id="cookpal" transform="translate(105.000000, 379.000000)">
                <text id="l" font-family="MyanmarMN, Myanmar MN" font-size="48" font-weight="normal" fill="#F8C53B">
                    <tspan x="155" y="49.5">l</tspan>
                </text>
                <g id="Group-3">
                    <text id="k" font-family="MyanmarMN, Myanmar MN" font-size="50" font-weight="normal" fill="#F8C53B">
                        <tspan x="90" y="49">k</tspan>
                    </text>
                    <g id="C" opacity="0.969999969">
                        <text transform="translate(23.349274, 36.993192) rotate(5.000000) translate(-23.349274, -36.993192) " font-family="MyanmarMN, Myanmar MN" font-size="49" font-weight="normal" fill="#F7C334">
                            <tspan x="3.84927443" y="49.9931916">C</tspan>
                        </text>
                        <path d="M39.6642333,27.1057851 L38.2414138,29.3364471 C37.9426191,29.1801661 37.7362201,29.0494071 37.622217,28.94417 C37.5082138,28.8389329 37.3808081,28.6676291 37.24,28.4302587 L39.6642333,27.1057851 Z" id="Path-13" fill="#F8C53B"></path>
                    </g>
                    <path d="M71.6527749,29.4530107 C69.2121472,32.9665039 67.9918334,35.956138 67.9918334,38.4219132 C67.9918334,42.1205759 69.3669581,45.9295435 73.4215038,47.2327529 C77.4760494,48.5359623 80.5293484,47.7845068 83.4354194,44.7028204 C85.1574536,42.8767228 86.6339995,38.0952021 86.9218292,35.3566851 C87.4116136,30.6966976 86.7382404,27.1394859 83.4354194,24.8472631 C81.3594239,23.4064813 78.1072149,23.6709849 74.2710201,26.6085086 C74.0209717,26.7999804 73.1482233,27.7481478 71.6527749,29.4530107 L71.6527749,29.4530107 Z" id="Path-5" stroke="#F8C53B" stroke-width="4.5" fill="#F8C53B" transform="translate(77.528413, 35.920383) rotate(-6.000000) translate(-77.528413, -35.920383) "></path>
                    <path d="M45.6527749,29.4530107 C43.2121472,32.9665039 41.9918334,35.956138 41.9918334,38.4219132 C41.9918334,42.1205759 43.3669581,45.9295435 47.4215038,47.2327529 C51.4760494,48.5359623 54.5293484,47.7845068 57.4354194,44.7028204 C59.1574536,42.8767228 60.6339995,38.0952021 60.9218292,35.3566851 C61.4116136,30.6966976 60.7382404,27.1394859 57.4354194,24.8472631 C55.3594239,23.4064813 52.1072149,23.6709849 48.2710201,26.6085086 C48.0209717,26.7999804 47.1482233,27.7481478 45.6527749,29.4530107 L45.6527749,29.4530107 Z" id="Path-5" stroke="#F8C53B" stroke-width="4.5" fill="#F8C53B" transform="translate(51.528413, 35.920383) rotate(-6.000000) translate(-51.528413, -35.920383) "></path>
                    <path d="M129.845326,11.221132 L129.845326,14.805928 L129.845326,48.2689575 L129.845326,48.2689575 C129.799395,48.5770142 129.068639,48.5770142 127.653058,48.2689575 C125.783361,47.8620767 125.50658,47.3731363 124.460967,46.5625809 C122.724984,45.2168539 121.499758,43.1312677 121.499758,39.7026566 C121.499758,35.9444738 123.550858,32.6637769 127.653058,29.860566 L127.653058,11.221132 L129.845326,11.221132 Z" id="Path-6" stroke="#F8C53B" fill="#F8C53B" transform="translate(125.672542, 29.860566) scale(-1, -1) translate(-125.672542, -29.860566) "></path>
                </g>
                <g id="a" transform="translate(130.000000, 23.222590)">
                    <g id="a_outer" transform="translate(0.471517, 0.000000)" stroke="#F8C53B">
                        <g id="Group-5" stroke-width="0.8">
                            <path d="M3.91862075,5.61072785 C2.89549153,7.0258869 0,11.1736006 0,15.0263743 C0,18.8791479 1.44749977,22.8468225 5.71544254,24.2043323 C9.98338531,25.5618421 13.2317367,27 17.0580815,23.1736849 C20.8844264,19.3473698 20.2299359,16.6478999 20.5284829,11.6325944 C20.8270299,6.61728889 19.73306,3.27384584 16.2564064,0.886113737 C14.0711479,-0.614700638 10.6477701,-0.339175983 6.60967031,2.72074451 C6.21485704,3.01991919 4.94174997,4.19556879 3.91862075,5.61072785 Z" id="Path-5"></path>
                        </g>
                        <polygon id="Rectangle" stroke-width="1.7" fill="#F7C334" points="20.5284829 0.777410293 21.4305534 0.345506013 22 0.345506013 22 25.4774103 20.5284829 25.4774103"></polygon>
                    </g>
                    <g id="Group-5" transform="translate(0.000000, 0.777410)">
                        <path d="M5.24152112,6.32797108 C2.91164858,9.28706687 2.11509986,11.7836095 1.97712065,15.4619403 C1.83914144,19.140271 3.32994296,22.5400529 6.81148847,24.27278 C7.73735602,24.7335741 8.63578804,24.9636088 9.46165963,24.9747141 C11.9978704,25.008818 13.8267326,24.2310407 16.0959542,21.8630527 C16.8940057,21.0302666 18.6024723,18.3856995 19.559071,13.9237189 C20.6497509,8.83632735 18.5054628,2.70737454 15.5087692,1.76442724 C14.3043967,1.38545627 11.9850781,1.58837035 9.81941229,2.54518143 C7.61026019,3.52120516 6.2974046,4.98692761 5.24152112,6.32797108 Z" id="Path-5" stroke="#F8C53B" stroke-width="2.2" transform="translate(10.907939, 13.280322) rotate(5.000000) translate(-10.907939, -13.280322) "></path>
                        <path d="M25.272,24.063656 C23.0679453,22.7110635 21.6182729,21.7066597 20.9229828,21.0504448 C19.8800478,20.0661224 19.9324037,18.9340259 20.2490425,15.4102677 C20.460135,13.0610955 20.3727818,10.7951631 19.9869828,8.61247059 C19.4585578,2.69873355 19.1131986,1.55682643 18.9509054,5.18674925 C18.7074655,10.6316335 18.0746013,19.1657114 19.0916876,20.9162412 C19.7846008,22.1088297 20.2848486,22.6348005 20.5585241,23.0226748 C20.8668013,23.4595892 21.5279584,23.8065829 22.5419955,24.063656 L25.272,24.063656 Z" id="Path-9"></path>
                    </g>
                </g>
            </g>
        </g>
    </g>
</svg>