<?xml version="1.0" encoding="UTF-8"?>
<svg width="198px" height="113px" viewBox="0 0 198 113" version="1.1" xmlns="http://www.w3.org/2000/svg" xmlns:xlink="http://www.w3.org/1999/xlink">
    <title>cookpal_logo</title>
    <g id="Landing-page_02" stroke="none" stroke-width="1" fill="none" fill-rule="evenodd">
        <g id="Artboard" transform="translate(-274.000000, -349.000000)">
            <g id="cookpal_logo" transform="translate(274.000000, 349.000000)">
                <g id="Group-4" transform="translate(2.279326, 78.999674)" fill="#FFFFFF">
                    <path d="M50.7206736,-5.68434189e-14 C59.5776831,-5.68434189e-14 66.9405892,6.04162706 68.4411591,13.9993279 L33.0001882,13.9993279 C34.5007581,6.04162706 41.8636642,-5.68434189e-14 50.7206736,-5.68434189e-14 Z" id="Combined-Shape" fill-opacity="0.710008741" transform="translate(50.720674, 7.000163) rotate(180.000000) translate(-50.720674, -7.000163) "></path>
                    <path d="M76.7206736,5.68434189e-14 C85.5776831,5.68434189e-14 92.9405892,6.04162706 94.4411591,13.9993279 L59.0001882,13.9993279 C60.5007581,6.04162706 67.8636642,5.68434189e-14 76.7206736,5.68434189e-14 Z" id="Combined-Shape" fill-opacity="0.71" opacity="0.857081214" transform="translate(76.720674, 7.000163) rotate(180.000000) translate(-76.720674, -7.000163) "></path>
                </g>
                <g id="Group-3">
                    <text id="a" font-family="HanziPenTC-W5, HanziPen TC" font-size="80" font-weight="bold" fill="#F7B500" fill-opacity="0.787123033">
                        <tspan x="152" y="85">a</tspan>
                    </text>
                    <text id="k" font-family="HanziPenTC-W5, HanziPen TC" font-size="80" font-weight="bold" fill="#F7B500" fill-opacity="0.787123033">
                        <tspan x="93" y="86">k</tspan>
                    </text>
                    <text id="C" font-family="HanziPenTC-W5, HanziPen TC" font-size="74" font-weight="bold" fill="#F7B500" fill-opacity="0.787123033">
                        <tspan x="0" y="88">C</tspan>
                    </text>
                    <g id="spoon" transform="translate(135.000000, 30.000000)" stroke="#F6C12F">
                        <path d="M19.5345533,3.07940313 C7.9179652,11.4868101 9.37789187,16.6026364 10.3372042,21.4059874 C11.2965165,26.2093384 18.6130016,28.1746207 23.8669315,24.7719557 C27.3695515,22.5035123 29.6528984,17.319043 30.7169722,9.21854767 C31.0064184,-0.479153312 27.2789454,-2.52553483 19.5345533,3.07940313 Z" id="Path" stroke-width="4.7"></path>
                        <path d="M14.2141273,26.4808402 C11.7351543,32.9640962 9.69101458,37.873098 8.08170822,41.2078456 C6.47240186,44.5425932 3.77849912,49.4515949 -2.13162821e-14,55.9348509" id="Path-2" stroke-width="4.8" stroke-linecap="round"></path>
                    </g>
                    <path d="M46.517821,63.3610587 C43.8202851,67.3137385 42.4715171,70.6770769 42.4715171,73.4510739 C42.4715171,77.6120695 43.9913919,81.897158 48.4727318,83.3632686 C52.9540717,84.8293792 56.0008178,84.7437126 59.5407438,80.5170946 C63.0806698,76.2904766 63.0806698,75.4192223 63.3941441,70.0026924 C63.7076185,64.5861625 63.1912301,60.7583432 59.5407438,58.1795925 C57.2462224,56.558713 53.6516757,56.8562796 49.411671,60.1609938 C49.1353017,60.3763995 48.170685,61.4430878 46.517821,63.3610587 L46.517821,63.3610587 Z" id="Path-5" stroke="#F6C12F" stroke-width="5" fill="#F7C334" transform="translate(52.971517, 70.722590) rotate(-6.000000) translate(-52.971517, -70.722590) "></path>
                    <path d="M73.517821,63.3610587 C70.8202851,67.3137385 69.4715171,70.6770769 69.4715171,73.4510739 C69.4715171,77.6120695 70.9913919,81.897158 75.4727318,83.3632686 C79.9540717,84.8293792 83.0008178,84.7437126 86.5407438,80.5170946 C90.0806698,76.2904766 90.0806698,75.4192223 90.3941441,70.0026924 C90.7076185,64.5861625 90.1912301,60.7583432 86.5407438,58.1795925 C84.2462224,56.558713 80.6516757,56.8562796 76.411671,60.1609938 C76.1353017,60.3763995 75.170685,61.4430878 73.517821,63.3610587 L73.517821,63.3610587 Z" id="Path-5" stroke="#F6C12F" stroke-width="5" fill="#F7C334" transform="translate(79.971517, 70.722590) rotate(-6.000000) translate(-79.971517, -70.722590) "></path>
                    <path d="M196.063488,27.9989378 L196.349879,28.7854709 C196.779973,29.9666669 197,31.214028 197,32.4710902 L197,87.6835797 L197,87.6835797 C197,89.4388068 196.279985,89.4388068 194.839956,87.6835797 C192.679911,85.0507391 190,81.319511 190,75.7505126 C190,72.0378469 191.191187,68.0514509 193.573561,63.7913244 L193.573561,28.0630978 C193.573561,27.4759651 194.049527,27 194.636659,27 C195.27495,27 195.845102,27.3991694 196.063488,27.9989378 Z" id="Path-6" stroke="#F6C12F" stroke-width="0.986186412" fill="#F6C12F"></path>
                </g>
            </g>
        </g>
    </g>
</svg>