<svg width="526" height="526" viewBox="0 0 526 526" fill="none" xmlns="http://www.w3.org/2000/svg">
<path d="M380.898 145.098H489.722V235.785H380.898V145.098Z" fill="#142547"/>
<path d="M199.516 145.098H326.476V235.785H199.516V145.098Z" fill="#142547"/>
<path d="M36.2803 145.098H145.104V235.785H36.2803V145.098Z" fill="#142547"/>
<path d="M263.001 489.715C218.602 489.715 176.746 484.883 145.142 476.103C129.813 471.847 117.705 466.92 108.826 461.365L108.829 489.716C108.829 493.829 117.433 503.996 149.999 513.04C180.06 521.394 220.191 525.992 262.993 525.992C305.796 525.992 345.932 521.394 375.997 513.04C408.559 503.996 417.163 493.829 417.163 489.716V461.365C408.284 466.924 396.176 471.847 380.847 476.103C349.249 484.883 307.393 489.715 262.997 489.715H263.001Z" fill="#142547"/>
<path d="M376.004 303.149C345.94 294.798 305.809 290.197 263.001 290.197C220.193 290.197 180.062 294.795 149.997 303.149C117.435 312.193 108.831 322.36 108.831 326.473C108.831 330.586 117.435 340.752 150.001 349.797C180.061 358.147 220.193 362.748 262.995 362.748C305.797 362.748 345.933 358.151 375.998 349.797C408.561 340.753 417.165 330.586 417.165 326.473C417.165 322.36 408.561 312.193 375.998 303.149H376.004ZM351.608 334.566C326.193 329.272 295.553 326.473 263.002 326.473V308.336C296.775 308.336 328.695 311.268 355.306 316.812L351.608 334.566Z" fill="#142547"/>
<path d="M0.00585938 389.956C0.00585938 394.956 4.07476 399.025 9.07561 399.025H90.6961V326.474C90.6961 309.439 109.016 295.71 145.148 285.674C176.746 276.894 218.602 272.063 262.998 272.063C307.395 272.063 349.253 276.895 380.858 285.674C416.99 295.71 435.31 309.439 435.31 326.474V399.025H516.93C521.931 399.025 526 394.956 526 389.956L525.996 108.823H0.00632517L0.00585938 389.956ZM362.76 126.961H507.859V253.921H362.76V126.961ZM181.378 126.961H344.614V253.921H181.378V126.961ZM18.1431 126.961H163.241V253.921H18.1431V126.961Z" fill="#142547"/>
<path d="M263.001 435.304C218.602 435.304 176.746 430.472 145.142 421.692C129.813 417.436 117.705 412.509 108.826 406.954L108.829 435.305C108.829 439.418 117.433 449.585 149.999 458.629C180.06 466.98 220.191 471.58 262.993 471.58C305.796 471.58 345.932 466.983 375.997 458.629C408.559 449.581 417.163 439.414 417.163 435.305V406.954C408.284 412.513 396.176 417.436 380.847 421.692C349.249 430.468 307.393 435.304 262.997 435.304H263.001Z" fill="#142547"/>
<path d="M263.001 380.892C218.602 380.892 176.746 376.06 145.142 367.28C129.813 363.024 117.705 358.097 108.826 352.542L108.829 380.893C108.829 385.006 117.433 395.173 149.999 404.217C180.06 412.571 220.191 417.168 262.993 417.168C305.796 417.168 345.932 412.571 375.997 404.217C408.559 395.173 417.163 385.006 417.163 380.893V352.542C408.284 358.101 396.176 363.024 380.847 367.28C349.249 376.06 307.393 380.892 262.997 380.892H263.001Z" fill="#142547"/>
<path d="M108.83 36.2754V54.4117H126.966H126.977L126.966 36.2754H108.83Z" fill="#142547"/>
<path d="M181.379 36.2754V54.4117H199.515H199.526L199.519 36.2754H181.379Z" fill="#142547"/>
<path d="M516.923 0H9.06976C4.06891 0 0 4.06891 0 9.06976V90.6903H525.99V9.06976C525.99 4.06891 521.921 0 516.92 0L516.923 0ZM72.5549 54.4118C72.5549 64.4131 64.417 72.5481 54.4186 72.5481L36.2794 72.5518C26.2781 72.5518 18.1431 64.4139 18.1431 54.4155L18.1394 36.2763C18.1394 26.275 26.2773 18.14 36.2757 18.14H54.4121C64.4134 18.14 72.5484 26.2779 72.5484 36.2763L72.5549 54.4118ZM145.106 54.4118C145.106 64.4131 136.968 72.5481 126.969 72.5481L108.83 72.5518C98.829 72.5518 90.694 64.4139 90.694 54.4155L90.6904 36.2763C90.6904 26.275 98.8283 18.14 108.827 18.14H126.963C136.964 18.14 145.099 26.2779 145.099 36.2763L145.106 54.4118ZM217.653 54.4118C217.653 64.4131 209.515 72.5481 199.517 72.5481H181.38C171.379 72.5481 163.244 64.4102 163.244 54.4118L163.24 36.2755C163.24 26.2741 171.378 18.1391 181.377 18.1391H199.513C209.514 18.1391 217.649 26.2771 217.649 36.2755L217.653 54.4118Z" fill="#4267B2"/>
<path d="M36.2803 36.2754V54.4117H54.4166H54.4276L54.4166 36.2754H36.2803Z" fill="#142547"/>
</svg>
