<svg xmlns="http://www.w3.org/2000/svg" width="522" height="520" fill="none" xmlns:v="https://vecta.io/nano"><path d="M210.801 461.007L160.371 520h200.292l-50.453-58.993h-99.409zM0 428.275c0 7.995 6.497 14.492 14.491 14.492h492.055c7.974 0 14.492-6.497 14.492-14.492v-32.92l-521.034.004L0 428.275zm228.144-18.358h64.773c5.02 0 9.105 4.106 9.105 9.126a9.12 9.12 0 0 1-9.105 9.105h-64.773a9.12 9.12 0 0 1-9.105-9.105c0-5.02 4.085-9.126 9.105-9.126h0z" fill="#142547"/><path d="M282.531 215.822h70.248v70.204h-70.248v-70.204zm-154.076 117.75h264.107c1.237 0 2.237-1 2.237-2.215V75.482h-58.534c-7.366 0-13.342-5.998-13.342-13.365V.629L128.46 0c-1.236 0-2.237 1-2.237 2.237v329.095c0 1.241 1.001 2.241 2.237 2.241l-.005-.001zm115.004-31.246h-82.044c-5.129 0-9.301-4.173-9.301-9.301s4.172-9.302 9.301-9.302h82.066c5.129 0 9.301 4.173 9.301 9.302s-4.194 9.301-9.323 9.301h0zm0-42.086h-82.044c-5.129 0-9.301-4.172-9.301-9.301s4.172-9.301 9.301-9.301h82.066c5.129 0 9.301 4.172 9.301 9.301-.022 5.129-4.194 9.301-9.323 9.301h0zm0-42.089h-82.044c-5.129 0-9.301-4.172-9.301-9.301s4.172-9.301 9.301-9.301h82.066c5.129 0 9.301 4.172 9.301 9.301s-4.194 9.301-9.323 9.301h0zm-91.345-51.365c0-5.129 4.172-9.301 9.301-9.301h195.244c5.129 0 9.301 4.172 9.301 9.301s-4.172 9.301-9.301 9.301H161.415c-5.151.022-9.301-4.15-9.301-9.301zm219.26 44.457v79.396a14.06 14.06 0 0 1-14.037 14.037h-79.374c-7.737 0-14.037-6.278-14.037-14.037l.004-79.396c0-7.737 6.278-14.037 14.037-14.037h79.373c7.734 0 14.034 6.279 14.034 14.037h0zm-14.71-95.848c5.128 0 9.301 4.172 9.301 9.301s-4.173 9.301-9.301 9.301H161.419c-5.129 0-9.301-4.172-9.301-9.301s4.172-9.301 9.301-9.301h195.245zm-198.728-84.15h135.173c5.129 0 9.301 4.172 9.301 9.301a9.33 9.33 0 0 1-9.301 9.319H157.936c-5.129 0-9.301-4.172-9.301-9.301a9.33 9.33 0 0 1 9.301-9.319zm0 42.085h135.173c5.129 0 9.301 4.172 9.301 9.301s-4.172 9.32-9.301 9.32H157.936c-5.129 0-9.301-4.172-9.301-9.301s4.172-9.32 9.301-9.32z" fill="#4267b2"/><path d="M341.523 8.952v47.909h47.214L341.523 8.952zm165.018 123.025h-93.12v199.351c0 11.495-9.367 20.836-20.836 20.836l-264.125.003c-11.495 0-20.836-9.367-20.836-20.835V131.971H14.495c-7.973 0-14.491 6.497-14.491 14.492v230.639h521.034V146.463c0-7.996-6.519-14.492-14.492-14.492l-.005.006z" fill="#142547"/></svg>