<?xml version="1.0" encoding="UTF-8"?>
<svg width="975px" height="547px" viewBox="0 0 975 547" version="1.1" xmlns="http://www.w3.org/2000/svg" xmlns:xlink="http://www.w3.org/1999/xlink">
    <title>Group 25</title>
    <g id="cookpal" stroke="none" stroke-width="1" fill="none" fill-rule="evenodd">
        <g id="Group-25" transform="translate(1.000000, 1.000000)">
            <g id="Group-23">
                <g id="Group-22" stroke="#979797" stroke-width="1.27108434">
                    <rect id="Rectangle" x="0" y="0" width="478.293976" height="267.288424" rx="6.35542169"></rect>
                    <rect id="Rectangle" x="0" y="0" width="478.293976" height="267.288424" rx="6.35542169"></rect>
                    <rect id="Rectangle" x="0" y="0" width="478.293976" height="267.288424" rx="6.35542169"></rect>
                    <rect id="Rectangle" x="494.706024" y="0" width="478.293976" height="267.288424" rx="6.35542169"></rect>
                    <rect id="Rectangle" x="0" y="277.839283" width="478.293976" height="267.288424" rx="5.08433735"></rect>
                    <rect id="Rectangle" x="494.706024" y="276.666965" width="478.293976" height="267.288424" rx="6.35542169"></rect>
                </g>
                <ellipse id="Oval" fill="#FFFFFF" cx="483.5" cy="268.5" rx="46.5" ry="68.5"></ellipse>
                <g id="noun_girl_383161" transform="translate(417.000000, 207.000000)" fill="#6F5E74" fill-rule="nonzero">
                    <g id="Group">
                        <path d="M101.725857,41.8871177 C101.725857,18.5500093 83.175848,0 59.8387396,0 C36.5016311,0 17.9516219,18.5500093 17.9516219,41.8871177 C17.9516219,99.3323077 -41.8871177,95.7419833 59.8387396,95.7419833 C162.761372,95.7419833 101.725857,101.725857 101.725857,41.8871177 Z M59.8387396,89.7581094 C43.0838925,89.7581094 29.9193698,73.6016497 29.9193698,53.8548656 C29.9193698,49.6661538 30.5177572,45.4774421 31.714532,41.8871177 C33.5096942,41.8871177 35.3048563,41.2887303 37.1000185,40.6903429 C42.4855051,39.4935681 47.2726043,36.5016311 50.2645412,32.3129194 C50.2645412,37.6984059 50.8629286,43.6822799 47.2726043,47.8709917 C56.8468026,46.0758295 65.8226135,39.4935681 71.2081001,31.1161446 C72.4048749,35.3048563 73.0032623,37.1000185 71.8064875,41.8871177 C75.9951993,37.6984059 78.9871362,35.3048563 81.3806858,29.3209824 C86.7661724,35.9032437 89.7581094,44.2806673 89.7581094,53.8548656 C89.7581094,73.6016497 75.9951993,89.7581094 59.8387396,89.7581094 Z" id="Shape"></path>
                        <path d="M107.709731,119.677479 L11.9677479,119.677479 L11.9677479,119.677479 C11.9677479,113.095218 17.3532345,107.709731 23.9354958,107.709731 L95.7419833,107.709731 C102.324245,107.709731 107.709731,113.095218 107.709731,119.677479 L107.709731,119.677479 Z" id="Path"></path>
                    </g>
                </g>
            </g>
            <g id="Group-24" transform="translate(19.000000, 6.000000)" fill="#6F5E74" font-family="Futura-Medium, Futura" font-weight="400">
                <text id="Says" font-size="27">
                    <tspan x="172.220215" y="28">Says</tspan>
                </text>
                <text id="“Very-used-to-eating" font-size="24">
                    <tspan x="1" y="74">“Very used to eating at home now, but </tspan>
                    <tspan x="1" y="105">most of the time use food delivery or </tspan>
                    <tspan x="1" y="136">take-out.”</tspan>
                    <tspan x="1" y="167">“I actually want to cook by myself but </tspan>
                    <tspan x="1" y="198">lack of motivation, if someone can join </tspan>
                    <tspan x="1" y="229">me cooking, I will be happy.”</tspan>
                </text>
                <text id="Lack-of-motivation-c" font-size="24">
                    <tspan x="505" y="364">Lack of motivation cook for herself</tspan>
                </text>
                <text id="Very-disappointed-wh" font-size="24">
                    <tspan x="505" y="416">Very disappointed when cooking </tspan>
                    <tspan x="505" y="447">something undelicious</tspan>
                </text>
                <text id="Cook-something-not-d" font-size="24">
                    <tspan x="505" y="88">Cook something not delicious is a </tspan>
                    <tspan x="505" y="119">waste of time and energy </tspan>
                </text>
                <text id="Need-a-good-homecook" font-size="24">
                    <tspan x="505" y="167">Need a good homecook to give me a </tspan>
                    <tspan x="505" y="198">hand and share the expeirence</tspan>
                </text>
                <text id="Feel-delightful-to-c" font-size="24">
                    <tspan x="505" y="499">Feel delightful to cook with others</tspan>
                </text>
                <text id="Use-food-delivery-ap" font-size="24" line-spacing="32">
                    <tspan x="0" y="352">Use food delivery app 5 times per </tspan>
                    <tspan x="0" y="384">week</tspan>
                    <tspan x="0" y="416"></tspan>
                </text>
                <text id="Feels" font-size="27">
                    <tspan x="687.361328" y="309">Feels</tspan>
                </text>
                <text id="Does" font-size="27">
                    <tspan x="171.137207" y="309">Does</tspan>
                </text>
                <text id="Thinks" font-size="27">
                    <tspan x="681.118896" y="35">Thinks</tspan>
                </text>
                <text id="Cook-at-home-during" font-size="24" line-spacing="32">
                    <tspan x="0" y="427">Cook at home during weekends </tspan>
                    <tspan x="0" y="459">for a change of pace</tspan>
                </text>
                <text id="Take-long-time-to-pr" font-size="24" line-spacing="32">
                    <tspan x="0" y="502">Take long time to prepare meals alone </tspan>
                </text>
            </g>
        </g>
    </g>
</svg>