<?xml version="1.0" encoding="UTF-8"?>
<svg width="403px" height="91px" viewBox="0 0 403 91" version="1.1" xmlns="http://www.w3.org/2000/svg" xmlns:xlink="http://www.w3.org/1999/xlink">
    <title>footer</title>
    <g id="profile-website-design" stroke="none" stroke-width="1" fill="none" fill-rule="evenodd">
        <g id="footer" transform="translate(0.885310, 0.944486)">
            <path d="M-2.84217094e-14,89.0555139 C45.015988,72.5335195 79.9417932,60.9853476 104.777416,54.4109982 C142.030849,44.5494741 158.737552,40.6264495 200.67022,40.6264495 C201.669844,40.6264495 235.10108,42.6484043 276.81557,54.4109982 C288.636117,57.7441397 304.820715,67.2240487 323.873117,72.4386086 C338.510867,76.4448971 364.333308,81.9838656 401.340439,89.0555139 L-2.84217094e-14,89.0555139 Z" id="Path-20" fill="#594D5A"></path>
            <text id="Back-to-top" font-family="Chalkboard-Bold, Chalkboard" font-size="18" font-weight="bold" fill="#FFFFFF">
                <tspan x="141.11469" y="77.0555139">Back to top</tspan>
            </text>
            <g id="Group-15" transform="translate(191.239865, 0.000000)">
                <path d="M13.4333952,46.0372627 L19.952503,59.9100341 C20.0229695,60.0599879 19.9585322,60.2386738 19.8085784,60.3091402 C19.7687188,60.3278711 19.7252239,60.3375962 19.6811826,60.3376248 L6.62487016,60.3461076 C6.45918477,60.3462153 6.32478295,60.211988 6.32467531,60.0463026 C6.32464655,60.0020455 6.33441018,59.9583302 6.35326618,59.918291 L12.8904708,46.0370367 C12.961062,45.8871416 13.1398015,45.8228531 13.2896966,45.8934444 C13.3528751,45.9231975 13.4036946,45.9740593 13.4333952,46.0372627 Z" id="Triangle" stroke="#FFFFFF" opacity="0.800223214" transform="translate(13.152470, 52.903256) rotate(10.000000) translate(-13.152470, -52.903256) "></path>
                <path d="M10.3428724,2.76972165 L16.7279349,16.3240106 C16.8220787,16.5238603 16.7363872,16.7621891 16.5365375,16.8563329 C16.4830712,16.8815195 16.424688,16.894545 16.3655864,16.8944728 L3.62865132,16.8789151 C3.40773759,16.8786453 3.22887037,16.6993406 3.22914021,16.4784268 C3.22921174,16.4198661 3.24214069,16.3620352 3.26701384,16.3090192 L9.61888653,2.77028795 C9.71271759,2.57029125 9.95091207,2.48422699 10.1509088,2.57805806 C10.2352679,2.61763624 10.3031623,2.68542456 10.3428724,2.76972165 Z" id="Triangle" fill="#FFD97E" transform="translate(9.998514, 9.447622) rotate(-20.000000) translate(-9.998514, -9.447622) "></path>
                <circle id="Oval" fill="#FFEAEA" cx="36.4616576" cy="21.3628015" r="6.5"></circle>
            </g>
        </g>
    </g>
</svg>