<svg xmlns="http://www.w3.org/2000/svg" width="545" height="407" fill="none" xmlns:v="https://vecta.io/nano"><path d="M101.254 215.598H10.625C5.027 215.598 0 220.907 0 226.813v166.325c0 5.893 5.027 11.202 10.625 11.202h90.629c6.16 0 10.629-5.309 10.629-11.202V226.813c0-6.495-5.027-11.215-10.629-11.215zm-46.43 178.714c-2.234 0-4.48-1.771-4.48-4.724 0-2.356 1.688-4.712 4.48-4.712 2.801 0 4.48 1.767 4.48 4.712 0 2.953-1.68 4.724-4.48 4.724zm45.875-19.468H11.187v-141.55h89.512v141.55zM55.264 35.524v-1.058c0-5.832 4.496-10.58 10.031-10.58h366.26c5.531 0 10.039 4.748 10.039 10.58v93.223h22.656V34.466C464.25 15.46 449.59 0 431.551 0H65.291C47.264 0 32.603 15.469 32.603 34.466v169.9h22.656l.005-168.842zm471.39 106.057h-138.75c-9.504 0-17.336 8.262-17.336 18.286v228.856c0 10.02 7.828 18.277 17.336 18.277h138.75c9.516 0 17.348-8.253 17.348-18.277V159.867c0-10.024-7.828-18.286-17.348-18.286h0zm-68.812 254.212c-2.238 0-4.469-1.779-4.469-4.724 0-2.352 1.676-4.715 4.469-4.715 2.238 0 4.48 1.77 4.48 4.715 0 2.36-2.234 4.724-4.48 4.724zm67.691-24.184h-138.19V165.178h138.19v206.431zm-219.479-43.623h-115.27l-12.977 38.918H133.35c-5.859 0-10.605 5.008-10.605 11.181s4.75 11.181 10.605 11.181h218.57v-22.359h-32.883l-12.983-38.921zm-184.41-88.519v72.673h229.36v-50.783h-229.36c.016.448-.001-22.35-.001-21.889l.001-.001zm124.83 35.665c7.211 0 9.62 1.136 9.62 8.742s-2.406 10.016-9.62 10.016-10.38-2.413-10.38-10.016 3.169-8.742 10.38-8.742z" fill="#142547"/><path d="M321.218 192.263c-.001 2.308-1.775 4.178-3.964 4.18h-7.929c-2.189 0-3.964-1.872-3.964-4.18s1.775-4.179 3.964-4.179h7.929c2.189.002 3.963 1.871 3.964 4.179zm-15.857-37.615h-7.928v8.359h7.928v-8.359zm-147.607 8.359h33.567l-16.783-29.492-16.784 29.492zm131.75-8.359h-23.786v8.359h23.786v-8.359zm-19.821 41.795h7.928c2.189 0 3.964-1.872 3.964-4.18s-1.775-4.179-3.964-4.179h-7.928c-2.19 0-3.965 1.871-3.965 4.179s1.775 4.18 3.965 4.18zm75.321-163.002v20.898h-222V33.441c.002-2.308 1.775-4.178 3.964-4.18H341.04c2.189.002 3.962 1.871 3.964 4.18zM138.861 41.8c0-1.69-.966-3.215-2.447-3.86s-3.186-.291-4.32.905-1.473 2.993-.859 4.555 2.059 2.58 3.662 2.58c1.051 0 2.06-.44 2.803-1.224a4.3 4.3 0 0 0 1.161-2.956zm15.857 0c0-1.69-.966-3.215-2.447-3.86s-3.186-.291-4.32.905-1.473 2.993-.859 4.555 2.059 2.58 3.662 2.58c1.051 0 2.06-.44 2.803-1.224s1.161-1.847 1.161-2.956zm15.857 0c0-1.69-.966-3.215-2.447-3.86s-3.186-.291-4.32.905-1.473 2.993-.858 4.555 2.058 2.58 3.661 2.58c1.051 0 2.06-.44 2.803-1.224s1.161-1.847 1.161-2.956zm-47.571 20.898h222v188.079c-.002 2.308-1.775 4.177-3.964 4.179H126.968c-2.189-.002-3.962-1.871-3.964-4.179V62.698zm71.357 171.361c0-1.109-.417-2.172-1.161-2.956s-1.752-1.224-2.803-1.224h-31.714c-2.19 0-3.965 1.872-3.965 4.18s1.775 4.179 3.965 4.179h31.714c1.051 0 2.06-.44 2.803-1.224s1.161-1.847 1.161-2.955zm19.822 0c0-1.691-.967-3.215-2.448-3.861s-3.186-.291-4.32.905-1.472 2.993-.858 4.555 2.058 2.58 3.661 2.58c1.052 0 2.06-.44 2.804-1.224s1.161-1.847 1.161-2.955zm67.392 0c0-1.691-.966-3.215-2.447-3.861s-3.186-.291-4.32.905-1.473 2.993-.858 4.555 2.058 2.58 3.661 2.58c1.051 0 2.06-.44 2.803-1.224s1.161-1.847 1.161-2.955zm47.572 0a4.3 4.3 0 0 0-1.161-2.956c-.743-.783-1.752-1.224-2.803-1.224h-31.715c-2.189 0-3.964 1.872-3.964 4.18s1.775 4.179 3.964 4.179h31.715c1.051 0 2.06-.44 2.803-1.224s1.161-1.847 1.161-2.955zm0-41.796c-.004-3.325-1.258-6.512-3.488-8.861s-5.251-3.674-8.405-3.677h-7.929c-4.249 0-8.174 2.39-10.3 6.269a13.14 13.14 0 0 0 0 12.539c2.126 3.879 6.051 6.269 10.3 6.269h7.929c3.154-.004 6.177-1.327 8.405-3.678s3.484-5.536 3.488-8.861h0zm0-75.231c0-1.108-.418-2.172-1.161-2.956s-1.752-1.224-2.803-1.224h-15.858c-2.189 0-3.964 1.872-3.964 4.18s1.775 4.179 3.964 4.179h15.858c1.051 0 2.06-.44 2.803-1.224s1.161-1.847 1.161-2.955zm-55.5-33.436a4.3 4.3 0 0 0 1.161 2.956c.743.784 1.752 1.224 2.803 1.224h47.572c2.189 0 3.964-1.871 3.964-4.18s-1.775-4.179-3.964-4.179h-47.572c-2.189 0-3.964 1.871-3.964 4.179zm-15.857 0c0 1.691.966 3.215 2.447 3.861s3.186.291 4.32-.905 1.473-2.993.859-4.555-2.059-2.58-3.662-2.58c-2.189 0-3.964 1.871-3.964 4.179zm0 16.718c0 1.108.417 2.172 1.161 2.955s1.752 1.224 2.803 1.224h47.571c2.19 0 3.965-1.871 3.965-4.179s-1.775-4.18-3.965-4.18h-47.571c-2.189 0-3.964 1.871-3.964 4.18zm0 16.718c0 1.108.417 2.172 1.161 2.955s1.752 1.224 2.803 1.224h23.786c2.189 0 3.964-1.871 3.964-4.179s-1.775-4.18-3.964-4.18h-23.786c-2.189 0-3.964 1.872-3.964 4.18zm0 16.718c0 1.108.417 2.172 1.161 2.956s1.752 1.224 2.803 1.224h15.857c2.189 0 3.964-1.872 3.964-4.18s-1.775-4.179-3.964-4.179h-15.857c-2.189 0-3.964 1.871-3.964 4.179zm0 33.436c0 1.109.417 2.172 1.161 2.956s1.752 1.224 2.803 1.224h47.571c1.052 0 2.06-.441 2.804-1.224a4.3 4.3 0 0 0 1.161-2.956v-16.718c0-1.108-.418-2.172-1.161-2.955s-1.752-1.224-2.804-1.224h-47.571c-2.189 0-3.964 1.871-3.964 4.179v16.718zm0 25.077c.003 3.325 1.258 6.512 3.488 8.861s5.251 3.674 8.405 3.678h7.928c4.249 0 8.175-2.39 10.3-6.269s2.124-8.66 0-12.539-6.05-6.269-10.3-6.269h-7.928c-3.154.004-6.177 1.327-8.405 3.678s-3.485 5.536-3.488 8.861v-.001zm0 37.616h-31.715c-2.189 0-3.964 1.872-3.964 4.18s1.775 4.179 3.964 4.179h31.715c2.189 0 3.964-1.871 3.964-4.179s-1.775-4.18-3.964-4.18zm-118.929-62.693a4.3 4.3 0 0 0 1.161 2.956c.743.783 1.752 1.224 2.803 1.224h95.143c1.052 0 2.06-.441 2.804-1.224a4.3 4.3 0 0 0 1.161-2.956v-83.59a4.3 4.3 0 0 0-1.161-2.956c-.744-.784-1.752-1.224-2.804-1.224h-95.143c-2.189 0-3.964 1.871-3.964 4.179v83.59zm0 41.796a4.3 4.3 0 0 0 1.161 2.955c.743.784 1.752 1.224 2.803 1.224h95.143c1.052 0 2.06-.44 2.804-1.224a4.3 4.3 0 0 0 1.161-2.955v-25.078c0-1.108-.418-2.172-1.161-2.955s-1.752-1.224-2.804-1.224h-95.143c-2.189 0-3.964 1.871-3.964 4.179v25.078zm0 25.077c0 1.69.966 3.215 2.448 3.86s3.185.291 4.32-.905 1.472-2.993.858-4.554-2.058-2.581-3.662-2.581c-2.189 0-3.964 1.872-3.964 4.18zm71.357-45.975h-15.857v16.718h15.857v-16.718zm-47.571 0H146.79v16.718h15.857v-16.718zm71.357 0h-15.857v16.718h15.857v-16.718zm-47.571 0h-15.858v16.718h15.858v-16.718zm9.617-33.022l4.52 7.945h21.541l-15.857-22.292-10.204 14.347zm-47.54 7.945h-1.72V87.775h87.214v75.232h-1.982l-22.597-31.765c-.748-1.052-1.923-1.671-3.171-1.671s-2.423.619-3.171 1.671l-11.438 16.08-13.705-24.08c-.717-1.26-2.007-2.031-3.4-2.031s-2.683.771-3.4 2.031l-22.63 39.765zm41.887-54.334c0 1.69.966 3.215 2.447 3.86s3.186.291 4.32-.905 1.473-2.992.859-4.554-2.058-2.581-3.662-2.581c-2.189 0-3.964 1.872-3.964 4.18h0z" fill="#4267b2"/></svg>