<svg width="424" height="436" viewBox="0 0 424 436" fill="none" xmlns="http://www.w3.org/2000/svg">
<path d="M44.5273 162.049H50.6499C40.0739 173.114 33.3969 187.865 33.3969 204.196V293.755C33.3969 302.185 26.1601 309.561 16.6984 309.561C7.23675 309.561 0 302.186 0 293.755V204.196C0 181.015 20.0369 162.049 44.5275 162.049H44.5273ZM55.658 326.945V435.998H89.0549V326.945C84.0465 329.051 78.4788 330.635 72.3564 330.635C66.234 330.635 60.6662 329.58 55.658 326.945V326.945ZM100.186 88.2938C101.855 88.2938 104.083 88.2938 105.753 87.7683C95.1769 76.7031 89.0545 61.953 89.0545 46.1511C89.0545 30.3454 95.7323 15.5952 105.753 4.5338C104.083 4.00094 101.855 4.00094 100.186 4.00094C75.6949 4.00094 55.658 22.9666 55.658 46.1479C55.658 69.3291 75.6949 88.2948 100.186 88.2948V88.2938ZM55.658 204.195V293.755C55.658 302.185 62.8947 309.56 72.3564 309.56C81.8181 309.56 89.0549 302.185 89.0549 293.755V204.195C89.0549 191.025 92.9528 179.435 100.186 169.424C101.855 166.789 104.083 164.683 106.308 162.049H100.186C75.6949 162.049 55.658 181.014 55.658 204.195V204.195ZM125.789 330.633C120.781 330.108 115.773 329.053 111.319 326.944L111.315 435.996H144.712V326.944C139.704 329.049 134.136 330.633 128.014 330.633H125.789H125.789ZM155.843 88.2938C157.512 88.2938 159.741 88.2938 161.41 87.7683C150.834 76.7031 144.712 61.953 144.712 46.1511C144.712 30.3454 151.389 15.5952 161.41 4.5338C159.741 4.00094 157.512 4.00094 155.843 4.00094C131.352 4.00094 111.315 22.9666 111.315 46.1479C111.315 69.3291 131.352 88.2948 155.843 88.2948V88.2938ZM111.315 204.195V293.755C111.315 302.185 118.552 309.56 128.014 309.56C137.475 309.56 144.712 302.185 144.712 293.755V204.195C144.712 191.025 148.61 179.435 155.843 169.424C157.512 166.789 159.741 164.683 161.965 162.049H155.843C131.352 162.049 111.315 181.014 111.315 204.195V204.195ZM181.446 330.633C176.438 330.108 171.43 329.053 166.976 326.944L166.972 435.996H200.369V326.944C195.361 329.049 189.793 330.633 183.671 330.633H181.446H181.446ZM211.5 88.2938C213.169 88.2938 215.398 88.2938 217.067 87.7683C206.491 76.7031 200.369 61.953 200.369 46.1511C200.369 30.3454 207.047 15.5952 217.067 4.5338C215.398 4.00094 213.169 4.00094 211.5 4.00094C187.009 4.00094 166.972 22.9666 166.972 46.1479C166.972 69.3291 187.009 88.2948 211.5 88.2948V88.2938ZM166.972 204.195V293.755C166.972 302.185 174.209 309.56 183.671 309.56C193.132 309.56 200.369 302.185 200.369 293.755V204.195C200.369 191.025 204.267 179.435 211.5 169.424C213.169 166.789 215.398 164.683 217.623 162.049H211.5C187.009 162.049 166.972 181.014 166.972 204.195V204.195ZM237.104 330.633C232.095 330.108 227.087 329.053 222.634 326.944L222.63 435.996H256.027V326.944C251.018 329.049 245.451 330.633 239.328 330.633H237.103H237.104ZM267.157 88.2938C268.827 88.2938 271.055 88.2938 272.725 87.7683C262.148 76.7031 256.026 61.953 256.026 46.1511C256.026 30.3454 262.704 15.5952 272.725 4.5338C271.055 4.00094 268.827 4.00094 267.157 4.00094C242.667 4.00094 222.63 22.9666 222.63 46.1479C222.63 69.3291 242.667 88.2948 267.157 88.2948V88.2938ZM222.63 204.195V293.755C222.63 302.185 229.866 309.56 239.328 309.56C248.79 309.56 256.026 302.185 256.026 293.755V204.195C256.026 191.025 259.924 179.435 267.157 169.424C268.827 166.789 271.055 164.683 273.28 162.049H267.157C242.667 162.049 222.63 181.014 222.63 204.195V204.195ZM292.761 330.633C287.753 330.108 282.744 329.053 278.291 326.944L278.287 435.996H311.684V326.944C306.675 329.049 301.108 330.633 294.985 330.633H292.761H292.761ZM322.814 88.2938C324.484 88.2938 326.712 88.2938 328.382 87.7683C317.806 76.7031 311.683 61.953 311.683 46.1511C311.683 30.3454 318.361 15.5952 328.382 4.5338C326.712 4.00094 324.484 4.00094 322.814 4.00094C298.324 4.00094 278.287 22.9666 278.287 46.1479C278.287 69.3291 298.324 88.2948 322.814 88.2948V88.2938ZM278.287 204.195V293.755C278.287 302.185 285.524 309.56 294.985 309.56C304.447 309.56 311.684 302.185 311.684 293.755V204.724C311.684 198.929 316.692 194.188 322.814 194.188C328.937 194.188 333.945 198.929 333.945 204.724V436H367.342V299.026C367.342 293.23 372.35 288.49 378.472 288.49C384.595 288.49 389.603 293.231 389.603 299.026V436H423V162.051H322.815C298.325 162.051 278.288 181.017 278.288 204.198L278.287 204.195ZM378.471 88.2938C402.962 88.2938 422.999 69.3281 422.999 46.1469C422.999 22.9657 402.962 4 378.471 4C353.981 4 333.944 22.9657 333.944 46.1469C333.944 69.3281 353.981 88.2938 378.471 88.2938Z" fill="#142547"/>
<circle cx="378.686" cy="44.686" r="44.686" fill="#4267B2"/>
</svg>
