<svg width="430" height="300" viewBox="0 0 430 300" fill="none" xmlns="http://www.w3.org/2000/svg">
<g clip-path="url(#clip0_1_14)">
<rect width="430" height="300" rx="15" fill="url(#paint0_linear_1_14)"/>
<g clip-path="url(#clip1_1_14)">
<path d="M74.0449 120.345C81.6663 120.998 88.3759 115.345 89.0319 107.716C89.688 100.088 84.0394 93.3712 76.418 92.7175C68.7966 92.0638 62.087 97.7171 61.431 105.346C60.7749 112.974 66.4235 119.691 74.0449 120.345Z" fill="#00D250"/>
<path d="M179.699 391.168C179.699 395.821 176.674 397.195 172.167 397.195H124.793C118.867 397.195 114.306 394.453 115.218 388.063C115.232 387.942 115.251 387.809 115.265 387.677C116.037 381.156 118.941 368.545 112.174 362.491C109.87 360.492 106.168 359.405 102.433 359.358H102.312C98.5372 359.384 94.7739 360.464 92.4434 362.491C85.677 368.55 88.5806 381.168 89.3479 387.677C89.3621 387.802 89.3811 387.93 89.3953 388.056C90.3142 394.443 85.7456 397.186 79.82 397.186H32.4455C27.9385 397.186 24.907 395.814 24.907 391.16C24.907 386.507 28.2772 378.468 36.3273 373.149C36.5002 373.035 36.6612 372.922 36.8199 372.808C37.1325 372.581 37.4451 372.349 37.7388 372.102C44.6118 366.409 40.1995 355.434 37.0851 337.38C33.8713 318.745 33.6084 301.342 33.6155 285.318C33.7955 281.226 34.056 277.251 34.3473 273.467C37.8099 229.59 53.8461 191.055 60.9441 161.062C65.6264 141.262 67.0545 133.906 69.887 124.205C72.3478 114.8 76.3409 105.831 84.1517 100.673C90.184 96.327 98.5064 93.8591 110.528 94.7307C122.56 95.4412 130.496 98.9748 135.901 104.074C142.965 110.21 145.758 119.625 146.966 129.271C148.498 139.258 148.145 144.734 151.153 164.849C155.712 195.322 166.782 229.586 170.244 273.467C170.545 277.259 170.791 281.218 170.976 285.311C170.99 301.328 170.718 318.743 167.506 337.38C164.394 355.434 159.989 366.404 166.86 372.102C167.154 372.349 167.459 372.583 167.779 372.808C167.938 372.929 168.106 373.035 168.271 373.149C176.322 378.475 179.699 386.516 179.699 391.168Z" fill="#00D250"/>
<path d="M150.099 258.195C161.207 270.821 166.346 302.432 169.098 310.276C170.749 314.989 179.607 315.794 187.723 311.903C192.377 309.67 195.873 306.745 197.985 302.924C199.558 300.078 200.444 292.646 200.235 288.733C199.769 261.575 193.049 238.443 171.8 204.76C161.846 188.975 160.778 188.445 151.158 164.856" fill="#00D250"/>
<path d="M150.099 258.196C161.207 270.821 166.346 302.432 169.098 310.276C170.749 314.989 179.607 315.794 187.723 311.903C192.377 309.67 195.873 306.745 197.985 302.925C199.558 300.078 200.444 292.646 200.235 288.733" stroke="#37B34A" stroke-width="1.10741" stroke-miterlimit="10" stroke-linecap="round"/>
<path d="M145.008 126.438C152.63 127.092 159.339 121.439 159.995 113.81C160.651 106.182 155.003 99.465 147.381 98.8113C139.76 98.1576 133.05 103.811 132.394 111.439C131.741 119.068 137.387 125.785 145.008 126.438Z" fill="#00D250"/>
<path d="M11.9094 122.784C13.6028 121.555 18.1832 117.235 19.069 116.664C20.0448 116.037 20.9376 116.423 20.8476 117.571C20.7577 118.72 20.3432 121.998 20.3432 121.998C18.0009 121.801 15.372 121.742 11.9094 122.784Z" fill="#1D1D1B"/>
<path d="M25.6649 122.533C26.591 121.92 30.9346 119.215 31.8037 118.808C32.6729 118.398 33.49 118.834 33.3977 119.809C33.3148 120.695 32.2087 124.906 31.934 125.74C30.3614 124.563 27.6094 123.272 25.6649 122.533Z" fill="#1D1D1B"/>
<path d="M18.7515 121.275C19.6326 120.591 24.438 117.079 25.2764 116.61C26.1077 116.136 26.9603 116.508 26.9366 117.491C26.92 118.381 26.1219 122.661 25.9206 123.513C24.2627 122.455 20.7433 121.863 18.7515 121.275Z" fill="#1D1D1B"/>
<path d="M31.2542 125.692C32.2016 124.904 36.126 122.843 37.0757 122.344C38.2267 121.737 38.8685 122.734 38.6483 123.54C38.4328 124.35 36.5925 128.916 36.0407 129.877C34.8257 128.426 32.7108 126.562 31.2542 125.692Z" fill="#1D1D1B"/>
<path d="M34.8375 129.754C37.4806 128.625 39.8466 127.796 40.8864 127.483C41.5945 127.275 42.6105 127.961 41.9616 129.394C41.3127 130.827 38.8543 135.284 38.1627 136.381C38.3309 134.517 37.1301 131.912 34.8375 129.754Z" fill="#1D1D1B"/>
<path d="M60.9465 161.062C55.7313 179.068 44.6805 184.584 38.0017 178.543C28.0261 169.517 28.1303 157.54 34.911 144.109C38.0538 137.885 39.8988 134.337 35.9839 129.276C30.1056 121.678 18.6048 118.933 11.9094 122.786C5.21401 126.64 -12.7951 154.433 -9.9696 182.526C-7.14414 210.62 5.23533 227.118 23.2089 246.411C29.7314 253.411 36.062 258.193 34.5107 271.52C52.9769 285.851 72.2317 190.467 60.9465 161.062Z" fill="#00D250"/>
<path d="M107.179 115.239C112.733 115.604 121.437 120.159 121.55 133.687C121.671 148.105 118.085 159.405 104.337 158.502C90.0961 157.567 88.4453 143.515 90.0653 131.958C91.4366 122.127 98.0562 114.64 107.179 115.239Z" fill="white"/>
<path d="M107.203 121.047C110.161 121.241 114.135 123.406 113.908 126.852C113.68 130.298 110.258 131.937 106.502 131.69C102.634 131.437 98.8708 129.592 99.1171 125.862C99.3397 122.401 102.705 120.751 107.203 121.047Z" fill="#1D1D1B"/>
<path d="M127.268 121.449C128.351 121.52 129.111 123.261 128.976 125.336C128.838 127.41 127.851 129.035 126.776 128.966C125.693 128.895 124.933 127.155 125.068 125.08C125.205 123.003 126.193 121.378 127.268 121.449ZM84.4694 122.411C84.332 124.486 85.0994 126.226 86.177 126.297C87.2546 126.368 88.2422 124.744 88.3772 122.667C88.5145 120.592 87.7472 118.851 86.6696 118.78C85.592 118.711 84.6044 120.336 84.4694 122.411Z" fill="#1D1D1B"/>
<path d="M205.085 275.458H139.874V284.071H205.085V275.458Z" fill="#1D1D1B"/>
<path d="M139.874 284.071C139.874 284.071 139.825 286.852 139.825 295.538C139.825 304.225 140.821 346.538 141.584 357.353C143.946 390.771 167.853 468.237 167.853 468.237H184.365C184.365 468.237 172.036 392.678 171.446 384.274C171.015 378.135 169.391 335.858 168.948 315.778C171.347 322.435 186.1 387.535 188.708 397.009C191.895 408.587 214.546 471.915 214.546 471.915H231.095C231.095 471.915 223.91 435.471 215.642 395.2C208.911 362.41 208.419 323.69 207.705 318.559C206.131 307.264 205.085 284.071 205.085 284.071H139.874Z" fill="#1D1D1B"/>
<path d="M191.178 193.219C181.258 202.561 158.58 206.159 145.811 197.532C149.779 194.094 153.413 191.111 156.066 187.419C158.151 184.538 159.639 181.221 160.186 176.938C160.239 176.551 160.29 176.185 160.328 175.84C160.977 170.532 160.968 168.326 160.98 163.155C160.989 162.873 161.009 162.591 161.037 162.332C161.782 156.849 170.021 155.746 174.602 157.952C175.453 158.351 176.161 158.865 176.693 159.48C177.352 160.24 177.708 161.174 177.643 162.258C177.322 167.668 177.124 171.749 177.337 174.981C178.01 185.345 180.64 191.101 191.178 193.219Z" fill="#FFC9B4"/>
<path d="M176.651 159.475C174.591 176.947 163.038 183.46 156.055 187.429C158.139 184.548 159.627 181.23 160.174 176.947C160.228 176.56 160.279 176.195 160.317 175.85C160.933 170.538 160.738 168.334 160.968 163.165C160.977 162.882 160.997 162.6 161.026 162.342C161.77 156.858 170.01 155.755 174.591 157.961C175.409 158.356 176.128 158.872 176.651 159.475Z" fill="url(#paint1_linear_1_14)"/>
<path d="M181.244 157.869C184.314 155.424 186.363 153.526 187.086 150.113C187.809 146.7 186.779 142.381 183.563 139.554C180.348 136.727 178.121 131.389 172.678 127.579C167.234 123.769 158.635 123.769 155.805 130.845C152.974 137.921 154.717 142.275 156.893 144.996C159.07 147.718 160.159 147.282 162.914 147.913C169.113 149.333 165.854 159.818 170.495 161.468C175.136 163.119 178.192 160.3 181.244 157.869Z" fill="#1D1D1B"/>
<path d="M176.321 146.086C171.589 144.453 174.001 138.917 168.324 137.921C162.646 136.924 159.202 139.688 156.326 149.046C153.45 158.404 154.595 164.98 155.987 167.589C157.574 170.592 160.942 171.613 163.735 171.129C168.168 170.357 171.644 167.486 176.562 162.154C179.393 162.533 183.628 161.503 184.441 158.416C185.254 155.33 183.279 151.773 179.08 155.311C177.301 156.807 175.565 160.203 175.565 160.203C173.829 159.136 174.041 156.459 174.913 154.396C175.837 152.208 176.321 149.046 176.321 146.086Z" fill="#FFC9B4"/>
<path d="M156.945 161.006C156.945 161.006 156.146 164.1 158.721 164.627C161.296 165.153 163.75 164.272 165.589 162.775C165.589 162.775 162.212 162.424 160.005 161.973C157.797 161.521 156.945 161.006 156.945 161.006Z" fill="#F0AD9A"/>
<path d="M157.135 161.014C157.135 161.014 157.361 160.931 160.081 161.271C162.802 161.612 165.044 162.632 165.044 162.632C165.044 162.632 161.934 163.326 159.816 162.892C157.699 162.459 157.135 161.014 157.135 161.014Z" fill="white"/>
<path d="M156.577 160.931C156.882 160.376 157.471 160.305 159.532 160.535C161.593 160.765 163.984 161.975 165.773 162.813C165.773 162.813 161.881 162.165 159.858 161.751C157.835 161.337 157.062 161.371 156.577 160.931Z" fill="#E09782"/>
<path d="M158.8 156.46C158.8 156.46 159.158 156.942 160.08 157.218C161.063 157.459 161.872 157.274 161.872 157.274C161.872 157.274 161.001 158.671 159.756 158.298C158.48 157.862 158.8 156.46 158.8 156.46Z" fill="#F0AD9A"/>
<path d="M168.01 151.342C169.292 152.039 168.014 154.657 167.061 154.067C166.069 153.459 167.059 150.848 168.01 151.342Z" fill="#1D1D1B"/>
<path d="M159.002 149.037C160.283 149.734 159.005 152.352 158.052 151.762C157.06 151.153 158.051 148.543 159.002 149.037Z" fill="#1D1D1B"/>
<path d="M172.616 151.374C170.326 150.132 167.226 148.508 164.542 148.603C164.402 147.861 164.582 146.876 165.692 146.81C168.337 146.652 171.398 148.521 172.616 151.374Z" fill="#1D1D1B"/>
<path d="M160.252 145.593C161.068 145.983 160.61 147.166 160.442 147.724C159.035 146.887 158.046 146.595 156.41 147.344C157.361 145.556 158.848 144.923 160.252 145.593Z" fill="#1D1D1B"/>
<path d="M210.572 268.691C210.572 268.691 218.508 258.771 227.751 242.7C233.193 246.892 243.507 254.827 243.507 254.827C243.507 254.827 231.762 267.473 219.617 277.572C217.019 275.148 210.572 268.691 210.572 268.691Z" fill="#FFC9B4"/>
<path d="M96.5127 277.004C91.9617 279.55 82.1665 283.16 80.0933 284.106C78.02 285.052 77.2988 286.207 76.0565 288.397C74.8142 290.587 71.8451 294.41 69.4515 296.993C70.1925 297.514 70.9135 297.832 71.6208 297.901C71.1644 298.457 70.7119 298.974 70.295 299.427C71.9256 300.572 73.4216 300.792 75.0428 299.397C76.4485 300.261 77.7607 300.359 79.1734 299.138C81.1193 297.457 83.8482 293.536 85.5208 292.804C84.3988 294.76 82.8323 297.154 81.4661 298.946C83.0082 299.819 84.034 300.05 85.2622 298.576C87.4589 295.941 87.0329 295.246 89.8309 294.768C92.6289 294.289 96.3613 292.172 97.7954 289.73C99.2294 287.287 103.102 286.72 103.102 286.72L96.5127 277.004Z" fill="#FFC9B4"/>
<path d="M96.5127 277.004C91.9617 279.55 82.1665 283.16 80.0933 284.106C78.02 285.052 77.2988 286.207 76.0565 288.397C74.8142 290.587 71.8451 294.41 69.4515 296.993C70.1925 297.514 70.9135 297.832 71.6208 297.901C71.1644 298.457 70.7119 298.974 70.295 299.427C71.9256 300.572 73.4216 300.792 75.0428 299.397C76.4485 300.261 77.7607 300.359 79.1734 299.138C81.1193 297.457 83.8482 293.536 85.5208 292.804C84.3988 294.76 82.8323 297.154 81.4661 298.946C83.0082 299.819 84.034 300.05 85.2622 298.576C87.4589 295.941 87.0329 295.246 89.8309 294.768C92.6289 294.289 96.3613 292.172 97.7954 289.73C99.2294 287.287 103.102 286.72 103.102 286.72L96.5127 277.004Z" fill="#FFC9B4"/>
<path d="M96.5547 288.327C92.4857 293.205 88.0062 291.206 86.0447 291.572C84.0832 291.938 82.0181 294.196 80.2967 294.66C77.6729 295.372 76.5628 293.167 76.5628 293.167C78.7893 291.72 80.2747 289.645 82.462 287.817C83.9679 286.559 87.9765 282.923 92.1922 281.715C96.4274 280.497 99.201 285.159 96.5547 288.327Z" fill="#FFC9B4"/>
<path d="M96.5129 277.005C96.5129 277.005 105.802 270.899 112.656 263.713C117.425 271.137 121.843 277.807 121.843 277.807C121.843 277.807 111.528 283.976 103.098 286.735C100.565 282.998 96.5129 277.005 96.5129 277.005Z" fill="#FFC9B4"/>
<path d="M155.366 238.478C154.234 254.626 136.843 277.417 121.206 285.094L113.804 281.363L105.651 270.206C119.941 259.319 120.468 246.923 119.941 225.911C119.498 208.413 125.148 202.678 134.307 199.973C138.386 198.768 141.731 198.889 144.46 199.993C155.18 204.321 156.391 223.878 155.366 238.478Z" fill="white"/>
<path d="M155.367 238.477C154.234 254.625 136.843 277.416 121.206 285.093L113.804 281.362C123.81 268.77 130.118 249.598 127.293 233.435C123.885 213.891 128.452 201.121 144.461 199.992C155.18 204.32 156.391 223.877 155.367 238.477Z" fill="#EBF5F5"/>
<path d="M129.084 283.008L119.394 289.568L99.9157 270.409L109.02 258.922L129.084 283.008Z" fill="#EBF5F5"/>
<path d="M109.02 258.922L129.084 283.007" stroke="#A5BEBE" stroke-width="0.369136" stroke-miterlimit="10" stroke-linecap="round"/>
<path d="M152.742 193.636C163.57 197.573 175.71 194.867 180.426 193.021C174.52 217.137 164.841 239.161 160.74 247.158C157.254 232.394 150.774 201.019 152.742 193.636Z" fill="#23D1AE"/>
<path d="M132.047 200.074C137.549 197.26 144.029 194.685 150.891 192.506C153.42 191.702 156.427 192.506 158.888 193.196C161.225 200.216 162.898 220.033 163.81 226.417C165.159 220.681 167.708 201.715 171.192 192.506C173.038 190.736 177.826 186.395 179.805 186.162C188.542 185.132 196.554 185.111 202.568 186.43C224.837 191.314 250.547 203.04 255.468 229.493C259.932 253.486 243.779 267.02 243.779 267.02L220.402 251.025C226.554 241.182 217.326 234.414 210.559 236.875C203.792 239.337 205.922 260.263 205.922 275.882C196.78 275.882 138.04 275.882 138.04 275.882C136.748 251.605 112.795 209.925 132.047 200.074Z" fill="white"/>
<path d="M205.922 275.882C205.922 260.263 203.792 239.337 210.559 236.875C217.326 234.414 226.554 241.182 220.402 251.025L243.779 267.02C243.779 267.02 259.932 253.486 255.468 229.493C250.547 203.04 224.837 191.314 202.568 186.43C196.554 185.111 188.542 185.132 179.805 186.162" stroke="#A5BEBE" stroke-width="0.369136"/>
<path d="M152.187 183.544L158.894 192.782L152.419 204.112L145.768 192.782L152.187 183.544Z" fill="#EBF5F5"/>
<path d="M171.198 192.406L178.12 202.36L188.213 185.39L179.657 178.393L171.198 192.406Z" fill="#EBF5F5"/>
<path d="M158.894 192.782L152.419 204.112L145.768 192.782" stroke="#A5BEBE" stroke-width="0.369136" stroke-miterlimit="10" stroke-linecap="round"/>
<path d="M175.497 215.571L190.539 216.131L190.88 213.298L175.641 212.733L175.067 224.149" stroke="#A5BEBE" stroke-width="0.369136" stroke-miterlimit="10" stroke-linecap="round"/>
<path d="M168.738 217.014L168.636 218.383M166.892 231.163L166.79 232.532M165.166 243.751L165.064 245.12M165.487 256.478L165.385 257.846M165.383 268.749L165.281 270.118" stroke="#A5BEBE" stroke-width="0.369136" stroke-miterlimit="10" stroke-linecap="round"/>
<path d="M188.214 185.389L177.966 202.864L171.151 191.853C171.11 191.786 171.014 191.78 170.991 191.856C170.122 194.807 158.764 234.292 161.481 274.395" stroke="#A5BEBE" stroke-width="0.369136" stroke-miterlimit="10" stroke-linecap="round"/>
<path d="M220.7 245.091L215.544 257.083L238.796 275.317L248.975 265.622L220.7 245.091Z" fill="#EBF5F5"/>
<path d="M220.7 245.091L248.975 265.622" stroke="#A5BEBE" stroke-width="0.369136" stroke-linecap="round"/>
<path d="M212.417 268.69C209.956 267.46 206.265 264.384 206.265 264.384C206.352 265.802 198.674 275.686 202.574 277.303C206.473 278.92 206.88 279.764 209.956 280.994C213.032 282.225 217.22 282.663 221.526 275.281L212.417 268.69Z" fill="#FFC9B4"/>
<path d="M209.742 269.891C208.957 268.14 204.585 261.751 202.795 259.623C200.997 257.491 195.998 259.852 192.315 259.608C192.197 261.387 193.916 263.351 196.412 262.899C198.908 262.448 201.519 266.036 202.908 268.263C205.004 271.612 209.742 269.891 209.742 269.891Z" fill="#FFC9B4"/>
<path d="M198.689 263.559C194.41 261.646 190.077 265.405 185.77 265.405C185.77 268.481 188.846 269.096 193.152 267.865C197.458 266.635 199.063 269.52 201.096 270.601C203.129 271.683 206.668 271.769 208.94 269.786C206.112 267.721 202.124 265.103 198.689 263.559Z" fill="#FFC9B4"/>
<path d="M199.294 267.809C195.017 265.887 189.53 267.809 186.454 267.809C185.795 270.344 189.53 271.589 192.606 270.974C195.683 270.359 198.863 272.923 200.905 273.997C202.938 275.078 206.476 275.165 208.749 273.182C205.912 271.116 202.738 269.353 199.294 267.809Z" fill="#FFC9B4"/>
<path d="M189.247 274.083C192.939 273.695 195.445 270.732 198.275 271.499C201.106 272.257 207.117 274.083 207.117 274.083C205.998 275.025 206.597 278.178 203.521 277.563C200.445 276.948 200.352 276.102 196.015 275.54C192.324 276.771 189.863 276.771 189.247 274.083Z" fill="#FFC9B4"/>
<path d="M60.3819 200.494C62.1616 210.271 68.5227 214.681 75.9344 220.463C63.5196 229.826 43.7859 227.41 33.2936 218.533C43.7859 215.832 46.1302 209.885 46.3017 199.421C46.3517 196.155 45.9301 192.053 45.3225 186.628C44.5435 179.688 58.3949 177.972 58.8595 186.642C59.1526 192.21 59.2598 194.361 60.3819 200.494Z" fill="#FFD8C9"/>
<path d="M60.1467 199.193C59.2461 194.025 59.1318 191.795 58.8602 186.649C58.4027 177.979 44.5513 179.695 45.3232 186.635C46.674 194.761 55.5367 208.541 58.8173 208.541C62.0979 208.541 60.6113 202.037 60.1467 199.193Z" fill="url(#paint2_linear_1_14)"/>
<path d="M74.3714 169.608C73.4534 176.34 74.8925 185.241 81.6665 185.241C75.9346 193.057 66.9255 192.617 60.6726 190.532C54.4196 188.448 47.1245 177.505 46.0824 184.279C45.2487 189.699 48.8382 193.404 49.8804 195.141C46.4065 197.052 36.2506 197.878 31.122 190.973C22.9354 179.949 27.1692 159.365 43.6277 151.371C61.8652 142.512 76.4556 154.325 74.3714 169.608Z" fill="#1D1D1B"/>
<path d="M45.0314 184.6C47.3689 188.059 52.2127 192.72 56.5716 193.959C59.3282 194.741 62.837 193.815 64.7532 190.973C66.4126 188.506 69.2874 179.925 65.7675 172.163C62.1279 164.139 59.2797 162.526 55.0914 164.398C50.9031 166.269 52.4855 174.819 46.2326 177.425C42.1875 174.572 38.9241 174.881 38.612 177.809C38.3265 180.431 41.0005 183.515 45.0314 184.6Z" fill="#FFD8C9"/>
<path d="M62.726 182.1C62.1077 182.467 61.3214 182.608 59.8691 182.478C60.0486 182.811 60.7072 183.728 61.5393 183.683C62.2748 183.643 62.6886 182.519 62.726 182.1Z" fill="#FBAB9C"/>
<path d="M62.0731 188.595C64.0661 188 63.9537 186.991 64.0158 185.885C63.1201 186.097 62.8556 186.635 61.5731 186.836C60.6956 186.974 57.8779 187.295 56.3508 186.245C57.6424 188.099 59.7593 189.286 62.0731 188.595Z" fill="#E87373"/>
<path d="M60.8734 185.756C60.0954 186.041 57.8056 186.877 56.351 186.246C57.3825 187.603 60.5559 187.258 61.7948 186.934C63.0336 186.611 64.1679 186.086 64.641 185.567C63.6886 184.73 61.9145 185.375 60.8734 185.756Z" fill="#D75555"/>
<path d="M55.4209 171.365C54.4425 171.516 52.1424 172.85 51.5989 175.029C53.7559 173.577 56.9745 172.52 58.3017 173.012C58.01 171.103 56.3994 171.213 55.4209 171.365Z" fill="#83544D"/>
<path d="M63.669 170.262C64.5467 170.264 65.4213 170.98 65.7674 172.125C64.5411 171.55 62.9607 171.69 61.9051 172.26C61.9112 170.83 62.7914 170.26 63.669 170.262Z" fill="#83544D"/>
<path d="M54.3981 177.038C54.3647 176.159 54.7267 175.435 55.2037 175.419C55.6808 175.404 56.0958 176.104 56.1281 176.983C56.1615 177.862 55.7996 178.586 55.3225 178.602C54.8455 178.616 54.4305 177.916 54.3981 177.038Z" fill="#1D1D1B"/>
<path d="M63.5109 175.832C63.4774 174.954 63.8394 174.229 64.3165 174.214C64.7935 174.198 65.2085 174.898 65.2408 175.778C65.2742 176.656 64.9123 177.381 64.4352 177.396C63.9582 177.41 63.5432 176.71 63.5109 175.832Z" fill="#1D1D1B"/>
<path d="M40.5007 190.972C40.9176 186.804 43.2798 182.983 44.1483 181.593C46.2326 182.635 48.838 186.283 49.3591 190.972C47.2748 192.536 42.1682 192.64 40.5007 190.972Z" fill="#7D9696"/>
<path d="M78.718 289.119C83.3598 297.217 85.2542 310.223 83.6921 328.724C82.9942 336.921 74.5526 367.309 63.8842 398.306C53.6036 428.173 45.4944 458.826 45.4944 458.826H33.6961C34.6266 447.848 34.7817 431.541 38.083 410.625C39.3903 402.361 42.5476 395.115 43.888 386.951C47.6879 363.808 52.2964 337.664 52.6731 334.274C52.939 331.903 53.803 325.411 51.0667 325.411C49.5047 325.411 47.1672 329.577 45.1177 334.008C44.4309 335.481 36.5764 354.979 28.6887 379.107C26.329 386.319 21.9642 395.248 19.5713 402.826C9.21315 435.695 1.52487 466.969 1.52487 466.969H-10.2734C-9.9411 459.026 -9.55337 438.609 -6.76165 417.228C-5.73137 409.351 -2.45222 402.937 -1.47734 394.683C1.76859 367.287 8.30475 339.979 9.78923 327.184C11.6725 310.832 24.4346 289.119 24.4346 289.119H78.718Z" fill="#FFCDC5"/>
<path d="M108.649 252.466C113.486 250.885 117.937 245.911 121.199 242.813C124.459 239.713 127.893 234.72 129.007 231.124C130.124 227.53 130.9 223.753 132.41 221.033C133.229 221.228 133.884 221.958 133.668 223.139C133.258 225.393 132.982 226.868 132.788 228.015C132.592 229.158 131.701 232.878 131.47 233.561C133.263 229.668 136.339 223.38 138.801 220.327C139.63 220.528 139.945 221.454 139.917 222.285C139.893 222.996 139.577 223.593 139.577 223.593L140.233 222.548C140.233 222.548 141.884 223.587 141.155 225.203C140.359 226.962 137.87 231.274 136.901 233.549C138.234 231.543 139.005 231.079 139.69 230.639C140.499 230.634 142.431 230.722 143.24 230.717C143.686 231.947 142.844 232.584 142.345 232.8C141.617 233.123 140.648 232.811 140.313 233.146C139.627 234.249 137.451 237.307 136.475 239.726C135.5 242.145 131.653 248.702 127.902 248.57C124.463 248.448 121.388 257.202 115.237 263.638L108.649 252.466Z" fill="#FFC9B4"/>
<path d="M92.6644 230.295C89.3709 218.355 73.6234 211.423 61.9832 223.032C50.343 234.64 62.5752 266.913 78.4097 276.061C94.2443 285.21 107.189 280.714 116.881 270.949C116.881 270.949 113.587 259.009 110.639 250.931C97.4891 259.338 96.1655 242.987 92.6644 230.295Z" fill="white"/>
<path fill-rule="evenodd" clip-rule="evenodd" d="M114.467 262.64C108.696 265.405 98.2082 268.542 91.4003 263.954C86.8939 260.917 85.1066 254.487 83.1805 247.559C81.0594 239.929 78.7699 231.694 72.4949 226.718C68.5659 224.578 64.8137 223.658 61.3302 223.733C50.8206 235.888 62.8833 267.091 78.4096 276.061C94.2441 285.21 107.189 280.714 116.881 270.949C116.881 270.949 115.87 267.283 114.467 262.64Z" fill="url(#paint3_linear_1_14)"/>
<path fill-rule="evenodd" clip-rule="evenodd" d="M83.1805 247.559C85.1066 254.487 86.8939 260.917 91.4003 263.954C98.2082 268.542 108.696 265.405 114.467 262.64C115.87 267.283 116.881 270.949 116.881 270.949C107.189 280.714 94.2441 285.21 78.4096 276.061C62.8833 267.091 50.8206 235.888 61.3302 223.733C64.8137 223.658 68.5659 224.578 72.4949 226.718C78.7699 231.694 81.0594 239.929 83.1805 247.559Z" fill="url(#paint4_linear_1_14)"/>
<path d="M70.5864 402.756C99.3898 312.468 76.1734 294.743 78.4145 271.479C80.6556 248.214 88.8656 255.969 84.9882 242.121C83.1836 235.676 78.4145 228.272 78.4145 217.195C50.9861 217.195 43.945 196.31 22.1984 203.64C8.76896 208.166 -16.0218 242.121 -14.7161 260.4C-13.4105 278.679 -1.42225 284.219 5.22469 286.988L20.1806 271.479C5.22469 260.4 24.1726 246.093 29.597 254.307C48.9839 283.664 -3.63772 279.787 -8.06902 402.756H70.5864Z" fill="white"/>
<path d="M70.5865 402.756H-8.06902C-3.63772 279.787 48.9839 283.664 29.597 254.307C24.1726 246.093 5.2247 260.4 20.1806 271.478L5.2247 286.988C-1.42225 284.218 -13.4105 278.679 -14.7161 260.4C-16.0218 242.121 8.76896 208.166 22.1984 203.64" stroke="#A5BEBE" stroke-width="0.369136"/>
<path d="M43.8566 202.571C45.5183 213.649 55.3779 222.401 61.5817 221.958C67.7855 221.515 68.7826 214.203 66.5669 209.772" stroke="#7D9696" stroke-width="1.10741" stroke-linecap="round"/>
<path d="M40.5332 202.017C42.4681 215.3 53.9485 225.794 61.1722 225.262C68.3958 224.731 69.5568 215.964 66.9769 210.651" stroke="#7D9696" stroke-width="1.10741" stroke-linecap="round"/>
<path d="M35.152 284.946C37.0028 283.299 39.4906 279.76 39.4906 279.76C39.7472 281.013 48.7387 287.806 45.7278 290.126C42.7169 292.445 42.5609 293.274 40.1753 295.065C37.7896 296.856 34.2519 298.218 28.7779 292.81L35.152 284.946Z" fill="#FFD8C9"/>
<path d="M37.759 285.362C38.0308 283.656 40.3336 277.077 41.3916 274.808C42.4544 272.533 47.3539 273.413 50.4985 272.338C51.018 273.857 49.9838 275.967 47.7083 276.16C45.4329 276.353 44.0039 280.084 43.3185 282.345C42.281 285.748 37.759 285.362 37.759 285.362Z" fill="#FFD8C9"/>
<path d="M45.8835 277.267C49.1547 274.6 53.8031 276.852 57.5469 275.843C58.2679 278.517 55.7384 279.773 51.7063 279.713C47.6742 279.652 46.9553 282.537 45.4416 283.953C43.9278 285.37 40.8718 286.274 38.4312 285.083C40.4058 282.625 43.2591 279.414 45.8835 277.267Z" fill="#FFD8C9"/>
<path d="M46.3535 281.103C49.6219 278.429 54.8421 278.814 57.5158 278.093C58.6833 280.143 55.7281 282.1 52.9096 282.287C50.0911 282.473 47.9278 285.448 46.4042 286.86C44.8905 288.277 41.8344 289.181 39.3939 287.99C41.3755 285.529 43.722 283.253 46.3535 281.103Z" fill="#FFD8C9"/>
<path d="M56.5576 284.202C53.2578 284.73 50.3848 282.742 48.1043 284.072C45.821 285.395 41.0232 288.391 41.0232 288.391C42.2164 288.948 42.4349 291.83 44.9648 290.574C47.4946 289.318 47.3774 288.56 51.0162 287.055C54.5135 287.26 56.6529 286.683 56.5576 284.202Z" fill="#FFD8C9"/>
<path d="M32.3668 295.766C25.7198 294.104 7.99442 283.58 7.99442 283.58L19.0729 271.947C20.7346 275.271 32.3242 284.221 36.7981 286.349C36.7981 286.349 38.4598 292.996 32.3668 295.766Z" fill="#FFD8C9"/>
</g>
<path d="M295.929 138.24V135.48C297.225 135.48 298.161 135.24 298.737 134.76C299.329 134.264 299.625 133.392 299.625 132.144V121.68H302.505V132.144C302.505 133.392 302.313 134.472 301.929 135.384C301.545 136.296 300.873 137 299.913 137.496C298.969 137.992 297.641 138.24 295.929 138.24ZM315.44 138.12C314.624 138.12 313.968 137.952 313.472 137.616C312.992 137.28 312.64 136.864 312.416 136.368C311.728 137.008 311.064 137.48 310.424 137.784C309.784 138.088 309.096 138.24 308.36 138.24C307.288 138.24 306.496 137.896 305.984 137.208C305.488 136.52 305.24 135.648 305.24 134.592C305.24 133.888 305.368 133.272 305.624 132.744C305.896 132.2 306.336 131.776 306.944 131.472C307.552 131.168 308.384 131.016 309.44 131.016C309.856 131.016 310.288 131.048 310.736 131.112C311.184 131.16 311.632 131.224 312.08 131.304V129.888C312.08 129.216 311.896 128.76 311.528 128.52C311.16 128.264 310.664 128.136 310.04 128.136C309.56 128.136 309.032 128.2 308.456 128.328C307.896 128.456 307.288 128.656 306.632 128.928L305.84 126.576C307.456 125.92 308.92 125.592 310.232 125.592C311.416 125.592 312.328 125.792 312.968 126.192C313.624 126.592 314.08 127.12 314.336 127.776C314.592 128.432 314.72 129.136 314.72 129.888V134.568C314.72 134.808 314.784 135.04 314.912 135.264C315.056 135.472 315.328 135.576 315.728 135.576H315.992V138.12H315.44ZM307.904 134.544C307.904 134.976 308 135.32 308.192 135.576C308.384 135.816 308.664 135.936 309.032 135.936C309.4 135.936 309.816 135.84 310.28 135.648C310.744 135.456 311.344 135.008 312.08 134.304V133.272C311.248 133.128 310.432 133.056 309.632 133.056C309.008 133.056 308.56 133.184 308.288 133.44C308.032 133.696 307.904 134.064 307.904 134.544ZM323.596 138.24C323.196 138.24 322.788 138.2 322.372 138.12C321.972 138.04 321.564 137.928 321.148 137.784V143.112H318.388V125.832H321.004V127.488C321.756 126.736 322.396 126.232 322.924 125.976C323.452 125.72 324.004 125.592 324.58 125.592C325.908 125.592 326.932 126.088 327.652 127.08C328.372 128.072 328.732 129.464 328.732 131.256V132.552C328.732 134.296 328.292 135.68 327.412 136.704C326.532 137.728 325.26 138.24 323.596 138.24ZM323.836 128.16C323.468 128.16 323.076 128.272 322.66 128.496C322.26 128.704 321.756 129.112 321.148 129.72V135.288C321.932 135.608 322.652 135.768 323.308 135.768C324.236 135.768 324.9 135.48 325.3 134.904C325.7 134.328 325.9 133.544 325.9 132.552V131.256C325.9 130.184 325.716 129.4 325.348 128.904C324.996 128.408 324.492 128.16 323.836 128.16ZM341.151 138.12C340.335 138.12 339.679 137.952 339.183 137.616C338.703 137.28 338.351 136.864 338.127 136.368C337.439 137.008 336.775 137.48 336.135 137.784C335.495 138.088 334.807 138.24 334.071 138.24C332.999 138.24 332.207 137.896 331.695 137.208C331.199 136.52 330.951 135.648 330.951 134.592C330.951 133.888 331.079 133.272 331.335 132.744C331.607 132.2 332.047 131.776 332.655 131.472C333.263 131.168 334.095 131.016 335.151 131.016C335.567 131.016 335.999 131.048 336.447 131.112C336.895 131.16 337.343 131.224 337.791 131.304V129.888C337.791 129.216 337.607 128.76 337.239 128.52C336.871 128.264 336.375 128.136 335.751 128.136C335.271 128.136 334.743 128.2 334.167 128.328C333.607 128.456 332.999 128.656 332.343 128.928L331.551 126.576C333.167 125.92 334.631 125.592 335.943 125.592C337.127 125.592 338.039 125.792 338.679 126.192C339.335 126.592 339.791 127.12 340.047 127.776C340.303 128.432 340.431 129.136 340.431 129.888V134.568C340.431 134.808 340.495 135.04 340.623 135.264C340.767 135.472 341.039 135.576 341.439 135.576H341.703V138.12H341.151ZM333.615 134.544C333.615 134.976 333.711 135.32 333.903 135.576C334.095 135.816 334.375 135.936 334.743 135.936C335.111 135.936 335.527 135.84 335.991 135.648C336.455 135.456 337.055 135.008 337.791 134.304V133.272C336.959 133.128 336.143 133.056 335.343 133.056C334.719 133.056 334.271 133.184 333.999 133.44C333.743 133.696 333.615 134.064 333.615 134.544ZM350.051 128.16C349.651 128.16 349.195 128.256 348.683 128.448C348.171 128.64 347.563 129.016 346.859 129.576V138H344.099V125.832H346.715V127.464C347.467 126.808 348.179 126.336 348.851 126.048C349.523 125.744 350.203 125.592 350.891 125.592C352.059 125.592 352.947 125.968 353.555 126.72C354.163 127.456 354.467 128.496 354.467 129.84V138H351.707V130.176C351.707 128.832 351.155 128.16 350.051 128.16ZM363.279 138V121.68H368.247C369.463 121.68 370.423 121.856 371.127 122.208C371.847 122.56 372.359 123.056 372.663 123.696C372.983 124.336 373.143 125.088 373.143 125.952V126.624C373.143 127.888 372.599 128.856 371.511 129.528C372.279 129.832 372.863 130.272 373.263 130.848C373.663 131.424 373.863 132.112 373.863 132.912V133.584C373.863 134.464 373.703 135.24 373.383 135.912C373.063 136.568 372.535 137.08 371.799 137.448C371.063 137.816 370.079 138 368.847 138H363.279ZM368.247 124.32H366.159V128.4H368.247C368.887 128.4 369.367 128.256 369.687 127.968C370.023 127.664 370.191 127.256 370.191 126.744V125.952C370.191 125.44 370.023 125.04 369.687 124.752C369.367 124.464 368.887 124.32 368.247 124.32ZM368.847 131.04H366.159V135.36H368.847C369.519 135.36 370.031 135.2 370.383 134.88C370.735 134.56 370.911 134.128 370.911 133.584V132.792C370.911 132.248 370.735 131.824 370.383 131.52C370.031 131.2 369.519 131.04 368.847 131.04ZM385.911 138H376.023V135.72C376.023 134.568 376.175 133.608 376.479 132.84C376.783 132.056 377.191 131.416 377.703 130.92C378.215 130.408 378.775 130 379.383 129.696L381.015 128.88C381.639 128.56 382.143 128.224 382.527 127.872C382.927 127.504 383.127 127.032 383.127 126.456V126.024C383.127 125.432 382.919 124.968 382.503 124.632C382.103 124.28 381.455 124.104 380.559 124.104C380.015 124.104 379.463 124.184 378.903 124.344C378.359 124.504 377.695 124.728 376.911 125.016L376.023 122.544C376.919 122.144 377.735 121.864 378.471 121.704C379.223 121.528 379.951 121.44 380.655 121.44C381.951 121.44 382.983 121.648 383.751 122.064C384.535 122.48 385.095 123.04 385.431 123.744C385.783 124.432 385.959 125.192 385.959 126.024V126.456C385.959 127.32 385.783 128.056 385.431 128.664C385.095 129.272 384.647 129.784 384.087 130.2C383.527 130.616 382.919 130.984 382.263 131.304L380.631 132.12C380.039 132.408 379.599 132.808 379.311 133.32C379.039 133.832 378.887 134.488 378.855 135.288H385.911V138ZM391.644 131.544C391.644 132.712 391.9 133.672 392.412 134.424C392.924 135.16 393.764 135.528 394.932 135.528C395.412 135.528 395.908 135.464 396.42 135.336C396.948 135.208 397.596 134.992 398.364 134.688L399.252 137.184C398.388 137.568 397.588 137.84 396.852 138C396.132 138.16 395.436 138.24 394.764 138.24C393.42 138.24 392.292 137.952 391.38 137.376C390.484 136.8 389.812 136.008 389.364 135C388.916 133.992 388.692 132.84 388.692 131.544V128.112C388.692 126.816 388.916 125.664 389.364 124.656C389.812 123.648 390.484 122.864 391.38 122.304C392.292 121.728 393.42 121.44 394.764 121.44C395.42 121.44 396.1 121.52 396.804 121.68C397.508 121.824 398.276 122.08 399.108 122.448L398.22 124.992C397.484 124.688 396.868 124.472 396.372 124.344C395.876 124.216 395.396 124.152 394.932 124.152C393.764 124.152 392.924 124.52 392.412 125.256C391.9 125.992 391.644 126.944 391.644 128.112V131.544ZM334.071 154.832L330.951 167H327.951L325.935 157.856L323.799 167H320.799L317.679 154.832H320.511L321.687 159.656L322.503 164.048L324.567 154.832H327.351L329.487 164.144L330.255 159.68L331.407 154.832H334.071ZM345.628 166.304C344.796 166.64 344.012 166.88 343.276 167.024C342.54 167.168 341.844 167.24 341.188 167.24C339.38 167.24 338.012 166.728 337.084 165.704C336.156 164.68 335.692 163.32 335.692 161.624V160.184C335.692 159.048 335.9 158.064 336.316 157.232C336.732 156.4 337.324 155.752 338.092 155.288C338.86 154.824 339.764 154.592 340.804 154.592C341.652 154.592 342.444 154.768 343.18 155.12C343.932 155.456 344.54 155.992 345.004 156.728C345.484 157.448 345.724 158.376 345.724 159.512C345.724 159.848 345.7 160.208 345.652 160.592C345.604 160.96 345.524 161.352 345.412 161.768H338.356C338.388 162.76 338.636 163.504 339.1 164C339.564 164.496 340.308 164.744 341.332 164.744C341.876 164.744 342.436 164.68 343.012 164.552C343.604 164.424 344.212 164.232 344.836 163.976L345.628 166.304ZM340.804 156.92C340.068 156.92 339.492 157.16 339.076 157.64C338.676 158.104 338.444 158.776 338.38 159.656H342.988C343.004 159.576 343.012 159.504 343.012 159.44C343.012 159.36 343.012 159.288 343.012 159.224C343.012 158.456 342.796 157.88 342.364 157.496C341.932 157.112 341.412 156.92 340.804 156.92ZM359.152 161.552C359.152 163.296 358.72 164.68 357.856 165.704C356.992 166.728 355.728 167.24 354.064 167.24C352.336 167.24 350.584 166.76 348.808 165.8V149.24H351.568V156.44C352.304 155.704 352.936 155.216 353.464 154.976C353.992 154.72 354.536 154.592 355.096 154.592C356.376 154.592 357.368 155.088 358.072 156.08C358.792 157.072 359.152 158.464 359.152 160.256V161.552ZM354.352 157.16C353.968 157.16 353.56 157.272 353.128 157.496C352.712 157.72 352.192 158.16 351.568 158.816V164.264C352 164.44 352.392 164.568 352.744 164.648C353.112 164.728 353.472 164.768 353.824 164.768C354.72 164.768 355.36 164.48 355.744 163.904C356.128 163.328 356.32 162.544 356.32 161.552V160.256C356.32 159.184 356.144 158.4 355.792 157.904C355.456 157.408 354.976 157.16 354.352 157.16ZM365.742 164.84C366.334 164.84 366.822 164.744 367.206 164.552C367.59 164.344 367.782 164.04 367.782 163.64C367.782 163.288 367.654 163.016 367.398 162.824C367.158 162.616 366.718 162.432 366.078 162.272L364.71 161.912C363.654 161.64 362.87 161.184 362.358 160.544C361.862 159.904 361.614 159.144 361.614 158.264C361.614 157.224 361.974 156.352 362.694 155.648C363.414 154.944 364.526 154.592 366.03 154.592C366.638 154.592 367.278 154.664 367.95 154.808C368.622 154.952 369.326 155.184 370.062 155.504L369.27 157.856C368.598 157.536 367.99 157.312 367.446 157.184C366.902 157.056 366.422 156.992 366.006 156.992C364.87 156.992 364.302 157.376 364.302 158.144C364.302 158.448 364.398 158.688 364.59 158.864C364.798 159.04 365.174 159.2 365.718 159.344L367.086 159.704C368.254 160.008 369.102 160.472 369.63 161.096C370.174 161.72 370.446 162.504 370.446 163.448C370.446 164.568 370.062 165.48 369.294 166.184C368.542 166.888 367.35 167.24 365.718 167.24C364.326 167.24 362.862 166.92 361.326 166.28L362.07 164C362.822 164.304 363.502 164.52 364.11 164.648C364.718 164.776 365.262 164.84 365.742 164.84ZM376.111 152.528H373.207V149.672H376.111V152.528ZM376.039 167H373.279V154.832H376.039V167ZM387.161 166.592C386.745 166.784 386.265 166.936 385.721 167.048C385.177 167.176 384.625 167.24 384.065 167.24C383.137 167.24 382.393 167.048 381.833 166.664C381.273 166.28 380.865 165.744 380.609 165.056C380.369 164.368 380.249 163.584 380.249 162.704V157.232H378.281V154.832H380.249V151.664H383.009V154.832H386.801V157.232H383.009V162.704C383.009 163.44 383.145 163.952 383.417 164.24C383.705 164.512 384.113 164.648 384.641 164.648C384.897 164.648 385.169 164.624 385.457 164.576C385.761 164.512 386.097 164.408 386.465 164.264L387.161 166.592ZM398.62 166.304C397.788 166.64 397.004 166.88 396.268 167.024C395.532 167.168 394.836 167.24 394.18 167.24C392.372 167.24 391.004 166.728 390.076 165.704C389.148 164.68 388.684 163.32 388.684 161.624V160.184C388.684 159.048 388.892 158.064 389.308 157.232C389.724 156.4 390.316 155.752 391.084 155.288C391.852 154.824 392.756 154.592 393.796 154.592C394.644 154.592 395.436 154.768 396.172 155.12C396.924 155.456 397.532 155.992 397.996 156.728C398.476 157.448 398.716 158.376 398.716 159.512C398.716 159.848 398.692 160.208 398.644 160.592C398.596 160.96 398.516 161.352 398.404 161.768H391.348C391.38 162.76 391.628 163.504 392.092 164C392.556 164.496 393.3 164.744 394.324 164.744C394.868 164.744 395.428 164.68 396.004 164.552C396.596 164.424 397.204 164.232 397.828 163.976L398.62 166.304ZM393.796 156.92C393.06 156.92 392.484 157.16 392.068 157.64C391.668 158.104 391.436 158.776 391.372 159.656H395.98C395.996 159.576 396.004 159.504 396.004 159.44C396.004 159.36 396.004 159.288 396.004 159.224C396.004 158.456 395.788 157.88 395.356 157.496C394.924 157.112 394.404 156.92 393.796 156.92ZM275.754 189.184V190.624C275.754 192.32 275.29 193.68 274.362 194.704C273.434 195.728 272.122 196.24 270.426 196.24C268.73 196.24 267.418 195.728 266.49 194.704C265.562 193.68 265.098 192.32 265.098 190.624V189.184C265.098 187.488 265.554 186.136 266.466 185.128C267.394 184.104 268.714 183.592 270.426 183.592C272.138 183.592 273.45 184.104 274.362 185.128C275.29 186.136 275.754 187.488 275.754 189.184ZM272.922 189.184C272.922 188.208 272.706 187.448 272.274 186.904C271.842 186.344 271.226 186.064 270.426 186.064C269.626 186.064 269.01 186.344 268.578 186.904C268.146 187.448 267.93 188.208 267.93 189.184V190.624C267.93 191.6 268.146 192.368 268.578 192.928C269.01 193.488 269.626 193.768 270.426 193.768C271.226 193.768 271.842 193.488 272.274 192.928C272.706 192.368 272.922 191.6 272.922 190.624V189.184ZM284.057 196.24C283.657 196.24 283.249 196.2 282.833 196.12C282.433 196.04 282.025 195.928 281.609 195.784V201.112H278.849V183.832H281.465V185.488C282.217 184.736 282.857 184.232 283.385 183.976C283.913 183.72 284.465 183.592 285.041 183.592C286.369 183.592 287.393 184.088 288.113 185.08C288.833 186.072 289.193 187.464 289.193 189.256V190.552C289.193 192.296 288.753 193.68 287.873 194.704C286.993 195.728 285.721 196.24 284.057 196.24ZM284.297 186.16C283.929 186.16 283.537 186.272 283.121 186.496C282.721 186.704 282.217 187.112 281.609 187.72V193.288C282.393 193.608 283.113 193.768 283.769 193.768C284.697 193.768 285.361 193.48 285.761 192.904C286.161 192.328 286.361 191.544 286.361 190.552V189.256C286.361 188.184 286.177 187.4 285.809 186.904C285.457 186.408 284.953 186.16 284.297 186.16ZM299.716 195.592C299.3 195.784 298.82 195.936 298.276 196.048C297.732 196.176 297.18 196.24 296.62 196.24C295.692 196.24 294.948 196.048 294.388 195.664C293.828 195.28 293.42 194.744 293.164 194.056C292.924 193.368 292.804 192.584 292.804 191.704V186.232H290.836V183.832H292.804V180.664H295.564V183.832H299.356V186.232H295.564V191.704C295.564 192.44 295.7 192.952 295.972 193.24C296.26 193.512 296.668 193.648 297.196 193.648C297.452 193.648 297.724 193.624 298.012 193.576C298.316 193.512 298.652 193.408 299.02 193.264L299.716 195.592ZM304.767 181.528H301.863V178.672H304.767V181.528ZM304.695 196H301.935V183.832H304.695V196ZM311.258 187.576V196H308.498V183.832H311.114V185.44C311.866 184.784 312.562 184.312 313.202 184.024C313.842 183.736 314.498 183.592 315.17 183.592C316.658 183.592 317.674 184.248 318.218 185.56C319.018 184.856 319.762 184.352 320.45 184.048C321.138 183.744 321.834 183.592 322.538 183.592C323.658 183.592 324.514 183.968 325.106 184.72C325.698 185.456 325.994 186.496 325.994 187.84V196H323.234V188.176C323.234 186.832 322.722 186.16 321.698 186.16C321.298 186.16 320.858 186.256 320.378 186.448C319.898 186.64 319.314 187.016 318.626 187.576V196H315.866V188.176C315.866 186.832 315.354 186.16 314.33 186.16C313.93 186.16 313.49 186.256 313.01 186.448C312.53 186.64 311.946 187.016 311.258 187.576ZM332.47 181.528H329.566V178.672H332.47V181.528ZM332.398 196H329.638V183.832H332.398V196ZM345.417 196.12C344.601 196.12 343.945 195.952 343.449 195.616C342.969 195.28 342.617 194.864 342.393 194.368C341.705 195.008 341.041 195.48 340.401 195.784C339.761 196.088 339.073 196.24 338.337 196.24C337.265 196.24 336.473 195.896 335.961 195.208C335.465 194.52 335.217 193.648 335.217 192.592C335.217 191.888 335.345 191.272 335.601 190.744C335.873 190.2 336.313 189.776 336.921 189.472C337.529 189.168 338.361 189.016 339.417 189.016C339.833 189.016 340.265 189.048 340.713 189.112C341.161 189.16 341.609 189.224 342.057 189.304V187.888C342.057 187.216 341.873 186.76 341.505 186.52C341.137 186.264 340.641 186.136 340.017 186.136C339.537 186.136 339.009 186.2 338.433 186.328C337.873 186.456 337.265 186.656 336.609 186.928L335.817 184.576C337.433 183.92 338.897 183.592 340.209 183.592C341.393 183.592 342.305 183.792 342.945 184.192C343.601 184.592 344.057 185.12 344.313 185.776C344.569 186.432 344.697 187.136 344.697 187.888V192.568C344.697 192.808 344.761 193.04 344.889 193.264C345.033 193.472 345.305 193.576 345.705 193.576H345.969V196.12H345.417ZM337.881 192.544C337.881 192.976 337.977 193.32 338.169 193.576C338.361 193.816 338.641 193.936 339.009 193.936C339.377 193.936 339.793 193.84 340.257 193.648C340.721 193.456 341.321 193.008 342.057 192.304V191.272C341.225 191.128 340.409 191.056 339.609 191.056C338.985 191.056 338.537 191.184 338.265 191.44C338.009 191.696 337.881 192.064 337.881 192.544ZM355.997 193.6V196H347.309V193.84L352.445 186.232H347.549V183.832H355.757V185.992L350.621 193.6H355.997ZM366.044 195.592C365.628 195.784 365.148 195.936 364.604 196.048C364.06 196.176 363.508 196.24 362.948 196.24C362.02 196.24 361.276 196.048 360.716 195.664C360.156 195.28 359.748 194.744 359.492 194.056C359.252 193.368 359.132 192.584 359.132 191.704V186.232H357.164V183.832H359.132V180.664H361.892V183.832H365.684V186.232H361.892V191.704C361.892 192.44 362.028 192.952 362.3 193.24C362.588 193.512 362.996 193.648 363.524 193.648C363.78 193.648 364.052 193.624 364.34 193.576C364.644 193.512 364.98 193.408 365.348 193.264L366.044 195.592ZM371.095 181.528H368.191V178.672H371.095V181.528ZM371.023 196H368.263V183.832H371.023V196ZM384.786 189.184V190.624C384.786 192.32 384.322 193.68 383.394 194.704C382.466 195.728 381.154 196.24 379.458 196.24C377.762 196.24 376.45 195.728 375.522 194.704C374.594 193.68 374.13 192.32 374.13 190.624V189.184C374.13 187.488 374.586 186.136 375.498 185.128C376.426 184.104 377.746 183.592 379.458 183.592C381.17 183.592 382.482 184.104 383.394 185.128C384.322 186.136 384.786 187.488 384.786 189.184ZM381.954 189.184C381.954 188.208 381.738 187.448 381.306 186.904C380.874 186.344 380.258 186.064 379.458 186.064C378.658 186.064 378.042 186.344 377.61 186.904C377.178 187.448 376.962 188.208 376.962 189.184V190.624C376.962 191.6 377.178 192.368 377.61 192.928C378.042 193.488 378.658 193.768 379.458 193.768C380.258 193.768 380.874 193.488 381.306 192.928C381.738 192.368 381.954 191.6 381.954 190.624V189.184ZM393.832 186.16C393.432 186.16 392.976 186.256 392.464 186.448C391.952 186.64 391.344 187.016 390.64 187.576V196H387.88V183.832H390.496V185.464C391.248 184.808 391.96 184.336 392.632 184.048C393.304 183.744 393.984 183.592 394.672 183.592C395.84 183.592 396.728 183.968 397.336 184.72C397.944 185.456 398.248 186.496 398.248 187.84V196H395.488V188.176C395.488 186.832 394.936 186.16 393.832 186.16Z" fill="white"/>
<path d="M75.7332 41.0512C75.7332 45.3763 73.09 47.428 69.7815 47.428H67.7668V44.8218H69.6336C71.6299 44.8218 72.9607 43.7498 72.9607 41.0327C72.9607 38.3526 71.7038 37.0218 69.5782 37.0218C67.5265 37.0218 66.0663 38.2787 66.0663 40.9773V51.8455H63.2938V34.7668H66.0479V36.2455H66.436C67.3602 35.0071 68.7095 34.4526 70.1327 34.4526C73.1825 34.4526 75.7332 36.6706 75.7332 41.0512ZM57.6194 39.9237L55.7896 39.7389C54.3479 39.6095 53.59 39.2213 53.59 38.3711C53.59 37.373 54.5697 36.8 55.9559 36.8C57.3976 36.8 58.3218 37.4839 58.3957 38.445H61.0389C60.928 35.9682 59.0242 34.4526 55.9744 34.4526C52.9062 34.4526 50.836 36.0792 50.836 38.4635C50.836 40.4597 52.0929 41.7536 54.9578 42.0308L56.8246 42.2156C57.9521 42.3265 58.7099 42.5483 58.7099 43.6389C58.7099 44.6185 58.0076 45.3209 56.1408 45.3209C54.4218 45.3209 53.5716 44.5446 53.2758 43.491H50.4109C50.6881 45.8754 52.7028 47.7237 56.1408 47.7237C59.3753 47.7237 61.464 46.0232 61.464 43.491C61.4455 41.2915 59.9853 40.1455 57.6194 39.9237ZM86.3981 43.5095C85.973 44.5076 84.9379 45.2469 83.4592 45.2469C81.4445 45.2469 79.9474 43.9346 79.9474 41.1066C79.9474 38.4081 81.3336 36.9109 83.4962 36.9109C85.4185 36.9109 86.509 38.0569 86.6199 39.7943H81.6663V41.7905H89.337V40.4782C89.337 36.837 86.9156 34.4711 83.4777 34.4711C80.2801 34.4711 77.2118 36.6521 77.2118 41.1066C77.2118 45.5611 80.2801 47.7422 83.4777 47.7422C86.3981 47.7422 88.5052 45.9308 89.1521 43.5095H86.3981ZM42.9436 34.4526C39.9308 34.4526 37.6758 36.0237 37.3986 38.445H40.3559C40.5592 37.5578 41.3725 36.8924 42.9251 36.8924C44.9213 36.8924 45.5682 37.946 45.5682 39.2213V43.5464C44.4408 44.8403 43.1284 45.4318 41.8161 45.4318C40.4483 45.4318 39.5057 44.7664 39.5057 43.6019C39.5057 42.4744 40.245 41.772 41.6498 41.772H43.8493V39.7943H41.5573C38.4152 39.7943 36.6408 41.3654 36.6408 43.7867C36.6408 46.0417 38.3412 47.7422 41.1507 47.7422C42.7218 47.7422 44.1081 47.1137 45.1431 46.3559H45.5313V47.428H48.2853V38.981C48.3592 35.8573 46.2336 34.4526 42.9436 34.4526ZM24.2569 47.428H27.0109V30.109H24.2569V47.428ZM35.8275 34.7668H32.4635L28.4526 40.0531V41.6981L32.5744 47.428H35.9938L31.1512 40.8664L35.8275 34.7668ZM135.472 34.7668L133.217 39.7758C132.662 40.9773 132.145 42.1602 131.978 42.955H131.59C131.424 42.1602 130.888 41.0142 130.333 39.8128L128.078 34.7668H125.028L130.333 46.1341L127.709 51.864H130.647L138.521 34.7668H135.472ZM124.418 34.7668H121.054L117.044 40.0346V41.6796L121.165 47.4095H124.585L119.761 40.8479L124.418 34.7668ZM107.155 39.9237L105.325 39.7389C103.883 39.6095 103.126 39.2213 103.126 38.3711C103.126 37.373 104.105 36.8 105.491 36.8C106.933 36.8 107.857 37.4839 107.931 38.445H110.574C110.464 35.9682 108.56 34.4526 105.51 34.4526C102.442 34.4526 100.372 36.0792 100.372 38.4635C100.372 40.4597 101.628 41.7536 104.493 42.0308L106.36 42.2156C107.488 42.3265 108.245 42.5483 108.245 43.6389C108.245 44.6185 107.543 45.3209 105.676 45.3209C103.957 45.3209 103.107 44.5446 102.811 43.491H99.9464C100.224 45.8754 102.238 47.7237 105.676 47.7237C108.911 47.7237 111 46.0232 111 43.491C111 41.2915 109.521 40.1455 107.155 39.9237ZM112.848 47.428H115.602V30.109H112.848V47.428ZM94.6602 36.2455H94.272V34.7668H91.518V47.428H94.272V40.8109C94.272 38.5559 95.3071 37.2436 97.3772 37.2436H99.1147V34.4526H98.0981C96.1943 34.4526 95.381 35.1735 94.6602 36.2455Z" fill="#009982"/>
</g>
<defs>
<linearGradient id="paint0_linear_1_14" x1="244" y1="231.5" x2="85" y2="-19.5" gradientUnits="userSpaceOnUse">
<stop stop-color="#0FA68E"/>
<stop offset="0.866393" stop-color="white" stop-opacity="0.47"/>
</linearGradient>
<linearGradient id="paint1_linear_1_14" x1="165.64" y1="187.896" x2="167.179" y2="156.756" gradientUnits="userSpaceOnUse">
<stop offset="0.00741235" stop-color="#DB8C77" stop-opacity="0"/>
<stop offset="1" stop-color="#DB8C77"/>
</linearGradient>
<linearGradient id="paint2_linear_1_14" x1="53.0874" y1="208.537" x2="53.0874" y2="180.77" gradientUnits="userSpaceOnUse">
<stop stop-color="#F3ABA0" stop-opacity="0"/>
<stop offset="1" stop-color="#F3ABA0"/>
</linearGradient>
<linearGradient id="paint3_linear_1_14" x1="77.5324" y1="240.416" x2="105.868" y2="272.919" gradientUnits="userSpaceOnUse">
<stop stop-color="#EBF5F5"/>
<stop offset="1" stop-color="#EBF5F5" stop-opacity="0"/>
</linearGradient>
<linearGradient id="paint4_linear_1_14" x1="77.5324" y1="240.416" x2="105.868" y2="272.919" gradientUnits="userSpaceOnUse">
<stop stop-color="#EBF5F5"/>
<stop offset="1" stop-color="#EBF5F5" stop-opacity="0"/>
</linearGradient>
<clipPath id="clip0_1_14">
<rect width="430" height="300" rx="15" fill="white"/>
</clipPath>
<clipPath id="clip1_1_14">
<rect width="299" height="221.481" fill="white" transform="translate(-35 79)"/>
</clipPath>
</defs>
</svg>
