<?xml version="1.0" encoding="UTF-8"?>
<svg width="25px" height="39px" viewBox="0 0 25 39" version="1.1" xmlns="http://www.w3.org/2000/svg" xmlns:xlink="http://www.w3.org/1999/xlink">
    <title>Group 45</title>
    <g id="Landing-page_01" stroke="none" stroke-width="1" fill="none" fill-rule="evenodd">
        <g id="Group-45">
            <path d="M11.8523127,0.712445255 L12.2875547,31.7075078 C12.2875547,33.2483952 11.6629867,34.643407 10.6531968,35.6531968 C9.64340696,36.6629867 8.24839523,37.2875547 6.70750782,37.2875547 L6.70750782,37.2875547 L1.14768725,37.2875547 L0.712445255,1.0487487 L11.8523127,0.712445255 Z" id="Rectangle" stroke="#FFFFFF" stroke-width="1.42489051" fill="#EADFEC" opacity="0.845294331"></path>
            <ellipse id="Oval" stroke="#FFFCFF" stroke-width="1.33029197" fill="#FAE8E8" cx="16" cy="31" rx="7.66514599" ry="6.66514599"></ellipse>
            <path d="M11,25 L12.9512513,25 C13.5304592,25 14,25.4695408 14,26.0487487 L14,26.5 C14,27.3284271 13.3284271,28 12.5,28 L12.0487487,28 C11.4695408,28 11,27.5304592 11,26.9512513 L11,25 L11,25 Z" id="Rectangle" fill="#FFFCFF"></path>
        </g>
    </g>
</svg>