<?xml version="1.0" encoding="UTF-8"?>
<svg width="39px" height="19px" viewBox="0 0 39 19" version="1.1" xmlns="http://www.w3.org/2000/svg" xmlns:xlink="http://www.w3.org/1999/xlink">
    <title>Linlu</title>
    <g id="About" stroke="none" stroke-width="1" fill="none" fill-rule="evenodd">
        <g id="Linlu" fill="#A08D9B">
            <g id="n" transform="translate(13.000000, 3.000000)">
                <rect id="Rectangle" x="0" y="5.68434189e-14" width="2" height="15" rx="1"></rect>
                <path d="M1.92285967,4.62353048 C2.15764092,4.62353048 2.37680076,4.50587977 2.50653512,4.31019832 L3.42539334,2.92426223 C3.79590325,2.36541318 4.42180451,2.0294131 5.09231912,2.0294131 L5.22036979,2.0294131 C5.91689615,2.0294131 6.51439528,2.52608164 6.64168798,3.21087763 L6.85336469,4.34963401 C6.86456846,4.40990686 6.87020594,4.47108229 6.87020594,4.5323876 L6.87020594,14 C6.87020594,14.5522847 7.31792119,15 7.87020594,15 L8.80738775,15 L8.80738775,15 L8.71911436,5.14265809 C8.71466419,4.64678083 8.61805476,4.15605242 8.43420274,3.69549571 C8.21024152,3.13446381 7.95646628,2.57910294 7.67287703,2.0294131 C7.3652555,1.43314077 7.05286016,0.902287076 6.73569099,0.436852032 C6.54942062,0.163543375 6.24006883,-6.0757431e-17 5.90932078,0 L4.19541671,0 C3.85703066,-4.5312133e-05 3.54159684,0.171075802 3.35709643,0.454738836 C2.53892717,1.71264592 2.06084825,2.5257726 1.92285967,2.8941189 C1.76889711,3.30510605 1.76889711,3.88157658 1.92285967,4.62353048 Z" id="Path-24"></path>
            </g>
            <g id="u" transform="translate(34.500000, 10.500000) scale(-1, -1) translate(-34.500000, -10.500000) translate(30.000000, 3.000000)">
                <rect id="Rectangle" x="0" y="5.68434189e-14" width="2" height="15" rx="1"></rect>
                <path d="M1.92285967,4.62353048 C2.15764092,4.62353048 2.37680076,4.50587977 2.50653512,4.31019832 L3.42539334,2.92426223 C3.79590325,2.36541318 4.42180451,2.0294131 5.09231912,2.0294131 L5.22036979,2.0294131 C5.91689615,2.0294131 6.51439528,2.52608164 6.64168798,3.21087763 L6.85336469,4.34963401 C6.86456846,4.40990686 6.87020594,4.47108229 6.87020594,4.5323876 L6.87020594,14 C6.87020594,14.5522847 7.31792119,15 7.87020594,15 L8.80738775,15 L8.80738775,15 L8.71911436,5.14265809 C8.71466419,4.64678083 8.61805476,4.15605242 8.43420274,3.69549571 C8.21024152,3.13446381 7.95646628,2.57910294 7.67287703,2.0294131 C7.3652555,1.43314077 7.05286016,0.902287076 6.73569099,0.436852032 C6.54942062,0.163543375 6.24006883,-6.0757431e-17 5.90932078,0 L4.19541671,0 C3.85703066,-4.5312133e-05 3.54159684,0.171075802 3.35709643,0.454738836 C2.53892717,1.71264592 2.06084825,2.5257726 1.92285967,2.8941189 C1.76889711,3.30510605 1.76889711,3.88157658 1.92285967,4.62353048 Z" id="Path-24"></path>
            </g>
            <g id="i" transform="translate(9.000000, 3.000000)">
                <path d="M0.928670286,0.331689017 L2.06420291,0.149852346 C2.50485268,0.0792896119 2.91927229,0.379304427 2.98983502,0.819954191 C2.99660098,0.862206237 3,0.904928977 3,0.947719322 C3,1.46388216 2.58404602,1.88361927 2.0679042,1.88827735 C1.95752696,1.88927671 1.88798768,1.89166381 1.85928636,1.89543864 C1.8253198,1.89990597 1.73892317,1.92073502 1.60009649,1.95792578 C1.13117945,2.08350359 0.639786409,1.85419977 0.434847763,1.41413941 L0.397051643,1.33298061 C0.231429585,0.977343912 0.385466885,0.554780199 0.741103582,0.38915814 C0.800667,0.361419114 0.863791044,0.342078349 0.928670286,0.331689017 Z" id="Rectangle"></path>
                <path d="M1.66567709,3.32308972 L1.70911904,3.31257079 C2.24935609,3.1817591 2.79334857,3.51366393 2.92416026,4.05390097 C2.94581828,4.1433461 2.95510597,4.23533915 2.95176368,4.32730833 L2.5984395,14.0496528 C2.5808512,14.5336263 2.1742551,14.9117061 1.69028169,14.8941178 C1.62192773,14.8916337 1.55409915,14.8811606 1.4881793,14.8629122 C0.86167321,14.6894779 0.437428315,14.1070256 0.464550926,13.4575229 C0.563939212,11.0752136 0.630993676,9.45418276 0.665714318,8.59443028 C0.697898111,7.79749522 0.650336006,6.56436319 0.523028004,4.89503418 C0.467098731,4.16180127 0.950967695,3.49614772 1.66567709,3.32308972 Z" id="Rectangle"></path>
            </g>
            <path d="M0.2980227,1.66662907 C0.57998683,5.08107412 0.720968895,7.57856501 0.720968895,9.15910173 C0.720968895,10.7746813 0.573665966,13.3483262 0.279060106,16.8800365 L0.279077344,16.880038 C0.233167474,17.4304016 0.642108082,17.9137768 1.19247176,17.9596867 C1.27244679,17.966358 1.35293413,17.9633777 1.43219678,17.9508101 C2.96448743,17.7078549 4.03373053,17.5798258 4.63992607,17.5667227 C5.24492669,17.5536454 6.23009201,17.6368545 7.59542205,17.8163501 C8.14297655,17.8882906 8.64520745,17.5027696 8.71719194,16.9552209 C8.72287316,16.9120068 8.72572289,16.8684674 8.72572289,16.8248814 L8.72572289,16.4663116 C8.72572289,15.9140268 8.27800764,15.4663116 7.72572289,15.4663116 C7.70421733,15.4663116 7.68271736,15.4670053 7.66125653,15.4683917 L3.69942518,15.724329 C3.14828925,15.7599328 2.67264273,15.3420114 2.63703893,14.7908755 C2.6351168,14.7611214 2.63452635,14.7312962 2.63526936,14.7014894 L2.95172004,2.00661441 C2.96201882,1.59346379 2.71710474,1.21654046 2.33540281,1.05810079 L1.56920321,0.740060969 C1.09934344,0.545028086 0.560341448,0.767819297 0.365308565,1.23767907 C0.309030693,1.37325984 0.285971616,1.52032761 0.2980227,1.66662907 Z" id="Path-23"></path>
            <path d="M22.6676347,2.23278806 C23.0386969,4.83259749 23.2625332,6.93073078 23.3391435,8.52718793 C23.4154442,10.1171922 23.4216136,12.791364 23.3576516,16.5497034 C23.3482507,17.1019098 23.7882841,17.55718 24.3404906,17.5665779 C24.3461622,17.5666744 24.3518344,17.5667227 24.3575068,17.5667227 L29.4831646,17.5667227 C30.0354494,17.5667227 30.4831646,17.1190074 30.4831646,16.5667227 L30.4831646,16.2429257 C30.4831646,15.690641 30.0354494,15.2429257 29.4831646,15.2429257 C29.443181,15.2429257 29.4032334,15.2453238 29.3635369,15.2501069 L26.0884379,15.6447336 C25.5401192,15.7108022 25.0420599,15.3198613 24.9759913,14.7715426 C24.9712082,14.7318461 24.9688101,14.6918984 24.9688101,14.6519148 L24.9688101,1.55005097 C24.9688101,1.11087089 24.6127843,0.754845082 24.1736043,0.754845082 C24.0317248,0.754845082 23.892429,0.792804221 23.7701649,0.864785285 L23.1502535,1.22974834 C22.800973,1.43539256 22.6103647,1.8315318 22.6676347,2.23278806 Z" id="Path-23"></path>
        </g>
    </g>
</svg>