<svg xmlns="http://www.w3.org/2000/svg" width="512" height="462" fill="none" xmlns:v="https://vecta.io/nano"><path d="M247.514 84.131a83.17 83.17 0 0 0-5.416-29.426c-7.946-21.433-24.295-38.693-45.261-47.787a83.86 83.86 0 0 0-65.819-.377 83.83 83.83 0 0 0-45.807 47.261c0 .181-.181.181-.181.361-.903 2.349-1.626 4.694-2.349 6.862v-.004a30.19 30.19 0 0 0-1.441 5.778 79.33 79.33 0 0 0-1.807 17.333 47.94 47.94 0 0 0 .542 6.862A77.69 77.69 0 0 0 85.03 107.6c.851 2.678 1.939 5.279 3.248 7.765a76.36 76.36 0 0 0 4.694 9.387c1.807 3.609 3.79 7.219 5.958 11.013 1.626 2.53 3.068 5.236 4.875 7.942 3.067 5.236 6.681 10.291 10.29 15.707l6.501 9.568c2.349 3.428 4.693 6.5 7.219 9.567 9.387 12.821 19.135 25.275 28.708 36.469v.004a72.11 72.11 0 0 0 7.042 7.761c38.094-43.873 78.173-99.296 83.408-131.791v.004a47.79 47.79 0 0 0 .542-6.862l-.001-.001zm-81.602 51.091h-2.529a51.28 51.28 0 0 1-36.076-15.02c-9.572-9.568-14.967-22.537-15.016-36.071a52.61 52.61 0 0 1 4.152-20.22 51.65 51.65 0 0 1 18.907-22.372 51.67 51.67 0 0 1 28.033-8.5 50.94 50.94 0 0 1 28.767 8.901c8.472 5.798 14.997 14.025 18.714 23.592a48.12 48.12 0 0 1 3.61 18.598 51.27 51.27 0 0 1-14.109 35.212 51.29 51.29 0 0 1-34.457 15.88h.004zm-2.527-69.14a18.3 18.3 0 0 0-9.934 3.051c-2.947 1.951-5.267 4.718-6.677 7.962a17.56 17.56 0 0 0-1.445 7.042 18.13 18.13 0 0 0 5.304 12.752c3.385 3.381 7.97 5.288 12.751 5.3h1.084l3.61-.542a18.28 18.28 0 0 0 5.958-2.887c.964-.638 1.819-1.429 2.526-2.349 3.292-3.228 5.119-7.665 5.059-12.274.052-2.116-.382-4.216-1.265-6.139-1.237-3.505-3.533-6.541-6.577-8.677a17.86 17.86 0 0 0-10.394-3.24h0z" fill="#4267b2"/><path d="M363.055 333.097c-5.247-1.98-10.82-2.959-16.425-2.891-5.669-.052-11.298.927-16.61 2.891-9.612 3.433-17.924 9.748-23.805 18.084a49.51 49.51 0 0 0-9.054 28.495v.542a72.56 72.56 0 0 0 12.098 30.691A399.61 399.61 0 0 0 346.631 462a381.94 381.94 0 0 0 37.187-51.091 73.37 73.37 0 0 0 12.278-30.691v-.542a49.67 49.67 0 0 0-9.154-28.511c-5.914-8.335-14.253-14.647-23.885-18.067l-.002-.001zm-.361 49.646c-.02 1.201-.329 2.377-.899 3.433-.362.903-1.085 1.807-1.446 2.71-.542.723-1.265 1.445-1.807 2.168v-.004c-.554.59-1.16 1.132-1.802 1.622-1.357 1.084-2.883 1.935-4.513 2.53l-5.597 1.987-5.597-1.987c-1.65-.554-3.184-1.41-4.517-2.53a7.78 7.78 0 0 1-1.803-1.622c-.654-.678-1.257-1.401-1.807-2.168-.55-.863-1.031-1.771-1.441-2.706a10.89 10.89 0 0 1-1.084-3.433 15.75 15.75 0 0 1-.361-3.067 16.52 16.52 0 0 1 8.287-14.222 16.53 16.53 0 0 1 16.462 0c5.095 2.927 8.251 8.343 8.287 14.222a15.83 15.83 0 0 1-.361 3.067h-.001zm.361-342.662v258.71a82.5 82.5 0 0 1 47.462 28.66c12.046 14.739 18.622 33.188 18.614 52.224-.057 4.011-.538 8.006-1.442 11.913l83.951 30.515V94.064L363.055 40.081zM330.02 298.787V40.077l-52.176 18.959 1.084 6.32.542 2.891-.004-.004a52.22 52.22 0 0 1 .542 5.597 97.97 97.97 0 0 1 .542 10.291 82.46 82.46 0 0 1-3.609 22.745c-.904 3.248-1.988 6.501-3.249 9.929-.722 1.988-1.445 3.791-2.348 5.778a333.12 333.12 0 0 1-35.746 62.286l-8.122 11.194c-16.611 22.388-33.578 42.247-45.856 56.147l-.004 169.893 83.951-30.511v-.004c-.992-3.89-1.478-7.897-1.442-11.912a82.52 82.52 0 0 1 18.546-52.172c12.005-14.735 28.732-24.877 47.349-28.712v-.004z" fill="#142547"/><path d="M141.543 248.237c-5.055-5.958-11.917-13.719-19.317-22.93l-9.929-12.278v.004a425.17 425.17 0 0 1-57.231-91.35c-.723-1.987-1.626-4.152-2.349-6.139-1.265-3.429-2.168-6.862-3.068-10.291a17.72 17.72 0 0 1-1.084-4.151c-.542-1.988-.903-3.791-1.265-5.778-.193-.646-.313-1.313-.361-1.987-.353-3.055-.534-6.131-.538-9.206s.181-6.151.538-9.206c-.024-1.269.036-2.534.181-3.794-.181-.181-.181-.181 0-.361v.004a64.62 64.62 0 0 1 1.445-8.488 35.95 35.95 0 0 1 .723-4.332L0 40.077v328.038l148.586 53.983V255.823a33.43 33.43 0 0 1-2.349-2.53c-1.264-1.626-3.067-3.248-4.693-5.055l-.001-.001z" fill="#4267b2"/></svg>