<svg width="156" height="436" viewBox="0 0 156 436" fill="none" xmlns="http://www.w3.org/2000/svg">
<path d="M152.881 215.2C144.981 219.42 137.961 189.94 137.961 189.94L137.661 185.81L137.091 178L146.741 179.23C146.596 180.917 146.596 182.613 146.741 184.3C146.911 186.3 147.401 188.39 148.551 189.23C151.121 191.17 160.771 210.99 152.881 215.2Z" fill="#EDDFE1"/>
<path d="M15.1339 218.2C23.0339 222.42 30.0538 192.94 30.0538 192.94L30.3538 188.81L30.9238 181L21.2739 182.23C21.4196 183.917 21.4196 185.613 21.2739 187.3C21.1039 189.3 20.6139 191.39 19.4639 192.23C16.8939 194.17 7.24385 213.99 15.1339 218.2Z" fill="#EDDFE1"/>
<path d="M96.0999 253.669V273.809C96.0999 274.683 96.0999 275.553 96.0999 276.419C96.3063 283.943 96.9742 291.447 98.0999 298.889C98.3677 300.707 98.4114 302.551 98.2299 304.379C97.5299 311.229 99.2299 337.379 99.2299 337.379L102.23 371.249C102.23 371.249 100.48 389.669 101.23 392.249C101.429 393.307 101.492 394.386 101.42 395.459C101.32 398.459 100.8 402.309 100.63 403.459V403.809L100.74 403.889L115.41 415.079C113.07 412.949 112.47 407.989 112.48 403.389C112.48 402.889 112.48 402.389 112.48 401.889C112.48 397.589 112.313 393.289 111.98 388.989C111.5 381.919 114.32 371.089 116.38 364.349C119.01 355.759 121.65 305.569 120.24 302.939C118.83 300.309 117.16 293.029 118.91 289.169C119.94 286.819 118.309 279.809 118.909 273.809C119.289 270.169 120.24 265.169 120.24 265.169L96.0999 253.669Z" fill="#EDDFE1"/>
<path d="M48.2596 255.409V275.549C48.2596 276.789 48.2596 278.039 48.2596 279.279C48.4876 286.427 49.1321 293.556 50.1896 300.629C50.4576 302.447 50.5012 304.291 50.3196 306.119C49.6196 312.969 51.3196 339.119 51.3196 339.119L54.3196 372.989C54.3196 372.989 52.5596 391.409 53.2596 393.989C53.4629 395.043 53.5268 396.119 53.4496 397.189C53.3496 400.189 52.8196 404.099 52.6596 405.189C52.6596 405.409 52.6096 405.519 52.6096 405.519L52.7196 405.599L67.4096 416.789C65.1396 414.609 64.5496 409.709 64.5596 405.169C64.5596 404.669 64.5596 404.169 64.5596 403.659C64.5596 399.359 64.3596 395.059 64.0696 390.759C63.5996 383.689 66.4096 372.869 68.4696 366.129C71.1096 357.539 73.7396 307.349 72.3296 304.719C70.9196 302.089 72.5096 295.239 74.2596 291.379C74.8896 290.019 75.4896 286.709 76.0096 283.029C76.9396 276.349 77.5996 268.399 77.5996 268.399L48.2596 255.409Z" fill="#EDDFE1"/>
<path d="M100.87 410.889C102.424 414.452 103.207 418.303 103.17 422.189C103.104 425.384 103.917 428.535 105.52 431.299C105.744 431.691 106.002 432.062 106.29 432.409C106.29 432.409 113.98 432.349 116.67 430.119C116.975 429.893 117.227 429.603 117.41 429.269C118.95 426.199 114.41 414.439 114.41 414.439C112.03 405.369 107.19 400.529 107.19 400.529C98.5598 398.269 100.87 410.889 100.87 410.889Z" fill="#656181"/>
<path opacity="0.1" d="M108.519 431.269C108.744 431.661 109.001 432.032 109.289 432.379C109.289 432.379 116.979 432.319 119.669 430.089C118.349 425.709 114.119 412.459 112.149 414.709C110.179 416.959 108.989 427.039 108.519 431.269Z" fill="black"/>
<path d="M109.58 415.559L110.11 435.419H107.53C107.53 435.419 107.12 417.999 105.96 415.559C104.8 413.119 109.58 415.559 109.58 415.559Z" fill="#656181"/>
<path d="M52.8097 406.389C54.3716 409.95 55.1589 413.801 55.1197 417.689C55.0537 420.884 55.8666 424.035 57.4697 426.799C57.6971 427.189 57.9546 427.56 58.2397 427.909C58.2397 427.909 65.9297 427.849 68.6197 425.619C68.916 425.385 69.1611 425.092 69.3397 424.759C70.8697 421.689 66.3397 409.929 66.3397 409.929C63.9597 400.859 59.1197 396.019 59.1197 396.019C50.5097 393.789 52.8097 406.389 52.8097 406.389Z" fill="#656181"/>
<path opacity="0.1" d="M57.4696 426.799C57.697 427.189 57.9545 427.56 58.2396 427.909C58.2396 427.909 65.9296 427.849 68.6196 425.619C67.2996 421.239 63.0696 407.979 61.0996 410.229C59.1296 412.479 57.9396 422.539 57.4696 426.799Z" fill="black"/>
<path d="M58.5195 411.059L59.0596 430.909H56.4796C56.4796 430.909 56.0695 413.499 54.9095 411.059C53.7495 408.619 58.5195 411.059 58.5195 411.059Z" fill="#656181"/>
<path d="M76.8486 52.7913C63.284 52.7913 52.2876 41.795 52.2876 28.2303C52.2876 14.6656 63.284 3.66928 76.8486 3.66928C90.4133 3.66928 101.41 14.6656 101.41 28.2303C101.41 41.795 90.4133 52.7913 76.8486 52.7913Z" fill="#EDDFE1"/>
<path d="M105.41 140.169L114.083 126.787L118.955 104.816C120.186 99.3752 120.114 93.7208 118.746 88.3132C117.377 82.9057 114.751 77.8978 111.08 73.6976C107.509 69.5184 103.001 66.2425 97.9228 64.137C92.8449 62.0316 87.3413 61.1562 81.8607 61.5824C81.5069 61.6097 81.152 61.6393 80.7964 61.6712C76.1137 62.0928 71.5638 63.4528 67.418 65.6703C63.2721 67.8879 59.6151 70.9174 56.6651 74.5785C53.6534 78.26 51.4139 82.5103 50.0799 87.0758C48.746 91.6414 48.3451 96.4288 48.9009 101.153L58.9097 139.169L105.41 140.169Z" fill="url(#paint0_linear)"/>
<path opacity="0.99" d="M132.41 192.169C133.044 192.169 133.51 191.482 134.089 191.223L144.609 186.51C145.622 186.058 147.459 184.682 147.91 183.669C148.361 182.657 154.25 174.724 153.91 173.669L122.586 121.669V84.9059C122.343 83.4385 121.206 80.9257 120.41 79.6693C119.614 78.4129 118.133 77.0154 116.91 76.1693C115.686 75.3232 115.348 76.1548 113.892 75.8532C112.436 75.5517 110.933 75.5462 109.475 75.837C108.016 76.1278 106.631 76.7091 105.401 77.5462C104.172 78.3833 103.124 79.4591 102.318 80.7096C101.513 81.9602 100.968 83.3599 100.715 84.8255C100.461 86.2911 100.506 87.7927 100.845 89.2409L111.41 126.669L126.41 185.669C126.691 186.592 127.169 193.095 127.945 193.669C128.72 194.243 131.445 192.17 132.41 192.169Z" fill="url(#paint1_linear)"/>
<path opacity="0.9" d="M31.8876 191.616C32.8521 191.616 33.6345 192.743 34.4097 192.169C34.753 194.106 39.1288 194.092 39.4097 193.169L50.2451 132.169L63.2926 89.2409C63.6315 87.7927 63.6758 86.2911 63.4226 84.8254C63.1695 83.3598 62.624 81.96 61.8189 80.7094C61.0137 79.4588 59.9652 78.383 58.7358 77.5459C57.5064 76.7088 56.1212 76.1275 54.6625 75.8367C53.2039 75.5458 51.7016 75.5514 50.2451 75.8529C48.7887 76.1545 47.4077 76.746 46.1845 77.5921C44.9612 78.4382 43.9207 79.5217 43.1248 80.7782C42.3288 82.0347 41.7937 83.4384 41.5514 84.9059L39.4097 128.669L13.9097 182.669C13.569 183.724 16.8037 183.223 17.2549 184.236C17.7061 185.248 18.5155 186.058 19.5277 186.51L30.0485 191.223C30.6271 191.482 31.2538 191.616 31.8876 191.616Z" fill="url(#paint2_linear)"/>
<path opacity="0.8" d="M122.41 128.169L150.91 176.669L151.91 177.669L150.41 179.669L122.41 128.169Z" fill="#CBD5EB"/>
<path opacity="0.8" d="M123.287 130.021L148.788 180.164L149.725 181.223L148.106 183.128L123.287 130.021Z" fill="#CBD4EB"/>
<path opacity="0.9" d="M124.68 131.894L146.657 183.677L147.41 184.669L145.41 186.17L124.68 131.894Z" fill="#B7C9E6" fill-opacity="0.58"/>
<path opacity="0.9" d="M39.7363 131.405L25.4359 185.811L24.9097 188.669L22.9097 187.669L39.7363 131.405Z" fill="#CBD4EB"/>
<path opacity="0.9" d="M39.4097 132.669L29.2662 187.217L29.0234 190.113L26.9348 189.315L39.4097 132.669Z" fill="#CBD4EB"/>
<path opacity="0.9" d="M39.4094 131.169L21.5361 184.256L20.6135 187.011L18.7739 185.74L39.4094 131.169Z" fill="#CBD4EB"/>
<path d="M108.924 75.5L61.9238 137M104.924 138.5L63.9238 92" stroke="#D7C4DA" stroke-width="3" stroke-linejoin="round"/>
<path d="M98.0887 12.0161C95.334 5.10617 90.2353 -2.2876 83.4093 0.669279H80.9093C77.4093 0.669279 68.0229 1.80912 63.4093 5.66928C57.7503 12.4123 54.7353 13.6693 50.9097 28.6693C48.6165 37.6605 49.4067 43.1693 49.4067 58.2782C49.7733 61.8525 49.4067 63.6693 48.5684 71.6693C46.9097 77.6693 45.5329 79.8284 42.9093 85.2131C41.1594 88.805 39.8649 88.9551 42.9093 91.5425C45.9538 94.1299 45.0904 94.1372 49.0087 94.9188C68.7281 98.8244 75.4097 82.1693 90.4093 78.6693C102.91 78.6693 113.352 78.2147 115.41 76.6693C114.617 71.8419 109.449 68.3512 106.825 64.2224C104.441 60.4706 102.022 55.8954 100.909 53.6693C99.4093 49.1693 88.5545 42.2967 88.4097 37.6693C88.2648 33.0419 97.3896 30.2314 98.3348 25.6993C99.2801 21.1671 99.8032 16.3166 98.0887 12.0161Z" fill="#72708B"/>
<path d="M69.9441 378.169H59.9096C59.9096 378.169 52.7437 378.953 51.9096 378.169C51.0756 377.385 43.4823 379.312 43.4096 378.169L49.4691 345.432C44.6564 268.024 39.6798 187.979 56.076 152.149L58.4102 138.669H105.91L110.541 153.044C125.559 182.179 125.056 256.549 124.57 328.471L124.57 328.471C124.515 336.547 124.604 347.9 124.57 355.916C124.562 357.104 121.766 376.831 120.924 377.669C120.081 378.508 121.91 384.669 105.41 377.669L104.818 377.867C101.291 379.042 97.4959 379.147 93.9096 378.169H80.9096H75.4096C75.3104 379.292 71.9096 375.169 69.9441 355.916C72.0627 376.669 72.2122 375.612 69.9441 378.169Z" fill="url(#paint3_linear)"/>
<path d="M100.2 139.452C101.42 140.955 103.951 141.114 103.951 141.114C103.951 141.114 104.505 138.834 103.285 137.331C102.066 135.828 99.5351 135.669 99.5351 135.669C99.5351 135.669 98.981 137.949 100.2 139.452Z" fill="#C4C1DC"/>
<path d="M105.882 139.927C105.07 141.001 103.382 141.114 103.382 141.114C103.382 141.114 103.013 139.486 103.826 138.412C104.639 137.338 106.326 137.225 106.326 137.225C106.326 137.225 106.695 138.853 105.882 139.927Z" fill="#C4C1DC"/>
<path d="M93.2003 139.452C94.4196 140.955 96.9505 141.114 96.9505 141.114C96.9505 141.114 97.5047 138.834 96.2854 137.331C95.0661 135.828 92.5351 135.669 92.5351 135.669C92.5351 135.669 91.981 137.949 93.2003 139.452Z" fill="#C4C1DC"/>
<path d="M98.8825 139.927C98.0696 141.001 96.3823 141.114 96.3823 141.114C96.3823 141.114 96.0129 139.486 96.8257 138.412C97.6386 137.338 99.3259 137.225 99.3259 137.225C99.3259 137.225 99.6953 138.853 98.8825 139.927Z" fill="#C4C1DC"/>
<path d="M86.2003 139.452C87.4196 140.955 89.9505 141.114 89.9505 141.114C89.9505 141.114 90.5047 138.834 89.2854 137.331C88.0661 135.828 85.5351 135.669 85.5351 135.669C85.5351 135.669 84.981 137.949 86.2003 139.452Z" fill="#C4C1DC"/>
<path d="M91.8825 139.927C91.0696 141.001 89.3823 141.114 89.3823 141.114C89.3823 141.114 89.0129 139.486 89.8257 138.412C90.6386 137.338 92.3259 137.225 92.3259 137.225C92.3259 137.225 92.6953 138.853 91.8825 139.927Z" fill="#C4C1DC"/>
<path d="M80.2003 139.452C81.4196 140.955 83.9505 141.114 83.9505 141.114C83.9505 141.114 84.5047 138.834 83.2854 137.331C82.0661 135.828 79.5351 135.669 79.5351 135.669C79.5351 135.669 78.981 137.949 80.2003 139.452Z" fill="#C4C1DC"/>
<path d="M85.8825 139.927C85.0696 141.001 83.3823 141.114 83.3823 141.114C83.3823 141.114 83.0129 139.486 83.8257 138.412C84.6386 137.338 86.3259 137.225 86.3259 137.225C86.3259 137.225 86.6953 138.853 85.8825 139.927Z" fill="#C4C1DC"/>
<path d="M73.2003 139.452C74.4196 140.955 76.9505 141.114 76.9505 141.114C76.9505 141.114 77.5047 138.834 76.2854 137.331C75.0661 135.828 72.5351 135.669 72.5351 135.669C72.5351 135.669 71.981 137.949 73.2003 139.452Z" fill="#C4C1DC"/>
<path d="M78.8825 139.927C78.0696 141.001 76.3823 141.114 76.3823 141.114C76.3823 141.114 76.0129 139.486 76.8257 138.412C77.6386 137.338 79.3259 137.225 79.3259 137.225C79.3259 137.225 79.6953 138.853 78.8825 139.927Z" fill="#C4C1DC"/>
<path d="M66.2003 138.452C67.4196 139.955 69.9505 140.114 69.9505 140.114C69.9505 140.114 70.5047 137.834 69.2854 136.331C68.0661 134.828 65.5351 134.669 65.5351 134.669C65.5351 134.669 64.981 136.949 66.2003 138.452Z" fill="#C4C1DC"/>
<path d="M71.8825 138.927C71.0696 140.001 69.3823 140.114 69.3823 140.114C69.3823 140.114 69.0129 138.486 69.8257 137.412C70.6386 136.338 72.3259 136.225 72.3259 136.225C72.3259 136.225 72.6953 137.853 71.8825 138.927Z" fill="#C4C1DC"/>
<path d="M59.2003 139.452C60.4196 140.955 62.9505 141.114 62.9505 141.114C62.9505 141.114 63.5047 138.834 62.2854 137.331C61.0661 135.828 58.5351 135.669 58.5351 135.669C58.5351 135.669 57.981 137.949 59.2003 139.452Z" fill="#C4C1DC"/>
<path d="M64.8825 139.927C64.0696 141.001 62.3823 141.114 62.3823 141.114C62.3823 141.114 62.0129 139.486 62.8257 138.412C63.6386 137.338 65.3259 137.225 65.3259 137.225C65.3259 137.225 65.6953 138.853 64.8825 139.927Z" fill="#C4C1DC"/>
<path d="M88.1332 34.7828C86.9139 36.2862 84.383 36.4444 84.383 36.4444C84.383 36.4444 83.8288 34.1651 85.0481 32.6617C86.2674 31.1582 88.7984 31 88.7984 31C88.7984 31 89.3525 33.2793 88.1332 34.7828Z" fill="#E6E6E6"/>
<path d="M82.451 35.2575C83.2639 36.3314 84.9512 36.4444 84.9512 36.4444C84.9512 36.4444 85.3206 34.8164 84.5078 33.7425C83.6949 32.6686 82.0076 32.5556 82.0076 32.5556C82.0076 32.5556 81.6382 34.1837 82.451 35.2575Z" fill="#E6E6E6"/>
<path d="M82.1332 29.7828C80.9139 31.2862 78.383 31.4444 78.383 31.4444C78.383 31.4444 77.8288 29.1651 79.0481 27.6617C80.2674 26.1582 82.7984 26 82.7984 26C82.7984 26 83.3525 28.2793 82.1332 29.7828Z" fill="#E6E6E6"/>
<path d="M76.451 30.2575C77.2639 31.3314 78.9512 31.4444 78.9512 31.4444C78.9512 31.4444 79.3206 29.8164 78.5078 28.7425C77.6949 27.6686 76.0076 27.5556 76.0076 27.5556C76.0076 27.5556 75.6382 29.1837 76.451 30.2575Z" fill="#E6E6E6"/>
<path d="M77.1332 24.7828C75.9139 26.2862 73.383 26.4444 73.383 26.4444C73.383 26.4444 72.8288 24.1651 74.0481 22.6617C75.2674 21.1582 77.7984 21 77.7984 21C77.7984 21 78.3525 23.2793 77.1332 24.7828Z" fill="#E6E6E6"/>
<path d="M71.451 25.2575C72.2639 26.3314 73.9512 26.4444 73.9512 26.4444C73.9512 26.4444 74.3206 24.8164 73.5078 23.7425C72.6949 22.6686 71.0076 22.5556 71.0076 22.5556C71.0076 22.5556 70.6382 24.1837 71.451 25.2575Z" fill="#E6E6E6"/>
<defs>
<linearGradient id="paint0_linear" x1="84.4097" y1="104.669" x2="84.4097" y2="155.169" gradientUnits="userSpaceOnUse">
<stop stop-color="#FBEEF5"/>
<stop offset="1" stop-color="#C0D0EA"/>
</linearGradient>
<linearGradient id="paint1_linear" x1="118.41" y1="88.1693" x2="130.41" y2="162.169" gradientUnits="userSpaceOnUse">
<stop stop-color="#FDEFF5"/>
<stop offset="1" stop-color="#E1E1F0"/>
</linearGradient>
<linearGradient id="paint2_linear" x1="50.4097" y1="110.669" x2="13.4097" y2="226.169" gradientUnits="userSpaceOnUse">
<stop stop-color="#F7ECF4"/>
<stop offset="0.358864" stop-color="#EFE8F3"/>
<stop offset="1" stop-color="#E0E1F0"/>
</linearGradient>
<linearGradient id="paint3_linear" x1="60.9238" y1="291" x2="124.924" y2="231" gradientUnits="userSpaceOnUse">
<stop stop-color="#B4C1E4"/>
<stop offset="1" stop-color="#C4C1DC"/>
</linearGradient>
</defs>
</svg>
