<?xml version="1.0" encoding="UTF-8"?>
<svg width="328px" height="300px" viewBox="0 0 328 300" version="1.1" xmlns="http://www.w3.org/2000/svg" xmlns:xlink="http://www.w3.org/1999/xlink">
    <title>mug</title>
    <defs>
        <linearGradient x1="42.8653421%" y1="14.360448%" x2="37.9424426%" y2="95.1367513%" id="linearGradient-1">
            <stop stop-color="#EEE3E1" offset="0%"></stop>
            <stop stop-color="#EEDFC2" offset="100%"></stop>
        </linearGradient>
        <linearGradient x1="72.9557624%" y1="7.82071565%" x2="43.0180793%" y2="83.1781568%" id="linearGradient-2">
            <stop stop-color="#F5E4EA" offset="0%"></stop>
            <stop stop-color="#F5CF5F" offset="100%"></stop>
        </linearGradient>
    </defs>
    <g id="profile-website-design" stroke="none" stroke-width="1" fill="none" fill-rule="evenodd">
        <g id="Artboard" transform="translate(-47.000000, -14.000000)">
            <g id="mug" transform="translate(211.000000, 164.000000) rotate(12.000000) translate(-211.000000, -164.000000) translate(70.000000, 41.000000)">
                <g id="muck">
                    <path d="M14.1587503,26.6564373 C27.5870612,9.08019486 69.9809016,-1.71983038 108.027526,0.225390919 C139.335048,1.82606006 154.949144,2.60304582 174.731853,8.95199345 C194.514561,15.3009411 212.677191,25.0325444 222.084828,36.830279 C231.492465,48.6280136 225.6885,56.9370963 218.875695,64.8366264 C214.392887,70.0344976 203.803548,74.7107899 187.107678,78.8655035 C137.183797,88.3781655 98.8539023,88.3781655 72.1179928,78.8655035 C32.0141285,64.5965104 0.730439368,44.2326797 14.1587503,26.6564373 Z" id="Path-7" fill="#FFE6BB" opacity="0.657944655"></path>
                    <path d="M228.168161,57.3923216 C232.91235,53.5284736 238.246962,50.3312061 244.171998,47.8005189 C253.059552,44.0044882 259.411365,44.7611297 264.669537,46.051728 C267.442261,46.7322827 279.432642,55.5206007 281.659342,71.8174679 C283.655338,86.4258473 276.585476,107.999642 268.151023,119.784501 C256.255163,136.405736 242.538155,148.657398 227,156.539487 L227,157 L228.168161,135.855729 C242.241339,123.721408 251.288241,115.406446 255.308866,110.910845 C261.339804,104.167442 264.529615,97.9985166 266.712732,91.6071998 C268.895848,85.215883 270.082721,78.9679291 270.082721,73.2508015 C270.082721,67.5336739 267.346417,57.2445525 259.280063,56.5609432 C251.213709,55.877334 248.332495,57.6559178 242.619506,60.1534062 C238.810847,61.8183985 234.197662,65.706419 228.77995,71.8174679 L228.168161,57.3923216 Z" id="Path-9" fill="url(#linearGradient-1)"></path>
                    <circle id="Oval" fill="#D8D8D8" cx="105.5" cy="175.5" r="6.5"></circle>
                    <circle id="Oval" fill="#E7D8F5" cx="87.5" cy="217.5" r="6.5"></circle>
                    <path d="M13.0659409,36 L13.8908958,51.1544549 C10.4356494,54.8802225 7.30878796,61.4884345 4.51031146,70.9790909 C1.71183496,80.4697472 0.208397808,89.5623237 0,98.2568205 L2.46860321,191.956675 C8.00491941,207.978115 18.9313766,219.965572 35.2479748,227.919048 C51.564573,235.872523 65.3058399,240.578775 76.4717755,242.037804 C108.331465,245.501717 131.748859,246.69441 146.723958,245.615882 C161.699057,244.537354 176.274641,240.414844 190.450709,233.248352 C201.167434,225.837422 208.760239,219.293919 213.229124,213.617843 C219.93245,205.10373 223.669866,197.952624 225.195842,180.861565 C229.078177,137.379082 229.679563,93.0726966 227,47.9424082 C226.33113,57.290255 222.312663,64.1432099 214.944599,68.5012727 C203.892502,75.038367 202.923007,77.6197067 164.996865,82.3021105 C127.070724,86.9845144 106.905042,83.491123 84.2027302,80.5413595 C61.5004183,77.591596 56.3008168,71.7825473 44.9354372,66.7022536 C33.5700576,61.6219599 29.0047861,57.6852048 23.8926234,53.5829063 C20.484515,50.8480407 17.7954904,47.4346639 15.8255495,43.342776" id="Path-8" fill="url(#linearGradient-2)"></path>
                    <circle id="Oval" stroke-opacity="0.738445149" stroke="#FFFFFF" fill="#D8D8D8" cx="151" cy="181" r="5"></circle>
                    <path d="M24.9546124,188.425208 L31.454345,202.302986 C31.524619,202.45303 31.4599525,202.631633 31.3099084,202.701907 C31.2702337,202.720489 31.2269707,202.730156 31.1831601,202.730228 L18.1378727,202.751707 C17.9721875,202.75198 17.837652,202.617887 17.8373792,202.452201 C17.8373061,202.407844 17.8470704,202.364023 17.8659687,202.323893 L24.4115235,188.424635 C24.4821136,188.27474 24.6608526,188.21045 24.8107482,188.28104 C24.8740474,188.31085 24.9249366,188.361846 24.9546124,188.425208 Z" id="Triangle" fill="#FFE2E2" opacity="0.549967448" transform="translate(24.659107, 195.299607) rotate(30.000000) translate(-24.659107, -195.299607) "></path>
                    <path d="M162.115279,141.425208 L166.788554,151.403261 C166.858828,151.553305 166.794161,151.731908 166.644117,151.802182 C166.604443,151.820764 166.56118,151.830431 166.517369,151.830503 L157.137873,151.845946 C156.972188,151.846219 156.837652,151.712126 156.837379,151.546441 C156.837306,151.502083 156.84707,151.458262 156.865969,151.418132 L161.57219,141.424635 C161.64278,141.27474 161.821519,141.21045 161.971415,141.28104 C162.034714,141.31085 162.085603,141.361846 162.115279,141.425208 Z" id="Triangle" stroke="#FFFFFF" fill="#2B609E" opacity="0.806712542" transform="translate(161.826212, 146.346726) rotate(30.000000) translate(-161.826212, -146.346726) "></path>
                    <path d="M47.353579,201.456216 L53.8726868,215.328988 C53.9431533,215.478942 53.8787161,215.657628 53.7287623,215.728094 C53.6889026,215.746825 53.6454077,215.75655 53.6013664,215.756579 L40.545054,215.765061 C40.3793686,215.765169 40.2449668,215.630942 40.2448591,215.465256 C40.2448304,215.420999 40.254594,215.377284 40.27345,215.337245 L46.8106546,201.455991 C46.8812458,201.306095 47.0599853,201.241807 47.2098804,201.312398 C47.2730589,201.342151 47.3238784,201.393013 47.353579,201.456216 Z" id="Triangle" stroke="#FFFFFF" opacity="0.800223214" transform="translate(47.072653, 208.322210) rotate(10.000000) translate(-47.072653, -208.322210) "></path>
                    <path d="M35.2960649,159.793647 L41.6811274,173.347936 C41.7752712,173.547786 41.6895797,173.786114 41.48973,173.880258 C41.4362637,173.905445 41.3778805,173.91847 41.3187789,173.918398 L28.5818438,173.90284 C28.3609301,173.902571 28.1820629,173.723266 28.1823327,173.502352 C28.1824042,173.443791 28.1953332,173.385961 28.2202063,173.332945 L34.572079,159.794213 C34.6659101,159.594217 34.9041046,159.508152 35.1041013,159.601983 C35.1884604,159.641562 35.2563548,159.70935 35.2960649,159.793647 Z" id="Triangle" stroke="#FEEEEE" fill="#D9D4D4" opacity="0.839122954" transform="translate(34.951706, 166.471547) rotate(-20.000000) translate(-34.951706, -166.471547) "></path>
                    <path d="M121.363965,138.788424 L127.433183,151.672236 C127.574399,151.97201 127.445862,152.329504 127.146087,152.470719 C127.065888,152.508499 126.978313,152.528037 126.889661,152.527929 L114.782772,152.513141 C114.451401,152.512736 114.183101,152.243779 114.183505,151.912409 C114.183613,151.824567 114.203006,151.737821 114.240316,151.658297 L120.277986,138.789274 C120.418733,138.489279 120.776024,138.360182 121.07602,138.500929 C121.202558,138.560296 121.3044,138.661979 121.363965,138.788424 Z" id="Triangle" stroke="#FFFFFF" transform="translate(120.838309, 145.081464) rotate(-20.000000) translate(-120.838309, -145.081464) "></path>
                    <path d="M142.576116,225.250394 L147.098423,235.149428 C147.121372,235.199662 147.099253,235.25899 147.049019,235.281939 C147.035939,235.287914 147.021724,235.290999 147.007343,235.290981 L137.986968,235.279963 C137.93174,235.279895 137.887023,235.235069 137.88709,235.179841 C137.887108,235.165597 137.890168,235.151521 137.896066,235.138556 L142.394134,225.25054 C142.417002,225.200269 142.476294,225.178054 142.526565,225.200923 C142.548504,225.210903 142.5661,225.228471 142.576116,225.250394 Z" id="Triangle" stroke="#FFFFFF" fill="#F2D1D1" transform="translate(142.497502, 230.171020) rotate(20.000000) translate(-142.497502, -230.171020) "></path>
                    <path d="M180.285336,178.955149 L184.716492,188.654658 C184.739441,188.704892 184.717322,188.76422 184.667087,188.787169 C184.654007,188.793144 184.639792,188.796229 184.625412,188.796211 L175.605037,188.785193 C175.549809,188.785126 175.505092,188.740299 175.505159,188.685071 C175.505177,188.670827 175.508237,188.656751 175.514135,188.643786 L179.921372,178.955442 C179.967109,178.854899 180.085692,178.81047 180.186235,178.856207 C180.230113,178.876167 180.265305,178.911303 180.285336,178.955149 Z" id="Triangle" stroke="#979797" transform="translate(180.115571, 183.676250) rotate(-20.000000) translate(-180.115571, -183.676250) "></path>
                    <circle id="Oval" fill="#FFEAEA" cx="63.5" cy="172.5" r="6.5"></circle>
                    <circle id="Oval" fill="#EDE8F2" cx="90.5" cy="132.5" r="6.5"></circle>
                    <path d="M34.0049817,62.6611518 C32.7303711,60.5913138 32.2841242,58.3898468 32.0428403,56.1162456 C31.7518808,53.3745546 33.002133,50.4138342 34.0049817,47.9150312 C34.8495438,45.8106316 38.6636606,42.343241 43.9319818,40.6621474 C50.6094441,38.5314043 57.5261646,39.0220626 61.1424474,42.7406011 C62.697238,44.3393557 62.697238,47.3086967 61.1424474,48.5052039 C59.7908979,49.5453046 57.9955014,46.4450498 57.6400338,44.792034 C56.758299,40.6917397 57.0462104,36.3683578 57.6400338,32.2180769 C58.3760278,27.0741548 61.6358087,21.6223501 64.9152018,18.4841998 C66.0592263,17.3894482 70.9800709,12.4875056 82.2068444,14.3817465 C93.433618,16.2759874 75.5049114,28.1097842 86.8781158,13.4104206 C87.9847188,11.980185 89.1027105,10.4909788 90.5801919,9.43495173 C92.0259626,8.40158973 93.6865742,7.40165778 95.4677642,7.27098518 C99.8504765,6.94945835 104.495189,6.62934924 108.624693,8.11116159 C111.660401,9.20048115 113.842793,12.0068715 115.775108,14.5579786 C123.51322,24.7740944 110.910545,17.8727998 120.716755,15.6153714 C124.604881,14.7203095 128.799353,15.2871719 132.679869,16.2137409 C135.044561,16.7783697 137.086671,18.373427 138.911003,19.9596982 C140.590549,21.4200767 142.195281,23.1482 143.016564,25.2015793 C149.211044,40.6890743 135.68446,29.1820539 145.903352,27.8983406 C149.830151,27.4050499 153.88385,27.2034938 157.779113,27.8983406 C162.657519,28.7685632 167.413221,30.4319901 171.888598,32.5336553 C173.531249,33.3050544 175.015855,34.695925 175.74874,36.3369905 C176.969119,39.0696428 174.316898,46.5443188 170.252306,46.7305874 C166.019117,46.9245824 169.667685,42.6480906 173.974986,40.6621474 C176.054395,39.7034057 180.028483,40.2362272 180.033166,40.2427862 C180.542797,40.9566001 181.252538,42.7370334 181.193704,44.792034 C181.12445,47.2109982 178.668985,48.8501298 178.607638,46 C178.577652,44.6068654 179.914159,38.8260973 180.623581,37.2386432 C181.694171,34.8430143 182.270968,33.0031108 183.771059,30.8427443 C184.794684,29.3685652 186.785345,26.897748 188.457916,26.2088103 C190.989818,25.1659116 194.550768,24.2014803 196.833936,25.7015867 C198.614105,26.8712091 195.201794,30.4123785 196.584357,32.0213526 C200.04091,33.9563361 201.908587,35.706362 202.187387,37.2714306 C205.201537,54.191612 197.042313,43.6855192 205.440223,36.2386284 C207.596957,34.3261328 214.692794,36.7099661 214.375121,37.2386432 C214.267367,37.4179686 209.348577,30.3576812 217.157917,35.9845262 C220.165046,38.1512451 223.604527,42.6289604 223.933965,46.7305874 C225.888566,71.0661577 183.933474,79.6587922 166.934472,82.6409566 C156.210843,84.5222214 145.228697,84.6615176 134.339563,84.919679 C98.3737481,85.7723627 70.9644474,79.8496126 38.0939039,66.5013728 C36.2176961,65.3211175 34.8547221,64.0410438 34.0049817,62.6611518 Z" id="Path-10" fill="#FFFFFF" opacity="0.763020833"></path>
                    <path d="M97,24.1438132 C100.848436,38.1745737 108.320431,22.3512056 97,24.1438132" id="Path-11" fill="#BAAFBC"></path>
                    <path d="" id="Path-12" stroke="#979797" stroke-linecap="round"></path>
                    <path d="M102.573212,49.0977331 C94.5919982,61.0928378 108.254335,60.8735317 102.573212,49" id="Path-13" fill="#E3D7EC"></path>
                    <path d="M130.022283,39.1544631 C123.22712,51.1302547 134.834333,50.8972757 130.022403,39.0569549" id="Path-13" fill="#E9E1F0" transform="translate(129.528147, 43.547068) rotate(20.000000) translate(-129.528147, -43.547068) "></path>
                    <path d="M63.6848529,58.6664673 C60.372714,62.1161772 70.0593959,68.6399285 71.7673464,58.8040585 C73.4752968,48.9681885 65.272157,57.0132339 63.6848529,58.6664673 Z" id="Path-14" stroke="#979797"></path>
                    <path d="M176.782397,58 C177.749746,60.1357737 175.334048,64.8476211 172.652485,64.9843066 C171.10704,65.0630816 167.769819,64.9895743 168.012562,61.173192 C168.122167,59.4500053 171.045445,58.3922746 176.782397,58 Z" id="Path-15" stroke="#DBDBDB" stroke-linejoin="round"></path>
                    <path d="" id="Path-16" stroke="#979797" stroke-linecap="round"></path>
                    <path d="M203.099088,62.9616283 C208.606431,59.2918522 200.496325,50.9526539 199.483811,57.3315884 C198.222433,63.5314658 199.427526,65.4081458 203.099088,62.9616283 Z" id="Path-17" stroke="#979797" fill="#E9E1F0"></path>
                    <path d="M115.211265,68.3011662 C113.905685,74.5645744 119.081378,75.6611995 118.999027,71.6100671 C118.946903,69.0459293 115.169225,64.4486751 115.169225,68.7904847" id="Path-18" stroke="#979797"></path>
                </g>
                <text id="See-More" opacity="0.857126635" transform="translate(101.017131, 152.845801) rotate(3.000000) translate(-101.017131, -152.845801) " font-family="Skia-Regular_Bold, Skia" font-size="26" font-weight="bold" fill="#0A4DA0">
                    <tspan x="44.0171308" y="162.345801">See More</tspan>
                </text>
            </g>
        </g>
    </g>
</svg>