<?xml version="1.0" encoding="UTF-8"?>
<svg width="119px" height="148px" viewBox="0 0 119 148" version="1.1" xmlns="http://www.w3.org/2000/svg" xmlns:xlink="http://www.w3.org/1999/xlink">
    <title>Group 9</title>
    <g id="Landing-page_04" stroke="none" stroke-width="1" fill="none" fill-rule="evenodd">
        <g id="Group-9" stroke="#979797">
            <g id="Group-8" transform="translate(23.000000, 23.500000) rotate(-20.000000) translate(-23.000000, -23.500000) translate(15.000000, 2.000000)" stroke-linecap="round">
                <path d="M0,0.367369059 C1.20779624,-0.158992366 7.20613042,-0.731807492 11.5365718,3.37353836 C12.8870075,4.65377866 15.1702076,8.06696359 15.1702076,12.0750681 C15.1702076,14.4021936 14.2544429,18.4035313 11.9875039,19.7857753 C2.29911665,25.6931756 0.729522247,12.8718449 10.1353522,16.1515679 C18.2086326,18.9666436 16.7922325,38.8584638 8.69838444,42.114044" id="Path-20"></path>
            </g>
            <g id="yellow_paper_plane" transform="translate(59.000000, 86.500000) rotate(120.000000) translate(-59.000000, -86.500000) translate(13.000000, 46.000000)" stroke-width="0.5">
                <g id="Group-3" transform="translate(0.130704, 0.046571)">
                    <polygon id="Path-2" fill="#E6E6E6" stroke-linejoin="round" points="28.7243842 64.9434374 58.7303669 79.666919 90.8456037 1.05043952e-13"></polygon>
                    <polygon id="Path-3" fill="#D8D8D8" points="37.4703476 69.2705882 28.3815023 79.07303 28.7243842 64.9434374"></polygon>
                    <polygon id="Path-4" fill="#D8D8D8" points="28.3815023 79.07303 16.9215725 56.9188463 90.8456037 1.13822822e-13 28.7306727 64.7418438"></polygon>
                    <polygon id="Path-5" fill="#E6E6E6" points="16.9215725 56.9188463 1.75073253e-14 45.1116987 90.8456037 0"></polygon>
                </g>
            </g>
        </g>
    </g>
</svg>