<svg xmlns="http://www.w3.org/2000/svg" width="493" height="541" fill="none" xmlns:v="https://vecta.io/nano"><path d="M193.6 160.367c9.332 13.574 15.273 31.395 15.273 47.516 0 4.242 4.242 8.484 8.485 8.484h20.363v-56.852c0-5.09 3.394-8.484 8.484-8.484 4.242 0 8.484 3.394 8.484 8.484v56.848h19.516c5.09 0 8.485-3.394 8.485-8.484 0-16.121 5.937-34.789 15.273-47.516 28-39.879 6.789-95.879-37.332-106.06-26.305-5.937-51.758 4.242-67.031 27.152-16.121 23.762-16.121 55.156 0 78.914v-.002zm146.79-31.4h11.879c5.09 0 8.485-3.395 8.485-8.485s-3.395-8.484-8.485-8.484H340.39c-5.09 0-8.484 3.395-8.484 8.484-.004 4.243 3.39 8.485 8.484 8.485zm-22.06-72.966l8.485-9.332c3.394-3.395 3.394-8.484 0-11.879s-8.485-3.395-11.879 0l-8.485 9.332c-3.394 3.395-3.394 8.484 0 11.879s9.332 3.391 11.879 0zm-72.12-26.305c5.09 0 8.485-3.394 8.485-8.484V8.484c0-5.09-3.395-8.484-8.485-8.484s-8.484 3.395-8.484 8.484v12.727c0 4.242 3.394 8.484 8.484 8.484zm-72.97 26.305c3.395 3.395 8.485 3.395 11.879 0s3.395-8.484 0-11.879l-8.484-9.332c-3.395-3.395-8.485-3.395-11.879 0s-3.395 8.484 0 11.879l8.484 9.332zm-33.94 72.966h11.879c5.09 0 8.485-3.395 8.485-8.485s-3.395-8.484-8.485-8.484H139.3c-5.09 0-8.484 3.395-8.484 8.484 0 4.243 4.242 8.485 8.484 8.485zm37.34 76.37l8.485-9.332c3.394-3.395 3.394-8.485 0-11.879s-8.485-3.395-11.879 0l-8.485 9.332c-3.394 3.394-3.394 8.484 0 11.879s8.485 3.394 11.879 0zm141.69-21.22c-3.394-3.395-8.484-3.395-11.879 0s-3.394 8.484 0 11.879l8.485 9.332c3.394 3.394 8.484 3.394 11.879 0s3.394-8.485 0-11.879l-8.485-9.332zm-87.39 46.67c-5.09 0-8.484 3.394-8.484 8.484s3.394 8.485 8.484 8.485h29.695c5.09 0 8.485-3.395 8.485-8.485s-3.395-8.484-8.485-8.484H230.94z" fill="#4267b2"/><path d="M491.42 311.387c-10.184-18.668 24.605 47.516-46.668-89.09-.847-2.547-3.394-4.242-4.242-5.09l-87.395-39.879c-4.242-1.695-9.332 0-11.031 4.242s0 9.332 4.242 11.031l68.727 31.395-167.15 63.637-168.85-64.484 70.426-29.695c4.242-1.695 5.938-6.789 4.242-11.031s-6.789-5.937-11.031-4.242L53.6 216.365c-2.547.848-3.395 3.395-4.242 4.242L.999 317.33c-2.547 5.09 0 10.184 5.09 11.879l203.64 58.547c3.395.848 8.484-.847 10.184-5.09l28-64.484 32.242 65.332c1.695 3.395 5.09 5.938 10.184 4.243l196-63.637c5.086-2.547 6.785-7.637 5.086-12.73l-.005-.003zm-256.24 78.07l3.395-7.637v158.67l-184.12-75.516c-3.395-1.695-5.09-4.242-5.09-7.637v-98.426l154.43 44.121c12.727 4.243 26.301-1.695 31.391-13.574l-.006-.001zm209.58-34.79v101.82c0 3.394-1.695 6.789-5.09 7.637l-184.12 75.515-.003-167.149 8.484 17.816c5.937 11.031 18.668 16.969 29.695 13.574l144.24-46.668h.848 1.695c.848 0 .848-.001.848-.848h.847c1.703-1.695 2.555-1.695 2.555-1.695l.001-.002z" fill="#142547"/></svg>