<svg xmlns="http://www.w3.org/2000/svg" xmlns:xlink="http://www.w3.org/1999/xlink" width="430" height="300" fill="none" xmlns:v="https://vecta.io/nano"><g clip-path="url(#H)"><rect width="430" height="300" rx="15" fill="url(#A)"/><rect x="45.411" y="82.411" width="122.74" height="170.029" rx="4.166" fill="#001529" stroke="url(#B)" stroke-width=".822"/><path d="M83.504 159.107c-17.036 0-30.737 10.191-35.503 14.3h119.824V131c-16.272 0-15.779 13.314-38.955 13.314-13.35 0-16.272 14.793-45.365 14.793z" fill="url(#C)"/><path opacity=".5" d="M48 173.407c4.767-4.109 18.468-14.3 35.504-14.3 29.093 0 32.016-14.793 45.366-14.793 23.176 0 22.683-13.314 38.955-13.314" stroke="#e8ecec" stroke-width=".569"/><rect x="56.347" y="183.347" width="120.692" height="55.385" rx="3.515" fill="#001529" stroke="url(#D)" stroke-width=".693"/><path d="M106.826 211.257c0-3.758-1.156-7.425-3.311-10.503a18.31 18.31 0 0 0-8.736-6.706c-3.531-1.286-7.372-1.455-11.002-.485a18.31 18.31 0 0 0-9.291 5.913l5.259 4.418c1.511-1.799 3.538-3.089 5.807-3.695s4.669-.502 6.876.302 4.113 2.267 5.46 4.192 2.069 4.215 2.069 6.564h6.869z" fill="#5364ff"/><g stroke="#001321" stroke-width=".173"><path d="M74.485 199.475c-2.582 3.073-4.083 6.91-4.272 10.92s.945 7.971 3.227 11.273a18.31 18.31 0 0 0 9.404 7.005c3.817 1.242 7.937 1.195 11.725-.133l-2.273-6.482a11.45 11.45 0 0 1-7.328.084c-2.386-.776-4.451-2.314-5.877-4.378a11.45 11.45 0 0 1-2.017-7.046c.118-2.506 1.056-4.904 2.67-6.825l-5.259-4.418z"/><g fill="#e8ecec"><path d="M94.572 228.54c3.582-1.256 6.685-3.594 8.88-6.69s3.375-6.798 3.375-10.594h-6.868c0 2.372-.737 4.686-2.109 6.621a11.45 11.45 0 0 1-5.55 4.181l2.273 6.482z"/></g></g><path d="M163.195 211.257a18.31 18.31 0 0 0-12.046-17.209 18.32 18.32 0 0 0-11.001-.485 18.31 18.31 0 0 0-9.291 5.913l5.258 4.418c1.511-1.799 3.538-3.089 5.807-3.695s4.67-.502 6.876.302 4.113 2.267 5.46 4.192 2.069 4.215 2.069 6.564h6.868z" fill="#e8ecec"/><g stroke="#001321" stroke-width=".173"><path d="M130.845 199.475a18.31 18.31 0 0 0-1.044 22.193 18.31 18.31 0 0 0 9.403 7.005c3.818 1.242 7.938 1.195 11.726-.133l-2.273-6.482c-2.368.83-4.942.86-7.328.084a11.45 11.45 0 0 1-7.895-11.424c.118-2.506 1.056-4.904 2.67-6.825l-5.259-4.418z" fill="#c495ff"/><path d="M150.929 228.539a18.31 18.31 0 0 0 8.88-6.69c2.195-3.096 3.375-6.798 3.375-10.593h-6.869a11.45 11.45 0 0 1-2.109 6.621c-1.372 1.935-3.311 3.396-5.55 4.181l2.273 6.481z"/></g><path d="M174.853 165.977c0-1.621 1.314-2.935 2.935-2.935H351.32c1.621 0 2.935 1.314 2.935 2.935v40.34c0 1.621-1.314 2.935-2.935 2.935H177.788c-1.621 0-2.935-1.314-2.935-2.935v-40.34z" fill="#05192c"/><path opacity=".1" d="M174.898 165.976c0-1.62 1.314-2.934 2.935-2.934h173.534c1.62 0 2.934 1.314 2.934 2.934v40.341c0 1.621-1.314 2.935-2.934 2.935H177.833c-1.621 0-2.935-1.314-2.935-2.935v-40.341z" fill="#5364ff"/><path d="M153.957 143.838a2.05 2.05 0 0 1 2.051-2.051h217.081a2.05 2.05 0 0 1 2.052 2.051v52.869a2.05 2.05 0 0 1-2.052 2.051H156.008a2.05 2.05 0 0 1-2.051-2.051v-52.869z" fill="#05192c"/><path opacity=".3" d="M154.012 145.404a3.62 3.62 0 0 1 3.618-3.618h213.949a3.62 3.62 0 0 1 3.617 3.618v49.736a3.62 3.62 0 0 1-3.617 3.618H157.63a3.62 3.62 0 0 1-3.618-3.618v-49.736z" fill="#5364ff"/><path d="M192.938 175.899a5.1 5.1 0 0 1-5.1 5.101c-2.817 0-5.101-2.284-5.101-5.101a5.1 5.1 0 1 1 10.201 0z" fill="#001d32"/><path d="M187.953 168.017c-1.536 0-3.037.455-4.314 1.308a7.77 7.77 0 0 0-2.861 3.486 7.76 7.76 0 0 0 1.684 8.464 7.76 7.76 0 0 0 8.463 1.683c1.42-.587 2.633-1.583 3.486-2.86a7.77 7.77 0 0 0 1.309-4.315c-.002-2.059-.821-4.033-2.277-5.489s-3.431-2.275-5.49-2.277zm-.597 4.182a.6.6 0 0 1 .175-.423c.112-.112.264-.175.422-.175a.6.6 0 0 1 .598.598v4.181a.6.6 0 0 1-.598.598c-.158 0-.31-.063-.422-.175a.6.6 0 0 1-.175-.423v-4.181zm.597 7.766c-.177 0-.35-.053-.497-.151s-.263-.238-.331-.402a.91.91 0 0 1-.051-.518.9.9 0 0 1 .705-.704.89.89 0 0 1 .517.051c.164.068.304.183.402.33a.89.89 0 0 1 .151.498.9.9 0 0 1-.262.634c-.168.168-.396.262-.634.262z" fill="#00e3b4"/><path d="M129.083 117.365c0-1.248 1.013-2.261 2.262-2.261h266.31c1.249 0 2.262 1.013 2.262 2.261v65.238a2.26 2.26 0 0 1-2.262 2.261h-266.31a2.26 2.26 0 0 1-2.262-2.261v-65.238z" fill="#4c5ad7"/><path d="M192.555 150.006a23.6 23.6 0 0 1-23.596 23.595 23.6 23.6 0 0 1-23.595-23.595 23.6 23.6 0 0 1 23.595-23.595 23.6 23.6 0 0 1 23.596 23.595z" fill="#001d32"/><path d="M171.535 158.118c0 1.568-1.236 2.838-2.761 2.838s-2.762-1.27-2.762-2.838 1.237-2.837 2.762-2.837 2.761 1.27 2.761 2.837z" fill="url(#E)"/><g fill="#fff"><path fill-rule="evenodd" d="M159.056 147.469c0-5.539 4.37-10.03 9.76-10.03s9.759 4.491 9.759 10.03v2.128h0c0 4.326 1.936 5.495 2.903 5.525h-2.903v1.484h-19.519v-1.484h-2.903c.965-.03 2.892-1.229 2.903-5.523v-2.13z"/><path d="M156.153 155.123h25.325v2.98h-25.325v-2.98z"/></g><g fill="#001d32"><path opacity=".2" d="M156.153 155.092h25.325v.34h-25.325v-.34z"/><path d="M193.471 134.355a5.1 5.1 0 0 1-10.2 0 5.1 5.1 0 1 1 10.2 0z"/></g><path d="M189.765 125.115c-1.789 0-3.537.531-5.025 1.525s-2.647 2.406-3.331 4.059a9.04 9.04 0 0 0-.515 5.226c.349 1.754 1.211 3.366 2.475 4.631s2.877 2.126 4.632 2.475a9.04 9.04 0 0 0 9.285-3.846 9.04 9.04 0 0 0 1.524-5.025c-.003-2.398-.956-4.697-2.652-6.393a9.06 9.06 0 0 0-6.393-2.652zm-.696 4.871c0-.185.074-.362.204-.492s.308-.204.492-.204a.69.69 0 0 1 .696.696v4.87c0 .184-.073.361-.204.492s-.307.204-.492.204a.7.7 0 0 1-.696-.696v-4.87zm.696 9.044a1.05 1.05 0 0 1-.964-.644c-.079-.191-.1-.4-.059-.603a1.04 1.04 0 0 1 .82-.82c.202-.04.412-.019.603.06s.353.212.468.384a1.04 1.04 0 0 1 .176.58c0 .277-.11.542-.306.738s-.461.305-.738.305z" fill="#00e3b4"/><g fill-rule="evenodd" fill="#fff"><path d="M212.163 143.369c0-1.873 1.519-3.391 3.392-3.391h107.431a3.39 3.39 0 1 1 0 6.783H215.555c-1.873 0-3.392-1.518-3.392-3.392z"/><path d="M212.163 156.595c0-1.873 1.519-3.391 3.392-3.391h62.292a3.39 3.39 0 1 1 0 6.783h-62.292c-1.873 0-3.392-1.518-3.392-3.392z" fill-opacity=".2"/></g><path d="M233.26 72.97c2.32 0 3.48-.86 3.48-2.58 0-.7-.18-1.25-.54-1.65-.34-.4-.98-.75-1.92-1.05l-2.46-.81c-2.94-.96-4.41-2.89-4.41-5.79 0-1.68.52-3.06 1.56-4.14 1.06-1.1 2.71-1.65 4.95-1.65.94 0 1.87.11 2.79.33.92.2 1.9.53 2.94.99l-1.11 3.09c-.96-.38-1.78-.65-2.46-.81a7.72 7.72 0 0 0-2.04-.27c-.92 0-1.65.17-2.19.51-.52.32-.78.91-.78 1.77 0 .64.18 1.17.54 1.59.38.4 1 .74 1.86 1.02l2.46.81c1.48.5 2.59 1.23 3.33 2.19.76.94 1.14 2.19 1.14 3.75 0 1.8-.57 3.26-1.71 4.38-1.14 1.1-2.93 1.65-5.37 1.65-.96 0-1.96-.11-3-.33-1.02-.24-2.14-.64-3.36-1.2l1.11-3.09c1.12.48 2.07.82 2.85 1.02.8.18 1.58.27 2.34.27zm14.087-7.5V76h-3.45V60.79h3.27v2.01c.94-.82 1.81-1.41 2.61-1.77s1.62-.54 2.46-.54c1.86 0 3.13.82 3.81 2.46 1-.88 1.93-1.51 2.79-1.89s1.73-.57 2.61-.57c1.4 0 2.47.47 3.21 1.41.74.92 1.11 2.22 1.11 3.9V76h-3.45v-9.78c0-1.68-.64-2.52-1.92-2.52-.5 0-1.05.12-1.65.36s-1.33.71-2.19 1.41V76h-3.45v-9.78c0-1.68-.64-2.52-1.92-2.52-.5 0-1.05.12-1.65.36s-1.33.71-2.19 1.41zm34.496 10.68c-1.02 0-1.84-.21-2.46-.63-.6-.42-1.04-.94-1.32-1.56-.86.8-1.69 1.39-2.49 1.77s-1.66.57-2.58.57c-1.34 0-2.33-.43-2.97-1.29-.62-.86-.93-1.95-.93-3.27 0-.88.16-1.65.48-2.31.34-.68.89-1.21 1.65-1.59s1.8-.57 3.12-.57a11.46 11.46 0 0 1 1.62.12l1.68.24v-1.77c0-.84-.23-1.41-.69-1.71-.46-.32-1.08-.48-1.86-.48-.6 0-1.26.08-1.98.24a14.37 14.37 0 0 0-2.28.75l-.99-2.94c2.02-.82 3.85-1.23 5.49-1.23 1.48 0 2.62.25 3.42.75.82.5 1.39 1.16 1.71 1.98s.48 1.7.48 2.64v5.85a1.73 1.73 0 0 0 .24.87c.18.26.52.39 1.02.39h.33v3.18h-.69zm-9.42-4.47c0 .54.12.97.36 1.29.24.3.59.45 1.05.45s.98-.12 1.56-.36 1.33-.8 2.25-1.68v-1.29c-1.04-.18-2.06-.27-3.06-.27-.78 0-1.34.16-1.68.48-.32.32-.48.78-.48 1.38zm21.685-7.74c-.94 0-1.84.15-2.7.45-.84.28-1.65.74-2.43 1.38V76h-3.45V60.79h3.27v2.34c1.02-.96 1.93-1.64 2.73-2.04a5.69 5.69 0 0 1 2.58-.6v3.45zm12.172 11.55a8.28 8.28 0 0 1-1.8.57 9.01 9.01 0 0 1-2.07.24c-1.16 0-2.09-.24-2.79-.72s-1.21-1.15-1.53-2.01c-.3-.86-.45-1.84-.45-2.94v-6.84h-2.46v-3h2.46v-3.96h3.45v3.96h4.74v3h-4.74v6.84c0 .92.17 1.56.51 1.92.36.34.87.51 1.53.51.32 0 .66-.03 1.02-.09.38-.08.8-.21 1.26-.39l.87 2.91zm20.089.51l-1.26-3.99h-6.99l-1.26 3.99h-3.57l6.81-20.4h3.18l6.84 20.4h-3.75zm-6.3-10.23l-.93 2.94h4.92l-.93-2.94-1.5-5.16-1.56 5.16zm12.918 5.94V53.8h3.45v17.91c0 .3.07.59.21.87.16.26.46.39.9.39h.48v3.18h-.84c-1.14 0-2.01-.22-2.61-.66s-1.02-1-1.26-1.68a6.78 6.78 0 0 1-.33-2.1zm19.931 3.42c-1.04.42-2.02.72-2.94.9s-1.79.27-2.61.27c-2.26 0-3.97-.64-5.13-1.92s-1.74-2.98-1.74-5.1v-1.8c0-1.42.26-2.65.78-3.69s1.26-1.85 2.22-2.43 2.09-.87 3.39-.87c1.06 0 2.05.22 2.97.66.94.42 1.7 1.09 2.28 2.01.6.9.9 2.06.9 3.48 0 .42-.03.87-.09 1.35a11.3 11.3 0 0 1-.3 1.47h-8.82c.04 1.24.35 2.17.93 2.79s1.51.93 2.79.93a9.67 9.67 0 0 0 2.1-.24c.74-.16 1.5-.4 2.28-.72l.99 2.91zm-6.03-11.73c-.92 0-1.64.3-2.16.9-.5.58-.79 1.42-.87 2.52h5.76a1.39 1.39 0 0 0 .03-.27v-.27c0-.96-.27-1.68-.81-2.16s-1.19-.72-1.95-.72zm18.705.54c-.94 0-1.84.15-2.7.45-.84.28-1.65.74-2.43 1.38V76h-3.45V60.79h3.27v2.34c1.02-.96 1.93-1.64 2.73-2.04a5.69 5.69 0 0 1 2.58-.6v3.45zm12.171 11.55a8.28 8.28 0 0 1-1.8.57 9.01 9.01 0 0 1-2.07.24c-1.16 0-2.09-.24-2.79-.72s-1.21-1.15-1.53-2.01c-.3-.86-.45-1.84-.45-2.94v-6.84h-2.46v-3h2.46v-3.96h3.45v3.96h4.74v3h-4.74v6.84c0 .92.17 1.56.51 1.92.36.34.87.51 1.53.51.32 0 .66-.03 1.02-.09.38-.08.8-.21 1.26-.39l.87 2.91z" fill="url(#F)"/><path fill="url(#G)" d="M215 83h178v3H215z"/><g clip-path="url(#I)"><g fill="#001d32"><path d="M85.154 39.499c-3.323 0-6.024 2.696-6.024 6.024s2.696 6.024 6.024 6.024c1.326 0 2.616-.436 3.675-1.246v1.237h2.358V45.51c-.022-3.315-2.709-6.011-6.033-6.011zm0 9.685c-2.024 0-3.662-1.642-3.662-3.662s1.642-3.662 3.662-3.662 3.662 1.642 3.662 3.662-1.637 3.662-3.662 3.662zm36.028-9.685c-3.324 0-6.024 2.687-6.024 6.011a6.24 6.24 0 0 0 .102 1.112c.605 3.27 3.751 5.428 7.021 4.809a6 6 0 0 0 4.462-3.63h-2.709c-1.268 1.584-3.573 1.833-5.157.574a3.66 3.66 0 0 1-1.201-1.753h9.414c.618-3.27-1.539-6.415-4.796-7.02a5.86 5.86 0 0 0-1.112-.102zm-3.448 4.774c.685-1.9 2.785-2.887 4.685-2.202a3.67 3.67 0 0 1 2.202 2.202h-6.887zm-45.207-4.765c-2.865 0-5.192 2.327-5.192 5.192h-.013v6.829h2.358V44.7h.013c-.013-1.562 1.246-2.852 2.807-2.865s2.852 1.246 2.865 2.807v.045 6.843h2.358V44.7a5.2 5.2 0 0 0-5.196-5.192zm25.738 0c-2.865 0-5.192 2.327-5.192 5.192h-.013v6.829h2.358V44.7h.013c-.013-1.562 1.246-2.852 2.807-2.865s2.852 1.246 2.865 2.807v.045 6.843h2.358V44.7c-.004-2.865-2.331-5.192-5.196-5.192zm35.534 0c-2.865 0-5.192 2.327-5.192 5.192h-.013v6.829h2.358V44.7h.013c-.013-1.562 1.246-2.852 2.807-2.865s2.852 1.246 2.866 2.807v.045 6.843h2.358V44.7c-.005-2.865-2.332-5.192-5.197-5.192zm-26.414 3.35c0-.796.685-1.339 2.011-1.339 1.339 0 2.136.707 2.225 1.753h2.46c-.133-2.371-1.9-3.822-4.596-3.822-2.807 0-4.573 1.526-4.573 3.439 0 4.36 6.909 3.021 6.909 5.361 0 .819-.752 1.428-2.18 1.428-1.361 0-2.291-.796-2.371-1.775h-2.545c.111 2.158 2.113 3.844 4.965 3.844 2.807 0 4.551-1.517 4.551-3.515-.147-4.32-6.856-2.981-6.856-5.374z"/></g><path d="M54.718 37.408A9.84 9.84 0 0 0 48 34.792v-4.685a14.58 14.58 0 0 1 9.921 3.888l-3.203 3.412z" fill="#00c8a0"/><path d="M62.606 20.185h-4.685A9.92 9.92 0 0 1 48 30.107v4.685a14.61 14.61 0 0 0 14.606-14.606z" fill="#00e3b4"/><path d="M57.921 20.185h4.685a9.92 9.92 0 0 0 9.921 9.921v4.685c-8.07 0-14.606-6.54-14.606-14.606z" fill="#00c8a0"/><path d="M57.921 44.713h4.685a9.92 9.92 0 0 1 9.921-9.921v-4.685c-8.07 0-14.606 6.536-14.606 14.606z" fill="#00e3b4"/><path d="M57.908 33.982c2.99 2.763 4.698 6.665 4.698 10.731h-4.685c0-2.776-1.17-5.441-3.217-7.314l3.203-3.417z" fill="#00c8a0"/></g></g><defs><linearGradient id="A" x1="223.5" y1="257" x2="132" y2="-11.5" xlink:href="#J"><stop stop-color="#fff4f4"/><stop offset="1" stop-color="#fff" stop-opacity=".47"/></linearGradient><linearGradient id="B" x1="106.781" y1="317.683" x2="106.781" y2="73.61" xlink:href="#J"><stop offset=".229" stop-color="#001d32"/><stop offset="1" stop-color="#4b59d7"/></linearGradient><linearGradient id="C" x1="107.912" y1="167.49" x2="107.912" y2="136.917" xlink:href="#J"><stop stop-color="#001529"/><stop offset="1" stop-color="#4b59d7"/></linearGradient><linearGradient id="D" x1="116.693" y1="150.435" x2="116.693" y2="243.238" xlink:href="#J"><stop offset=".229" stop-color="#001d32"/><stop offset="1" stop-color="#4b59d7"/></linearGradient><linearGradient id="E" x1="168.774" y1="161.102" x2="168.774" y2="157.987" xlink:href="#J"><stop stop-color="#fff"/><stop offset="1" stop-color="#fff" stop-opacity="0"/></linearGradient><linearGradient id="F" x1="286.133" y1="47" x2="285.454" y2="87.435" xlink:href="#J"><stop stop-color="#001529"/><stop offset="1" stop-color="#636589"/></linearGradient><linearGradient id="G" x1="194.5" y1="86" x2="425" y2="83" xlink:href="#J"><stop stop-color="#636589"/><stop offset="1" stop-color="#baaeba"/></linearGradient><clipPath id="H"><rect width="430" height="300" rx="15" fill="#fff"/></clipPath><clipPath id="I"><path fill="#fff" transform="translate(48 20.185)" d="M0 0h91v31.557H0z"/></clipPath><linearGradient id="J" gradientUnits="userSpaceOnUse"/></defs></svg>