<svg xmlns="http://www.w3.org/2000/svg" width="578" height="530" fill="none" xmlns:v="https://vecta.io/nano"><path d="M198.297 395.525c-10.951-17.038-29.818-27.993-50.506-27.993-3.65 0-6.694 1.825-8.519 4.869l-23.12 32.861c-3.043 4.262-9.125 4.262-12.169 0l-23.124-32.857c-1.825-3.043-5.476-4.868-8.519-4.868-27.993 0-52.331 19.474-58.418 46.855L.535 473.417c-3.043 13.387 7.301 25.557 20.688 25.557h136.304l13.387-59.025c3.651-17.042 13.387-32.861 27.382-44.424h.001zm-88.233-36.51c31.032 0 56.588-25.557 56.588-56.588v-23.732c0-31.032-25.557-56.588-56.588-56.588s-56.589 25.557-56.589 56.588v23.732c0 31.032 25.557 56.588 56.589 56.588zm467.329 114.399l-13.387-59.024c-6.087-27.382-30.425-46.856-58.419-46.856-3.65 0-6.693 1.825-8.518 4.869l-23.125 32.861c-3.043 4.262-9.125 4.262-12.169 0l-23.124-32.857c-1.825-3.043-5.475-4.868-8.518-4.868-20.688 0-39.551 10.95-50.506 27.993 13.387 11.562 23.124 27.381 27.381 45.03l13.387 59.025 136.305-.005c13.999 0 23.731-12.78 20.692-26.167l.001-.001zm-109.53-114.399c31.032 0 56.588-25.557 56.588-56.588v-23.732c0-31.032-25.557-56.588-56.588-56.588s-56.589 25.557-56.589 56.588v23.732c-.004 31.032 25.553 56.588 56.589 56.588zm-82.757 86.408c-6.087-27.382-30.425-46.856-58.418-46.856-3.65 0-6.694 1.825-8.519 4.868l-23.12 32.857c-3.043 4.262-9.125 4.262-12.169 0l-23.124-32.857c-1.825-3.043-5.475-4.868-8.519-4.868-27.993 0-52.331 19.474-58.418 46.856l-13.387 59.02C176.389 517.83 186.733 530 200.12 530h177.682c13.387 0 23.732-12.781 20.688-25.557l-13.384-59.02zm-96.143-192.286c-31.033 0-56.588 25.557-56.588 56.588v23.732c0 31.032 25.557 56.588 56.588 56.588s56.588-25.557 56.588-56.588v-23.732c0-31.032-25.557-56.588-56.588-56.588h0z" fill="#142547"/><path d="M288.963 211.15c58.419 0 105.27-47.463 105.27-105.27S347.382 0 288.963 0 183.694 47.463 183.694 105.27s46.851 105.88 105.269 105.88zM277.401 53.548c0-6.087 4.868-11.563 11.562-11.563s11.563 4.869 11.563 11.563v40.77h32.857c6.087 0 11.563 4.868 11.563 11.562s-4.869 11.563-11.563 11.563h-44.42c-6.086 0-11.562-4.869-11.562-11.563V53.548z" fill="#4267b2"/></svg>