<svg width="1130" height="899" viewBox="0 0 1130 899" fill="none" xmlns="http://www.w3.org/2000/svg">
<path opacity="0.9" d="M1108.14 223.65C1096.59 201.213 1081.45 180.817 1063.31 163.27L441.45 158.09L953.45 97.3C919.949 86.0907 884.895 80.2124 849.57 79.88C800.28 46.23 736.93 26 667.83 26C605.83 26 548.5 42.29 501.76 69.93C462 52.6 416.74 42.81 368.65 42.81C230.48 42.81 115.35 123.71 89.52 231L1108.14 223.65Z" fill="url(#paint0_linear_588_2)" fill-opacity="0.72"/>
<path opacity="0.9" d="M1130 313.6C1129.96 284.202 1123.34 255.186 1110.62 228.68L32.86 324.35C21.9224 341.028 13.42 359.181 7.61 378.26L341.36 420.32L0 450.99C10.27 572.44 133.43 668.35 283.88 668.35C359.61 668.35 428.42 644.04 479.41 604.41C530.56 644.79 600 669.6 676.58 669.6C790.15 669.6 888.18 614.93 933.83 535.88C1025.41 511.31 1096.55 449.6 1120.9 372.42L698.83 317.1H1130C1130 315.95 1130 314.79 1130 313.6Z" fill="#3C7BB6" fill-opacity="0.42"/>
<path d="M284.11 454.185C277.37 461.789 245.61 470.091 245.61 470.091C245.61 470.091 252.92 434.342 259.61 426.75C262.844 423.101 267.235 421.047 271.815 421.04C276.396 421.032 280.791 423.072 284.035 426.71C287.278 430.348 289.104 435.287 289.111 440.44C289.118 445.592 287.304 450.536 284.07 454.185H284.11Z" fill="#6C63FF"/>
<path d="M290 532.734C284.5 541.497 254.44 555.726 254.44 555.726C254.44 555.726 256.27 519.101 261.77 510.338C264.41 506.127 268.429 503.268 272.943 502.391C277.457 501.513 282.096 502.689 285.84 505.659C289.583 508.628 292.125 513.15 292.905 518.227C293.685 523.305 292.64 528.523 290 532.734V532.734Z" fill="#6C63FF"/>
<path opacity="0.25" d="M284.11 454.185C277.37 461.789 245.61 470.091 245.61 470.091C245.61 470.091 252.92 434.342 259.61 426.75C262.844 423.101 267.235 421.047 271.815 421.04C276.396 421.032 280.791 423.072 284.035 426.71C287.278 430.348 289.104 435.287 289.111 440.44C289.118 445.592 287.304 450.536 284.07 454.185H284.11Z" fill="black"/>
<path opacity="0.25" d="M290 532.734C284.5 541.497 254.44 555.726 254.44 555.726C254.44 555.726 256.27 519.101 261.77 510.338C264.41 506.127 268.429 503.268 272.943 502.391C277.457 501.513 282.096 502.689 285.84 505.659C289.583 508.628 292.125 513.15 292.905 518.227C293.685 523.305 292.64 528.523 290 532.734V532.734Z" fill="black"/>
<path d="M283.42 579.07C283.42 579.07 237.2 512.38 245.05 449.44C248.506 423.062 243.313 396.275 230.25 373.1C223.964 362.144 216.687 351.787 208.51 342.16" stroke="#7B78A1" stroke-width="2" stroke-miterlimit="10"/>
<path d="M213.22 302.47C216.22 311.52 208.51 343.21 208.51 343.21C208.51 343.21 183.42 322.38 180.42 313.32C178.981 308.97 179.329 304.228 181.387 300.135C183.446 296.042 187.045 292.934 191.395 291.495C195.744 290.056 200.487 290.404 204.58 292.462C208.673 294.521 211.781 298.12 213.22 302.47V302.47Z" fill="#2B609E"/>
<path d="M256.92 343.66C254.52 352.89 230.83 375.3 230.83 375.3C230.83 375.3 221.09 344.18 223.5 334.95C224.045 332.727 225.027 330.634 226.388 328.794C227.749 326.953 229.462 325.402 231.428 324.23C233.394 323.057 235.574 322.287 237.84 321.965C240.106 321.642 242.414 321.774 244.629 322.351C246.844 322.928 248.922 323.94 250.742 325.328C252.563 326.715 254.089 328.451 255.233 330.434C256.377 332.416 257.115 334.607 257.404 336.877C257.694 339.148 257.529 341.454 256.92 343.66V343.66Z" fill="#72AFE7"/>
<path d="M197 388.45C205.58 392.61 238 389.13 238 389.13C238 389.13 220.64 361.53 212 357.36C207.903 355.555 203.265 355.412 199.064 356.96C194.864 358.508 191.428 361.628 189.483 365.66C187.537 369.692 187.234 374.322 188.636 378.574C190.039 382.825 193.037 386.366 197 388.45V388.45Z" fill="#2B609E"/>
<path d="M204.91 469.98C214.35 471.38 244.25 458.36 244.25 458.36C244.25 458.36 219.42 437.21 210 435.81C207.756 435.476 205.469 435.588 203.268 436.139C201.068 436.689 198.997 437.667 197.175 439.018C193.495 441.746 191.049 445.824 190.375 450.355C189.701 454.886 190.855 459.499 193.583 463.18C196.311 466.86 200.389 469.306 204.92 469.98H204.91Z" fill="#2B609E"/>
<path d="M223.49 548.16C232.56 551.16 264.23 543.36 264.23 543.36C264.23 543.36 243.33 518.36 234.23 515.36C232.075 514.652 229.802 514.376 227.54 514.546C225.278 514.717 223.072 515.332 221.048 516.355C219.023 517.378 217.22 518.79 215.742 520.51C214.263 522.231 213.138 524.225 212.43 526.38C211.722 528.535 211.446 530.808 211.616 533.07C211.787 535.332 212.402 537.538 213.425 539.562C214.448 541.587 215.86 543.39 217.58 544.868C219.3 546.347 221.295 547.472 223.45 548.18L223.49 548.16Z" fill="#B7DCFF"/>
<path d="M283.16 576.39C283.16 576.39 213.88 534.15 195.54 473.39C188.007 447.879 172.408 425.496 151.08 409.6C140.894 402.133 130.045 395.616 118.67 390.13" stroke="#7B78A2" stroke-width="2" stroke-miterlimit="10"/>
<path d="M106.89 351.97C113.3 359.03 119.09 391.12 119.09 391.12C119.09 391.12 87.7198 382.24 81.3098 375.18C78.232 371.788 76.6277 367.312 76.8499 362.737C77.0722 358.162 79.1027 353.863 82.4948 350.785C85.8869 347.707 90.3628 346.103 94.9377 346.325C99.5127 346.547 103.812 348.578 106.89 351.97Z" fill="#6FA8EB"/>
<path d="M163.54 371.91C165.08 381.33 152.54 411.42 152.54 411.42C152.54 411.42 131 386.91 129.45 377.49C128.71 372.969 129.796 368.34 132.47 364.62C135.143 360.9 139.184 358.395 143.705 357.655C148.226 356.915 152.855 358.001 156.575 360.675C160.295 363.348 162.8 367.389 163.54 371.91Z" fill="#6BA2E2"/>
<path d="M223.29 439.6C219.86 448.51 193.82 468.13 193.82 468.13C193.82 468.13 187.62 436.13 191.04 427.21C192.683 422.933 195.957 419.485 200.143 417.622C204.329 415.76 209.083 415.637 213.36 417.28C217.636 418.923 221.085 422.198 222.947 426.383C224.81 430.569 224.933 435.323 223.29 439.6V439.6Z" fill="#72A8E7"/>
<path d="M257 501.03C255.13 510.39 232.77 534.13 232.77 534.13C232.77 534.13 221.25 503.62 223.12 494.27C223.564 492.045 224.441 489.93 225.703 488.045C226.964 486.159 228.585 484.541 230.471 483.282C232.358 482.022 234.475 481.147 236.7 480.706C238.925 480.265 241.215 480.266 243.44 480.71C245.664 481.154 247.78 482.032 249.665 483.293C251.551 484.554 253.169 486.175 254.428 488.062C255.687 489.949 256.563 492.065 257.004 494.29C257.445 496.515 257.444 498.805 257 501.03V501.03Z" fill="#9ABBEC"/>
<path d="M126.88 437.15C136.42 437.48 164.65 421.15 164.65 421.15C164.65 421.15 137.6 402.95 128.06 402.6C125.793 402.523 123.533 402.892 121.41 403.688C119.286 404.484 117.34 405.69 115.682 407.238C114.025 408.786 112.688 410.645 111.749 412.71C110.81 414.774 110.287 417.003 110.21 419.27C110.132 421.537 110.502 423.796 111.298 425.92C112.094 428.044 113.3 429.99 114.848 431.647C116.396 433.305 118.255 434.641 120.32 435.58C122.384 436.519 124.613 437.043 126.88 437.12V437.15Z" fill="#468DCE"/>
<path d="M167.17 508.47C176.37 505.93 198.43 481.91 198.43 481.91C198.43 481.91 167.16 472.6 158 475.18C155.792 475.764 153.721 476.78 151.909 478.17C150.096 479.559 148.577 481.294 147.439 483.275C146.302 485.256 145.568 487.442 145.282 489.708C144.995 491.974 145.161 494.275 145.769 496.476C146.377 498.678 147.417 500.737 148.826 502.534C150.236 504.331 151.988 505.831 153.981 506.947C155.974 508.062 158.169 508.771 160.438 509.033C162.707 509.294 165.005 509.103 167.2 508.47H167.17Z" fill="#5586BF"/>
<path d="M215.84 572.42C225.34 571.42 251.14 551.52 251.14 551.52C251.14 551.52 221.89 537.1 212.4 538.05C210.143 538.276 207.953 538.944 205.955 540.016C203.956 541.089 202.188 542.544 200.752 544.3C197.852 547.845 196.479 552.397 196.935 556.955C197.161 559.212 197.829 561.402 198.901 563.4C199.974 565.399 201.429 567.167 203.185 568.603C206.73 571.503 211.282 572.876 215.84 572.42V572.42Z" fill="#A285D7"/>
<path d="M215.84 572.42C225.34 571.42 251.14 551.52 251.14 551.52C251.14 551.52 221.89 537.1 212.4 538.05C210.143 538.276 207.953 538.944 205.955 540.016C203.956 541.089 202.188 542.544 200.752 544.3C197.852 547.845 196.479 552.397 196.935 556.955C197.161 559.212 197.829 561.402 198.901 563.4C199.974 565.399 201.429 567.167 203.185 568.603C206.73 571.503 211.282 572.876 215.84 572.42V572.42Z" fill="url(#paint1_linear_588_2)" fill-opacity="0.9"/>
<path opacity="0.1" d="M635.623 833.28C734.482 833.28 814.623 827.931 814.623 821.334C814.623 814.736 734.482 809.388 635.623 809.388C536.764 809.388 456.623 814.736 456.623 821.334C456.623 827.931 536.764 833.28 635.623 833.28Z" fill="#63DAFF"/>
<path opacity="0.1" d="M905.86 897.19C931.74 897.19 952.72 892.894 952.72 887.595C952.72 882.296 931.74 878 905.86 878C879.98 878 859 882.296 859 887.595C859 892.894 879.98 897.19 905.86 897.19Z" fill="#6C63FF"/>
<path d="M552.71 185.4C556.852 185.4 560.21 181.622 560.21 176.963C560.21 172.304 556.852 168.527 552.71 168.527C548.568 168.527 545.21 172.304 545.21 176.963C545.21 181.622 548.568 185.4 552.71 185.4Z" fill="#F8F8F8"/>
<path d="M755.238 797.17V789.117C741.339 783.104 729.479 773.193 721.095 760.581C712.71 747.97 711.364 710.144 711.198 695L564.896 695C564.319 710.486 562.313 750.548 553.226 763.101C544.138 775.653 531.531 785.228 517 790.612V797.17H755.238Z" fill="white"/>
<path d="M241 671V703C241 720.671 259.287 735 281.847 735H983.153C1005.71 735 1024 720.671 1024 703V671H241Z" fill="white"/>
<path d="M818.83 797H446.936C440.344 797 435 802.344 435 808.936C435 815.528 440.344 820.872 446.936 820.872H818.83C825.422 820.872 830.766 815.528 830.766 808.936C830.766 802.344 825.422 797 818.83 797Z" fill="white"/>
<path d="M1024 182.653C1024 171.823 1019.7 161.437 1012.04 153.78C1004.38 146.122 993.997 141.82 983.167 141.82H282.097C271.267 141.82 260.881 146.122 253.223 153.78C245.566 161.437 241.264 171.823 241.264 182.653V687.097H1024V182.653Z" fill="white"/>
<path d="M982.275 182.251H282.461C271.359 182.251 262.359 191.251 262.359 202.353V635.811C262.359 646.913 271.359 655.913 282.461 655.913H982.275C993.377 655.913 1002.38 646.913 1002.38 635.811V202.353C1002.38 191.251 993.377 182.251 982.275 182.251Z" fill="#DCDCF3" fill-opacity="0.47"/>
<path d="M631.5 713C641.717 713 650 704.717 650 694.5C650 684.283 641.717 676 631.5 676C621.283 676 613 684.283 613 694.5C613 704.717 621.283 713 631.5 713Z" fill="#EDEDF4"/>
<path d="M1002.64 200.871H262.623C262.623 195.539 264.741 190.426 268.51 186.656C272.28 182.886 277.393 180.768 282.725 180.768H982.539C987.87 180.768 992.983 182.886 996.753 186.656C1000.52 190.426 1002.64 195.539 1002.64 200.871Z" fill="#F7F7F7" fill-opacity="0.61"/>
<path d="M1002.64 200.871H262.623C262.623 195.539 264.741 190.426 268.51 186.656C272.28 182.886 277.393 180.768 282.725 180.768H982.539C987.87 180.768 992.983 182.886 996.753 186.656C1000.52 190.426 1002.64 195.539 1002.64 200.871Z" fill="url(#paint2_linear_588_2)"/>
<path d="M282.725 195.845C285.5 195.845 287.75 193.595 287.75 190.82C287.75 188.044 285.5 185.794 282.725 185.794C279.949 185.794 277.699 188.044 277.699 190.82C277.699 193.595 279.949 195.845 282.725 195.845Z" fill="#EBAF9A"/>
<path d="M297.802 195.845C300.578 195.845 302.828 193.595 302.828 190.82C302.828 188.044 300.578 185.794 297.802 185.794C295.026 185.794 292.776 188.044 292.776 190.82C292.776 193.595 295.026 195.845 297.802 195.845Z" fill="#FED566"/>
<path d="M312.879 195.845C315.654 195.845 317.904 193.595 317.904 190.82C317.904 188.044 315.654 185.794 312.879 185.794C310.103 185.794 307.853 188.044 307.853 190.82C307.853 193.595 310.103 195.845 312.879 195.845Z" fill="#B0D7D3"/>
<path d="M719.21 868.617L719.88 868.044C719.677 868.264 719.452 868.456 719.21 868.617V868.617Z" fill="#A1616A"/>
<path d="M770.26 863.556L770.98 862.948C770.76 863.179 770.518 863.382 770.26 863.556V863.556Z" fill="#A1616A"/>
<path opacity="0.1" d="M890.28 859.514L879.21 867.114C879.21 867.114 879.28 866.224 879.38 864.914C880.699 861.514 882.619 858.381 885.05 855.664C887.55 855.024 889.12 855.664 890.05 856.794C890.14 858.434 890.28 859.514 890.28 859.514Z" fill="black"/>
<path opacity="0.1" d="M942.471 860.724L942.411 861.134L927.811 872.244C930.081 870.064 930.671 865.164 930.661 860.624C930.661 860.124 930.661 859.624 930.661 859.114C931.949 855.939 933.78 853.012 936.071 850.464C938.571 849.814 940.151 850.464 941.121 851.584C941.121 851.704 941.121 851.804 941.121 851.914C941.322 852.15 941.497 852.408 941.641 852.684C943.091 855.254 942.661 859.394 942.471 860.724Z" fill="black"/>
<path opacity="0.1" d="M941.331 855.004L930.261 862.614C930.261 862.614 930.331 861.724 930.441 860.414C931.75 857.012 933.668 853.878 936.101 851.164C938.601 850.524 940.171 851.114 941.151 852.294C941.191 853.934 941.331 855.004 941.331 855.004Z" fill="black"/>
<path opacity="0.1" d="M932.311 625.074C922.811 627.204 897.111 631.024 874.511 616.964C874.511 615.084 874.601 612.674 874.651 609.964C883.231 614.684 907.331 626.964 919.601 623.524C925.721 621.774 929.601 620.664 932.031 619.944C931.788 621.656 931.883 623.398 932.311 625.074V625.074Z" fill="black"/>
<path d="M995.051 705.184C987.151 709.404 980.131 679.924 980.131 679.924L979.831 675.794L979.261 667.984L988.911 669.214C988.765 670.901 988.765 672.597 988.911 674.284C989.081 676.284 989.571 678.374 990.721 679.214C993.291 681.154 1002.94 700.974 995.051 705.184Z" fill="#F5E6E8"/>
<path d="M896.121 709.124V729.264C896.121 730.137 896.121 731.007 896.121 731.874C895.914 739.398 895.246 746.902 894.121 754.344C893.853 756.161 893.809 758.005 893.991 759.834C894.691 766.684 892.991 792.834 892.991 792.834L889.991 826.704C889.991 826.704 891.741 845.124 890.991 847.704C890.792 848.761 890.728 849.84 890.801 850.914C890.901 853.914 891.421 857.764 891.591 858.914V859.264L891.481 859.344L876.811 870.534C879.151 868.404 879.751 863.444 879.741 858.844C879.741 858.344 879.741 857.844 879.741 857.344C879.741 853.044 879.907 848.744 880.241 844.444C880.721 837.374 877.901 826.544 875.841 819.804C873.211 811.214 870.571 761.024 871.981 758.394C873.391 755.764 871.801 748.914 870.051 745.054C869.021 742.704 868.021 734.484 867.421 728.484C867.041 724.844 866.811 722.084 866.811 722.084L896.121 709.124Z" fill="#F5E6E8"/>
<path d="M946.961 710.864V731.004C946.961 732.244 946.961 733.494 946.961 734.734C946.733 741.882 946.088 749.011 945.031 756.084C944.763 757.901 944.719 759.745 944.901 761.574C945.601 768.424 943.901 794.574 943.901 794.574L940.901 828.444C940.901 828.444 942.661 846.864 941.961 849.444C941.757 850.497 941.693 851.573 941.771 852.644C941.871 855.644 942.401 859.554 942.561 860.644C942.561 860.864 942.611 860.974 942.611 860.974L942.501 861.054L927.811 872.244C930.081 870.064 930.671 865.164 930.661 860.624C930.661 860.124 930.661 859.624 930.661 859.114C930.661 854.814 930.861 850.514 931.151 846.214C931.621 839.144 928.811 828.324 926.751 821.584C924.111 812.994 921.481 762.804 922.891 760.174C924.301 757.544 922.711 750.694 920.961 746.834C920.331 745.474 919.731 742.164 919.211 738.484C918.281 731.804 917.621 723.854 917.621 723.854L946.961 710.864Z" fill="#F5E6E8"/>
<path d="M927.241 505.423C927.242 510.131 925.521 514.677 922.403 518.205C919.284 521.732 914.983 523.997 910.311 524.573C909.521 524.674 908.726 524.724 907.931 524.723H907.791C903.98 524.693 900.263 523.536 897.109 521.398C893.955 519.259 892.498 515.852 891.061 512.323C889.623 508.794 888.268 505.301 889.03 501.567C889.791 497.833 891.641 494.408 894.346 491.724C897.051 489.04 900.49 487.216 904.23 486.484C907.97 485.751 911.843 486.142 915.361 487.607C918.878 489.072 921.884 491.546 923.998 494.716C926.112 497.887 927.24 501.612 927.241 505.423Z" fill="#F5E6E8"/>
<path d="M967.593 832.2C967.664 832.174 967.737 832.149 967.811 832.124C967.738 832.159 967.665 832.184 967.593 832.2C961.694 834.326 962.517 838.124 938.311 838.124C938.311 838.124 920.311 843.624 901.811 841.124C884.311 838.124 876.221 843.624 866.311 841.124C856.401 838.624 854.421 836.054 852.311 834.124C852.311 834.124 853.811 736.624 856.811 714.624C859.811 692.624 869.941 649.494 870.811 648.624L872.381 626.724L874.381 619.724L874.461 615.554C874.461 613.674 874.551 611.264 874.601 608.554C874.781 597.354 874.971 580.744 874.601 573.234C874.541 572.074 874.481 571.134 874.401 570.454C873.521 562.914 881.401 546.454 883.351 543.084C884.791 540.594 894.111 538.704 899.661 537.534C900.984 537.294 902.293 536.981 903.581 536.594C904.083 536.467 904.604 536.426 905.121 536.474C910.361 536.684 925.811 539.924 925.811 539.924C924.411 582.214 927.221 574.844 927.221 574.844C931.781 571.334 928.971 540.274 928.971 540.274C931.251 541.324 933.581 538.684 933.581 538.684L942.481 542.374C945.191 544.002 947.811 545.774 950.331 547.684C952.443 549.172 954.298 550.996 955.821 553.084C958.451 557.474 962.141 569.934 962.141 569.934L958.981 574.934L958.571 575.591C955.811 580.021 951.771 586.507 947.631 593.074L939.911 605.364C936.461 610.844 933.651 615.294 932.481 617.104C932.217 617.538 932.03 618.015 931.931 618.514C931.864 618.844 931.821 619.178 931.801 619.514C931.752 620.912 931.889 622.311 932.211 623.674C934.421 634.154 939.911 652.124 939.911 652.124C939.911 652.124 945.678 682.624 947.631 693.124C953.71 725.824 959.701 833.971 967.593 832.2Z" fill="url(#paint3_linear_588_2)"/>
<path d="M955.04 564.814L962.24 569.904C962.24 569.904 965.57 583.234 968.55 587.974C971.53 592.714 971.18 598.854 971.18 598.854C972.185 599.967 973.124 601.139 973.99 602.364C976.1 605.174 978.9 619.264 977.85 621.084C976.8 622.904 983.91 637.984 983.91 637.984C983.91 637.984 984.91 638.984 986.98 644.474C989.05 649.964 986.98 656.234 986.98 656.234C986.98 656.234 992.42 668.344 990.14 671.674C987.86 675.004 980.48 674.674 979.43 674.304C978.38 673.934 982.24 672.024 975.43 671.494C968.62 670.964 959.63 658.864 959.63 658.864C956.071 652.433 953.47 645.517 951.91 638.334C950.354 630.933 948.245 623.659 945.6 616.574C944.72 613.944 940.86 596.924 940.86 596.924L955.04 564.814Z" fill="#EFE8F3"/>
<path opacity="0.1" d="M901.17 564.814C901.17 564.814 900.64 605.524 895.73 613.594L901.17 564.814Z" fill="#7B78A2"/>
<path opacity="0.1" d="M929.6 579.204C929.6 579.204 925.04 619.914 921.44 622.014C917.84 624.114 929.6 579.204 929.6 579.204Z" fill="#7B78A2"/>
<path opacity="0.1" d="M922.991 573.414C922.991 573.414 921.881 611.804 916.091 615.594C910.301 619.384 922.991 573.414 922.991 573.414Z" fill="#7B78A2"/>
<path opacity="0.1" d="M876.315 648.124C876.315 648.124 869.055 669.354 869.875 678.124C870.695 686.894 876.315 648.124 876.315 648.124Z" fill="#7B78A2"/>
<path d="M932.311 623.724C922.811 625.844 897.111 629.664 874.511 615.614C874.511 613.734 874.601 611.324 874.651 608.614C883.231 613.334 907.331 625.614 919.601 622.174C925.721 620.434 929.601 619.314 932.031 618.604C931.789 620.312 931.884 622.052 932.311 623.724V623.724Z" fill="#C4C1DC"/>
<path opacity="0.1" d="M891.42 865.194C891.42 865.424 891.37 865.574 891.36 865.624L876.69 876.814C879.03 874.684 879.63 869.724 879.62 865.124C879.62 864.624 879.62 864.124 879.62 863.624C880.912 860.445 882.746 857.514 885.04 854.964C887.54 854.314 889.11 854.964 890.04 856.094C890.04 856.204 890.04 856.314 890.04 856.414C890.24 856.655 890.414 856.917 890.56 857.194C892.03 859.724 891.61 863.854 891.42 865.194Z" fill="black"/>
<path d="M891.35 866.344C889.797 869.906 889.013 873.757 889.05 877.644C889.116 880.838 888.304 883.99 886.7 886.754C886.476 887.145 886.219 887.517 885.93 887.864C885.93 887.864 878.24 887.804 875.55 885.574C875.245 885.347 874.993 885.057 874.81 884.724C873.27 881.654 877.81 869.894 877.81 869.894C880.19 860.824 885.03 855.984 885.03 855.984C893.66 853.724 891.35 866.344 891.35 866.344Z" fill="#656181"/>
<path opacity="0.1" d="M886.701 886.724C886.477 887.115 886.219 887.487 885.931 887.834C885.931 887.834 878.241 887.774 875.551 885.544C876.871 881.164 881.101 867.914 883.071 870.164C885.041 872.414 886.231 882.494 886.701 886.724Z" fill="black"/>
<path d="M885.64 871.014L885.11 890.874H887.69C887.69 890.874 888.1 873.454 889.26 871.014C890.42 868.574 885.64 871.014 885.64 871.014Z" fill="#656181"/>
<path d="M942.411 861.844C940.849 865.404 940.061 869.256 940.101 873.144C940.167 876.338 939.354 879.49 937.751 882.254C937.523 882.643 937.266 883.014 936.981 883.364C936.981 883.364 929.291 883.304 926.601 881.074C926.304 880.839 926.059 880.547 925.881 880.214C924.351 877.144 928.881 865.384 928.881 865.384C931.261 856.314 936.101 851.474 936.101 851.474C944.711 849.244 942.411 861.844 942.411 861.844Z" fill="#656181"/>
<path opacity="0.1" d="M937.751 882.254C937.523 882.643 937.266 883.014 936.981 883.364C936.981 883.364 929.291 883.304 926.601 881.074C927.921 876.694 932.151 863.434 934.121 865.684C936.091 867.934 937.281 877.994 937.751 882.254Z" fill="black"/>
<path d="M936.701 866.514L936.161 886.364H938.741C938.741 886.364 939.151 868.954 940.311 866.514C941.471 864.074 936.701 866.514 936.701 866.514Z" fill="#656181"/>
<path d="M841.81 631.614C841.81 631.614 838.97 631.314 835.15 630.724C825.15 629.204 808.24 625.724 817.86 620.724C826.69 616.104 838.86 620.024 845.98 623.164C848.006 624.058 849.982 625.059 851.9 626.164L841.81 631.614Z" fill="#F5E6E8"/>
<path opacity="0.1" d="M844.601 628.564C844.601 628.564 844.091 630.564 843.231 633.264C842.141 632.824 841.231 632.474 840.561 632.264C837.561 631.264 841.091 629.984 840.211 627.354C839.461 625.094 838.071 625.804 836.471 625.174C837.517 623.75 838.649 622.391 839.861 621.104L844.601 628.564Z" fill="#7B78A2"/>
<path d="M878.181 566.394L874.631 572.024C874.631 572.024 869.811 580.954 869.061 583.724C868.311 586.494 866.811 597.094 863.811 599.554C860.811 602.014 854.681 609.904 855.561 611.484C856.441 613.064 847.311 614.994 847.311 614.994C847.311 614.994 841.171 617.454 841.521 619.384C841.871 621.314 836.431 622.894 838.361 624.294C840.291 625.694 842.051 624.294 842.931 626.924C843.811 629.554 840.291 630.794 843.281 631.844C846.271 632.894 856.091 637.004 856.091 637.004C856.091 637.004 863.981 638.334 866.261 633.594C868.541 628.854 881.531 617.104 881.531 617.104C881.531 617.104 885.211 603.764 887.531 598.674C889.851 593.584 894.381 570.604 894.381 570.604C894.381 570.604 890.691 542.174 887.381 546.604C884.071 551.034 878.181 566.394 878.181 566.394Z" fill="#EFE8F3"/>
<path d="M904.221 518.272C900.721 515.201 901.725 513.364 898.51 511.527C894.811 509.624 895.811 510.124 894.01 506.527C892.811 503.624 894.35 503.127 891.51 502.527C886.27 501.437 878.12 511.939 880.12 498.877C882.12 485.816 888.29 487.422 894.01 483.124C899.73 478.826 899.51 478.527 906.311 477.124C913.111 475.72 926.811 486.624 929.811 491.624C932.811 496.624 930.331 503.033 931.311 504.624C932.29 506.215 945.53 517.36 946.53 525.86C947.53 534.36 943.284 536.018 953.284 562.018C955.084 566.688 956.931 569.114 956.811 574.124C956.691 579.134 949.32 583.067 944.53 584.557C943.91 587.877 936.03 586.557 936.03 586.557C936.03 586.557 934.96 588.758 931.53 589.758C928.1 590.758 924.899 590.504 922.53 589.758C920.84 589.808 910.79 585.417 909.53 586.557C903.34 592.137 890.03 586.36 889.53 582.86C889.03 579.36 908.274 565.41 899.834 547.36C899.067 545.952 898.405 538.919 898.03 537.36C897.4 533.84 897.764 531.198 899.834 528.288C901.644 525.744 903.744 523.284 904.852 520.393C905.142 519.636 904.83 518.807 904.221 518.272Z" fill="#6F5E74"/>
<path d="M904.221 518.272C900.721 515.201 901.725 513.364 898.51 511.527C894.811 509.624 895.811 510.124 894.01 506.527C892.811 503.624 894.35 503.127 891.51 502.527C886.27 501.437 878.12 511.939 880.12 498.877C882.12 485.816 888.29 487.422 894.01 483.124C899.73 478.826 899.51 478.527 906.311 477.124C913.111 475.72 926.811 486.624 929.811 491.624C932.811 496.624 930.331 503.033 931.311 504.624C932.29 506.215 945.53 517.36 946.53 525.86C947.53 534.36 943.284 536.018 953.284 562.018C955.084 566.688 956.931 569.114 956.811 574.124C956.691 579.134 949.32 583.067 944.53 584.557C943.91 587.877 936.03 586.557 936.03 586.557C936.03 586.557 934.96 588.758 931.53 589.758C928.1 590.758 924.899 590.504 922.53 589.758C920.84 589.808 910.79 585.417 909.53 586.557C903.34 592.137 890.03 586.36 889.53 582.86C889.03 579.36 908.274 565.41 899.834 547.36C899.067 545.952 898.405 538.919 898.03 537.36C897.4 533.84 897.764 531.198 899.834 528.288C901.644 525.744 903.744 523.284 904.852 520.393C905.142 519.636 904.83 518.807 904.221 518.272Z" fill="url(#paint4_linear_588_2)"/>
<path opacity="0.1" d="M868.181 611.664C868.181 611.664 850.811 613.944 860.111 617.804C869.411 621.664 872.571 617.804 872.571 617.804L868.181 611.664Z" fill="#7B78A2"/>
<path opacity="0.1" d="M846.601 622.014C846.601 622.014 856.781 619.914 859.411 622.014C862.041 624.114 846.601 622.014 846.601 622.014Z" fill="#7B78A1"/>
<path opacity="0.1" d="M845.551 627.284C845.551 627.284 846.251 625.524 849.761 627.284C853.271 629.044 845.551 627.284 845.551 627.284Z" fill="black"/>
<path opacity="0.1" d="M960.391 644.044C960.391 644.044 961.451 660.044 965.761 660.564C970.071 661.084 960.391 644.044 960.391 644.044Z" fill="#7B78A2"/>
<path opacity="0.1" d="M969.611 607.824C969.611 607.824 970.341 612.714 965.761 613.594C961.181 614.474 969.611 607.824 969.611 607.824Z" fill="#7B78A1"/>
<path opacity="0.1" d="M917.661 655.414C917.661 655.414 917.431 704.784 927.491 710.864L917.661 655.414Z" fill="#7B78A2"/>
<path opacity="0.1" d="M930.99 657.524C930.99 657.524 930.81 706.884 940.81 712.974L930.99 657.524Z" fill="#CDB1D1"/>
<circle cx="930.811" cy="504.124" r="1" fill="white"/>
<circle cx="929.811" cy="506.124" r="1" fill="white"/>
<circle cx="927.811" cy="506.124" r="1" fill="white"/>
<path opacity="0.1" d="M988.891 674.284C986.181 676.114 981.411 676.044 979.831 675.794L979.261 667.984L988.911 669.214C988.758 670.9 988.752 672.596 988.891 674.284V674.284Z" fill="#7B78A2"/>
<path d="M406.204 407.078C396.861 407.078 389.054 404.04 382.782 397.964L381.018 385.91L382.39 385.518C389.773 391.921 397.155 395.122 404.538 395.122C408.981 395.122 412.443 394.371 414.926 392.868C417.409 391.3 418.65 389.144 418.65 386.4C418.65 384.571 418.16 383.068 417.18 381.892C416.265 380.651 414.665 379.54 412.378 378.56C410.157 377.515 406.89 376.404 402.578 375.228C397.417 373.791 393.366 372.157 390.426 370.328C387.486 368.499 385.33 366.212 383.958 363.468C382.651 360.724 381.998 357.261 381.998 353.08C381.998 346.416 384.154 341.157 388.466 337.302C392.843 333.447 398.723 331.52 406.106 331.52C410.483 331.52 414.73 332.206 418.846 333.578C422.962 334.95 426.294 336.779 428.842 339.066L426.98 350.63L425.51 351.022C423.877 348.801 421.361 347.004 417.964 345.632C414.567 344.195 411.039 343.476 407.38 343.476C403.199 343.476 400.03 344.227 397.874 345.73C395.783 347.233 394.738 349.421 394.738 352.296C394.738 354.256 395.163 355.889 396.012 357.196C396.927 358.503 398.397 359.646 400.422 360.626C402.513 361.606 405.453 362.586 409.242 363.566C414.861 365.069 419.238 366.735 422.374 368.564C425.575 370.328 427.862 372.517 429.234 375.13C430.671 377.743 431.39 381.075 431.39 385.126C431.39 392.051 429.103 397.441 424.53 401.296C419.957 405.151 413.848 407.078 406.204 407.078ZM449.491 340.144C447.335 340.144 445.473 339.523 443.905 338.282C442.402 337.041 441.651 335.44 441.651 333.48C441.651 331.52 442.402 329.919 443.905 328.678C445.473 327.437 447.335 326.816 449.491 326.816C451.712 326.816 453.574 327.437 455.077 328.678C456.645 329.919 457.429 331.52 457.429 333.48C457.429 335.44 456.645 337.041 455.077 338.282C453.574 339.523 451.712 340.144 449.491 340.144ZM443.513 391.3V361.41L442.729 347.2H456.253L455.371 361.41V391.3L456.253 406H442.729L443.513 391.3ZM530.297 391.3V365.82C530.297 363.076 529.644 360.985 528.337 359.548C527.031 358.111 525.103 357.392 522.555 357.392C520.857 357.392 519.093 357.784 517.263 358.568C515.499 359.287 513.899 360.397 512.461 361.9V363.37V391.3L513.343 406H499.819L500.603 391.3V365.82C500.603 363.076 499.95 360.985 498.643 359.548C497.337 358.111 495.409 357.392 492.861 357.392C491.163 357.392 489.431 357.751 487.667 358.47C485.903 359.189 484.303 360.299 482.865 361.802V391.3L483.649 406H470.125L471.007 391.3V361.41L470.125 347.2H480.905L482.473 352.982C484.303 350.891 486.524 349.291 489.137 348.18C491.751 347.069 494.593 346.514 497.663 346.514C500.799 346.514 503.478 347.2 505.699 348.572C507.986 349.944 509.717 351.969 510.893 354.648C512.723 352.035 515.042 350.042 517.851 348.67C520.726 347.233 523.895 346.514 527.357 346.514C531.996 346.514 535.622 347.951 538.235 350.826C540.849 353.701 542.155 357.882 542.155 363.37V391.3L543.037 406H529.513L530.297 391.3ZM582.643 346.024C589.634 346.024 594.86 348.507 598.323 353.472C601.851 358.372 603.615 366.049 603.615 376.502C603.615 386.367 601.72 393.881 597.931 399.042C594.207 404.203 588.85 406.784 581.859 406.784C579.442 406.784 576.992 406.196 574.509 405.02C572.092 403.779 570.262 402.178 569.021 400.218V410.9L569.805 425.6H556.281L557.163 410.9V361.802L556.281 347.2H567.747L568.237 350.14C569.87 348.833 571.928 347.821 574.411 347.102C576.959 346.383 579.703 346.024 582.643 346.024ZM580.389 395.416C583.133 395.416 585.289 394.828 586.857 393.652C588.49 392.411 589.634 390.451 590.287 387.772C591.006 385.028 591.365 381.271 591.365 376.502C591.365 371.471 591.006 367.617 590.287 364.938C589.568 362.259 588.36 360.397 586.661 359.352C584.962 358.241 582.545 357.686 579.409 357.686C575.032 357.686 571.569 358.241 569.021 359.352V391.888C570.197 392.999 571.798 393.881 573.823 394.534C575.914 395.122 578.102 395.416 580.389 395.416ZM616.713 391.3V341.81L615.831 327.6H629.355L628.571 341.81V391.3L629.355 406H615.831L616.713 391.3ZM649.889 340.144C647.733 340.144 645.871 339.523 644.303 338.282C642.801 337.041 642.049 335.44 642.049 333.48C642.049 331.52 642.801 329.919 644.303 328.678C645.871 327.437 647.733 326.816 649.889 326.816C652.111 326.816 653.973 327.437 655.475 328.678C657.043 329.919 657.827 331.52 657.827 333.48C657.827 335.44 657.043 337.041 655.475 338.282C653.973 339.523 652.111 340.144 649.889 340.144ZM643.911 391.3V361.41L643.127 347.2H656.651L655.769 361.41V391.3L656.651 406H643.127L643.911 391.3ZM692.77 407.568C684.603 407.568 678.56 405.02 674.64 399.924C670.785 394.763 668.858 387.151 668.858 377.09C668.858 367.159 670.883 359.515 674.934 354.158C678.984 348.735 684.995 346.024 692.966 346.024C697.212 346.024 700.544 346.383 702.962 347.102C705.444 347.821 707.829 349.029 710.116 350.728L708.254 361.312L706.686 361.998C705.183 360.43 703.484 359.319 701.59 358.666C699.76 358.013 697.31 357.686 694.24 357.686C689.536 357.686 686.171 359.221 684.146 362.292C682.12 365.297 681.108 370.23 681.108 377.09C681.108 381.859 681.532 385.583 682.382 388.262C683.231 390.941 684.668 392.868 686.694 394.044C688.719 395.22 691.594 395.808 695.318 395.808C698.65 395.808 701.328 395.481 703.354 394.828C705.379 394.109 707.339 392.901 709.234 391.202L710.9 391.986L708.254 402.374C705.706 404.399 703.354 405.771 701.198 406.49C699.107 407.209 696.298 407.568 692.77 407.568ZM747.335 346.514C751.516 346.514 754.685 346.971 756.841 347.886L754.881 358.274L753.607 359.156C752.758 358.568 751.549 358.111 749.981 357.784C748.413 357.392 746.649 357.196 744.689 357.196C740.246 357.196 736.718 359.058 734.105 362.782V391.3L734.889 406H721.365L722.247 391.3V361.41L721.365 347.2H732.145L733.811 353.57C735.51 351.218 737.502 349.454 739.789 348.278C742.141 347.102 744.656 346.514 747.335 346.514ZM809.794 391.496L810.578 406H798.23L797.74 398.748C795.845 401.492 793.428 403.583 790.488 405.02C787.613 406.457 784.445 407.176 780.982 407.176C776.343 407.176 772.685 405.673 770.006 402.668C767.393 399.597 766.086 395.318 766.086 389.83V361.9L765.302 347.2H778.826L777.944 361.9V387.38C777.944 390.255 778.63 392.476 780.002 394.044C781.374 395.547 783.269 396.298 785.686 396.298C787.777 396.298 789.933 395.645 792.154 394.338C794.375 393.031 796.303 391.169 797.936 388.752V361.9L797.054 347.2H810.578L809.794 361.9V391.496ZM831.147 340.144C828.991 340.144 827.129 339.523 825.561 338.282C824.059 337.041 823.307 335.44 823.307 333.48C823.307 331.52 824.059 329.919 825.561 328.678C827.129 327.437 828.991 326.816 831.147 326.816C833.369 326.816 835.231 327.437 836.733 328.678C838.301 329.919 839.085 331.52 839.085 333.48C839.085 335.44 838.301 337.041 836.733 338.282C835.231 339.523 833.369 340.144 831.147 340.144ZM825.169 391.3V361.41L824.385 347.2H837.909L837.027 361.41V391.3L837.909 406H824.385L825.169 391.3ZM849.92 350.63L856.192 347.2L859.132 334.95H868.05V347.2H884.122V358.47H868.05V387.478C868.05 392.77 870.173 395.416 874.42 395.416C876.51 395.416 878.503 394.991 880.398 394.142C882.292 393.227 883.795 392.084 884.906 390.712L886.572 391.594L884.024 401.884C881.737 403.844 879.646 405.216 877.752 406C875.922 406.784 873.799 407.176 871.382 407.176C866.024 407.176 862.137 405.51 859.72 402.178C857.368 398.846 856.192 393.162 856.192 385.126V358.47H849.92V350.63Z" fill="#55526D"/>
<path d="M404.144 477H399.8L397.904 473.4L396.8 471.72H393.896V473.4L394.136 477H390.704L390.92 473.4V462.48L390.704 459H396.992C398.944 459 400.432 459.536 401.456 460.608C402.496 461.68 403.016 463.256 403.016 465.336C403.016 466.696 402.728 467.872 402.152 468.864C401.592 469.84 400.816 470.576 399.824 471.072L401.36 473.4L404.144 477ZM393.896 468.864H396.08C397.44 468.864 398.416 468.592 399.008 468.048C399.6 467.504 399.896 466.6 399.896 465.336C399.896 464.056 399.608 463.16 399.032 462.648C398.472 462.12 397.504 461.856 396.128 461.856H393.896V468.864ZM411.788 477.384C409.676 477.384 408.132 476.752 407.156 475.488C406.18 474.208 405.692 472.304 405.692 469.776C405.692 467.248 406.18 465.36 407.156 464.112C408.132 462.848 409.676 462.216 411.788 462.216C413.9 462.216 415.444 462.848 416.42 464.112C417.396 465.36 417.884 467.248 417.884 469.776C417.884 472.304 417.396 474.208 416.42 475.488C415.444 476.752 413.9 477.384 411.788 477.384ZM411.788 474.528C412.62 474.528 413.252 474.392 413.684 474.12C414.132 473.832 414.444 473.352 414.62 472.68C414.796 472.008 414.884 471.048 414.884 469.8C414.884 468.552 414.796 467.592 414.62 466.92C414.444 466.248 414.132 465.776 413.684 465.504C413.252 465.216 412.62 465.072 411.788 465.072C410.956 465.072 410.316 465.216 409.868 465.504C409.436 465.776 409.132 466.248 408.956 466.92C408.78 467.592 408.692 468.552 408.692 469.8C408.692 471.048 408.78 472.008 408.956 472.68C409.132 473.352 409.436 473.832 409.868 474.12C410.316 474.392 410.956 474.528 411.788 474.528ZM420.87 473.4V461.28L420.654 457.8H423.966L423.774 461.28V473.4L423.966 477H420.654L420.87 473.4ZM432.787 477.288C430.643 477.288 429.091 476.656 428.131 475.392C427.187 474.128 426.715 472.256 426.715 469.776C426.715 467.344 427.219 465.48 428.227 464.184C429.235 462.872 430.755 462.216 432.787 462.216C434.739 462.216 436.187 462.72 437.131 463.728C438.091 464.736 438.651 466.336 438.811 468.528L438.163 470.952H429.763C429.811 471.832 429.955 472.52 430.195 473.016C430.435 473.512 430.803 473.872 431.299 474.096C431.811 474.32 432.507 474.432 433.387 474.432C434.427 474.432 435.347 474.328 436.147 474.12C436.963 473.912 437.571 473.64 437.971 473.304L438.379 473.52L437.731 476.064C437.139 476.512 436.459 476.824 435.691 477C434.939 477.192 433.971 477.288 432.787 477.288ZM435.835 468.672C435.819 467.424 435.579 466.512 435.115 465.936C434.651 465.36 433.907 465.072 432.883 465.072C431.795 465.072 431.011 465.344 430.531 465.888C430.067 466.432 429.803 467.36 429.739 468.672H435.835ZM443.75 466.728C443.11 466.728 442.574 466.552 442.142 466.2C441.71 465.848 441.494 465.392 441.494 464.832C441.494 464.272 441.71 463.808 442.142 463.44C442.574 463.072 443.11 462.888 443.75 462.888C444.374 462.888 444.902 463.072 445.334 463.44C445.782 463.808 446.006 464.272 446.006 464.832C446.006 465.392 445.782 465.848 445.334 466.2C444.902 466.552 444.374 466.728 443.75 466.728ZM443.75 477.168C443.11 477.168 442.574 476.992 442.142 476.64C441.71 476.288 441.494 475.832 441.494 475.272C441.494 474.712 441.71 474.248 442.142 473.88C442.574 473.512 443.11 473.328 443.75 473.328C444.374 473.328 444.902 473.512 445.334 473.88C445.782 474.248 446.006 474.712 446.006 475.272C446.006 475.832 445.782 476.288 445.334 476.64C444.902 476.992 444.374 477.168 443.75 477.168ZM466.859 459L466.667 462.48V470.664C466.667 472.936 466.163 474.624 465.155 475.728C464.163 476.832 462.627 477.384 460.547 477.384C458.483 477.384 456.947 476.832 455.939 475.728C454.947 474.624 454.451 472.936 454.451 470.664V462.48L454.259 459H457.667L457.451 462.48V470.664C457.451 471.992 457.691 472.96 458.171 473.568C458.667 474.16 459.459 474.456 460.547 474.456C461.635 474.456 462.427 474.16 462.923 473.568C463.419 472.96 463.667 471.992 463.667 470.664V462.48L463.451 459H466.859ZM483.602 477H479.57L477.746 473.4L475.85 470.184L473.954 473.4L472.25 477H468.29L470.738 473.4L473.954 467.856L470.906 462.48L468.578 459H472.586L474.242 462.48L475.922 465.36L477.53 462.48L479.138 459H483.05L480.746 462.48L477.842 467.736L481.13 473.4L483.602 477ZM485.729 475.32L488.873 461.28L489.353 457.8H492.833L491.873 461.28L488.729 475.32L488.225 478.92H484.697L485.729 475.32ZM507.359 459L507.167 462.48V470.664C507.167 472.936 506.663 474.624 505.655 475.728C504.663 476.832 503.127 477.384 501.047 477.384C498.983 477.384 497.447 476.832 496.439 475.728C495.447 474.624 494.951 472.936 494.951 470.664V462.48L494.759 459H498.167L497.951 462.48V470.664C497.951 471.992 498.191 472.96 498.671 473.568C499.167 474.16 499.959 474.456 501.047 474.456C502.135 474.456 502.927 474.16 503.423 473.568C503.919 472.96 504.167 471.992 504.167 470.664V462.48L503.951 459H507.359ZM510.662 473.4V462.48L510.446 459H513.83L513.638 462.48V473.4L513.83 477H510.446L510.662 473.4ZM528.304 459C530.672 459 532.4 459.728 533.488 461.184C534.592 462.64 535.144 464.888 535.144 467.928C535.144 470.984 534.592 473.264 533.488 474.768C532.384 476.256 530.656 477 528.304 477H522.352L522.568 473.4V462.48L522.352 459H528.304ZM528.304 474.144C529.216 474.144 529.936 473.936 530.464 473.52C531.008 473.104 531.4 472.448 531.64 471.552C531.88 470.64 532 469.432 532 467.928C532 466.36 531.88 465.144 531.64 464.28C531.4 463.4 531.016 462.776 530.488 462.408C529.96 462.04 529.232 461.856 528.304 461.856H525.568V474.144H528.304ZM543.576 477.288C541.432 477.288 539.88 476.656 538.92 475.392C537.976 474.128 537.504 472.256 537.504 469.776C537.504 467.344 538.008 465.48 539.016 464.184C540.024 462.872 541.544 462.216 543.576 462.216C545.528 462.216 546.976 462.72 547.92 463.728C548.88 464.736 549.44 466.336 549.6 468.528L548.952 470.952H540.552C540.6 471.832 540.744 472.52 540.984 473.016C541.224 473.512 541.592 473.872 542.088 474.096C542.6 474.32 543.296 474.432 544.176 474.432C545.216 474.432 546.136 474.328 546.936 474.12C547.752 473.912 548.36 473.64 548.76 473.304L549.168 473.52L548.52 476.064C547.928 476.512 547.248 476.824 546.48 477C545.728 477.192 544.76 477.288 543.576 477.288ZM546.624 468.672C546.608 467.424 546.368 466.512 545.904 465.936C545.44 465.36 544.696 465.072 543.672 465.072C542.584 465.072 541.8 465.344 541.32 465.888C540.856 466.432 540.592 467.36 540.528 468.672H546.624ZM556.987 477.24C555.931 477.24 555.043 477.096 554.323 476.808C553.603 476.504 552.891 476 552.187 475.296L551.779 472.656L552.115 472.56C552.819 473.136 553.563 473.576 554.347 473.88C555.131 474.184 555.915 474.336 556.699 474.336C557.547 474.336 558.155 474.24 558.523 474.048C558.907 473.84 559.099 473.512 559.099 473.064C559.099 472.632 558.883 472.272 558.451 471.984C558.035 471.696 557.227 471.36 556.027 470.976C555.019 470.656 554.227 470.312 553.651 469.944C553.091 469.576 552.683 469.144 552.427 468.648C552.187 468.136 552.067 467.488 552.067 466.704C552.067 465.296 552.499 464.208 553.363 463.44C554.227 462.672 555.459 462.288 557.059 462.288C558.035 462.288 558.891 462.408 559.627 462.648C560.379 462.888 561.059 463.264 561.667 463.776L561.187 466.44L560.827 466.536C560.539 466.12 560.051 465.784 559.363 465.528C558.675 465.272 557.979 465.144 557.275 465.144C555.803 465.144 555.067 465.592 555.067 466.488C555.067 466.808 555.147 467.08 555.307 467.304C555.483 467.528 555.771 467.736 556.171 467.928C556.587 468.12 557.203 468.336 558.019 468.576C559.475 469.008 560.515 469.56 561.139 470.232C561.763 470.888 562.075 471.776 562.075 472.896C562.075 474.304 561.635 475.384 560.755 476.136C559.891 476.872 558.635 477.24 556.987 477.24ZM566.568 460.872C566.04 460.872 565.584 460.72 565.2 460.416C564.832 460.112 564.648 459.72 564.648 459.24C564.648 458.76 564.832 458.368 565.2 458.064C565.584 457.76 566.04 457.608 566.568 457.608C567.112 457.608 567.568 457.76 567.936 458.064C568.32 458.368 568.512 458.76 568.512 459.24C568.512 459.72 568.32 460.112 567.936 460.416C567.568 460.72 567.112 460.872 566.568 460.872ZM565.104 473.4V466.08L564.912 462.6H568.224L568.008 466.08V473.4L568.224 477H564.912L565.104 473.4ZM582.565 462.6L582.349 466.176V474.792C582.349 477.192 581.669 479 580.309 480.216C578.949 481.448 577.021 482.064 574.525 482.064L573.229 479.832L573.397 479.64C574.533 479.64 575.557 479.472 576.469 479.136C577.397 478.8 578.125 478.328 578.653 477.72C579.181 477.112 579.445 476.416 579.445 475.632V475.368C579.141 475.944 578.677 476.392 578.053 476.712C577.445 477.032 576.805 477.192 576.133 477.192C574.501 477.192 573.229 476.56 572.317 475.296C571.421 474.016 570.973 472.176 570.973 469.776C570.973 467.216 571.397 465.336 572.245 464.136C573.109 462.92 574.397 462.312 576.109 462.312C576.845 462.312 577.509 462.4 578.101 462.576C578.709 462.752 579.221 463 579.637 463.32L579.757 462.6H582.565ZM576.661 474.408C577.221 474.408 577.749 474.336 578.245 474.192C578.757 474.032 579.157 473.816 579.445 473.544V465.576C578.821 465.304 577.973 465.168 576.901 465.168C576.133 465.168 575.541 465.304 575.125 465.576C574.709 465.832 574.413 466.288 574.237 466.944C574.061 467.6 573.973 468.544 573.973 469.776C573.973 470.944 574.053 471.864 574.213 472.536C574.389 473.192 574.669 473.672 575.053 473.976C575.453 474.264 575.989 474.408 576.661 474.408ZM593.717 473.4V467.16C593.717 466.488 593.557 465.976 593.237 465.624C592.917 465.272 592.445 465.096 591.821 465.096C591.293 465.096 590.757 465.24 590.213 465.528C589.669 465.816 589.213 466.248 588.845 466.824V473.4L589.037 477H585.725L585.941 473.4V466.08L585.725 462.6H588.365L588.845 464.424C589.277 463.768 589.845 463.272 590.549 462.936C591.269 462.6 592.077 462.432 592.973 462.432C594.109 462.432 594.997 462.784 595.637 463.488C596.293 464.192 596.621 465.216 596.621 466.56V473.4L596.813 477H593.525L593.717 473.4ZM605.498 477.288C603.354 477.288 601.802 476.656 600.842 475.392C599.898 474.128 599.426 472.256 599.426 469.776C599.426 467.344 599.93 465.48 600.938 464.184C601.946 462.872 603.466 462.216 605.498 462.216C607.45 462.216 608.898 462.72 609.842 463.728C610.802 464.736 611.362 466.336 611.522 468.528L610.874 470.952H602.474C602.522 471.832 602.666 472.52 602.906 473.016C603.146 473.512 603.514 473.872 604.01 474.096C604.522 474.32 605.218 474.432 606.098 474.432C607.138 474.432 608.058 474.328 608.858 474.12C609.674 473.912 610.282 473.64 610.682 473.304L611.09 473.52L610.442 476.064C609.85 476.512 609.17 476.824 608.402 477C607.65 477.192 606.682 477.288 605.498 477.288ZM608.546 468.672C608.53 467.424 608.29 466.512 607.826 465.936C607.362 465.36 606.618 465.072 605.594 465.072C604.506 465.072 603.722 465.344 603.242 465.888C602.778 466.432 602.514 467.36 602.45 468.672H608.546ZM620.397 462.432C621.421 462.432 622.197 462.544 622.725 462.768L622.245 465.312L621.933 465.528C621.725 465.384 621.429 465.272 621.045 465.192C620.661 465.096 620.229 465.048 619.749 465.048C618.661 465.048 617.797 465.504 617.157 466.416V473.4L617.349 477H614.037L614.253 473.4V466.08L614.037 462.6H616.677L617.085 464.16C617.501 463.584 617.989 463.152 618.549 462.864C619.125 462.576 619.741 462.432 620.397 462.432ZM625.517 473.328C626.221 473.328 626.781 473.528 627.197 473.928C627.613 474.328 627.821 474.864 627.821 475.536C627.821 476.368 627.557 477.208 627.029 478.056C626.501 478.904 625.853 479.496 625.085 479.832L624.317 479.064L624.365 478.968C624.637 478.792 624.869 478.536 625.061 478.2C625.269 477.864 625.381 477.536 625.397 477.216C624.789 477.2 624.277 477.016 623.861 476.664C623.461 476.296 623.261 475.84 623.261 475.296C623.261 474.72 623.469 474.248 623.885 473.88C624.317 473.512 624.861 473.328 625.517 473.328ZM638.982 461.856V466.296H645.27L644.814 469.152H638.982V473.4L639.174 477H635.79L636.006 473.4V462.48L635.79 459H646.446L645.99 461.856H638.982ZM654.944 462.432C655.968 462.432 656.744 462.544 657.272 462.768L656.792 465.312L656.48 465.528C656.272 465.384 655.976 465.272 655.592 465.192C655.208 465.096 654.776 465.048 654.296 465.048C653.208 465.048 652.344 465.504 651.704 466.416V473.4L651.896 477H648.584L648.8 473.4V466.08L648.584 462.6H651.224L651.632 464.16C652.048 463.584 652.536 463.152 653.096 462.864C653.672 462.576 654.288 462.432 654.944 462.432ZM664.725 477.384C662.613 477.384 661.069 476.752 660.093 475.488C659.117 474.208 658.629 472.304 658.629 469.776C658.629 467.248 659.117 465.36 660.093 464.112C661.069 462.848 662.613 462.216 664.725 462.216C666.837 462.216 668.381 462.848 669.357 464.112C670.333 465.36 670.821 467.248 670.821 469.776C670.821 472.304 670.333 474.208 669.357 475.488C668.381 476.752 666.837 477.384 664.725 477.384ZM664.725 474.528C665.557 474.528 666.189 474.392 666.621 474.12C667.069 473.832 667.381 473.352 667.557 472.68C667.733 472.008 667.821 471.048 667.821 469.8C667.821 468.552 667.733 467.592 667.557 466.92C667.381 466.248 667.069 465.776 666.621 465.504C666.189 465.216 665.557 465.072 664.725 465.072C663.893 465.072 663.253 465.216 662.805 465.504C662.373 465.776 662.069 466.248 661.893 466.92C661.717 467.592 661.629 468.552 661.629 469.8C661.629 471.048 661.717 472.008 661.893 472.68C662.069 473.352 662.373 473.832 662.805 474.12C663.253 474.392 663.893 474.528 664.725 474.528ZM681.584 473.4V467.16C681.584 466.488 681.424 465.976 681.104 465.624C680.784 465.272 680.312 465.096 679.688 465.096C679.16 465.096 678.624 465.24 678.08 465.528C677.536 465.816 677.08 466.248 676.712 466.824V473.4L676.904 477H673.592L673.808 473.4V466.08L673.592 462.6H676.232L676.712 464.424C677.144 463.768 677.712 463.272 678.416 462.936C679.136 462.6 679.944 462.432 680.84 462.432C681.976 462.432 682.864 462.784 683.504 463.488C684.16 464.192 684.488 465.216 684.488 466.56V473.4L684.68 477H681.392L681.584 473.4ZM687.245 463.44L688.781 462.6L689.501 459.6H691.685V462.6H695.621V465.36H691.685V472.464C691.685 473.76 692.205 474.408 693.245 474.408C693.757 474.408 694.245 474.304 694.709 474.096C695.173 473.872 695.541 473.592 695.813 473.256L696.221 473.472L695.597 475.992C695.037 476.472 694.525 476.808 694.061 477C693.613 477.192 693.093 477.288 692.501 477.288C691.189 477.288 690.237 476.88 689.645 476.064C689.069 475.248 688.781 473.856 688.781 471.888V465.36H687.245V463.44ZM697.813 468.216H707.437V471H697.813V468.216ZM715.701 477.288C713.557 477.288 712.005 476.656 711.045 475.392C710.101 474.128 709.629 472.256 709.629 469.776C709.629 467.344 710.133 465.48 711.141 464.184C712.149 462.872 713.669 462.216 715.701 462.216C717.653 462.216 719.101 462.72 720.045 463.728C721.005 464.736 721.565 466.336 721.725 468.528L721.077 470.952H712.677C712.725 471.832 712.869 472.52 713.109 473.016C713.349 473.512 713.717 473.872 714.213 474.096C714.725 474.32 715.421 474.432 716.301 474.432C717.341 474.432 718.261 474.328 719.061 474.12C719.877 473.912 720.485 473.64 720.885 473.304L721.293 473.52L720.645 476.064C720.053 476.512 719.373 476.824 718.605 477C717.853 477.192 716.885 477.288 715.701 477.288ZM718.749 468.672C718.733 467.424 718.493 466.512 718.029 465.936C717.565 465.36 716.821 465.072 715.797 465.072C714.709 465.072 713.925 465.344 713.445 465.888C712.981 466.432 712.717 467.36 712.653 468.672H718.749ZM732.232 473.4V467.16C732.232 466.488 732.072 465.976 731.752 465.624C731.432 465.272 730.96 465.096 730.336 465.096C729.808 465.096 729.272 465.24 728.728 465.528C728.184 465.816 727.728 466.248 727.36 466.824V473.4L727.552 477H724.24L724.456 473.4V466.08L724.24 462.6H726.88L727.36 464.424C727.792 463.768 728.36 463.272 729.064 462.936C729.784 462.6 730.592 462.432 731.488 462.432C732.624 462.432 733.512 462.784 734.152 463.488C734.808 464.192 735.136 465.216 735.136 466.56V473.4L735.328 477H732.04L732.232 473.4ZM749.318 473.424L749.534 477H746.51L746.414 475.56C746.126 476.04 745.678 476.432 745.07 476.736C744.462 477.04 743.862 477.192 743.27 477.192C741.558 477.192 740.238 476.56 739.31 475.296C738.398 474.032 737.942 472.192 737.942 469.776C737.942 467.216 738.366 465.336 739.214 464.136C740.078 462.92 741.366 462.312 743.078 462.312C744.454 462.312 745.566 462.6 746.414 463.176V461.28L746.222 457.8H749.534L749.318 461.28V473.424ZM743.63 474.408C744.19 474.408 744.718 474.336 745.214 474.192C745.726 474.032 746.126 473.816 746.414 473.544V465.576C745.79 465.304 744.942 465.168 743.87 465.168C743.102 465.168 742.51 465.304 742.094 465.576C741.678 465.832 741.382 466.288 741.206 466.944C741.03 467.6 740.942 468.544 740.942 469.776C740.942 470.944 741.022 471.864 741.182 472.536C741.358 473.192 741.638 473.672 742.022 473.976C742.422 474.264 742.958 474.408 743.63 474.408ZM768.771 473.424L768.987 477H765.963L765.867 475.56C765.579 476.04 765.131 476.432 764.523 476.736C763.915 477.04 763.315 477.192 762.723 477.192C761.011 477.192 759.691 476.56 758.763 475.296C757.851 474.032 757.395 472.192 757.395 469.776C757.395 467.216 757.819 465.336 758.667 464.136C759.531 462.92 760.819 462.312 762.531 462.312C763.907 462.312 765.019 462.6 765.867 463.176V461.28L765.675 457.8H768.987L768.771 461.28V473.424ZM763.083 474.408C763.643 474.408 764.171 474.336 764.667 474.192C765.179 474.032 765.579 473.816 765.867 473.544V465.576C765.243 465.304 764.395 465.168 763.323 465.168C762.555 465.168 761.963 465.304 761.547 465.576C761.131 465.832 760.835 466.288 760.659 466.944C760.483 467.6 760.395 468.544 760.395 469.776C760.395 470.944 760.475 471.864 760.635 472.536C760.811 473.192 761.091 473.672 761.475 473.976C761.875 474.264 762.411 474.408 763.083 474.408ZM777.811 477.288C775.667 477.288 774.115 476.656 773.155 475.392C772.211 474.128 771.739 472.256 771.739 469.776C771.739 467.344 772.243 465.48 773.251 464.184C774.259 462.872 775.779 462.216 777.811 462.216C779.763 462.216 781.211 462.72 782.155 463.728C783.115 464.736 783.675 466.336 783.835 468.528L783.187 470.952H774.787C774.835 471.832 774.979 472.52 775.219 473.016C775.459 473.512 775.827 473.872 776.323 474.096C776.835 474.32 777.531 474.432 778.411 474.432C779.451 474.432 780.371 474.328 781.171 474.12C781.987 473.912 782.595 473.64 782.995 473.304L783.403 473.52L782.755 476.064C782.163 476.512 781.483 476.824 780.715 477C779.963 477.192 778.995 477.288 777.811 477.288ZM780.859 468.672C780.843 467.424 780.603 466.512 780.139 465.936C779.675 465.36 778.931 465.072 777.907 465.072C776.819 465.072 776.035 465.344 775.555 465.888C775.091 466.432 774.827 467.36 774.763 468.672H780.859ZM797.706 462.6L796.482 466.08L793.386 477H789.138L786.09 466.08L784.842 462.6H788.538L789.162 466.08L791.274 474.696L793.362 466.08L794.034 462.6H797.706ZM804.998 477.288C802.854 477.288 801.302 476.656 800.342 475.392C799.398 474.128 798.926 472.256 798.926 469.776C798.926 467.344 799.43 465.48 800.438 464.184C801.446 462.872 802.966 462.216 804.998 462.216C806.95 462.216 808.398 462.72 809.342 463.728C810.302 464.736 810.862 466.336 811.022 468.528L810.374 470.952H801.974C802.022 471.832 802.166 472.52 802.406 473.016C802.646 473.512 803.014 473.872 803.51 474.096C804.022 474.32 804.718 474.432 805.598 474.432C806.638 474.432 807.558 474.328 808.358 474.12C809.174 473.912 809.782 473.64 810.182 473.304L810.59 473.52L809.942 476.064C809.35 476.512 808.67 476.824 807.902 477C807.15 477.192 806.182 477.288 804.998 477.288ZM808.046 468.672C808.03 467.424 807.79 466.512 807.326 465.936C806.862 465.36 806.118 465.072 805.094 465.072C804.006 465.072 803.222 465.344 802.742 465.888C802.278 466.432 802.014 467.36 801.95 468.672H808.046ZM813.753 473.4V461.28L813.537 457.8H816.849L816.657 461.28V473.4L816.849 477H813.537L813.753 473.4ZM825.694 477.384C823.582 477.384 822.038 476.752 821.062 475.488C820.086 474.208 819.598 472.304 819.598 469.776C819.598 467.248 820.086 465.36 821.062 464.112C822.038 462.848 823.582 462.216 825.694 462.216C827.806 462.216 829.35 462.848 830.326 464.112C831.302 465.36 831.79 467.248 831.79 469.776C831.79 472.304 831.302 474.208 830.326 475.488C829.35 476.752 827.806 477.384 825.694 477.384ZM825.694 474.528C826.526 474.528 827.158 474.392 827.59 474.12C828.038 473.832 828.35 473.352 828.526 472.68C828.702 472.008 828.79 471.048 828.79 469.8C828.79 468.552 828.702 467.592 828.526 466.92C828.35 466.248 828.038 465.776 827.59 465.504C827.158 465.216 826.526 465.072 825.694 465.072C824.862 465.072 824.222 465.216 823.774 465.504C823.342 465.776 823.038 466.248 822.862 466.92C822.686 467.592 822.598 468.552 822.598 469.8C822.598 471.048 822.686 472.008 822.862 472.68C823.038 473.352 823.342 473.832 823.774 474.12C824.222 474.392 824.862 474.528 825.694 474.528ZM841.017 462.312C842.729 462.312 844.009 462.92 844.857 464.136C845.721 465.336 846.153 467.216 846.153 469.776C846.153 472.192 845.689 474.032 844.761 475.296C843.849 476.56 842.537 477.192 840.825 477.192C840.233 477.192 839.633 477.048 839.025 476.76C838.433 476.456 837.985 476.064 837.681 475.584V478.2L837.873 481.8H834.561L834.777 478.2V466.176L834.561 462.6H837.369L837.489 463.32C837.889 463 838.393 462.752 839.001 462.576C839.625 462.4 840.297 462.312 841.017 462.312ZM840.465 474.408C841.137 474.408 841.665 474.264 842.049 473.976C842.449 473.672 842.729 473.192 842.889 472.536C843.065 471.864 843.153 470.944 843.153 469.776C843.153 468.544 843.065 467.6 842.889 466.944C842.713 466.288 842.417 465.832 842.001 465.576C841.585 465.304 840.993 465.168 840.225 465.168C839.153 465.168 838.305 465.304 837.681 465.576V473.544C837.969 473.816 838.361 474.032 838.857 474.192C839.369 474.336 839.905 474.408 840.465 474.408ZM854.568 477.288C852.424 477.288 850.872 476.656 849.912 475.392C848.968 474.128 848.496 472.256 848.496 469.776C848.496 467.344 849 465.48 850.008 464.184C851.016 462.872 852.536 462.216 854.568 462.216C856.52 462.216 857.968 462.72 858.912 463.728C859.872 464.736 860.432 466.336 860.592 468.528L859.944 470.952H851.544C851.592 471.832 851.736 472.52 851.976 473.016C852.216 473.512 852.584 473.872 853.08 474.096C853.592 474.32 854.288 474.432 855.168 474.432C856.208 474.432 857.128 474.328 857.928 474.12C858.744 473.912 859.352 473.64 859.752 473.304L860.16 473.52L859.512 476.064C858.92 476.512 858.24 476.824 857.472 477C856.72 477.192 855.752 477.288 854.568 477.288ZM857.616 468.672C857.6 467.424 857.36 466.512 856.896 465.936C856.432 465.36 855.688 465.072 854.664 465.072C853.576 465.072 852.792 465.344 852.312 465.888C851.848 466.432 851.584 467.36 851.52 468.672H857.616ZM869.467 462.432C870.491 462.432 871.267 462.544 871.795 462.768L871.315 465.312L871.003 465.528C870.795 465.384 870.499 465.272 870.115 465.192C869.731 465.096 869.299 465.048 868.819 465.048C867.731 465.048 866.867 465.504 866.227 466.416V473.4L866.419 477H863.107L863.323 473.4V466.08L863.107 462.6H865.747L866.155 464.16C866.571 463.584 867.059 463.152 867.619 462.864C868.195 462.576 868.811 462.432 869.467 462.432Z" fill="#656376"/>
<path d="M485.984 506.976L485.72 507.048L483.488 506.76H481.184V518.4L481.376 522H477.992L478.208 518.4V506.76H475.904L473.672 507.048L473.408 506.976L473.864 504H485.504L485.984 506.976ZM492.366 522.384C490.254 522.384 488.71 521.752 487.734 520.488C486.758 519.208 486.27 517.304 486.27 514.776C486.27 512.248 486.758 510.36 487.734 509.112C488.71 507.848 490.254 507.216 492.366 507.216C494.478 507.216 496.022 507.848 496.998 509.112C497.974 510.36 498.462 512.248 498.462 514.776C498.462 517.304 497.974 519.208 496.998 520.488C496.022 521.752 494.478 522.384 492.366 522.384ZM492.366 519.528C493.198 519.528 493.83 519.392 494.262 519.12C494.71 518.832 495.022 518.352 495.198 517.68C495.374 517.008 495.462 516.048 495.462 514.8C495.462 513.552 495.374 512.592 495.198 511.92C495.022 511.248 494.71 510.776 494.262 510.504C493.83 510.216 493.198 510.072 492.366 510.072C491.534 510.072 490.894 510.216 490.446 510.504C490.014 510.776 489.71 511.248 489.534 511.92C489.358 512.592 489.27 513.552 489.27 514.8C489.27 516.048 489.358 517.008 489.534 517.68C489.71 518.352 490.014 518.832 490.446 519.12C490.894 519.392 491.534 519.528 492.366 519.528ZM506.92 522.384C504.808 522.384 503.264 521.752 502.288 520.488C501.312 519.208 500.824 517.304 500.824 514.776C500.824 512.248 501.312 510.36 502.288 509.112C503.264 507.848 504.808 507.216 506.92 507.216C509.032 507.216 510.576 507.848 511.552 509.112C512.528 510.36 513.016 512.248 513.016 514.776C513.016 517.304 512.528 519.208 511.552 520.488C510.576 521.752 509.032 522.384 506.92 522.384ZM506.92 519.528C507.752 519.528 508.384 519.392 508.816 519.12C509.264 518.832 509.576 518.352 509.752 517.68C509.928 517.008 510.016 516.048 510.016 514.8C510.016 513.552 509.928 512.592 509.752 511.92C509.576 511.248 509.264 510.776 508.816 510.504C508.384 510.216 507.752 510.072 506.92 510.072C506.088 510.072 505.448 510.216 505 510.504C504.568 510.776 504.264 511.248 504.088 511.92C503.912 512.592 503.824 513.552 503.824 514.8C503.824 516.048 503.912 517.008 504.088 517.68C504.264 518.352 504.568 518.832 505 519.12C505.448 519.392 506.088 519.528 506.92 519.528ZM516.003 518.4V506.28L515.787 502.8H519.099L518.907 506.28V518.4L519.099 522H515.787L516.003 518.4ZM524.68 511.728C524.04 511.728 523.504 511.552 523.072 511.2C522.64 510.848 522.424 510.392 522.424 509.832C522.424 509.272 522.64 508.808 523.072 508.44C523.504 508.072 524.04 507.888 524.68 507.888C525.304 507.888 525.832 508.072 526.264 508.44C526.712 508.808 526.936 509.272 526.936 509.832C526.936 510.392 526.712 510.848 526.264 511.2C525.832 511.552 525.304 511.728 524.68 511.728ZM524.68 522.168C524.04 522.168 523.504 521.992 523.072 521.64C522.64 521.288 522.424 520.832 522.424 520.272C522.424 519.712 522.64 519.248 523.072 518.88C523.504 518.512 524.04 518.328 524.68 518.328C525.304 518.328 525.832 518.512 526.264 518.88C526.712 519.248 526.936 519.712 526.936 520.272C526.936 520.832 526.712 521.288 526.264 521.64C525.832 521.992 525.304 522.168 524.68 522.168ZM538.693 506.856V511.296H544.981L544.525 514.152H538.693V518.4L538.885 522H535.501L535.717 518.4V507.48L535.501 504H546.157L545.701 506.856H538.693ZM549.927 505.872C549.399 505.872 548.943 505.72 548.559 505.416C548.191 505.112 548.007 504.72 548.007 504.24C548.007 503.76 548.191 503.368 548.559 503.064C548.943 502.76 549.399 502.608 549.927 502.608C550.471 502.608 550.927 502.76 551.295 503.064C551.679 503.368 551.871 503.76 551.871 504.24C551.871 504.72 551.679 505.112 551.295 505.416C550.927 505.72 550.471 505.872 549.927 505.872ZM548.463 518.4V511.08L548.271 507.6H551.583L551.367 511.08V518.4L551.583 522H548.271L548.463 518.4ZM565.924 507.6L565.708 511.176V519.792C565.708 522.192 565.028 524 563.668 525.216C562.308 526.448 560.38 527.064 557.884 527.064L556.588 524.832L556.756 524.64C557.892 524.64 558.916 524.472 559.828 524.136C560.756 523.8 561.484 523.328 562.012 522.72C562.54 522.112 562.804 521.416 562.804 520.632V520.368C562.5 520.944 562.036 521.392 561.412 521.712C560.804 522.032 560.164 522.192 559.492 522.192C557.86 522.192 556.588 521.56 555.676 520.296C554.78 519.016 554.332 517.176 554.332 514.776C554.332 512.216 554.756 510.336 555.604 509.136C556.468 507.92 557.756 507.312 559.468 507.312C560.204 507.312 560.868 507.4 561.46 507.576C562.068 507.752 562.58 508 562.996 508.32L563.116 507.6H565.924ZM560.02 519.408C560.58 519.408 561.108 519.336 561.604 519.192C562.116 519.032 562.516 518.816 562.804 518.544V510.576C562.18 510.304 561.332 510.168 560.26 510.168C559.492 510.168 558.9 510.304 558.484 510.576C558.068 510.832 557.772 511.288 557.596 511.944C557.42 512.6 557.332 513.544 557.332 514.776C557.332 515.944 557.412 516.864 557.572 517.536C557.748 518.192 558.028 518.672 558.412 518.976C558.812 519.264 559.348 519.408 560.02 519.408ZM583.82 518.4V512.16C583.82 511.488 583.66 510.976 583.34 510.624C583.02 510.272 582.548 510.096 581.924 510.096C581.508 510.096 581.076 510.192 580.628 510.384C580.196 510.56 579.804 510.832 579.452 511.2V511.56V518.4L579.668 522H576.356L576.548 518.4V512.16C576.548 511.488 576.388 510.976 576.068 510.624C575.748 510.272 575.276 510.096 574.652 510.096C574.236 510.096 573.812 510.184 573.38 510.36C572.948 510.536 572.556 510.808 572.204 511.176V518.4L572.396 522H569.084L569.3 518.4V511.08L569.084 507.6H571.724L572.108 509.016C572.556 508.504 573.1 508.112 573.74 507.84C574.38 507.568 575.076 507.432 575.828 507.432C576.596 507.432 577.252 507.6 577.796 507.936C578.356 508.272 578.78 508.768 579.068 509.424C579.516 508.784 580.084 508.296 580.772 507.96C581.476 507.608 582.252 507.432 583.1 507.432C584.236 507.432 585.124 507.784 585.764 508.488C586.404 509.192 586.724 510.216 586.724 511.56V518.4L586.94 522H583.628L583.82 518.4ZM589.391 517.992C589.391 517.064 589.607 516.232 590.039 515.496C590.471 514.744 591.055 514.16 591.791 513.744C592.527 513.312 593.335 513.096 594.215 513.096C594.951 513.096 595.639 513.16 596.279 513.288C596.919 513.416 597.439 513.592 597.839 513.816V512.472C597.839 511.688 597.583 511.096 597.071 510.696C596.575 510.296 595.839 510.096 594.863 510.096C593.903 510.096 593.047 510.264 592.295 510.6C591.543 510.936 590.967 511.416 590.567 512.04L590.303 511.992L590.687 508.848C591.215 508.352 591.887 507.968 592.703 507.696C593.535 507.408 594.399 507.264 595.295 507.264C596.975 507.264 598.303 507.672 599.279 508.488C600.255 509.304 600.743 510.432 600.743 511.872V518.424L600.935 522H597.911L597.839 520.608C597.535 521.12 597.015 521.544 596.279 521.88C595.543 522.216 594.759 522.384 593.927 522.384C592.519 522.384 591.407 521.992 590.591 521.208C589.791 520.424 589.391 519.352 589.391 517.992ZM592.391 517.776C592.391 518.48 592.551 519 592.871 519.336C593.191 519.656 593.719 519.816 594.455 519.816C595.063 519.816 595.687 519.696 596.327 519.456C596.967 519.2 597.471 518.872 597.839 518.472V516.336C597.455 516.112 596.959 515.936 596.351 515.808C595.759 515.664 595.143 515.592 594.503 515.592C593.767 515.592 593.231 515.776 592.895 516.144C592.559 516.496 592.391 517.04 592.391 517.776ZM605.783 518.328C606.487 518.328 607.047 518.528 607.463 518.928C607.879 519.328 608.087 519.864 608.087 520.536C608.087 521.368 607.823 522.208 607.295 523.056C606.767 523.904 606.119 524.496 605.351 524.832L604.583 524.064L604.631 523.968C604.903 523.792 605.135 523.536 605.327 523.2C605.535 522.864 605.647 522.536 605.663 522.216C605.055 522.2 604.543 522.016 604.127 521.664C603.727 521.296 603.527 520.84 603.527 520.296C603.527 519.72 603.735 519.248 604.151 518.88C604.583 518.512 605.127 518.328 605.783 518.328ZM629.496 522H625.152L623.256 518.4L622.152 516.72H619.248V518.4L619.488 522H616.056L616.272 518.4V507.48L616.056 504H622.344C624.296 504 625.784 504.536 626.808 505.608C627.848 506.68 628.368 508.256 628.368 510.336C628.368 511.696 628.08 512.872 627.504 513.864C626.944 514.84 626.168 515.576 625.176 516.072L626.712 518.4L629.496 522ZM619.248 513.864H621.432C622.792 513.864 623.768 513.592 624.36 513.048C624.952 512.504 625.248 511.6 625.248 510.336C625.248 509.056 624.96 508.16 624.384 507.648C623.824 507.12 622.856 506.856 621.48 506.856H619.248V513.864ZM642.203 518.448L642.395 522H639.371L639.251 520.224C638.787 520.896 638.195 521.408 637.475 521.76C636.771 522.112 635.995 522.288 635.147 522.288C634.011 522.288 633.115 521.92 632.459 521.184C631.819 520.432 631.499 519.384 631.499 518.04V511.2L631.307 507.6H634.619L634.403 511.2V517.44C634.403 518.144 634.571 518.688 634.907 519.072C635.243 519.44 635.707 519.624 636.299 519.624C636.811 519.624 637.339 519.464 637.883 519.144C638.427 518.824 638.899 518.368 639.299 517.776V511.2L639.083 507.6H642.395L642.203 511.2V518.448ZM652.017 507.312C653.729 507.312 655.009 507.92 655.857 509.136C656.721 510.336 657.153 512.216 657.153 514.776C657.153 517.192 656.689 519.032 655.761 520.296C654.849 521.56 653.537 522.192 651.825 522.192C651.233 522.192 650.633 522.04 650.025 521.736C649.417 521.432 648.969 521.04 648.681 520.56L648.585 522H645.561L645.777 518.424V506.28L645.561 502.8H648.873L648.681 506.28V508.176C649.529 507.6 650.641 507.312 652.017 507.312ZM651.465 519.408C652.137 519.408 652.665 519.264 653.049 518.976C653.449 518.672 653.729 518.192 653.889 517.536C654.065 516.864 654.153 515.944 654.153 514.776C654.153 513.544 654.065 512.6 653.889 511.944C653.713 511.288 653.417 510.832 653.001 510.576C652.585 510.304 651.993 510.168 651.225 510.168C650.105 510.168 649.257 510.296 648.681 510.552V518.544C648.969 518.816 649.361 519.032 649.857 519.192C650.369 519.336 650.905 519.408 651.465 519.408ZM671.191 507.6L669.967 511.08L666.871 522C665.959 524.304 664.663 526.032 662.983 527.184L660.535 524.88L660.679 524.592C661.207 524.448 661.799 524.112 662.455 523.584C663.111 523.056 663.559 522.528 663.799 522H662.623L659.575 511.08L658.327 507.6H662.023L662.647 511.08L664.759 519.696L666.847 511.08L667.519 507.6H671.191ZM683.827 522.384C681.715 522.384 680.171 521.752 679.195 520.488C678.219 519.208 677.731 517.304 677.731 514.776C677.731 512.248 678.219 510.36 679.195 509.112C680.171 507.848 681.715 507.216 683.827 507.216C685.939 507.216 687.483 507.848 688.459 509.112C689.435 510.36 689.923 512.248 689.923 514.776C689.923 517.304 689.435 519.208 688.459 520.488C687.483 521.752 685.939 522.384 683.827 522.384ZM683.827 519.528C684.659 519.528 685.291 519.392 685.723 519.12C686.171 518.832 686.483 518.352 686.659 517.68C686.835 517.008 686.923 516.048 686.923 514.8C686.923 513.552 686.835 512.592 686.659 511.92C686.483 511.248 686.171 510.776 685.723 510.504C685.291 510.216 684.659 510.072 683.827 510.072C682.995 510.072 682.355 510.216 681.907 510.504C681.475 510.776 681.171 511.248 680.995 511.92C680.819 512.592 680.731 513.552 680.731 514.8C680.731 516.048 680.819 517.008 680.995 517.68C681.171 518.352 681.475 518.832 681.907 519.12C682.355 519.392 682.995 519.528 683.827 519.528ZM700.685 518.4V512.16C700.685 511.488 700.525 510.976 700.205 510.624C699.885 510.272 699.413 510.096 698.789 510.096C698.261 510.096 697.725 510.24 697.181 510.528C696.637 510.816 696.181 511.248 695.813 511.824V518.4L696.005 522H692.693L692.909 518.4V511.08L692.693 507.6H695.333L695.813 509.424C696.245 508.768 696.813 508.272 697.517 507.936C698.237 507.6 699.045 507.432 699.941 507.432C701.077 507.432 701.965 507.784 702.605 508.488C703.261 509.192 703.589 510.216 703.589 511.56V518.4L703.781 522H700.493L700.685 518.4ZM725.472 522H721.128L719.232 518.4L718.128 516.72H715.224V518.4L715.464 522H712.032L712.248 518.4V507.48L712.032 504H718.32C720.272 504 721.76 504.536 722.784 505.608C723.824 506.68 724.344 508.256 724.344 510.336C724.344 511.696 724.056 512.872 723.48 513.864C722.92 514.84 722.144 515.576 721.152 516.072L722.688 518.4L725.472 522ZM715.224 513.864H717.408C718.768 513.864 719.744 513.592 720.336 513.048C720.928 512.504 721.224 511.6 721.224 510.336C721.224 509.056 720.936 508.16 720.36 507.648C719.8 507.12 718.832 506.856 717.456 506.856H715.224V513.864ZM726.876 517.992C726.876 517.064 727.092 516.232 727.524 515.496C727.956 514.744 728.54 514.16 729.276 513.744C730.012 513.312 730.82 513.096 731.7 513.096C732.436 513.096 733.124 513.16 733.764 513.288C734.404 513.416 734.924 513.592 735.324 513.816V512.472C735.324 511.688 735.068 511.096 734.556 510.696C734.06 510.296 733.324 510.096 732.348 510.096C731.388 510.096 730.532 510.264 729.78 510.6C729.028 510.936 728.452 511.416 728.052 512.04L727.788 511.992L728.172 508.848C728.7 508.352 729.372 507.968 730.188 507.696C731.02 507.408 731.884 507.264 732.78 507.264C734.46 507.264 735.788 507.672 736.764 508.488C737.74 509.304 738.228 510.432 738.228 511.872V518.424L738.42 522H735.396L735.324 520.608C735.02 521.12 734.5 521.544 733.764 521.88C733.028 522.216 732.244 522.384 731.412 522.384C730.004 522.384 728.892 521.992 728.076 521.208C727.276 520.424 726.876 519.352 726.876 517.992ZM729.876 517.776C729.876 518.48 730.036 519 730.356 519.336C730.676 519.656 731.204 519.816 731.94 519.816C732.548 519.816 733.172 519.696 733.812 519.456C734.452 519.2 734.956 518.872 735.324 518.472V516.336C734.94 516.112 734.444 515.936 733.836 515.808C733.244 515.664 732.628 515.592 731.988 515.592C731.252 515.592 730.716 515.776 730.38 516.144C730.044 516.496 729.876 517.04 729.876 517.776ZM743.075 505.872C742.547 505.872 742.091 505.72 741.707 505.416C741.339 505.112 741.155 504.72 741.155 504.24C741.155 503.76 741.339 503.368 741.707 503.064C742.091 502.76 742.547 502.608 743.075 502.608C743.619 502.608 744.075 502.76 744.443 503.064C744.827 503.368 745.019 503.76 745.019 504.24C745.019 504.72 744.827 505.112 744.443 505.416C744.075 505.72 743.619 505.872 743.075 505.872ZM741.611 518.4V511.08L741.419 507.6H744.731L744.515 511.08V518.4L744.731 522H741.419L741.611 518.4ZM748.105 518.4V506.28L747.889 502.8H751.201L751.009 506.28V518.4L751.201 522H747.889L748.105 518.4ZM759.229 522.24C758.173 522.24 757.285 522.096 756.565 521.808C755.845 521.504 755.133 521 754.429 520.296L754.021 517.656L754.357 517.56C755.061 518.136 755.805 518.576 756.589 518.88C757.373 519.184 758.157 519.336 758.941 519.336C759.789 519.336 760.397 519.24 760.765 519.048C761.149 518.84 761.341 518.512 761.341 518.064C761.341 517.632 761.125 517.272 760.693 516.984C760.277 516.696 759.469 516.36 758.269 515.976C757.261 515.656 756.469 515.312 755.893 514.944C755.333 514.576 754.925 514.144 754.669 513.648C754.429 513.136 754.309 512.488 754.309 511.704C754.309 510.296 754.741 509.208 755.605 508.44C756.469 507.672 757.701 507.288 759.301 507.288C760.277 507.288 761.133 507.408 761.869 507.648C762.621 507.888 763.301 508.264 763.909 508.776L763.429 511.44L763.069 511.536C762.781 511.12 762.293 510.784 761.605 510.528C760.917 510.272 760.221 510.144 759.517 510.144C758.045 510.144 757.309 510.592 757.309 511.488C757.309 511.808 757.389 512.08 757.549 512.304C757.725 512.528 758.013 512.736 758.413 512.928C758.829 513.12 759.445 513.336 760.261 513.576C761.717 514.008 762.757 514.56 763.381 515.232C764.005 515.888 764.317 516.776 764.317 517.896C764.317 519.304 763.877 520.384 762.997 521.136C762.133 521.872 760.877 522.24 759.229 522.24Z" fill="#656376"/>
<path d="M528.656 549C531.024 549 532.752 549.728 533.84 551.184C534.944 552.64 535.496 554.888 535.496 557.928C535.496 560.984 534.944 563.264 533.84 564.768C532.736 566.256 531.008 567 528.656 567H522.704L522.92 563.4V552.48L522.704 549H528.656ZM528.656 564.144C529.568 564.144 530.288 563.936 530.816 563.52C531.36 563.104 531.752 562.448 531.992 561.552C532.232 560.64 532.352 559.432 532.352 557.928C532.352 556.36 532.232 555.144 531.992 554.28C531.752 553.4 531.368 552.776 530.84 552.408C530.312 552.04 529.584 551.856 528.656 551.856H525.92V564.144H528.656ZM549.016 563.448L549.208 567H546.184L546.064 565.224C545.6 565.896 545.008 566.408 544.288 566.76C543.584 567.112 542.808 567.288 541.96 567.288C540.824 567.288 539.928 566.92 539.272 566.184C538.632 565.432 538.312 564.384 538.312 563.04V556.2L538.12 552.6H541.432L541.216 556.2V562.44C541.216 563.144 541.384 563.688 541.72 564.072C542.056 564.44 542.52 564.624 543.112 564.624C543.624 564.624 544.152 564.464 544.696 564.144C545.24 563.824 545.712 563.368 546.112 562.776V556.2L545.896 552.6H549.208L549.016 556.2V563.448ZM558.733 552.432C559.757 552.432 560.533 552.544 561.061 552.768L560.581 555.312L560.269 555.528C560.061 555.384 559.765 555.272 559.381 555.192C558.997 555.096 558.565 555.048 558.085 555.048C556.997 555.048 556.133 555.504 555.493 556.416V563.4L555.685 567H552.373L552.589 563.4V556.08L552.373 552.6H555.013L555.421 554.16C555.837 553.584 556.325 553.152 556.885 552.864C557.461 552.576 558.077 552.432 558.733 552.432ZM562.18 562.992C562.18 562.064 562.396 561.232 562.828 560.496C563.26 559.744 563.844 559.16 564.58 558.744C565.316 558.312 566.124 558.096 567.004 558.096C567.74 558.096 568.428 558.16 569.068 558.288C569.708 558.416 570.228 558.592 570.628 558.816V557.472C570.628 556.688 570.372 556.096 569.86 555.696C569.364 555.296 568.628 555.096 567.652 555.096C566.692 555.096 565.836 555.264 565.084 555.6C564.332 555.936 563.756 556.416 563.356 557.04L563.092 556.992L563.476 553.848C564.004 553.352 564.676 552.968 565.492 552.696C566.324 552.408 567.188 552.264 568.084 552.264C569.764 552.264 571.092 552.672 572.068 553.488C573.044 554.304 573.532 555.432 573.532 556.872V563.424L573.724 567H570.7L570.628 565.608C570.324 566.12 569.804 566.544 569.068 566.88C568.332 567.216 567.548 567.384 566.716 567.384C565.308 567.384 564.196 566.992 563.38 566.208C562.58 565.424 562.18 564.352 562.18 562.992ZM565.18 562.776C565.18 563.48 565.34 564 565.66 564.336C565.98 564.656 566.508 564.816 567.244 564.816C567.852 564.816 568.476 564.696 569.116 564.456C569.756 564.2 570.26 563.872 570.628 563.472V561.336C570.244 561.112 569.748 560.936 569.14 560.808C568.548 560.664 567.932 560.592 567.292 560.592C566.556 560.592 566.02 560.776 565.684 561.144C565.348 561.496 565.18 562.04 565.18 562.776ZM576.292 553.44L577.828 552.6L578.548 549.6H580.732V552.6H584.668V555.36H580.732V562.464C580.732 563.76 581.252 564.408 582.292 564.408C582.804 564.408 583.292 564.304 583.756 564.096C584.22 563.872 584.588 563.592 584.86 563.256L585.268 563.472L584.644 565.992C584.084 566.472 583.572 566.808 583.108 567C582.66 567.192 582.14 567.288 581.548 567.288C580.236 567.288 579.284 566.88 578.692 566.064C578.116 565.248 577.828 563.856 577.828 561.888V555.36H576.292V553.44ZM589.044 550.872C588.516 550.872 588.06 550.72 587.676 550.416C587.308 550.112 587.124 549.72 587.124 549.24C587.124 548.76 587.308 548.368 587.676 548.064C588.06 547.76 588.516 547.608 589.044 547.608C589.588 547.608 590.044 547.76 590.412 548.064C590.796 548.368 590.988 548.76 590.988 549.24C590.988 549.72 590.796 550.112 590.412 550.416C590.044 550.72 589.588 550.872 589.044 550.872ZM587.58 563.4V556.08L587.388 552.6H590.7L590.484 556.08V563.4L590.7 567H587.388L587.58 563.4ZM599.545 567.384C597.433 567.384 595.889 566.752 594.913 565.488C593.937 564.208 593.449 562.304 593.449 559.776C593.449 557.248 593.937 555.36 594.913 554.112C595.889 552.848 597.433 552.216 599.545 552.216C601.657 552.216 603.201 552.848 604.177 554.112C605.153 555.36 605.641 557.248 605.641 559.776C605.641 562.304 605.153 564.208 604.177 565.488C603.201 566.752 601.657 567.384 599.545 567.384ZM599.545 564.528C600.377 564.528 601.009 564.392 601.441 564.12C601.889 563.832 602.201 563.352 602.377 562.68C602.553 562.008 602.641 561.048 602.641 559.8C602.641 558.552 602.553 557.592 602.377 556.92C602.201 556.248 601.889 555.776 601.441 555.504C601.009 555.216 600.377 555.072 599.545 555.072C598.713 555.072 598.073 555.216 597.625 555.504C597.193 555.776 596.889 556.248 596.713 556.92C596.537 557.592 596.449 558.552 596.449 559.8C596.449 561.048 596.537 562.008 596.713 562.68C596.889 563.352 597.193 563.832 597.625 564.12C598.073 564.392 598.713 564.528 599.545 564.528ZM616.404 563.4V557.16C616.404 556.488 616.244 555.976 615.924 555.624C615.604 555.272 615.132 555.096 614.508 555.096C613.98 555.096 613.444 555.24 612.9 555.528C612.356 555.816 611.9 556.248 611.532 556.824V563.4L611.724 567H608.412L608.628 563.4V556.08L608.412 552.6H611.052L611.532 554.424C611.964 553.768 612.532 553.272 613.236 552.936C613.956 552.6 614.764 552.432 615.66 552.432C616.796 552.432 617.684 552.784 618.324 553.488C618.98 554.192 619.308 555.216 619.308 556.56V563.4L619.5 567H616.212L616.404 563.4ZM624.946 556.728C624.306 556.728 623.77 556.552 623.338 556.2C622.906 555.848 622.69 555.392 622.69 554.832C622.69 554.272 622.906 553.808 623.338 553.44C623.77 553.072 624.306 552.888 624.946 552.888C625.57 552.888 626.098 553.072 626.53 553.44C626.978 553.808 627.202 554.272 627.202 554.832C627.202 555.392 626.978 555.848 626.53 556.2C626.098 556.552 625.57 556.728 624.946 556.728ZM624.946 567.168C624.306 567.168 623.77 566.992 623.338 566.64C622.906 566.288 622.69 565.832 622.69 565.272C622.69 564.712 622.906 564.248 623.338 563.88C623.77 563.512 624.306 563.328 624.946 563.328C625.57 563.328 626.098 563.512 626.53 563.88C626.978 564.248 627.202 564.712 627.202 565.272C627.202 565.832 626.978 566.288 626.53 566.64C626.098 566.992 625.57 567.168 624.946 567.168ZM649.255 567H645.607L644.935 563.4L644.815 562.968L638.575 563.016L638.455 563.4L637.759 567H634.519L635.719 563.4L638.839 552.6L639.655 549H644.023L644.815 552.6L648.055 563.4L649.255 567ZM643.999 560.112L641.647 552.024L639.367 560.16L643.999 560.112ZM662.055 563.448L662.247 567H659.223L659.103 565.224C658.639 565.896 658.047 566.408 657.327 566.76C656.623 567.112 655.847 567.288 654.999 567.288C653.863 567.288 652.967 566.92 652.311 566.184C651.671 565.432 651.351 564.384 651.351 563.04V556.2L651.159 552.6H654.471L654.255 556.2V562.44C654.255 563.144 654.423 563.688 654.759 564.072C655.095 564.44 655.559 564.624 656.151 564.624C656.663 564.624 657.191 564.464 657.735 564.144C658.279 563.824 658.751 563.368 659.151 562.776V556.2L658.935 552.6H662.247L662.055 556.2V563.448ZM676.596 552.6L676.38 556.176V564.792C676.38 567.192 675.7 569 674.34 570.216C672.98 571.448 671.052 572.064 668.556 572.064L667.26 569.832L667.428 569.64C668.564 569.64 669.588 569.472 670.5 569.136C671.428 568.8 672.156 568.328 672.684 567.72C673.212 567.112 673.476 566.416 673.476 565.632V565.368C673.172 565.944 672.708 566.392 672.084 566.712C671.476 567.032 670.836 567.192 670.164 567.192C668.532 567.192 667.26 566.56 666.348 565.296C665.452 564.016 665.004 562.176 665.004 559.776C665.004 557.216 665.428 555.336 666.276 554.136C667.14 552.92 668.428 552.312 670.14 552.312C670.876 552.312 671.54 552.4 672.132 552.576C672.74 552.752 673.252 553 673.668 553.32L673.788 552.6H676.596ZM670.692 564.408C671.252 564.408 671.78 564.336 672.276 564.192C672.788 564.032 673.188 563.816 673.476 563.544V555.576C672.852 555.304 672.004 555.168 670.932 555.168C670.164 555.168 669.572 555.304 669.156 555.576C668.74 555.832 668.444 556.288 668.268 556.944C668.092 557.6 668.004 558.544 668.004 559.776C668.004 560.944 668.084 561.864 668.244 562.536C668.42 563.192 668.7 563.672 669.084 563.976C669.484 564.264 670.02 564.408 670.692 564.408ZM695.737 563.208L695.065 565.824C694.953 566.24 694.649 566.544 694.153 566.736C693.657 566.912 692.905 567 691.897 567H684.409V565.272L688.489 559.8C689.737 558.12 690.585 556.848 691.033 555.984C691.497 555.104 691.729 554.368 691.729 553.776C691.729 553.056 691.513 552.528 691.081 552.192C690.649 551.84 689.993 551.664 689.113 551.664C688.169 551.664 687.329 551.84 686.593 552.192C685.857 552.544 685.273 553.048 684.841 553.704L684.577 553.656L684.961 550.512C685.537 549.968 686.225 549.552 687.025 549.264C687.825 548.976 688.657 548.832 689.521 548.832C691.153 548.832 692.433 549.232 693.361 550.032C694.305 550.816 694.777 551.936 694.777 553.392C694.777 554.064 694.689 554.672 694.513 555.216C694.353 555.744 694.033 556.408 693.553 557.208C693.073 557.992 692.297 559.136 691.225 560.64L688.657 564.24H692.737C693.233 564.24 693.721 564.144 694.201 563.952C694.681 563.744 695.121 563.464 695.521 563.112L695.737 563.208ZM703.631 567.384C702.207 567.384 701.055 567.064 700.175 566.424C699.295 565.768 698.639 564.744 698.207 563.352C697.791 561.96 697.583 560.128 697.583 557.856C697.583 555.664 697.791 553.896 698.207 552.552C698.639 551.192 699.295 550.2 700.175 549.576C701.055 548.936 702.207 548.616 703.631 548.616C705.039 548.616 706.183 548.936 707.063 549.576C707.943 550.2 708.591 551.192 709.007 552.552C709.439 553.896 709.655 555.664 709.655 557.856C709.655 560.128 709.439 561.96 709.007 563.352C708.591 564.744 707.943 565.768 707.063 566.424C706.199 567.064 705.055 567.384 703.631 567.384ZM703.631 564.528C704.399 564.528 704.999 564.336 705.431 563.952C705.863 563.568 706.175 562.912 706.367 561.984C706.559 561.04 706.655 559.712 706.655 558C706.655 556.288 706.559 554.968 706.367 554.04C706.175 553.096 705.863 552.432 705.431 552.048C704.999 551.664 704.399 551.472 703.631 551.472C702.863 551.472 702.255 551.664 701.807 552.048C701.375 552.432 701.063 553.096 700.871 554.04C700.679 554.968 700.583 556.288 700.583 558C700.583 559.712 700.679 561.04 700.871 561.984C701.063 562.912 701.375 563.568 701.807 563.952C702.255 564.336 702.863 564.528 703.631 564.528ZM723.37 563.208L722.698 565.824C722.586 566.24 722.282 566.544 721.786 566.736C721.29 566.912 720.538 567 719.53 567H712.042V565.272L716.122 559.8C717.37 558.12 718.218 556.848 718.666 555.984C719.13 555.104 719.362 554.368 719.362 553.776C719.362 553.056 719.146 552.528 718.714 552.192C718.282 551.84 717.626 551.664 716.746 551.664C715.802 551.664 714.962 551.84 714.226 552.192C713.49 552.544 712.906 553.048 712.474 553.704L712.21 553.656L712.594 550.512C713.17 549.968 713.858 549.552 714.658 549.264C715.458 548.976 716.29 548.832 717.154 548.832C718.786 548.832 720.066 549.232 720.994 550.032C721.938 550.816 722.41 551.936 722.41 553.392C722.41 554.064 722.322 554.672 722.146 555.216C721.986 555.744 721.666 556.408 721.186 557.208C720.706 557.992 719.93 559.136 718.858 560.64L716.29 564.24H720.37C720.866 564.24 721.354 564.144 721.834 563.952C722.314 563.744 722.754 563.464 723.154 563.112L723.37 563.208ZM731.264 567.384C729.84 567.384 728.688 567.064 727.808 566.424C726.928 565.768 726.272 564.744 725.84 563.352C725.424 561.96 725.216 560.128 725.216 557.856C725.216 555.664 725.424 553.896 725.84 552.552C726.272 551.192 726.928 550.2 727.808 549.576C728.688 548.936 729.84 548.616 731.264 548.616C732.672 548.616 733.816 548.936 734.696 549.576C735.576 550.2 736.224 551.192 736.64 552.552C737.072 553.896 737.288 555.664 737.288 557.856C737.288 560.128 737.072 561.96 736.64 563.352C736.224 564.744 735.576 565.768 734.696 566.424C733.832 567.064 732.688 567.384 731.264 567.384ZM731.264 564.528C732.032 564.528 732.632 564.336 733.064 563.952C733.496 563.568 733.808 562.912 734 561.984C734.192 561.04 734.288 559.712 734.288 558C734.288 556.288 734.192 554.968 734 554.04C733.808 553.096 733.496 552.432 733.064 552.048C732.632 551.664 732.032 551.472 731.264 551.472C730.496 551.472 729.888 551.664 729.44 552.048C729.008 552.432 728.696 553.096 728.504 554.04C728.312 554.968 728.216 556.288 728.216 558C728.216 559.712 728.312 561.04 728.504 561.984C728.696 562.912 729.008 563.568 729.44 563.952C729.888 564.336 730.496 564.528 731.264 564.528Z" fill="#656376"/>
<defs>
<linearGradient id="paint0_linear_588_2" x1="598.83" y1="26" x2="489" y2="423.5" gradientUnits="userSpaceOnUse">
<stop stop-color="#467EB9"/>
<stop offset="1" stop-color="#B5D8FF" stop-opacity="0"/>
</linearGradient>
<linearGradient id="paint1_linear_588_2" x1="156.5" y1="573" x2="273" y2="555" gradientUnits="userSpaceOnUse">
<stop offset="0.388399" stop-color="#2B609E"/>
</linearGradient>
<linearGradient id="paint2_linear_588_2" x1="632.632" y1="180.768" x2="632.632" y2="200.871" gradientUnits="userSpaceOnUse">
<stop stop-color="white"/>
<stop offset="1" stop-color="white" stop-opacity="0"/>
</linearGradient>
<linearGradient id="paint3_linear_588_2" x1="932.811" y1="569.124" x2="904.061" y2="843.624" gradientUnits="userSpaceOnUse">
<stop stop-color="#FFF1F7"/>
<stop offset="0.432805" stop-color="#F0EFFD"/>
</linearGradient>
<linearGradient id="paint4_linear_588_2" x1="912.811" y1="494.624" x2="918.313" y2="590.416" gradientUnits="userSpaceOnUse">
<stop stop-color="#6F5E74"/>
<stop offset="1" stop-color="#5F5870" stop-opacity="0.77"/>
</linearGradient>
</defs>
</svg>
