<svg width="529" height="514" viewBox="0 0 529 514" fill="none" xmlns="http://www.w3.org/2000/svg">
<path d="M364.004 458H261.334V467.332C261.334 482.77 248.772 495.332 233.334 495.332H140.002C124.564 495.332 112.002 482.77 112.002 467.332V458H9.332C4.1797 458 0 462.18 0 467.332C0 493.062 20.934 514 46.668 514H326.668C352.398 514 373.336 493.066 373.336 467.332C373.332 462.18 369.152 458 364 458H364.004ZM308.004 495.332C302.852 495.332 298.672 491.152 298.672 486C298.672 480.848 302.852 476.668 308.004 476.668C313.156 476.668 317.336 480.848 317.336 486C317.336 491.152 313.156 495.332 308.004 495.332ZM345.336 495.332C340.184 495.332 336.004 491.152 336.004 486C336.004 480.848 340.184 476.668 345.336 476.668C350.488 476.668 354.668 480.848 354.668 486C354.672 491.152 350.488 495.332 345.336 495.332Z" fill="#142547"/>
<path d="M102.674 200.67H270.674C275.826 200.67 280.006 196.49 280.006 191.338V154.006C280.006 148.854 275.826 144.674 270.674 144.674L102.674 144.67C97.5217 144.67 93.342 148.85 93.342 154.002V191.334C93.3381 196.486 97.5217 200.67 102.674 200.67V200.67ZM149.338 163.334H168.006V182.002H149.338V163.334ZM112.006 163.334H130.674V182.002H112.006V163.334Z" fill="#4267B2"/>
<path d="M140.004 476.67H233.336C238.488 476.67 242.668 472.49 242.668 467.338V458.006L130.668 458.002V467.334C130.668 472.486 134.848 476.67 140 476.67H140.004Z" fill="#142547"/>
<path d="M18.672 266V443.33H354.672V266C354.672 250.562 342.11 238 326.672 238H298.672V256.668H317.34C327.633 256.668 336.008 265.039 336.008 275.336V406.006C336.008 416.299 327.637 424.674 317.34 424.674L56 424.67C45.707 424.67 37.332 416.299 37.332 406.002V275.332C37.332 265.039 45.7031 256.664 56 256.664H74.668V237.996L46.668 238C31.23 238 18.668 250.562 18.668 266H18.672Z" fill="#142547"/>
<path d="M270.674 368.67H102.674C87.2359 368.67 74.6739 356.108 74.6739 340.67V303.338C74.6739 296.143 77.4825 289.635 81.9551 284.67C79.5293 281.971 77.6348 278.826 76.3926 275.338L56.0056 275.334V406.004H317.336V275.334H296.953C295.71 278.826 293.816 281.971 291.39 284.666C295.871 289.631 298.671 296.135 298.671 303.334V340.666C298.671 356.107 286.109 368.67 270.671 368.67L270.674 368.67Z" fill="#142547"/>
<path d="M93.334 266C93.334 271.152 97.5137 275.332 102.666 275.332H270.666C275.818 275.332 279.998 271.152 279.998 266V228.668C279.998 223.516 275.818 219.336 270.666 219.336L102.666 219.332C97.5137 219.332 93.334 223.512 93.334 228.664V266ZM242.674 238H261.342V256.668H242.674V238ZM205.338 238H224.006V256.668H205.338V238Z" fill="#142547"/>
<path d="M93.334 340.67C93.334 345.822 97.5137 350.002 102.666 350.002H270.666C275.818 350.002 279.998 345.822 279.998 340.67V303.338C279.998 298.186 275.818 294.006 270.666 294.006L102.666 294.002C97.5137 294.002 93.334 298.182 93.334 303.334V340.67ZM149.334 312.67H168.002V331.338H149.334V312.67ZM112.002 312.67H130.67V331.338H112.002V312.67Z" fill="#142547"/>
<path d="M422.33 2.47767C422.33 1.10929 421.221 0 419.852 0H301.478C300.109 0 299 1.10929 299 2.47767V120.852C299 122.221 300.109 123.33 301.478 123.33H419.852C421.221 123.33 422.33 122.221 422.33 120.852V2.47767ZM395.195 85.2967C396.163 86.2643 396.163 87.8331 395.195 88.8007L387.798 96.1975C386.831 97.1652 385.262 97.1651 384.294 96.1974L362.415 74.3156C361.448 73.3479 359.879 73.3479 358.911 74.3155L337.032 96.1943C336.065 97.1619 334.496 97.1619 333.528 96.1943L326.132 88.7976C325.164 87.8299 325.164 86.261 326.132 85.2934L348.013 63.4178C348.981 62.4502 348.981 60.8813 348.014 59.9136L326.135 38.0349C325.167 37.0673 325.167 35.4986 326.135 34.531L333.532 27.1341C334.499 26.1665 336.068 26.1666 337.036 27.1342L358.911 49.0127C359.879 49.9804 361.448 49.9805 362.415 49.0128L384.294 27.134C385.262 26.1664 386.831 26.1664 387.798 27.134L395.195 34.531C396.163 35.4986 396.163 37.0673 395.195 38.0349L373.316 59.9139C372.349 60.8814 372.349 62.4502 373.316 63.4178L395.195 85.2967Z" fill="#142547"/>
<path d="M382 138C380.343 138 379 139.343 379 141V284.33C379 285.987 380.343 287.33 382 287.33H525.33C526.987 287.33 528.33 285.987 528.33 284.33V141C528.33 139.343 526.987 138 525.33 138H382ZM437.121 251.739C435.95 252.91 434.05 252.91 432.879 251.739L411.855 230.715C410.684 229.544 410.684 227.644 411.855 226.473L420.811 217.517C421.983 216.345 423.883 216.345 425.054 217.517L432.878 225.343C434.049 226.515 435.949 226.515 437.121 225.343L482.28 180.184C483.451 179.013 485.351 179.013 486.522 180.184L495.479 189.141C496.65 190.312 496.65 192.212 495.479 193.383L437.121 251.739Z" fill="#142547"/>
<path d="M379 427.505C379 428.881 380.115 429.996 381.491 429.996H500.505C501.881 429.996 502.996 428.881 502.996 427.505V308.491C502.996 307.115 501.881 306 500.505 306H381.491C380.115 306 379 307.115 379 308.491V427.505ZM413.719 372.03C414.692 371.057 416.269 371.057 417.242 372.03L423.738 378.527C424.711 379.499 426.288 379.499 427.261 378.527L464.759 341.029C465.732 340.056 467.309 340.056 468.282 341.029L475.719 348.465C476.692 349.438 476.692 351.016 475.719 351.988L427.26 400.444C426.287 401.417 424.71 401.417 423.737 400.444L406.281 382.987C405.308 382.014 405.308 380.437 406.281 379.464L413.719 372.03Z" fill="#142547"/>
<path d="M56.0039 79.3301C56.0039 94.7951 43.4689 107.33 28.0039 107.33C12.5389 107.33 0.00390625 94.7951 0.00390625 79.3301C0.00390625 63.8691 12.5389 51.3301 28.0039 51.3301C43.4689 51.3301 56.0039 63.8691 56.0039 79.3301" fill="#142547"/>
<path d="M130.674 79.3301C130.674 94.7951 118.135 107.33 102.674 107.33C87.2091 107.33 74.6741 94.7951 74.6741 79.3301C74.6741 63.8691 87.2091 51.3301 102.674 51.3301C118.135 51.3301 130.674 63.8691 130.674 79.3301" fill="#4267B2"/>
<path d="M205.334 79.3301C205.334 94.7951 192.799 107.33 177.334 107.33C161.873 107.33 149.334 94.7951 149.334 79.3301C149.334 63.8691 161.873 51.3301 177.334 51.3301C192.799 51.3301 205.334 63.8691 205.334 79.3301" fill="#4267B2"/>
<path d="M280.004 79.3301C280.004 94.7951 267.469 107.33 252.004 107.33C236.539 107.33 224.004 94.7951 224.004 79.3301C224.004 63.8691 236.539 51.3301 252.004 51.3301C267.469 51.3301 280.004 63.8691 280.004 79.3301" fill="#4267B2"/>
</svg>
