<svg xmlns="http://www.w3.org/2000/svg" width="448" height="463" fill="none" xmlns:v="https://vecta.io/nano"><path d="M331.471 119.6a14.71 14.71 0 0 1-14.705 14.705 14.71 14.71 0 0 1-14.707-14.705 14.71 14.71 0 0 1 14.707-14.707 14.71 14.71 0 0 1 14.705 14.707m-14.678 60.677c2.066 0 3.738-1.672 3.738-3.738 0-.057-.014-.11-.02-.167 3.457-.28 6.801-.941 9.998-1.946.024.067.034.137.06.207.581 1.465 1.989 2.356 3.475 2.356a3.72 3.72 0 0 0 1.381-.267c6.311-2.509 11.961-6.214 16.784-11.006a3.74 3.74 0 0 0 .02-5.287c-.664-.667-1.515-1.017-2.386-1.078-6.218-11.931-18.693-20.08-33.077-20.08-13.832 0-25.904 7.535-32.328 18.729-6.341-7.346-10.183-16.86-10.183-27.252 0-23.188 19.083-42.051 42.538-42.051s42.537 18.863 42.537 42.051a41.37 41.37 0 0 1-3.444 16.607 3.74 3.74 0 0 0 1.936 4.919c1.889.821 4.095-.044 4.919-1.936 2.697-6.197 4.065-12.789 4.065-19.587 0-27.309-22.437-49.526-50.013-49.526s-50.013 22.217-50.013 49.526 22.433 49.526 50.013 49.526h0z" fill="#4267b2"/><path d="M430.055 0h-226.49c-4.265 0-8.193 1.522-11.233 4.062-2.303 1.919-4.108 4.425-5.186 7.285-.738 1.929-1.135 4.018-1.135 6.207V170.33l-2.203-.056c-37.708 0-68.278 30.569-68.278 68.278 0 16.827 6.097 32.219 16.186 44.12l-5.29 5.289-51.638 51.629c-3.644 3.654-3.644 9.568 0 13.223a9.33 9.33 0 0 0 6.608 2.73 9.34 9.34 0 0 0 6.615-2.73l52.283-52.293 5.343-5.346a67.96 67.96 0 0 0 38.169 11.658c.741 0 1.472-.034 2.206-.057h-.003v138.671c0 9.691 7.862 17.554 17.554 17.554h226.49c9.692 0 17.554-7.863 17.554-17.554l.004-427.888c0-9.692-7.863-17.558-17.555-17.558V0zM339.22 14.941h14.951c2.066 0 3.738 1.672 3.738 3.738s-1.672 3.738-3.738 3.738H339.22c-2.066 0-3.738-1.672-3.738-3.738a3.74 3.74 0 0 1 3.738-3.738zm-59.805 0h37.378c2.066 0 3.738 1.672 3.738 3.738s-1.672 3.738-3.738 3.738h-37.378c-2.066 0-3.738-1.672-3.738-3.738a3.74 3.74 0 0 1 3.738-3.738zm-78.487 35.946c0-3.334 2.709-6.047 6.047-6.047H426.63a6.05 6.05 0 0 1 6.047 6.047v322.904h-26.758V212.207c0-1.549-1.255-2.804-2.804-2.804h-39.34c-1.549 0-2.804 1.255-2.804 2.804v161.584h-22.15v-79.355c0-1.549-1.255-2.803-2.803-2.803h-39.33c-1.549 0-2.804 1.254-2.804 2.803v79.355h-22.15l-.003-124.488c0-1.552-1.261-2.803-2.803-2.803h-8.838c-2.383 23.074-15.041 43.144-33.306 55.55v71.746h-25.858v-69.119c19.347-4.993 35.356-18.259 44.063-35.796.006-.01.01-.02.016-.033.481-.971.938-1.956 1.375-2.95.007-.014.01-.024.017-.037a66.64 66.64 0 0 0 1.238-3.034c.004-.01.007-.02.01-.027.394-1.031.758-2.072 1.102-3.123 2.165-6.651 3.344-13.743 3.344-21.116 0-31.798-21.736-58.52-51.165-66.116l.002-121.558zm-17.117 237.255c-27.343 0-49.59-22.247-49.59-49.59s22.247-49.589 49.59-49.589S233.4 211.21 233.4 238.552s-22.243 49.59-49.589 49.59zm133.006 156.706a9.08 9.08 0 0 1-9.078-9.078 9.08 9.08 0 0 1 9.078-9.077 9.08 9.08 0 0 1 9.077 9.077 9.08 9.08 0 0 1-9.077 9.078zm109.81-33.7H206.972c-3.337 0-6.047-2.7-6.047-6.047v-20.715h231.744v20.715a6.04 6.04 0 0 1-6.044 6.047h.002z" fill="#142547"/><path d="M92.986 104.615h59.871a3.74 3.74 0 0 1 3.738 3.738v44.87c0 2.066 1.672 3.738 3.738 3.738s3.738-1.672 3.738-3.738v-44.87a11.23 11.23 0 0 0-11.214-11.214H92.986c-2.066 0-3.738 1.672-3.738 3.738a3.74 3.74 0 0 0 3.738 3.738h0zM24.21 125.077c12.075 0 22.113-8.887 23.912-20.465H69.11c2.066 0 3.738-1.672 3.738-3.737s-1.672-3.738-3.738-3.738H48.125C46.323 85.56 36.288 76.669 24.213 76.669c-13.346 0-24.206 10.86-24.206 24.206s10.856 24.202 24.202 24.202zm0-40.933c9.224 0 16.727 7.506 16.727 16.731a16.75 16.75 0 0 1-16.727 16.726c-9.224 0-16.73-7.502-16.73-16.726s7.506-16.731 16.73-16.731zm0 128.513c12.075 0 22.113-8.887 23.912-20.465h44.864c2.066 0 3.738-1.672 3.738-3.738s-1.672-3.737-3.738-3.737l-44.861-.004c-1.802-11.577-11.837-20.467-23.912-20.467-13.346 0-24.206 10.859-24.206 24.205s10.856 24.206 24.202 24.206h0zm0-40.936c9.224 0 16.727 7.506 16.727 16.73s-7.506 16.727-16.727 16.727-16.73-7.503-16.73-16.727 7.506-16.73 16.73-16.73zm72.509 104.303c0-2.065-1.672-3.737-3.738-3.737H48.117c-1.802-11.578-11.837-20.468-23.912-20.468C10.86 251.819 0 262.678 0 276.024s10.86 24.203 24.206 24.203c12.075 0 22.113-8.887 23.912-20.465h44.864a3.74 3.74 0 0 0 3.738-3.738zm-72.517 16.727c-9.224 0-16.73-7.502-16.73-16.727s7.506-16.73 16.73-16.73 16.727 7.506 16.727 16.73-7.502 16.727-16.727 16.727h0zm140.652-52.328c0 3.808-3.087 6.892-6.892 6.892a6.89 6.89 0 0 1-6.891-6.892c0-3.804 3.084-6.891 6.891-6.891s6.892 3.087 6.892 6.891zm25.494 0a6.89 6.89 0 0 1-6.892 6.892c-3.804 0-6.891-3.084-6.891-6.892s3.087-6.891 6.891-6.891 6.892 3.087 6.892 6.891zm25.485 0a6.89 6.89 0 0 1-6.891 6.892c-3.805 0-6.892-3.084-6.892-6.892s3.087-6.891 6.892-6.891 6.891 3.087 6.891 6.891z" fill="#4267b2"/></svg>