<svg width="563" height="548" viewBox="0 0 563 548" fill="none" xmlns="http://www.w3.org/2000/svg">
<path d="M82.4146 62.3904C87.8736 62.372 93.1073 60.1967 96.9655 56.3381C100.824 52.4796 102.999 47.2458 103.018 41.7873V0.580078H61.8105V41.7873C61.8289 47.2463 64.0043 52.48 67.8628 56.3381C71.7213 60.1963 76.9551 62.372 82.4137 62.3904H82.4146Z" fill="#142547"/>
<path d="M206.036 289.03C206.036 300.408 196.81 309.633 185.432 309.633C174.054 309.633 164.829 300.408 164.829 289.03C164.829 277.652 174.054 268.426 185.432 268.426C196.81 268.426 206.036 277.652 206.036 289.03Z" fill="#4267B2"/>
<path d="M206.036 392.048C206.036 403.426 196.81 412.652 185.432 412.652C174.054 412.652 164.829 403.426 164.829 392.048C164.829 380.67 174.054 371.444 185.432 371.444C196.81 371.444 206.036 380.67 206.036 392.048Z" fill="#4267B2"/>
<path d="M61.811 165.408H103.018V206.615H61.811V165.408Z" fill="#142547"/>
<path d="M61.811 268.426H103.018V309.633H61.811V268.426Z" fill="#142547"/>
<path d="M61.811 371.444H103.018V412.652H61.811V371.444Z" fill="#142547"/>
<path d="M309.372 185.694C309.372 197.072 300.151 206.298 288.768 206.298C277.39 206.298 268.165 197.072 268.165 185.694C268.165 174.312 277.39 165.091 288.768 165.091C300.151 165.091 309.372 174.312 309.372 185.694Z" fill="#4267B2"/>
<path d="M473.883 31.4849H432.676V41.7867C432.676 56.5082 424.821 70.1125 412.072 77.4745C399.324 84.8329 383.613 84.8329 370.865 77.4745C358.117 70.1114 350.261 56.5071 350.261 41.7867V31.4849H123.622V41.7867C123.622 56.5082 115.766 70.1125 103.018 77.4745C90.2697 84.8329 74.5591 84.8329 61.8108 77.4745C49.0625 70.1114 41.2072 56.5071 41.2072 41.7867V31.4849H0V103.597H473.883V31.4849Z" fill="#142547"/>
<path d="M377.152 381.746H309.058C305.333 381.7 301.916 379.663 300.109 376.407C298.297 373.151 298.37 369.173 300.302 365.985L403.32 201.157C405.224 198.153 408.521 196.332 412.076 196.314H473.887V124.201H0.00439453V453.859H353.15L377.152 381.746ZM288.773 144.487C299.705 144.487 310.186 148.828 317.912 156.555C325.638 164.281 329.98 174.763 329.98 185.694C329.98 196.621 325.638 207.103 317.912 214.829C310.186 222.56 299.704 226.901 288.773 226.901C277.846 226.901 267.364 222.56 259.638 214.829C251.907 207.103 247.566 196.621 247.566 185.694C247.566 174.762 251.907 164.281 259.638 156.555C267.364 148.828 277.846 144.487 288.773 144.487ZM123.626 422.954C123.626 425.685 122.541 428.307 120.609 430.238C118.678 432.17 116.056 433.255 113.324 433.255H51.5134C45.8245 433.255 41.2116 428.642 41.2116 422.954V361.143C41.2116 355.454 45.8245 350.841 51.5134 350.841H113.324C116.056 350.841 118.678 351.926 120.609 353.858C122.541 355.789 123.626 358.411 123.626 361.143V422.954ZM123.626 319.936C123.626 322.667 122.541 325.289 120.609 327.22C118.678 329.152 116.056 330.237 113.324 330.237H51.5134C45.8245 330.237 41.2116 325.624 41.2116 319.936V258.125C41.2116 252.436 45.8245 247.823 51.5134 247.823H113.324C116.056 247.823 118.678 248.908 120.609 250.84C122.541 252.771 123.626 255.393 123.626 258.125V319.936ZM123.626 216.918C123.626 219.649 122.541 222.271 120.609 224.202C118.678 226.134 116.056 227.219 113.324 227.219H51.5134C45.8245 227.219 41.2116 222.606 41.2116 216.918V155.107C41.2116 149.418 45.8245 144.805 51.5134 144.805H113.324C116.056 144.805 118.678 145.89 120.609 147.822C122.541 149.753 123.626 152.375 123.626 155.107V216.918ZM185.437 433.255C174.51 433.255 164.028 428.914 156.297 421.187C148.571 413.457 144.23 402.975 144.23 392.048C144.23 381.121 148.571 370.639 156.297 362.909C164.028 355.182 174.51 350.841 185.437 350.841C196.364 350.841 206.846 355.182 214.576 362.909C222.303 370.64 226.644 381.121 226.644 392.048C226.644 402.975 222.303 413.457 214.576 421.187C206.845 428.914 196.364 433.255 185.437 433.255ZM185.437 330.237C174.51 330.237 164.028 325.896 156.297 318.169C148.571 310.439 144.23 299.957 144.23 289.03C144.23 278.103 148.571 267.621 156.297 259.891C164.028 252.164 174.51 247.823 185.437 247.823C196.364 247.823 206.846 252.164 214.576 259.891C222.303 267.622 226.644 278.103 226.644 289.03C226.644 299.957 222.303 310.439 214.576 318.169C206.845 325.896 196.364 330.237 185.437 330.237ZM185.437 227.219C174.51 227.219 164.028 222.878 156.297 215.151C148.571 207.421 144.23 196.939 144.23 186.012C144.23 175.085 148.571 164.603 156.297 156.873C164.028 149.146 174.51 144.805 185.437 144.805C196.364 144.805 206.846 149.146 214.576 156.873C222.303 164.604 226.644 175.085 226.644 186.012C226.644 196.939 222.303 207.421 214.576 215.151C206.845 222.878 196.364 227.219 185.437 227.219ZM247.566 288.712C247.566 277.78 251.907 267.299 259.638 259.573C267.364 251.846 277.846 247.505 288.773 247.505C299.705 247.505 310.186 251.846 317.912 259.573C325.638 267.299 329.98 277.781 329.98 288.712C329.98 299.639 325.638 310.121 317.912 317.847C310.186 325.578 299.704 329.919 288.773 329.919C277.846 329.919 267.364 325.578 259.638 317.847C251.907 310.121 247.566 299.639 247.566 288.712Z" fill="#142547"/>
<path d="M391.468 62.3904C396.927 62.372 402.161 60.1967 406.019 56.3381C409.877 52.4796 412.053 47.2458 412.071 41.7873V0.580078H370.864V41.7873C370.883 47.2463 373.058 52.48 376.917 56.3381C380.775 60.1963 386.009 62.372 391.467 62.3904H391.468Z" fill="#142547"/>
<path d="M453.998 313.342C452.443 309.378 453.51 304.861 456.674 302.01L550.213 216.919H417.738L327.598 361.145H391.469C394.794 361.131 397.912 362.75 399.812 365.472C401.757 368.149 402.291 371.598 401.256 374.744L343.566 547.814L563 319.938H463.587C459.333 319.943 455.52 317.317 454.007 313.343L453.998 313.342Z" fill="#4267B2"/>
<path d="M309.372 288.712C309.372 300.09 300.151 309.316 288.768 309.316C277.39 309.316 268.165 300.09 268.165 288.712C268.165 277.329 277.39 268.108 288.768 268.108C300.151 268.108 309.372 277.329 309.372 288.712Z" fill="#4267B2"/>
<path d="M206.036 186.012C206.036 197.39 196.81 206.615 185.432 206.615C174.054 206.615 164.829 197.39 164.829 186.012C164.829 174.634 174.054 165.408 185.432 165.408C196.81 165.408 206.036 174.634 206.036 186.012Z" fill="#4267B2"/>
</svg>
