<svg xmlns="http://www.w3.org/2000/svg" xmlns:xlink="http://www.w3.org/1999/xlink" width="785" height="564" fill="none" xmlns:v="https://vecta.io/nano"><style><![CDATA[.B{fill:#fff}.C{fill:#004572}.D{fill:#1359ad}.E{stroke:#1d6fd0}.F{fill:#1b313c}.G{color-interpolation-filters:sRGB}.H{flood-opacity:0}.I{stroke-linecap:round}]]></style><path fill="#e0e8f3" d="M0 0h785v564H0z"/><g fill="#bfcce2"><circle cx="504" cy="44" r="2"/><circle cx="525" cy="44" r="2"/><circle cx="546" cy="44" r="2"/><circle cx="567" cy="44" r="2"/><circle cx="588" cy="44" r="2"/><circle cx="609" cy="44" r="2"/><circle cx="630" cy="44" r="2"/><circle cx="651" cy="44" r="2"/><circle cx="672" cy="44" r="2"/><circle cx="693" cy="44" r="2"/><circle cx="714" cy="44" r="2"/><circle cx="504" cy="63" r="2"/><circle cx="525" cy="63" r="2"/><circle cx="546" cy="63" r="2"/><circle cx="567" cy="63" r="2"/><circle cx="588" cy="63" r="2"/><circle cx="609" cy="63" r="2"/><circle cx="630" cy="63" r="2"/><circle cx="651" cy="63" r="2"/><circle cx="672" cy="63" r="2"/><circle cx="693" cy="63" r="2"/><circle cx="714" cy="63" r="2"/><circle cx="504" cy="82" r="2"/><circle cx="525" cy="82" r="2"/><circle cx="546" cy="82" r="2"/><circle cx="567" cy="82" r="2"/><circle cx="588" cy="82" r="2"/><circle cx="609" cy="82" r="2"/><circle cx="630" cy="82" r="2"/><circle cx="651" cy="82" r="2"/><circle cx="672" cy="82" r="2"/><circle cx="693" cy="82" r="2"/><circle cx="714" cy="82" r="2"/><circle cx="504" cy="101" r="2"/><circle cx="525" cy="101" r="2"/><circle cx="546" cy="101" r="2"/><circle cx="567" cy="101" r="2"/><circle cx="588" cy="101" r="2"/><circle cx="609" cy="101" r="2"/><circle cx="630" cy="101" r="2"/><circle cx="651" cy="101" r="2"/><circle cx="672" cy="101" r="2"/><circle cx="693" cy="101" r="2"/><circle cx="714" cy="101" r="2"/><circle cx="504" cy="120" r="2"/><circle cx="525" cy="120" r="2"/><circle cx="546" cy="120" r="2"/><circle cx="567" cy="120" r="2"/><circle cx="588" cy="120" r="2"/><circle cx="609" cy="120" r="2"/><circle cx="630" cy="120" r="2"/><circle cx="651" cy="120" r="2"/><circle cx="672" cy="120" r="2"/><circle cx="693" cy="120" r="2"/><circle cx="714" cy="120" r="2"/></g><g filter="url(#A)"><rect x="200" y="71" width="435" height="393" rx="10" class="B"/><path d="M241.34 128h-8.531v-1.828h8.531V128zm-8.086 0h-2.274v-17.062h2.274V128zm15.598.234c-1.18 0-2.207-.261-3.082-.785a5.51 5.51 0 0 1-2.028-2.179c-.476-.922-.715-1.977-.715-3.165v-.503c0-1.375.262-2.547.785-3.516.532-.977 1.219-1.719 2.063-2.227.852-.515 1.75-.773 2.695-.773 1.219 0 2.211.273 2.977.82.773.539 1.34 1.278 1.699 2.215.367.93.551 1.984.551 3.164v.973h-9.469V120.5h7.277v-.164a5.64 5.64 0 0 0-.339-1.641c-.196-.539-.508-.98-.938-1.324-.43-.351-1.016-.527-1.758-.527-.656 0-1.238.187-1.746.562-.5.367-.894.906-1.183 1.617-.282.704-.422 1.563-.422 2.579v.503c0 .805.148 1.54.445 2.204.297.656.727 1.183 1.289 1.582.563.39 1.235.586 2.016.586.765 0 1.414-.157 1.945-.469s.996-.731 1.395-1.254l1.324 1.031c-.406.625-.992 1.192-1.758 1.699-.758.5-1.766.75-3.023.75zm14.953-8.929c0-.758-.227-1.36-.68-1.805-.445-.453-1.105-.68-1.98-.68-.54 0-1.016.094-1.43.282-.406.187-.723.433-.949.738s-.34.637-.34.996h-2.192c0-.609.207-1.199.621-1.77.415-.578.997-1.05 1.747-1.418.757-.375 1.648-.562 2.671-.562.922 0 1.739.156 2.45.469a3.65 3.65 0 0 1 1.664 1.418c.406.625.609 1.41.609 2.355v5.906a9.17 9.17 0 0 0 .106 1.348c.078.477.191.887.339 1.23V128h-2.285c-.109-.25-.195-.582-.258-.996-.062-.422-.093-.813-.093-1.172v-6.527zm.398 2.531h-2.18c-1.234 0-2.187.195-2.859.586s-1.008.976-1.008 1.758c0 .609.203 1.125.61 1.547.414.421 1.015.632 1.804.632.664 0 1.25-.14 1.758-.421s.91-.629 1.207-1.043.457-.813.481-1.196l.937 1.043c-.055.328-.203.692-.445 1.09s-.567.781-.973 1.148c-.398.36-.875.661-1.43.903-.546.234-1.164.351-1.851.351-.859 0-1.613-.164-2.262-.492-.64-.336-1.14-.789-1.5-1.359-.351-.571-.527-1.203-.527-1.899 0-1.367.515-2.402 1.547-3.105 1.031-.711 2.418-1.067 4.16-1.067h2.508l.023 1.524zM277.398 110h2.192v18h-2.004l-.188-2.461V110zm-8.519 11.555c0-1.289.207-2.418.621-3.387.422-.977 1.008-1.734 1.758-2.273s1.629-.809 2.637-.809c1.062 0 1.949.246 2.66.738.711.485 1.265 1.176 1.664 2.074.406.899.668 1.969.785 3.211v1.137c-.117 1.227-.375 2.289-.774 3.188-.398.89-.957 1.582-1.675 2.074-.711.484-1.606.726-2.684.726-.992 0-1.863-.277-2.613-.832-.75-.562-1.336-1.328-1.758-2.297-.414-.968-.621-2.07-.621-3.304v-.246zm2.191.246c0 .844.114 1.613.34 2.308.235.696.598 1.254 1.09 1.676.492.414 1.129.621 1.91.621.719 0 1.309-.152 1.77-.457.468-.304.843-.707 1.125-1.207a6.97 6.97 0 0 0 .656-1.629v-2.847a6.33 6.33 0 0 0-.41-1.243c-.172-.406-.399-.765-.68-1.078a2.93 2.93 0 0 0-1.019-.761c-.399-.188-.872-.282-1.418-.282-.789 0-1.434.211-1.934.633-.492.422-.855.988-1.09 1.699-.226.704-.34 1.477-.34 2.321v.246zm17.157 6.433c-1.18 0-2.207-.261-3.082-.785a5.51 5.51 0 0 1-2.028-2.179c-.476-.922-.715-1.977-.715-3.165v-.503c0-1.375.262-2.547.786-3.516.531-.977 1.218-1.719 2.062-2.227.852-.515 1.75-.773 2.695-.773 1.219 0 2.211.273 2.977.82.773.539 1.34 1.278 1.699 2.215.367.93.551 1.984.551 3.164v.973h-9.469V120.5h7.277v-.164a5.64 5.64 0 0 0-.339-1.641c-.196-.539-.508-.98-.938-1.324-.43-.351-1.015-.527-1.758-.527-.656 0-1.238.187-1.746.562-.5.367-.894.906-1.183 1.617-.282.704-.422 1.563-.422 2.579v.503c0 .805.148 1.54.445 2.204.297.656.727 1.183 1.289 1.582.563.39 1.234.586 2.016.586.765 0 1.414-.157 1.945-.469s.996-.731 1.395-1.254l1.324 1.031c-.406.625-.992 1.192-1.758 1.699-.758.5-1.766.75-3.023.75zm9.668-.234h-2.192v-12.68h2.133l.059 1.992V128zm3.949-10.746a3.31 3.31 0 0 0-.528-.07 5.35 5.35 0 0 0-.539-.024c-.664 0-1.226.137-1.687.41-.453.274-.805.653-1.055 1.137-.25.477-.406 1.023-.469 1.641l-.621.351c0-1.023.137-1.957.41-2.801.274-.851.7-1.531 1.278-2.039.586-.515 1.336-.773 2.25-.773.148 0 .324.019.527.059.211.031.356.066.434.105v2.004zm9.375 7.383a1.83 1.83 0 0 0-.211-.867c-.133-.274-.406-.52-.82-.739-.415-.226-1.04-.426-1.876-.597-.937-.196-1.75-.442-2.437-.739-.68-.304-1.207-.691-1.582-1.16-.367-.469-.551-1.051-.551-1.746 0-.672.192-1.285.574-1.84.391-.562.938-1.011 1.641-1.347.711-.344 1.539-.516 2.484-.516 1.016 0 1.883.18 2.602.539.727.352 1.281.828 1.664 1.43.383.593.574 1.254.574 1.98h-2.191c0-.523-.231-1.019-.692-1.488-.453-.469-1.105-.703-1.957-.703-.593 0-1.078.094-1.453.281-.367.18-.636.414-.808.703a1.74 1.74 0 0 0-.246.891c0 .312.078.586.234.82.156.227.441.43.855.609.422.18 1.032.36 1.829.54 1.039.234 1.894.515 2.566.843s1.172.731 1.5 1.207.492 1.059.492 1.746c0 .735-.203 1.387-.609 1.957-.406.563-.977 1.004-1.711 1.325-.735.312-1.598.468-2.59.468-1.117 0-2.062-.199-2.836-.597s-1.359-.91-1.758-1.535c-.398-.633-.597-1.301-.597-2.004h2.191c.039.593.211 1.066.516 1.418.312.343.691.589 1.136.738.453.148.903.223 1.348.223.594 0 1.09-.079 1.488-.235.407-.164.711-.383.914-.656a1.54 1.54 0 0 0 .317-.949zm7.207 3.363h-2.192v-18h2.192v18zm-1.43-6.867c.016-1.156.238-2.188.668-3.094.43-.914 1.027-1.633 1.793-2.156.773-.531 1.672-.797 2.695-.797.836 0 1.555.156 2.157.469.609.304 1.078.793 1.406 1.465.336.671.504 1.562.504 2.671V128h-2.192v-8.332c0-.664-.097-1.199-.293-1.606a1.74 1.74 0 0 0-.843-.878c-.375-.188-.836-.282-1.383-.282-.539 0-1.028.114-1.465.34s-.816.539-1.137.938-.566.855-.738 1.371c-.172.508-.258 1.047-.258 1.617l-.914-.035zM331.832 128h-2.191v-12.68h2.191V128zm-2.355-16.055c0-.343.105-.636.316-.879.219-.242.539-.363.961-.363s.742.121.961.363c.226.243.34.536.34.879 0 .336-.114.625-.34.867-.219.235-.539.352-.961.352s-.742-.117-.961-.352c-.211-.242-.316-.531-.316-.867zm8.003 20.93h-2.191V115.32h1.992l.199 2.438v15.117zm8.532-11.074c0 1.234-.192 2.336-.574 3.304s-.942 1.735-1.676 2.297c-.727.555-1.614.832-2.66.832-1.086 0-1.997-.234-2.731-.703s-1.309-1.133-1.723-1.992c-.414-.867-.683-1.891-.808-3.07v-1.36c.125-1.242.394-2.312.808-3.211.422-.898.997-1.589 1.723-2.074.734-.492 1.633-.738 2.695-.738s1.961.269 2.696.809 1.293 1.296 1.676 2.273c.382.969.574 2.098.574 3.387v.246zm-2.192-.246c0-.844-.121-1.617-.363-2.321-.234-.711-.605-1.277-1.113-1.699-.5-.422-1.145-.633-1.934-.633-.539 0-1.008.094-1.406.282a3.09 3.09 0 0 0-1.02.761c-.281.313-.511.672-.691 1.078-.172.399-.301.813-.387 1.243v3.058c.156.547.371 1.063.645 1.547a3.43 3.43 0 0 0 1.113 1.16c.469.297 1.059.446 1.77.446.781 0 1.421-.215 1.921-.645s.868-.996 1.102-1.699c.242-.711.363-1.488.363-2.332v-.246z" class="F"/><rect x="484" y="121.486" width="9.225" height=".804" rx=".402" class="D"/><rect x="488.059" y="126.291" width="8.58" height=".865" rx=".432" transform="rotate(270 488.059 126.291)" class="D"/><path d="M503.561 126h-1.172l3.258-8.531h.75l-.018.75-2.818 7.781zm2.35-7.781l-.012-.75h.744l3.264 8.531h-1.166l-2.83-7.781zm2.689 5.549h-4.799v-.92h4.799v.92zm6.281-6.768h1.096v9h-1.002l-.094-1.23V117zm-4.26 5.777c0-.644.104-1.209.311-1.693s.504-.867.879-1.137.814-.404 1.318-.404c.532 0 .975.123 1.33.369s.633.588.832 1.037.334.985.393 1.606v.568c-.059.613-.188 1.145-.387 1.594s-.478.791-.838 1.037c-.355.242-.802.363-1.341.363-.497 0-.932-.138-1.307-.416s-.668-.664-.879-1.148-.311-1.035-.311-1.653v-.123zm1.096.123c0 .422.057.807.17 1.155a1.86 1.86 0 0 0 .545.838c.246.207.564.31.955.31.359 0 .654-.076.885-.228s.422-.354.562-.604a3.46 3.46 0 0 0 .328-.814v-1.424c-.046-.215-.115-.422-.205-.621s-.199-.383-.339-.539-.307-.287-.51-.381-.436-.141-.709-.141c-.395 0-.717.106-.967.317s-.428.494-.545.849-.17.738-.17 1.16v.123zm9.938-5.9h1.095v9h-1.002l-.093-1.23V117zm-4.26 5.777c0-.644.103-1.209.31-1.693s.504-.867.879-1.137.815-.404 1.319-.404c.531 0 .974.123 1.33.369s.633.588.832 1.037.334.985.392 1.606v.568c-.058.613-.187 1.145-.386 1.594s-.479.791-.838 1.037-.803.363-1.342.363c-.496 0-.932-.138-1.307-.416s-.668-.664-.879-1.148-.31-1.035-.31-1.653v-.123zm1.096.123c0 .422.056.807.17 1.155s.298.627.544.838.565.31.956.31c.359 0 .654-.076.884-.228a1.71 1.71 0 0 0 .563-.604 3.5 3.5 0 0 0 .328-.814v-1.424a3.12 3.12 0 0 0-.205-.621c-.086-.203-.199-.383-.34-.539s-.307-.287-.51-.381-.435-.141-.709-.141c-.394 0-.717.106-.967.317s-.427.494-.544.849-.17.738-.17 1.16v.123zm15.638 3.844l-.767.703-2.139-1.699.732-.721 2.174 1.717zm-.029-4.734c0 .851-.141 1.584-.422 2.197s-.68 1.086-1.195 1.418-1.115.492-1.811.492c-.672 0-1.267-.164-1.787-.492s-.926-.805-1.219-1.418-.439-1.346-.439-2.197v-.545c0-.852.144-1.584.434-2.197s.697-1.09 1.212-1.418a3.25 3.25 0 0 1 1.788-.498c.695 0 1.3.166 1.816.498s.914.8 1.195 1.418.428 1.345.428 2.197v.545zm-1.131-.557c0-.68-.092-1.252-.275-1.717s-.442-.824-.785-1.066-.76-.363-1.248-.363c-.461 0-.866.121-1.213.363s-.612.598-.803 1.066-.281 1.037-.281 1.717v.557c0 .683.095 1.26.287 1.728s.461.824.808 1.067a2.07 2.07 0 0 0 1.213.363c.489 0 .903-.121 1.242-.363.344-.243.606-.598.786-1.067s.269-1.045.269-1.728v-.557zm6.58-1.793h1.096V126h-1.043l-.053-1.465v-4.875zm.662 3.528c0 .562-.08 1.064-.24 1.505s-.422.789-.785 1.043-.85.381-1.459.381c-.621 0-1.123-.183-1.506-.551s-.574-.972-.574-1.816v-4.09h1.096v4.102c0 .383.054.679.164.89s.257.352.433.434a1.4 1.4 0 0 0 .563.117c.461 0 .826-.088 1.095-.264a1.49 1.49 0 0 0 .58-.726 2.79 2.79 0 0 0 .176-1.014l.457-.011zm4.717 2.929c-.59 0-1.103-.131-1.541-.392a2.76 2.76 0 0 1-1.014-1.09c-.238-.461-.357-.989-.357-1.582v-.252c0-.688.131-1.274.393-1.758s.609-.859 1.031-1.113a2.56 2.56 0 0 1 1.347-.387c.61 0 1.106.137 1.489.41s.67.639.849 1.108c.184.464.276.992.276 1.582v.486h-4.735v-.879h3.639v-.082c-.016-.281-.072-.555-.17-.82s-.254-.491-.469-.662c-.214-.176-.507-.264-.879-.264-.328 0-.619.094-.873.281s-.447.453-.591.809-.211.781-.211 1.289v.252c0 .402.074.769.222 1.101s.364.592.645.791.617.293 1.008.293c.383 0 .707-.078.972-.234a2.41 2.41 0 0 0 .698-.627l.662.516c-.203.312-.496.595-.879.849s-.883.375-1.512.375zm7.43-1.799c0-.156-.035-.3-.106-.433-.066-.137-.203-.26-.41-.369-.207-.114-.519-.213-.937-.299-.469-.098-.875-.221-1.219-.369-.34-.153-.604-.346-.791-.58s-.275-.526-.275-.873a1.58 1.58 0 0 1 .287-.92c.195-.282.468-.506.82-.674s.769-.258 1.242-.258c.508 0 .942.09 1.301.269s.641.415.832.715.287.627.287.991h-1.096c0-.262-.115-.51-.345-.745s-.553-.351-.979-.351c-.297 0-.539.047-.726.14a.93.93 0 0 0-.405.352.87.87 0 0 0-.123.445c0 .157.039.293.117.411s.221.214.428.304.516.18.914.27c.52.117.947.258 1.283.422s.586.365.75.603.246.529.246.873c0 .367-.101.694-.304.979s-.488.502-.856.662-.798.234-1.295.234c-.558 0-1.031-.099-1.418-.299s-.679-.455-.878-.767c-.2-.317-.299-.651-.299-1.002h1.095c.02.297.106.533.258.709s.346.295.569.369.451.111.673.111c.297 0 .545-.039.745-.117s.355-.191.457-.328.158-.299.158-.475zm5.174-3.832h-3.434v-.826h3.434v.826zm-1.184-2.367v6.311c0 .218.033.382.1.492s.152.182.257.217.219.052.34.052c.09 0 .184-.007.282-.023l.222-.041.006.873c-.086.027-.199.053-.34.076-.137.028-.303.041-.498.041-.265 0-.51-.053-.732-.158a1.17 1.17 0 0 1-.533-.527c-.133-.25-.2-.586-.2-1.008v-6.305h1.096zm3.633 7.881h-1.096v-6.34h1.096V126zm-1.178-8.027a.65.65 0 0 1 .158-.44c.11-.121.27-.181.481-.181s.371.06.48.181.17.268.17.44a.61.61 0 0 1-.17.433c-.109.117-.269.176-.48.176s-.371-.059-.481-.176a.64.64 0 0 1-.158-.433zm2.625 4.793c0-.614.117-1.162.352-1.647a2.79 2.79 0 0 1 .996-1.148c.429-.285.939-.428 1.529-.428.598 0 1.113.143 1.547.428s.766.664.996 1.148.352 1.033.352 1.647v.134c0 .61-.118 1.159-.352 1.647s-.562.867-.996 1.148-.941.422-1.535.422-1.108-.14-1.541-.422a2.79 2.79 0 0 1-.996-1.148c-.235-.488-.352-1.037-.352-1.647v-.134zm1.096.134c0 .418.066.805.199 1.161s.33.64.592.855.599.322 1.002.322.728-.107.99-.322.465-.5.598-.855.199-.743.199-1.161v-.134c0-.418-.067-.805-.199-1.161s-.332-.64-.598-.855-.6-.328-1.002-.328c-.394 0-.725.109-.99.328s-.465.5-.598.855-.193.743-.193 1.161v.134zm7.137 3.1h-1.096v-6.34h1.037l.059 1.354V126zm-.715-3.434c.007-.578.119-1.093.334-1.546s.513-.817.896-1.079.836-.398 1.348-.398c.418 0 .777.078 1.078.234s.539.397.703.733.252.781.252 1.336V126h-1.096v-4.166c0-.332-.049-.6-.146-.803s-.235-.349-.422-.439-.418-.141-.691-.141-.514.057-.733.17a1.76 1.76 0 0 0-.568.469c-.16.199-.283.428-.369.685s-.129.524-.129.809l-.457-.018z" class="F"/><rect x="469.5" y="107.5" width="122.225" height="29" rx="1.5" stroke-opacity=".53" class="E"/><g filter="url(#B)"><rect x="232" y="174" width="359" height="48" rx="5" class="B"/><path d="M249.729 192.958l1.894 8.169 2.27-8.169h1.476l2.27 8.169 1.893-8.169h1.49L258.384 203h-1.429l-2.317-8.326-2.331 8.326h-1.429l-2.625-10.042h1.476zm12.394-.034h1.231v3.746c.291-.369.553-.629.786-.779.396-.26.891-.39 1.483-.39 1.062 0 1.782.371 2.16 1.114.205.406.308.969.308 1.689V203h-1.265v-4.614c0-.538-.068-.932-.205-1.183-.223-.401-.642-.601-1.258-.601-.51 0-.973.175-1.387.526s-.622 1.014-.622 1.989V203h-1.231v-10.076zm8.736 8.128c0 .355.13.636.39.841s.567.307.923.307a2.8 2.8 0 0 0 1.258-.301c.683-.332 1.025-.877 1.025-1.633v-.992c-.15.096-.344.176-.581.24s-.469.109-.697.136l-.745.096c-.447.059-.782.153-1.005.28-.378.215-.568.556-.568 1.026zm2.981-2.489c.282-.036.472-.154.567-.355.055-.109.082-.267.082-.472 0-.419-.15-.722-.451-.909s-.722-.287-1.278-.287c-.643 0-1.099.173-1.367.52-.151.191-.249.476-.294.854h-1.149c.023-.902.315-1.529.875-1.88s1.219-.533 1.962-.533c.861 0 1.561.164 2.099.492.533.328.8.839.8 1.531v4.218c0 .128.025.23.075.308s.166.116.335.116l.184-.007.219-.034v.909l-.437.103c-.101.013-.237.02-.411.02-.423 0-.731-.15-.922-.451-.101-.159-.171-.385-.212-.677-.251.328-.611.613-1.08.855a3.35 3.35 0 0 1-1.552.362c-.679 0-1.235-.205-1.668-.615s-.643-.932-.643-1.552c0-.679.212-1.205.636-1.579s.98-.604 1.668-.69l1.962-.247zm4.115-4.928h1.244v2.044h1.169v1.005h-1.169v4.778c0 .255.087.426.26.513.096.05.255.075.479.075h.191l.239-.021V203c-.141.041-.289.071-.444.089a4.17 4.17 0 0 1-.492.027c-.575 0-.964-.146-1.169-.437-.205-.297-.308-.679-.308-1.149v-4.846h-.991v-1.005h.991v-2.044zm10.37 1.832c.825 0 1.495.2 2.01.601s.832 1.092.936 2.072h-1.196c-.073-.452-.239-.825-.499-1.121-.26-.301-.677-.452-1.251-.452-.784 0-1.344.383-1.681 1.149-.219.497-.329 1.11-.329 1.839s.155 1.351.465 1.852.798.752 1.463.752c.511 0 .914-.155 1.21-.465.301-.314.508-.743.622-1.285h1.196c-.136.971-.478 1.682-1.025 2.133s-1.246.67-2.099.67c-.957 0-1.72-.349-2.29-1.046s-.854-1.577-.854-2.625c0-1.285.312-2.285.936-3.001s1.42-1.073 2.386-1.073zm5.12 5.585c0 .355.13.636.39.841s.567.307.923.307a2.8 2.8 0 0 0 1.258-.301c.683-.332 1.025-.877 1.025-1.633v-.992c-.15.096-.344.176-.581.24s-.469.109-.697.136l-.745.096c-.447.059-.782.153-1.005.28-.379.215-.568.556-.568 1.026zm2.981-2.489c.282-.036.471-.154.567-.355.055-.109.082-.267.082-.472 0-.419-.15-.722-.451-.909s-.722-.287-1.278-.287c-.643 0-1.099.173-1.367.52-.151.191-.249.476-.294.854h-1.149c.023-.902.315-1.529.875-1.88s1.219-.533 1.962-.533c.861 0 1.561.164 2.099.492s.799.839.799 1.531v4.218c0 .128.026.23.076.308s.166.116.335.116l.184-.007.219-.034v.909l-.438.103a3.34 3.34 0 0 1-.41.02c-.424 0-.731-.15-.923-.451-.1-.159-.17-.385-.211-.677-.251.328-.611.613-1.081.855s-.986.362-1.551.362c-.679 0-1.235-.205-1.668-.615s-.643-.932-.643-1.552c0-.679.212-1.205.636-1.579s.98-.604 1.668-.69l1.962-.247zm3.869-2.884h1.169v1.039c.346-.429.713-.736 1.1-.923s.818-.28 1.292-.28c1.04 0 1.741.362 2.106 1.087.2.396.301.963.301 1.702V203h-1.251v-4.614c0-.447-.066-.807-.199-1.08-.218-.456-.615-.684-1.189-.684a2.43 2.43 0 0 0-.718.089c-.337.1-.633.301-.888.601-.206.242-.34.493-.404.752-.059.256-.089.623-.089 1.101V203h-1.23v-7.321zm16.263 0h1.36l-1.155 3.213-1.121 3.076c-.711 1.868-1.213 3.008-1.504 3.418s-.793.615-1.504.615c-.173 0-.308-.007-.404-.021a2.92 2.92 0 0 1-.341-.075v-1.121l.465.11c.095.013.18.02.252.02.228 0 .395-.039.499-.116.11-.073.201-.164.274-.274.023-.036.105-.223.246-.56l.308-.752-2.707-7.533h1.394l1.962 5.961 1.976-5.961zm5.332 6.528c.815 0 1.374-.308 1.674-.923.306-.62.458-1.308.458-2.064 0-.684-.109-1.24-.328-1.668-.346-.675-.943-1.012-1.791-1.012-.752 0-1.299.287-1.64.861s-.513 1.267-.513 2.078c0 .78.171 1.429.513 1.949s.884.779 1.627.779zm.048-6.74c.943 0 1.74.314 2.392.943s.978 1.554.978 2.776c0 1.18-.287 2.155-.862 2.925s-1.465 1.156-2.673 1.156c-1.007 0-1.807-.34-2.399-1.019s-.889-1.6-.889-2.748c0-1.23.313-2.21.937-2.939s1.463-1.094 2.516-1.094zm6.07.212v4.86c0 .374.059.679.178.916.218.438.626.656 1.223.656.857 0 1.44-.382 1.75-1.148.169-.41.253-.973.253-1.689v-3.595h1.231V203h-1.163l.014-1.08a2.47 2.47 0 0 1-.595.704c-.469.383-1.039.574-1.709.574-1.043 0-1.754-.348-2.132-1.046-.205-.373-.308-.872-.308-1.497v-4.976h1.258zm11.238 3.746c0 .784.166 1.44.499 1.969s.866.793 1.6.793c.569 0 1.037-.244 1.401-.732.369-.492.554-1.196.554-2.112 0-.925-.189-1.609-.568-2.051s-.845-.67-1.401-.67a1.86 1.86 0 0 0-1.511.711c-.382.474-.574 1.171-.574 2.092zm1.853-3.876c.56 0 1.03.118 1.408.355.219.137.467.376.745.718v-3.698h1.183V203h-1.108v-1.019c-.287.452-.626.777-1.018.978s-.841.301-1.347.301c-.816 0-1.522-.342-2.119-1.026s-.896-1.602-.896-2.741c0-1.066.271-1.989.814-2.768s1.326-1.176 2.338-1.176zm8.066 6.658c.816 0 1.374-.308 1.675-.923s.458-1.308.458-2.064c0-.684-.11-1.24-.328-1.668-.347-.675-.944-1.012-1.791-1.012-.752 0-1.299.287-1.641.861s-.513 1.267-.513 2.078c0 .78.171 1.429.513 1.949s.884.779 1.627.779zm.048-6.74c.943 0 1.741.314 2.392.943s.978 1.554.978 2.776c0 1.18-.287 2.155-.861 2.925s-1.465 1.156-2.673 1.156c-1.007 0-1.807-.34-2.4-1.019s-.888-1.6-.888-2.748c0-1.23.312-2.21.936-2.939s1.463-1.094 2.516-1.094zm8.982-1.832h1.244v2.044h1.169v1.005h-1.169v4.778c0 .255.087.426.26.513.096.05.255.075.479.075h.191l.239-.021V203c-.141.041-.289.071-.444.089-.15.018-.314.027-.492.027-.574 0-.964-.146-1.169-.437-.205-.297-.308-.679-.308-1.149v-4.846h-.991v-1.005h.991v-2.044zm6.556 8.572c.816 0 1.374-.308 1.675-.923s.458-1.308.458-2.064c0-.684-.11-1.24-.328-1.668-.347-.675-.944-1.012-1.791-1.012-.752 0-1.299.287-1.641.861s-.513 1.267-.513 2.078c0 .78.171 1.429.513 1.949s.884.779 1.627.779zm.048-6.74c.943 0 1.741.314 2.392.943s.978 1.554.978 2.776c0 1.18-.287 2.155-.861 2.925s-1.466 1.156-2.673 1.156c-1.007 0-1.807-.34-2.4-1.019s-.888-1.6-.888-2.748c0-1.23.312-2.21.936-2.939s1.463-1.094 2.516-1.094zm8.736.212h1.217v1.039c.292-.36.556-.622.793-.786.406-.278.866-.417 1.381-.417.583 0 1.053.143 1.408.43.201.164.383.406.547.725.273-.392.595-.681.964-.868s.784-.287 1.244-.287c.984 0 1.654.355 2.01 1.066.191.383.287.898.287 1.545V203h-1.279v-5.086c0-.488-.123-.823-.369-1.005s-.537-.273-.888-.273c-.483 0-.9.162-1.251.485s-.52.864-.52 1.62V203h-1.251v-4.778c0-.497-.059-.859-.178-1.087-.186-.342-.535-.513-1.046-.513-.464 0-.888.18-1.271.54s-.567 1.012-.567 1.955V203h-1.231v-7.321zm14.568 6.528c.815 0 1.374-.308 1.674-.923.306-.62.458-1.308.458-2.064 0-.684-.109-1.24-.328-1.668-.346-.675-.943-1.012-1.791-1.012-.752 0-1.299.287-1.64.861s-.513 1.267-.513 2.078c0 .78.171 1.429.513 1.949s.884.779 1.627.779zm.047-6.74c.944 0 1.741.314 2.393.943s.978 1.554.978 2.776c0 1.18-.288 2.155-.862 2.925s-1.465 1.156-2.673 1.156c-1.007 0-1.807-.34-2.399-1.019s-.889-1.6-.889-2.748c0-1.23.312-2.21.937-2.939s1.463-1.094 2.515-1.094zm5.086-1.832h1.244v2.044h1.169v1.005h-1.169v4.778c0 .255.087.426.26.513.096.05.255.075.479.075h.191l.239-.021V203c-.141.041-.289.071-.444.089-.15.018-.314.027-.492.027-.574 0-.964-.146-1.169-.437-.205-.297-.308-.679-.308-1.149v-4.846h-.991v-1.005h.991v-2.044zm3.651 2.078h1.251V203h-1.251v-7.287zm0-2.755h1.251v1.395h-1.251v-1.395zm3.718 2.721l1.956 5.961 2.043-5.961h1.347L403.189 203h-1.312l-2.7-7.321h1.428zm7.342 5.373c0 .355.13.636.39.841s.567.307.923.307a2.8 2.8 0 0 0 1.258-.301c.683-.332 1.025-.877 1.025-1.633v-.992c-.15.096-.344.176-.581.24s-.469.109-.697.136l-.745.096c-.447.059-.782.153-1.005.28-.379.215-.568.556-.568 1.026zm2.981-2.489c.282-.036.471-.154.567-.355.055-.109.082-.267.082-.472 0-.419-.15-.722-.451-.909-.296-.191-.722-.287-1.278-.287-.643 0-1.099.173-1.368.52-.15.191-.248.476-.293.854h-1.149c.023-.902.315-1.529.875-1.88s1.219-.533 1.962-.533c.861 0 1.561.164 2.099.492s.799.839.799 1.531v4.218c0 .128.026.23.076.308s.166.116.335.116l.184-.007.219-.034v.909l-.438.103a3.34 3.34 0 0 1-.41.02c-.424 0-.731-.15-.923-.451-.1-.159-.17-.385-.212-.677-.25.328-.61.613-1.08.855s-.986.362-1.551.362c-.679 0-1.235-.205-1.668-.615s-.643-.932-.643-1.552c0-.679.212-1.205.636-1.579s.98-.604 1.668-.69l1.962-.247zm4.115-4.928h1.244v2.044h1.169v1.005h-1.169v4.778c0 .255.087.426.26.513.096.05.255.075.478.075h.192l.239-.021V203c-.141.041-.289.071-.444.089a4.17 4.17 0 0 1-.492.027c-.575 0-.964-.146-1.169-.437-.205-.297-.308-.679-.308-1.149v-4.846h-.991v-1.005h.991v-2.044zm6.699 1.88c.52 0 1.023.123 1.511.369s.859.556 1.114.943c.246.369.41.8.492 1.292.073.337.11.875.11 1.613h-5.366c.022.743.198 1.34.526 1.791s.836.67 1.524.67c.643 0 1.156-.212 1.538-.635.219-.246.374-.531.465-.855h1.21c-.032.269-.139.57-.321.902a3.14 3.14 0 0 1-.602.807c-.373.365-.836.611-1.387.738a4.22 4.22 0 0 1-1.005.11 3.09 3.09 0 0 1-2.318-.991c-.633-.666-.95-1.595-.95-2.79 0-1.175.319-2.13.957-2.864s1.472-1.1 2.502-1.1zm1.962 3.24c-.05-.533-.166-.959-.349-1.278-.337-.593-.9-.889-1.688-.889-.565 0-1.039.205-1.422.615s-.585.923-.608 1.552h4.067zm7.622 2.297c0 .355.13.636.39.841s.567.307.923.307c.433 0 .852-.1 1.257-.301.684-.332 1.026-.877 1.026-1.633v-.992c-.151.096-.344.176-.581.24s-.47.109-.697.136l-.746.096c-.446.059-.781.153-1.004.28-.379.215-.568.556-.568 1.026zm2.981-2.489c.282-.036.471-.154.567-.355.055-.109.082-.267.082-.472 0-.419-.15-.722-.451-.909s-.722-.287-1.278-.287c-.643 0-1.099.173-1.368.52-.15.191-.248.476-.294.854h-1.148c.023-.902.314-1.529.875-1.88s1.219-.533 1.962-.533c.861 0 1.561.164 2.099.492s.799.839.799 1.531v4.218c0 .128.025.23.076.308s.166.116.334.116l.185-.007.219-.034v.909l-.438.103a3.34 3.34 0 0 1-.41.02c-.424 0-.731-.15-.923-.451-.1-.159-.171-.385-.212-.677-.25.328-.61.613-1.08.855s-.986.362-1.551.362c-.679 0-1.235-.205-1.668-.615s-.643-.932-.643-1.552c0-.679.212-1.205.636-1.579s.98-.604 1.668-.69l1.962-.247zm8.011-4.928h1.244v2.044h1.169v1.005h-1.169v4.778c0 .255.087.426.26.513.096.05.255.075.479.075h.191l.239-.021V203c-.141.041-.289.071-.444.089-.15.018-.314.027-.492.027-.574 0-.964-.146-1.169-.437-.205-.297-.308-.679-.308-1.149v-4.846h-.991v-1.005h.991v-2.044zm6.7 1.88c.519 0 1.023.123 1.51.369s.859.556 1.115.943c.246.369.41.8.492 1.292.073.337.109.875.109 1.613h-5.366c.023.743.198 1.34.526 1.791s.837.67 1.525.67c.642 0 1.155-.212 1.538-.635a2.15 2.15 0 0 0 .465-.855h1.21c-.032.269-.139.57-.322.902-.177.329-.378.597-.601.807-.374.365-.837.611-1.388.738-.296.073-.631.11-1.005.11a3.09 3.09 0 0 1-2.317-.991c-.634-.666-.95-1.595-.95-2.79 0-1.175.319-2.13.957-2.864s1.472-1.1 2.502-1.1zm1.961 3.24c-.05-.533-.166-.959-.348-1.278-.337-.593-.9-.889-1.689-.889-.565 0-1.039.205-1.421.615s-.586.923-.609 1.552h4.067zm3.726 2.297c0 .355.13.636.39.841s.567.307.923.307c.433 0 .852-.1 1.257-.301.684-.332 1.026-.877 1.026-1.633v-.992c-.151.096-.344.176-.581.24a5.02 5.02 0 0 1-.698.136l-.745.096c-.446.059-.781.153-1.005.28-.378.215-.567.556-.567 1.026zm2.981-2.489c.282-.036.471-.154.567-.355.055-.109.082-.267.082-.472 0-.419-.15-.722-.451-.909s-.723-.287-1.279-.287c-.642 0-1.098.173-1.367.52-.15.191-.248.476-.294.854h-1.148c.023-.902.314-1.529.875-1.88s1.219-.533 1.962-.533c.861 0 1.561.164 2.098.492s.8.839.8 1.531v4.218c0 .128.025.23.075.308s.167.116.335.116l.185-.007.219-.034v.909l-.438.103a3.34 3.34 0 0 1-.41.02c-.424 0-.731-.15-.923-.451-.1-.159-.171-.385-.212-.677-.25.328-.61.613-1.08.855s-.986.362-1.552.362c-.679 0-1.235-.205-1.668-.615s-.642-.932-.642-1.552c0-.679.212-1.205.636-1.579s.979-.604 1.668-.69l1.962-.247zm3.869-2.884h1.216v1.039c.292-.36.556-.622.793-.786.406-.278.866-.417 1.381-.417.584 0 1.053.143 1.409.43.2.164.382.406.546.725.274-.392.595-.681.964-.868s.784-.287 1.244-.287c.985 0 1.655.355 2.01 1.066.192.383.287.898.287 1.545V203h-1.278v-5.086c0-.488-.123-.823-.369-1.005s-.538-.273-.889-.273c-.483 0-.9.162-1.251.485s-.519.864-.519 1.62V203h-1.251v-4.778c0-.497-.06-.859-.178-1.087-.187-.342-.536-.513-1.046-.513-.465 0-.889.18-1.271.54s-.568 1.012-.568 1.955V203h-1.23v-7.321zm14.13 5.899h1.36V203h-1.36v-1.422zm-2.304-5.475c0-.985.278-1.776.834-2.373s1.319-.902 2.29-.902c.898 0 1.615.258 2.153.773s.814 1.164.814 1.961c0 .484-.101.876-.301 1.176s-.595.743-1.196 1.326c-.438.424-.723.784-.855 1.081-.127.291-.191.724-.191 1.298h-1.217c0-.651.077-1.175.232-1.572s.495-.859 1.019-1.374l.547-.54a2.27 2.27 0 0 0 .396-.485c.183-.297.274-.604.274-.923 0-.447-.135-.834-.404-1.162s-.704-.492-1.319-.492c-.761 0-1.287.282-1.579.847-.164.315-.258.768-.28 1.361h-1.217z" class="F"/><use xlink:href="#E" class="D"/></g><g filter="url(#C)"><rect x="229" y="335" width="359" height="48" rx="5" class="B"/><path d="M245.101 353.958h1.374v4.149h5.222v-4.149h1.374V364h-1.374v-4.696h-5.222V364h-1.374v-10.042zm12.824 9.249c.816 0 1.374-.308 1.675-.923s.458-1.308.458-2.064c0-.684-.11-1.24-.329-1.668-.346-.675-.943-1.012-1.791-1.012-.751 0-1.298.287-1.64.861s-.513 1.267-.513 2.078c0 .78.171 1.429.513 1.949s.884.779 1.627.779zm.048-6.74c.943 0 1.741.314 2.392.943s.978 1.554.978 2.776c0 1.18-.287 2.155-.862 2.925s-1.465 1.156-2.672 1.156c-1.008 0-1.807-.34-2.4-1.019s-.888-1.6-.888-2.748c0-1.23.312-2.21.936-2.939s1.463-1.094 2.516-1.094zm5.407.212l1.408 5.769 1.429-5.769h1.381l1.435 5.735 1.497-5.735h1.231L269.635 364h-1.279l-1.49-5.667-1.442 5.667h-1.278l-2.113-7.321h1.347zm14.225 3.746c0 .784.167 1.44.499 1.969s.866.793 1.6.793c.57 0 1.037-.244 1.401-.732.37-.492.554-1.196.554-2.112 0-.925-.189-1.609-.567-2.051s-.846-.67-1.402-.67c-.619 0-1.123.237-1.51.711s-.575 1.171-.575 2.092zm1.853-3.876c.561 0 1.03.118 1.408.355.219.137.467.376.745.718v-3.698h1.183V364h-1.107v-1.019c-.288.452-.627.777-1.019.978s-.841.301-1.347.301c-.815 0-1.522-.342-2.119-1.026s-.895-1.602-.895-2.741c0-1.066.271-1.989.813-2.768.547-.784 1.326-1.176 2.338-1.176zm8.066 6.658c.816 0 1.374-.308 1.675-.923s.458-1.308.458-2.064c0-.684-.109-1.24-.328-1.668-.346-.675-.943-1.012-1.791-1.012-.752 0-1.299.287-1.641.861s-.512 1.267-.512 2.078c0 .78.171 1.429.512 1.949s.885.779 1.627.779zm.048-6.74c.944 0 1.741.314 2.393.943s.977 1.554.977 2.776c0 1.18-.287 2.155-.861 2.925s-1.465 1.156-2.673 1.156c-1.007 0-1.807-.34-2.399-1.019s-.889-1.6-.889-2.748c0-1.23.312-2.21.937-2.939s1.463-1.094 2.515-1.094zm13.31.212h1.36l-1.155 3.213-1.121 3.076c-.711 1.868-1.212 3.008-1.504 3.418s-.793.615-1.504.615a2.95 2.95 0 0 1-.403-.021c-.091-.013-.205-.038-.342-.075v-1.121l.465.11c.095.013.18.02.253.02.228 0 .394-.039.499-.116s.2-.164.273-.274c.023-.036.105-.223.246-.56l.308-.752-2.707-7.533h1.394l1.962 5.961 1.976-5.961zm5.332 6.528c.816 0 1.374-.308 1.675-.923s.458-1.308.458-2.064c0-.684-.11-1.24-.328-1.668-.347-.675-.944-1.012-1.791-1.012-.752 0-1.299.287-1.641.861s-.513 1.267-.513 2.078c0 .78.171 1.429.513 1.949s.884.779 1.627.779zm.048-6.74c.943 0 1.741.314 2.392.943s.978 1.554.978 2.776c0 1.18-.287 2.155-.861 2.925s-1.466 1.156-2.673 1.156c-1.008 0-1.807-.34-2.4-1.019s-.888-1.6-.888-2.748c0-1.23.312-2.21.936-2.939s1.463-1.094 2.516-1.094zm6.07.212v4.86c0 .374.059.679.178.916.219.438.626.656 1.223.656.857 0 1.441-.382 1.75-1.148.169-.41.253-.973.253-1.689v-3.595h1.231V364h-1.162l.013-1.08c-.159.278-.357.513-.594.704-.47.383-1.039.574-1.709.574-1.044 0-1.755-.348-2.133-1.046-.205-.373-.308-.872-.308-1.497v-4.976h1.258zm10.493 0h1.169v1.264c.096-.246.331-.544.704-.895s.805-.533 1.292-.533c.023 0 .062.002.116.006l.281.028v1.299c-.073-.014-.142-.023-.205-.028l-.199-.007c-.619 0-1.096.201-1.428.602s-.499.855-.499 1.374V364h-1.231v-7.321zm7.677-.164a3.32 3.32 0 0 1 1.511.369c.487.241.859.556 1.114.943.246.369.41.8.492 1.292.073.337.11.875.11 1.613h-5.367c.023.743.199 1.34.527 1.791s.836.67 1.524.67c.643 0 1.155-.212 1.538-.635.219-.246.374-.531.465-.855h1.21c-.032.269-.139.57-.321.902s-.379.597-.602.807c-.374.365-.836.611-1.388.738-.296.073-.631.11-1.004.11a3.09 3.09 0 0 1-2.318-.991c-.633-.666-.95-1.595-.95-2.79 0-1.175.319-2.13.957-2.864s1.472-1.1 2.502-1.1zm1.962 3.24c-.05-.533-.166-.959-.349-1.278-.337-.593-.9-.889-1.688-.889-.565 0-1.039.205-1.422.615s-.586.923-.609 1.552h4.068zm3.514 1.948c.036.41.139.725.307.943.31.397.848.595 1.613.595.456 0 .857-.098 1.204-.294s.519-.508.519-.923c0-.314-.139-.553-.417-.717-.178-.101-.529-.217-1.053-.349l-.977-.246c-.625-.155-1.085-.328-1.381-.52-.529-.332-.793-.793-.793-1.38 0-.693.248-1.254.745-1.682s1.174-.643 2.017-.643c1.103 0 1.898.324 2.385.971.306.41.454.852.445 1.326h-1.162c-.023-.278-.121-.531-.294-.759-.283-.323-.773-.485-1.47-.485-.465 0-.818.089-1.06.267-.237.177-.355.412-.355.704 0 .319.157.574.472.765.182.114.451.215.806.301l.814.198c.884.215 1.476.422 1.777.622.479.315.718.809.718 1.484 0 .652-.248 1.214-.745 1.688s-1.244.711-2.256.711c-1.089 0-1.862-.246-2.317-.738s-.693-1.11-.725-1.839h1.183zm9.358 1.47c.574 0 1.05-.239 1.429-.718s.574-1.203.574-2.16c0-.583-.084-1.085-.253-1.504-.319-.807-.902-1.21-1.75-1.21s-1.436.426-1.75 1.278c-.169.456-.253 1.035-.253 1.737 0 .565.084 1.046.253 1.442.319.757.902 1.135 1.75 1.135zm-3.186-6.46h1.197v.971c.246-.333.515-.591.806-.773.415-.273.903-.41 1.463-.41.83 0 1.534.319 2.113.957.578.633.868 1.54.868 2.721 0 1.595-.417 2.734-1.251 3.418-.529.433-1.144.649-1.846.649-.551 0-1.014-.121-1.388-.362-.218-.137-.462-.372-.731-.704v3.739h-1.231v-10.206zm10.794 6.494c.816 0 1.374-.308 1.675-.923s.458-1.308.458-2.064c0-.684-.109-1.24-.328-1.668-.346-.675-.943-1.012-1.791-1.012-.752 0-1.299.287-1.641.861s-.512 1.267-.512 2.078c0 .78.171 1.429.512 1.949s.884.779 1.627.779zm.048-6.74c.944 0 1.741.314 2.393.943s.977 1.554.977 2.776c0 1.18-.287 2.155-.861 2.925s-1.465 1.156-2.673 1.156c-1.007 0-1.807-.34-2.399-1.019s-.889-1.6-.889-2.748c0-1.23.312-2.21.937-2.939s1.462-1.094 2.515-1.094zm4.84.212h1.169v1.039c.346-.429.713-.736 1.101-.923s.818-.28 1.292-.28c1.039 0 1.74.362 2.105 1.087.201.396.301.963.301 1.702V364h-1.251v-4.614c0-.447-.066-.807-.198-1.08-.219-.456-.616-.684-1.19-.684a2.43 2.43 0 0 0-.718.089c-.337.1-.633.301-.888.601-.205.242-.34.493-.404.752s-.089.623-.089 1.101V364h-1.23v-7.321zm8.572 3.746c0 .784.167 1.44.499 1.969s.866.793 1.6.793c.57 0 1.037-.244 1.401-.732.369-.492.554-1.196.554-2.112 0-.925-.189-1.609-.567-2.051s-.846-.67-1.402-.67c-.62 0-1.123.237-1.51.711s-.575 1.171-.575 2.092zm1.853-3.876c.56 0 1.03.118 1.408.355.219.137.467.376.745.718v-3.698h1.183V364h-1.108v-1.019c-.287.452-.626.777-1.018.978s-.841.301-1.347.301c-.816 0-1.522-.342-2.119-1.026s-.896-1.602-.896-2.741c0-1.066.272-1.989.814-2.768.547-.784 1.326-1.176 2.338-1.176zm9.304-1.914h1.244v2.044h1.169v1.005h-1.169v4.778c0 .255.086.426.259.513.096.05.256.075.479.075h.191l.24-.021V364a2.74 2.74 0 0 1-.445.089c-.15.018-.314.027-.492.027-.574 0-.964-.146-1.169-.437-.205-.297-.307-.679-.307-1.149v-4.846h-.992v-1.005h.992v-2.044zm6.555 8.572c.816 0 1.374-.308 1.675-.923s.458-1.308.458-2.064c0-.684-.109-1.24-.328-1.668-.346-.675-.943-1.012-1.791-1.012-.752 0-1.299.287-1.641.861s-.512 1.267-.512 2.078c0 .78.17 1.429.512 1.949s.884.779 1.627.779zm.048-6.74c.943 0 1.741.314 2.393.943s.977 1.554.977 2.776c0 1.18-.287 2.155-.861 2.925s-1.465 1.156-2.673 1.156c-1.007 0-1.807-.34-2.399-1.019s-.889-1.6-.889-2.748c0-1.23.312-2.21.936-2.939s1.463-1.094 2.516-1.094zm11.56 0c.825 0 1.494.2 2.009.601s.832 1.092.937 2.072h-1.196c-.073-.452-.24-.825-.499-1.121s-.677-.452-1.251-.452c-.784 0-1.345.383-1.682 1.149-.219.497-.328 1.11-.328 1.839s.155 1.351.465 1.852.797.752 1.463.752c.51 0 .913-.155 1.21-.465s.508-.743.622-1.285h1.196c-.137.971-.479 1.682-1.025 2.133s-1.247.67-2.099.67c-.957 0-1.72-.349-2.29-1.046s-.855-1.577-.855-2.625c0-1.285.313-2.285.937-3.001s1.419-1.073 2.386-1.073zm4.211.212h1.169v1.264c.095-.246.33-.544.704-.895s.804-.533 1.292-.533c.022 0 .061.002.116.006l.28.028v1.299a1.85 1.85 0 0 0-.205-.028l-.198-.007c-.62 0-1.096.201-1.429.602s-.499.855-.499 1.374V364h-1.23v-7.321zm4.627.034h1.251V364h-1.251v-7.287zm0-2.755h1.251v1.395h-1.251v-1.395zm3.364.677h1.244v2.044h1.169v1.005h-1.169v4.778c0 .255.087.426.26.513.095.05.255.075.478.075h.192l.239-.021V364c-.141.041-.29.071-.444.089s-.315.027-.493.027c-.574 0-.964-.146-1.169-.437-.205-.297-.307-.679-.307-1.149v-4.846h-.991v-1.005h.991v-2.044zm3.65 2.078h1.251V364h-1.251v-7.287zm0-2.755h1.251v1.395h-1.251v-1.395zm5.941 2.509c.824 0 1.494.2 2.009.601s.832 1.092.937 2.072h-1.196c-.073-.452-.24-.825-.499-1.121s-.677-.452-1.251-.452c-.784 0-1.345.383-1.682 1.149-.219.497-.328 1.11-.328 1.839s.155 1.351.465 1.852.797.752 1.463.752c.51 0 .913-.155 1.21-.465s.508-.743.622-1.285h1.196c-.137.971-.479 1.682-1.025 2.133s-1.247.67-2.099.67c-.957 0-1.721-.349-2.29-1.046s-.855-1.577-.855-2.625c0-1.285.313-2.285.937-3.001s1.419-1.073 2.386-1.073zm4.176.246h1.251V364h-1.251v-7.287zm0-2.755h1.251v1.395h-1.251v-1.395zm3.849 7.745c.036.41.139.725.308.943.31.397.847.595 1.613.595.456 0 .857-.098 1.203-.294s.52-.508.52-.923c0-.314-.139-.553-.417-.717-.178-.101-.529-.217-1.053-.349l-.978-.246c-.624-.155-1.084-.328-1.381-.52-.528-.332-.793-.793-.793-1.38 0-.693.249-1.254.746-1.682s1.173-.643 2.016-.643c1.103 0 1.898.324 2.386.971.305.41.453.852.444 1.326h-1.162c-.023-.278-.121-.531-.294-.759-.282-.323-.772-.485-1.47-.485-.464 0-.818.089-1.059.267s-.356.412-.356.704c0 .319.158.574.472.765.182.114.451.215.807.301l.813.198c.884.215 1.477.422 1.778.622.478.315.717.809.717 1.484 0 .652-.248 1.214-.745 1.688-.492.474-1.244.711-2.256.711-1.089 0-1.861-.246-2.317-.738s-.693-1.11-.725-1.839h1.183zm6.269-5.024h1.216v1.039c.292-.36.556-.622.793-.786.406-.278.866-.417 1.381-.417.584 0 1.053.143 1.408.43.201.164.383.406.547.725.274-.392.595-.681.964-.868.369-.192.784-.287 1.244-.287.985 0 1.655.355 2.01 1.066.191.383.287.898.287 1.545V364h-1.278v-5.086c0-.488-.123-.823-.369-1.005s-.538-.273-.889-.273c-.483 0-.9.162-1.251.485s-.52.864-.52 1.62V364h-1.25v-4.778c0-.497-.06-.859-.178-1.087-.187-.342-.536-.513-1.046-.513-.465 0-.889.18-1.272.54s-.567 1.012-.567 1.955V364h-1.23v-7.321zm14.129 5.899h1.361V364h-1.361v-1.422zm-2.303-5.475c0-.985.278-1.776.834-2.373s1.319-.902 2.29-.902c.898 0 1.615.258 2.153.773s.814 1.164.814 1.961c0 .484-.101.876-.301 1.176s-.595.743-1.197 1.326c-.437.424-.722.784-.854 1.081-.128.291-.191.724-.191 1.298h-1.217c0-.651.077-1.175.232-1.572s.495-.859 1.019-1.374l.547-.54a2.27 2.27 0 0 0 .396-.485c.182-.297.274-.604.274-.923 0-.447-.135-.834-.404-1.162s-.704-.492-1.319-.492c-.761 0-1.288.282-1.579.847-.164.315-.258.768-.28 1.361h-1.217z" fill="#000"/><use xlink:href="#E" x="1" y="161" class="D"/></g><g filter="url(#D)"><rect x="163" y="250" width="496" height="48" rx="5" class="B"/><path d="M246.729 268.958l1.894 8.169 2.27-8.169h1.476l2.27 8.169 1.893-8.169h1.49L255.384 279h-1.429l-2.317-8.326-2.331 8.326h-1.429l-2.625-10.042h1.476zm12.394-.034h1.231v3.746c.291-.369.553-.629.786-.779.396-.26.891-.39 1.483-.39 1.062 0 1.782.371 2.16 1.114.205.406.308.969.308 1.689V279h-1.265v-4.614c0-.538-.068-.932-.205-1.183-.223-.401-.642-.601-1.258-.601-.51 0-.973.175-1.387.526s-.622 1.014-.622 1.989V279h-1.231v-10.076zm8.736 8.128c0 .355.13.636.39.841s.567.307.923.307a2.8 2.8 0 0 0 1.258-.301c.683-.332 1.025-.877 1.025-1.633v-.992c-.15.096-.344.176-.581.24s-.469.109-.697.136l-.745.096c-.447.059-.782.153-1.005.28-.378.215-.568.556-.568 1.026zm2.981-2.489c.282-.036.472-.154.567-.355.055-.109.082-.267.082-.472 0-.419-.15-.722-.451-.909s-.722-.287-1.278-.287c-.643 0-1.099.173-1.367.52-.151.191-.249.476-.294.854h-1.149c.023-.902.315-1.529.875-1.88s1.219-.533 1.962-.533c.861 0 1.561.164 2.099.492.533.328.8.839.8 1.531v4.218c0 .128.025.23.075.308s.166.116.335.116l.184-.007.219-.034v.909l-.437.103c-.101.013-.237.02-.411.02-.423 0-.731-.15-.922-.451-.101-.159-.171-.385-.212-.677-.251.328-.611.613-1.08.855a3.35 3.35 0 0 1-1.552.362c-.679 0-1.235-.205-1.668-.615s-.643-.932-.643-1.552c0-.679.212-1.205.636-1.579s.98-.604 1.668-.69l1.962-.247zm4.115-4.928h1.244v2.044h1.169v1.005h-1.169v4.778c0 .255.087.426.26.513.096.05.255.075.479.075h.191l.239-.021V279c-.141.041-.289.071-.444.089a4.17 4.17 0 0 1-.492.027c-.575 0-.964-.146-1.169-.437-.205-.297-.308-.679-.308-1.149v-4.846h-.991v-1.005h.991v-2.044zm8.149 2.044l1.955 5.961 2.044-5.961h1.346L285.688 279h-1.313l-2.7-7.321h1.429zm7.341 5.373c0 .355.13.636.39.841s.567.307.923.307a2.8 2.8 0 0 0 1.258-.301c.683-.332 1.025-.877 1.025-1.633v-.992c-.15.096-.344.176-.581.24s-.469.109-.697.136l-.745.096c-.447.059-.782.153-1.005.28-.379.215-.568.556-.568 1.026zm2.981-2.489c.282-.036.471-.154.567-.355.055-.109.082-.267.082-.472 0-.419-.15-.722-.451-.909s-.722-.287-1.278-.287c-.643 0-1.099.173-1.367.52-.151.191-.249.476-.294.854h-1.149c.023-.902.315-1.529.875-1.88s1.219-.533 1.962-.533c.861 0 1.561.164 2.099.492s.799.839.799 1.531v4.218c0 .128.026.23.076.308s.166.116.335.116l.184-.007.219-.034v.909l-.438.103a3.34 3.34 0 0 1-.41.02c-.424 0-.731-.15-.923-.451-.1-.159-.17-.385-.211-.677-.251.328-.611.613-1.081.855s-.986.362-1.551.362c-.679 0-1.235-.205-1.668-.615s-.643-.932-.643-1.552c0-.679.212-1.205.636-1.579s.98-.604 1.668-.69l1.962-.247zm3.903-5.605h1.231V279h-1.231v-10.042zm4.314 2.721v4.86c0 .374.059.679.177.916.219.438.627.656 1.224.656.857 0 1.44-.382 1.75-1.148.169-.41.253-.973.253-1.689v-3.595h1.23V279h-1.162l.014-1.08c-.16.278-.358.513-.595.704-.469.383-1.039.574-1.709.574-1.043 0-1.754-.348-2.133-1.046-.205-.373-.307-.872-.307-1.497v-4.976h1.258zm9.611-.164a3.32 3.32 0 0 1 1.511.369c.487.241.859.556 1.114.943.246.369.41.8.492 1.292.073.337.109.875.109 1.613h-5.366c.023.743.198 1.34.527 1.791s.836.67 1.524.67c.643 0 1.155-.212 1.538-.635.219-.246.374-.531.465-.855h1.21c-.032.269-.139.57-.321.902s-.379.597-.602.807c-.374.365-.836.611-1.388.738-.296.073-.631.11-1.005.11a3.09 3.09 0 0 1-2.317-.991c-.633-.666-.95-1.595-.95-2.79 0-1.175.319-2.13.957-2.864s1.472-1.1 2.502-1.1zm1.962 3.24c-.05-.533-.167-.959-.349-1.278-.337-.593-.9-.889-1.688-.889-.565 0-1.039.205-1.422.615s-.586.923-.609 1.552h4.068zm3.513 1.948c.037.41.139.725.308.943.31.397.848.595 1.613.595.456 0 .857-.098 1.204-.294s.519-.508.519-.923c0-.314-.139-.553-.417-.717-.178-.101-.529-.217-1.053-.349l-.977-.246c-.625-.155-1.085-.328-1.381-.52-.529-.332-.793-.793-.793-1.38 0-.693.248-1.254.745-1.682s1.174-.643 2.017-.643c1.103 0 1.898.324 2.385.971.306.41.454.852.445 1.326h-1.162c-.023-.278-.121-.531-.294-.759-.283-.323-.773-.485-1.47-.485-.465 0-.818.089-1.06.267s-.355.412-.355.704c0 .319.157.574.472.765.182.114.451.215.806.301l.814.198c.884.215 1.476.422 1.777.622.479.315.718.809.718 1.484 0 .652-.249 1.214-.745 1.688s-1.244.711-2.256.711c-1.089 0-1.862-.246-2.318-.738s-.692-1.11-.724-1.839h1.182zm11.109.349c0 .355.13.636.39.841s.567.307.922.307a2.8 2.8 0 0 0 1.258-.301c.684-.332 1.026-.877 1.026-1.633v-.992c-.151.096-.344.176-.581.24a5.02 5.02 0 0 1-.698.136l-.745.096c-.446.059-.781.153-1.005.28-.378.215-.567.556-.567 1.026zm2.98-2.489c.283-.036.472-.154.568-.355.054-.109.082-.267.082-.472 0-.419-.151-.722-.451-.909s-.723-.287-1.279-.287c-.642 0-1.098.173-1.367.52-.15.191-.248.476-.294.854h-1.148c.022-.902.314-1.529.875-1.88s1.219-.533 1.962-.533c.861 0 1.56.164 2.098.492s.8.839.8 1.531v4.218c0 .128.025.23.075.308.055.077.167.116.335.116l.185-.007.219-.034v.909l-.438.103a3.34 3.34 0 0 1-.41.02c-.424 0-.732-.15-.923-.451-.1-.159-.171-.385-.212-.677-.251.328-.611.613-1.08.855s-.987.362-1.552.362c-.679 0-1.235-.205-1.668-.615s-.642-.932-.642-1.552c0-.679.212-1.205.635-1.579s.98-.604 1.668-.69l1.962-.247zm3.904-2.884h1.169v1.264c.095-.246.33-.544.704-.895s.804-.533 1.292-.533a1.84 1.84 0 0 1 .116.006l.28.028v1.299a1.85 1.85 0 0 0-.205-.028l-.198-.007c-.62 0-1.096.201-1.429.602s-.499.855-.499 1.374V279h-1.23v-7.321zm7.676-.164c.52 0 1.024.123 1.511.369.488.241.859.556 1.114.943.247.369.411.8.493 1.292.073.337.109.875.109 1.613h-5.366c.023.743.198 1.34.526 1.791s.836.67 1.525.67c.642 0 1.155-.212 1.538-.635.218-.246.373-.531.464-.855h1.21c-.031.269-.139.57-.321.902a3.16 3.16 0 0 1-.601.807c-.374.365-.837.611-1.388.738-.296.073-.631.11-1.005.11a3.09 3.09 0 0 1-2.317-.991c-.634-.666-.951-1.595-.951-2.79 0-1.175.319-2.13.957-2.864s1.472-1.1 2.502-1.1zm1.962 3.24c-.05-.533-.166-.959-.348-1.278-.338-.593-.9-.889-1.689-.889-.565 0-1.039.205-1.422.615s-.585.923-.608 1.552h4.067zm6.679-3.076h1.217v1.039c.292-.36.556-.622.793-.786.405-.278.866-.417 1.381-.417.583 0 1.052.143 1.408.43.2.164.383.406.547.725.273-.392.594-.681.964-.868.369-.192.783-.287 1.244-.287.984 0 1.654.355 2.01 1.066.191.383.287.898.287 1.545V279h-1.279v-5.086c0-.488-.123-.823-.369-1.005s-.538-.273-.888-.273a1.78 1.78 0 0 0-1.251.485c-.347.324-.52.864-.52 1.62V279h-1.251v-4.778c0-.497-.059-.859-.178-1.087-.187-.342-.535-.513-1.046-.513-.464 0-.888.18-1.271.54-.378.36-.567 1.012-.567 1.955V279h-1.231v-7.321zm14.567 6.528c.816 0 1.374-.308 1.675-.923s.458-1.308.458-2.064c0-.684-.109-1.24-.328-1.668-.346-.675-.943-1.012-1.791-1.012-.752 0-1.299.287-1.641.861s-.512 1.267-.512 2.078c0 .78.171 1.429.512 1.949s.885.779 1.627.779zm.048-6.74c.944 0 1.741.314 2.393.943s.977 1.554.977 2.776c0 1.18-.287 2.155-.861 2.925s-1.465 1.156-2.673 1.156c-1.007 0-1.807-.34-2.399-1.019s-.889-1.6-.889-2.748c0-1.23.312-2.21.937-2.939s1.463-1.094 2.515-1.094zm5.572 5.236c.036.41.139.725.307.943.31.397.848.595 1.613.595.456 0 .857-.098 1.204-.294s.519-.508.519-.923c0-.314-.139-.553-.417-.717-.178-.101-.528-.217-1.053-.349l-.977-.246c-.624-.155-1.085-.328-1.381-.52-.529-.332-.793-.793-.793-1.38 0-.693.248-1.254.745-1.682s1.174-.643 2.017-.643c1.103 0 1.898.324 2.386.971.305.41.453.852.444 1.326h-1.162c-.023-.278-.121-.531-.294-.759-.283-.323-.773-.485-1.47-.485-.465 0-.818.089-1.06.267-.236.177-.355.412-.355.704 0 .319.157.574.472.765.182.114.451.215.806.301l.814.198c.884.215 1.476.422 1.777.622.479.315.718.809.718 1.484 0 .652-.248 1.214-.745 1.688s-1.244.711-2.256.711c-1.089 0-1.862-.246-2.317-.738s-.693-1.11-.725-1.839h1.183zm6.514-7.068h1.244v2.044h1.169v1.005h-1.169v4.778c0 .255.087.426.26.513.096.05.255.075.479.075h.191l.239-.021V279c-.141.041-.289.071-.444.089s-.314.027-.492.027c-.574 0-.964-.146-1.169-.437-.205-.297-.308-.679-.308-1.149v-4.846h-.991v-1.005h.991v-2.044zm7.547 2.078h1.251V279h-1.251v-7.287zm0-2.755h1.251v1.395h-1.251v-1.395zm3.117 2.721h1.217v1.039c.292-.36.556-.622.793-.786.406-.278.866-.417 1.381-.417.583 0 1.053.143 1.408.43.201.164.383.406.547.725.273-.392.595-.681.964-.868.369-.192.784-.287 1.244-.287.984 0 1.654.355 2.01 1.066.191.383.287.898.287 1.545V279h-1.278v-5.086c0-.488-.123-.823-.37-1.005-.241-.182-.537-.273-.888-.273-.483 0-.9.162-1.251.485s-.52.864-.52 1.62V279h-1.251v-4.778c0-.497-.059-.859-.177-1.087-.187-.342-.536-.513-1.046-.513-.465 0-.889.18-1.272.54s-.567 1.012-.567 1.955V279h-1.231v-7.321zm14.752 6.494c.574 0 1.051-.239 1.429-.718.383-.483.574-1.203.574-2.16 0-.583-.084-1.085-.253-1.504-.319-.807-.902-1.21-1.75-1.21s-1.435.426-1.75 1.278c-.168.456-.253 1.035-.253 1.737 0 .565.085 1.046.253 1.442.319.757.903 1.135 1.75 1.135zm-3.185-6.46h1.196v.971c.246-.333.515-.591.807-.773.414-.273.902-.41 1.463-.41.829 0 1.533.319 2.112.957.579.633.868 1.54.868 2.721 0 1.595-.417 2.734-1.251 3.418-.529.433-1.144.649-1.846.649-.551 0-1.014-.121-1.387-.362-.219-.137-.463-.372-.732-.704v3.739h-1.23v-10.206zm10.794 6.494c.815 0 1.374-.308 1.674-.923.306-.62.458-1.308.458-2.064 0-.684-.109-1.24-.328-1.668-.346-.675-.943-1.012-1.791-1.012-.752 0-1.299.287-1.64.861s-.513 1.267-.513 2.078c0 .78.171 1.429.513 1.949s.884.779 1.627.779zm.047-6.74c.944 0 1.741.314 2.393.943s.978 1.554.978 2.776c0 1.18-.287 2.155-.862 2.925s-1.465 1.156-2.673 1.156c-1.007 0-1.807-.34-2.399-1.019s-.889-1.6-.889-2.748c0-1.23.313-2.21.937-2.939s1.463-1.094 2.515-1.094zm4.875.212h1.168v1.264c.096-.246.331-.544.705-.895s.804-.533 1.292-.533c.022 0 .061.002.116.006l.28.028v1.299a1.85 1.85 0 0 0-.205-.028l-.198-.007c-.62 0-1.096.201-1.429.602s-.499.855-.499 1.374V279h-1.23v-7.321zm4.874-2.044h1.244v2.044h1.169v1.005h-1.169v4.778c0 .255.086.426.259.513.096.05.256.075.479.075h.191l.24-.021V279a2.74 2.74 0 0 1-.445.089c-.15.018-.314.027-.492.027-.574 0-.964-.146-1.169-.437-.205-.297-.307-.679-.307-1.149v-4.846h-.992v-1.005h.992v-2.044zm4.593 7.417c0 .355.13.636.39.841s.567.307.923.307a2.8 2.8 0 0 0 1.258-.301c.683-.332 1.025-.877 1.025-1.633v-.992c-.15.096-.344.176-.581.24s-.469.109-.697.136l-.745.096c-.447.059-.782.153-1.005.28-.379.215-.568.556-.568 1.026zm2.981-2.489c.282-.036.471-.154.567-.355.055-.109.082-.267.082-.472 0-.419-.15-.722-.451-.909s-.722-.287-1.278-.287c-.643 0-1.099.173-1.367.52-.151.191-.249.476-.294.854h-1.149c.023-.902.315-1.529.875-1.88s1.219-.533 1.962-.533c.861 0 1.561.164 2.099.492s.799.839.799 1.531v4.218c0 .128.026.23.076.308s.166.116.335.116l.184-.007.219-.034v.909l-.438.103a3.34 3.34 0 0 1-.41.02c-.424 0-.731-.15-.923-.451-.1-.159-.17-.385-.211-.677-.251.328-.611.613-1.081.855s-.986.362-1.551.362c-.679 0-1.235-.205-1.668-.615s-.643-.932-.643-1.552c0-.679.212-1.205.636-1.579s.98-.604 1.668-.69l1.962-.247zm3.869-2.884h1.169v1.039c.346-.429.713-.736 1.1-.923s.818-.28 1.292-.28c1.039 0 1.741.362 2.106 1.087.2.396.301.963.301 1.702V279h-1.251v-4.614c0-.447-.066-.807-.199-1.08-.218-.456-.615-.684-1.189-.684a2.43 2.43 0 0 0-.718.089c-.337.1-.633.301-.888.601-.206.242-.34.493-.404.752-.059.256-.089.623-.089 1.101V279h-1.23v-7.321zm8.039-2.044h1.244v2.044h1.169v1.005h-1.169v4.778c0 .255.087.426.26.513.096.05.255.075.478.075h.192l.239-.021V279c-.141.041-.289.071-.444.089a4.17 4.17 0 0 1-.492.027c-.575 0-.964-.146-1.169-.437-.205-.297-.308-.679-.308-1.149v-4.846h-.991v-1.005h.991v-2.044zm7.793 0h1.244v2.044h1.169v1.005h-1.169v4.778c0 .255.087.426.26.513.096.05.255.075.478.075h.192l.239-.021V279c-.141.041-.289.071-.444.089s-.315.027-.493.027c-.574 0-.963-.146-1.168-.437-.206-.297-.308-.679-.308-1.149v-4.846h-.991v-1.005h.991v-2.044zm6.556 8.572c.815 0 1.374-.308 1.674-.923.306-.62.458-1.308.458-2.064 0-.684-.109-1.24-.328-1.668-.346-.675-.943-1.012-1.791-1.012-.752 0-1.299.287-1.64.861s-.513 1.267-.513 2.078c0 .78.171 1.429.513 1.949s.884.779 1.627.779zm.047-6.74c.944 0 1.741.314 2.393.943s.978 1.554.978 2.776c0 1.18-.288 2.155-.862 2.925s-1.465 1.156-2.673 1.156c-1.007 0-1.807-.34-2.399-1.019s-.889-1.6-.889-2.748c0-1.23.312-2.21.937-2.939s1.463-1.094 2.515-1.094zm13.31.212h1.36l-1.155 3.213-1.121 3.076c-.711 1.868-1.212 3.008-1.504 3.418s-.793.615-1.504.615a2.96 2.96 0 0 1-.403-.021c-.091-.013-.205-.038-.342-.075v-1.121l.465.11a1.92 1.92 0 0 0 .253.02c.228 0 .394-.039.499-.116s.2-.164.273-.274c.023-.036.105-.223.246-.56l.308-.752-2.707-7.533h1.395l1.961 5.961 1.976-5.961zm5.332 6.528c.816 0 1.374-.308 1.675-.923s.458-1.308.458-2.064c0-.684-.11-1.24-.328-1.668-.347-.675-.944-1.012-1.791-1.012-.752 0-1.299.287-1.641.861s-.513 1.267-.513 2.078c0 .78.171 1.429.513 1.949s.884.779 1.627.779zm.048-6.74c.943 0 1.741.314 2.392.943s.978 1.554.978 2.776c0 1.18-.287 2.155-.861 2.925s-1.465 1.156-2.673 1.156c-1.007 0-1.807-.34-2.4-1.019s-.888-1.6-.888-2.748c0-1.23.312-2.21.936-2.939s1.463-1.094 2.516-1.094zm6.07.212v4.86c0 .374.059.679.178.916.219.438.627.656 1.224.656.856 0 1.44-.382 1.75-1.148.168-.41.253-.973.253-1.689v-3.595h1.23V279h-1.162l.014-1.08c-.16.278-.358.513-.595.704-.47.383-1.039.574-1.709.574-1.044 0-1.755-.348-2.133-1.046-.205-.373-.308-.872-.308-1.497v-4.976h1.258zm11.403 5.373c0 .355.129.636.389.841s.568.307.923.307a2.8 2.8 0 0 0 1.258-.301c.683-.332 1.025-.877 1.025-1.633v-.992c-.15.096-.344.176-.581.24s-.469.109-.697.136l-.745.096c-.447.059-.782.153-1.005.28-.378.215-.567.556-.567 1.026zm2.98-2.489c.283-.036.472-.154.567-.355.055-.109.082-.267.082-.472 0-.419-.15-.722-.451-.909-.296-.191-.722-.287-1.278-.287-.643 0-1.098.173-1.367.52-.151.191-.249.476-.294.854h-1.149c.023-.902.315-1.529.875-1.88s1.219-.533 1.962-.533c.862 0 1.561.164 2.099.492s.8.839.8 1.531v4.218c0 .128.025.23.075.308s.166.116.335.116l.184-.007.219-.034v.909l-.437.103a3.35 3.35 0 0 1-.41.02c-.424 0-.732-.15-.923-.451-.101-.159-.171-.385-.212-.677-.251.328-.611.613-1.08.855a3.35 3.35 0 0 1-1.552.362c-.679 0-1.235-.205-1.668-.615s-.643-.932-.643-1.552c0-.679.212-1.205.636-1.579s.98-.604 1.668-.69l1.962-.247zm4.601 2.14c.036.41.139.725.307.943.31.397.848.595 1.614.595.455 0 .856-.098 1.203-.294s.519-.508.519-.923c0-.314-.139-.553-.417-.717-.178-.101-.528-.217-1.053-.349l-.977-.246c-.624-.155-1.085-.328-1.381-.52-.529-.332-.793-.793-.793-1.38 0-.693.248-1.254.745-1.682s1.174-.643 2.017-.643c1.103 0 1.898.324 2.386.971.305.41.453.852.444 1.326h-1.162c-.023-.278-.121-.531-.294-.759-.283-.323-.773-.485-1.47-.485-.465 0-.818.089-1.059.267s-.356.412-.356.704c0 .319.157.574.472.765.182.114.451.215.806.301l.814.198c.884.215 1.476.422 1.777.622.479.315.718.809.718 1.484 0 .652-.248 1.214-.745 1.688s-1.244.711-2.256.711c-1.089 0-1.862-.246-2.317-.738s-.693-1.11-.725-1.839h1.183zm11.108.349c0 .355.13.636.39.841s.567.307.923.307c.432 0 .852-.1 1.257-.301.684-.332 1.026-.877 1.026-1.633v-.992c-.151.096-.344.176-.581.24a5.02 5.02 0 0 1-.698.136l-.745.096c-.446.059-.781.153-1.005.28-.378.215-.567.556-.567 1.026zm2.98-2.489c.283-.036.472-.154.568-.355.055-.109.082-.267.082-.472 0-.419-.15-.722-.451-.909s-.723-.287-1.279-.287c-.642 0-1.098.173-1.367.52-.15.191-.248.476-.294.854h-1.148c.023-.902.314-1.529.875-1.88s1.219-.533 1.962-.533c.861 0 1.561.164 2.098.492s.8.839.8 1.531v4.218c0 .128.025.23.075.308s.167.116.335.116l.185-.007.219-.034v.909l-.438.103a3.34 3.34 0 0 1-.41.02c-.424 0-.731-.15-.923-.451-.1-.159-.171-.385-.212-.677-.25.328-.61.613-1.08.855s-.986.362-1.552.362c-.679 0-1.235-.205-1.668-.615s-.642-.932-.642-1.552c0-.679.212-1.205.636-1.579s.979-.604 1.668-.69l1.961-.247zm7.8-5.605h1.231V279h-1.231v-10.042zm6.132 2.557c.52 0 1.023.123 1.511.369.487.241.859.556 1.114.943.246.369.41.8.492 1.292.073.337.11.875.11 1.613h-5.367c.023.743.199 1.34.527 1.791s.836.67 1.524.67c.643 0 1.156-.212 1.538-.635.219-.246.374-.531.465-.855h1.21c-.032.269-.139.57-.321.902a3.14 3.14 0 0 1-.602.807c-.373.365-.836.611-1.387.738a4.22 4.22 0 0 1-1.005.11 3.09 3.09 0 0 1-2.318-.991c-.633-.666-.95-1.595-.95-2.79 0-1.175.319-2.13.957-2.864s1.472-1.1 2.502-1.1zm1.962 3.24c-.05-.533-.166-.959-.349-1.278-.337-.593-.9-.889-1.688-.889-.565 0-1.039.205-1.422.615s-.586.923-.608 1.552h4.067zm3.726 2.297c0 .355.13.636.389.841s.568.307.923.307a2.8 2.8 0 0 0 1.258-.301c.684-.332 1.025-.877 1.025-1.633v-.992c-.15.096-.344.176-.581.24s-.469.109-.697.136l-.745.096c-.447.059-.782.153-1.005.28-.378.215-.567.556-.567 1.026zm2.98-2.489c.283-.036.472-.154.567-.355.055-.109.083-.267.083-.472 0-.419-.151-.722-.452-.909-.296-.191-.722-.287-1.278-.287-.643 0-1.098.173-1.367.52-.151.191-.249.476-.294.854h-1.149c.023-.902.315-1.529.875-1.88.566-.355 1.22-.533 1.962-.533.862 0 1.561.164 2.099.492s.8.839.8 1.531v4.218c0 .128.025.23.075.308s.166.116.335.116l.185-.007.218-.034v.909l-.437.103a3.34 3.34 0 0 1-.41.02c-.424 0-.732-.15-.923-.451-.1-.159-.171-.385-.212-.677-.251.328-.611.613-1.08.855a3.35 3.35 0 0 1-1.552.362c-.679 0-1.235-.205-1.668-.615s-.643-.932-.643-1.552c0-.679.212-1.205.636-1.579s.98-.604 1.668-.69l1.962-.247zm4.649.862c0 .784.166 1.44.499 1.969s.865.793 1.599.793c.57 0 1.037-.244 1.402-.732s.553-1.196.553-2.112c0-.925-.189-1.609-.567-2.051s-.846-.67-1.402-.67c-.619 0-1.123.237-1.51.711s-.574 1.171-.574 2.092zm1.852-3.876c.561 0 1.03.118 1.408.355.219.137.467.376.745.718v-3.698h1.183V279h-1.107v-1.019c-.288.452-.627.777-1.019.978s-.841.301-1.347.301c-.815 0-1.522-.342-2.119-1.026s-.895-1.602-.895-2.741c0-1.066.271-1.989.813-2.768.547-.784 1.326-1.176 2.338-1.176zm8.21-.034c.52 0 1.023.123 1.511.369.487.241.859.556 1.114.943.246.369.41.8.492 1.292.073.337.11.875.11 1.613h-5.367c.023.743.199 1.34.527 1.791s.836.67 1.524.67c.643 0 1.155-.212 1.538-.635.219-.246.374-.531.465-.855h1.21c-.032.269-.139.57-.321.902a3.14 3.14 0 0 1-.602.807c-.373.365-.836.611-1.387.738a4.22 4.22 0 0 1-1.005.11 3.09 3.09 0 0 1-2.318-.991c-.633-.666-.95-1.595-.95-2.79 0-1.175.319-2.13.957-2.864s1.472-1.1 2.502-1.1zm1.962 3.24c-.05-.533-.166-.959-.349-1.278-.337-.593-.9-.889-1.688-.889-.565 0-1.039.205-1.422.615s-.586.923-.608 1.552h4.067zm2.816-3.076h1.169v1.264c.096-.246.331-.544.704-.895s.805-.533 1.292-.533a1.86 1.86 0 0 1 .117.006l.28.028v1.299a1.85 1.85 0 0 0-.205-.028l-.198-.007c-.62 0-1.096.201-1.429.602s-.499.855-.499 1.374V279h-1.231v-7.321zm7.096 5.899h1.36V279h-1.36v-1.422zm-2.304-5.475c0-.985.278-1.776.834-2.373s1.32-.902 2.29-.902c.898 0 1.616.258 2.154.773s.813 1.164.813 1.961c0 .484-.1.876-.301 1.176s-.594.743-1.196 1.326c-.437.424-.722.784-.854 1.081-.128.291-.192.724-.192 1.298h-1.217c0-.651.078-1.175.233-1.572s.494-.859 1.018-1.374l.547-.54c.164-.155.296-.317.397-.485a1.74 1.74 0 0 0 .273-.923c0-.447-.134-.834-.403-1.162s-.704-.492-1.319-.492c-.762 0-1.288.282-1.58.847-.164.315-.257.768-.28 1.361h-1.217z" fill="#7a869a"/><path d="M185 269h15v1.5h-15z" class="C"/><path d="M185 273.5h11v1.5h-11z" class="C"/><path d="M185 278h7v1.5h-7z" class="C"/><use xlink:href="#E" x="69" y="76" fill="#c8d5e1"/><rect x="231.3" y="258.3" width="349.4" height="31.4" rx="1.7" stroke="#dcedfd" stroke-width=".6"/></g><rect x="472" y="407" width="117" height="33" rx="3" class="D"/><path d="M491.214 425.43a1.29 1.29 0 0 0-.171-.684c-.109-.191-.317-.367-.622-.526-.305-.164-.745-.335-1.319-.513-.47-.141-.905-.303-1.306-.485s-.743-.392-1.039-.629c-.296-.242-.529-.52-.697-.834-.164-.319-.247-.686-.247-1.101 0-.542.151-1.018.452-1.429s.717-.738 1.251-.97 1.15-.349 1.852-.349c.748 0 1.39.137 1.928.41s.95.634 1.237 1.094a2.81 2.81 0 0 1 .438 1.538h-1.764a1.7 1.7 0 0 0-.205-.841 1.35 1.35 0 0 0-.608-.581c-.274-.141-.623-.212-1.046-.212-.397 0-.727.06-.992.178s-.46.278-.587.479a1.24 1.24 0 0 0-.192.683.98.98 0 0 0 .233.643c.155.187.389.358.704.512s.706.297 1.175.438c.739.214 1.352.465 1.839.752s.85.627 1.087 1.018.363.857.363 1.395c0 .561-.146 1.046-.438 1.456s-.704.718-1.237.937-1.16.328-1.88.328c-.479 0-.95-.064-1.415-.192s-.887-.328-1.265-.588a3.07 3.07 0 0 1-.902-.991c-.223-.396-.335-.863-.335-1.401h1.764c0 .319.054.59.164.813s.262.408.458.554.423.244.683.308.547.095.848.095c.396 0 .727-.054.991-.164s.463-.269.595-.465a1.15 1.15 0 0 0 .205-.676zm7.266-2.427c0-.383-.107-.688-.321-.916s-.528-.342-.957-.342c-.255 0-.478.046-.67.137s-.339.205-.444.355-.157.322-.157.513h-1.696c0-.396.126-.768.376-1.114s.604-.634 1.06-.848 1.003-.321 1.627-.321c.556 0 1.05.093 1.483.28s.773.469 1.019.848.376.852.376 1.422v3.26c0 .347.025.652.075.916s.121.495.212.691V428h-1.736c-.078-.178-.139-.408-.185-.69-.041-.283-.062-.559-.062-.828v-3.479zm.26 1.538h-1.162c-.601 0-1.055.112-1.36.335s-.451.517-.451.895c0 .292.1.536.3.732s.483.287.848.287c.333 0 .622-.066.868-.198s.447-.303.588-.499c.141-.201.214-.388.219-.561l.54.759c-.055.187-.148.387-.28.602a2.71 2.71 0 0 1-.513.601c-.21.187-.46.342-.752.465-.287.118-.622.178-1.005.178-.483 0-.914-.096-1.292-.287s-.677-.454-.895-.787-.322-.715-.322-1.134c0-.784.294-1.386.882-1.805s1.422-.629 2.502-.629h1.272l.013 1.046zm7.219-3.937h1.757L505.159 428h-1.094l.11-1.34 1.784-6.056zm-1.306 6.077l.082 1.319h-1.087l-2.577-7.396h1.764l1.818 6.077zm7.349 1.456c-.734 0-1.367-.158-1.9-.472a3.26 3.26 0 0 1-1.231-1.285c-.287-.542-.431-1.149-.431-1.818v-.281c0-.77.146-1.44.438-2.01s.69-1.018 1.196-1.333 1.087-.471 1.73-.471c.711 0 1.301.155 1.77.465a2.77 2.77 0 0 1 1.053 1.278c.232.542.349 1.171.349 1.887v.731h-5.722v-1.224h4.047v-.129c-.009-.287-.064-.556-.164-.807a1.34 1.34 0 0 0-.479-.608c-.214-.155-.501-.233-.861-.233s-.663.103-.909.308-.433.485-.561.854-.191.796-.191 1.292v.281c0 .419.077.795.232 1.127s.381.597.677.793.649.288 1.059.288c.397 0 .748-.078 1.053-.233s.577-.378.8-.67l.889.889c-.233.351-.584.67-1.053.957-.465.282-1.062.424-1.791.424zm15.811.581l-1.134 1.025-2.598-2.078 1.094-1.032 2.638 2.085zm.021-5.435c0 1.007-.173 1.873-.52 2.598s-.829 1.283-1.449 1.675-1.342.581-2.167.581c-.811 0-1.531-.194-2.16-.581s-1.121-.951-1.476-1.675-.527-1.591-.527-2.598v-.512c0-1.008.176-1.874.527-2.598s.838-1.288 1.462-1.675 1.349-.588 2.161-.588c.824 0 1.547.196 2.167.588s1.109.946 1.456 1.675.526 1.59.526 2.598v.512zm-1.777-.526c0-.734-.094-1.351-.281-1.853s-.458-.886-.813-1.141-.777-.39-1.278-.39c-.493 0-.916.13-1.272.39s-.629.635-.82 1.141-.281 1.119-.281 1.853v.526c0 .734.096 1.354.288 1.86s.464.888.82 1.148.786.39 1.278.39c.502 0 .928-.13 1.279-.39s.617-.643.799-1.148c.187-.506.281-1.126.281-1.86v-.526zm7.772-2.153h1.695V428h-1.599l-.096-1.75v-5.646zm.8 4.087c0 .666-.098 1.258-.294 1.778s-.501.923-.916 1.223-.953.445-1.613.445c-.73 0-1.32-.214-1.771-.643s-.677-1.132-.677-2.112v-4.778h1.696v4.792c0 .341.052.612.157.813.109.196.253.335.431.417a1.38 1.38 0 0 0 .587.123c.461 0 .823-.089 1.087-.267a1.49 1.49 0 0 0 .575-.738c.114-.31.171-.656.171-1.039l.567-.014zm5.838 3.446c-.734 0-1.367-.158-1.901-.472-.533-.319-.943-.747-1.23-1.285s-.431-1.149-.431-1.818v-.281c0-.77.146-1.44.438-2.01s.69-1.018 1.196-1.333 1.087-.471 1.73-.471c.71 0 1.301.155 1.77.465s.82.731 1.053 1.278.348 1.171.348 1.887v.731h-5.721v-1.224h4.047v-.129c-.009-.287-.064-.556-.164-.807a1.34 1.34 0 0 0-.479-.608c-.214-.155-.501-.233-.861-.233s-.663.103-.909.308-.433.485-.561.854-.191.796-.191 1.292v.281c0 .419.077.795.232 1.127s.381.597.677.793.649.288 1.059.288c.397 0 .748-.078 1.053-.233.31-.155.577-.378.8-.67l.889.889c-.233.351-.584.67-1.053.957-.465.282-1.062.424-1.791.424zm8.374-2.154c0-.155-.041-.296-.123-.423s-.23-.247-.458-.356-.563-.21-1.005-.301c-.524-.109-.987-.255-1.388-.437-.396-.182-.706-.417-.929-.704s-.329-.638-.329-1.053c0-.401.114-.77.342-1.107s.563-.616.991-.821.944-.314 1.532-.314c.619 0 1.153.105 1.599.314s.789.486 1.026.841.362.75.362 1.196h-1.695a1.05 1.05 0 0 0-.328-.765c-.215-.224-.538-.335-.971-.335-.269 0-.495.043-.677.13a.98.98 0 0 0-.403.335.82.82 0 0 0-.13.451c0 .159.043.298.13.417s.244.223.458.314.524.178.916.26c.565.118 1.052.269 1.463.451s.724.415.943.711.335.663.335 1.114c0 .433-.125.818-.376 1.156s-.595.601-1.046.793-.975.287-1.586.287c-.679 0-1.251-.121-1.716-.363s-.818-.549-1.059-.922a2.19 2.19 0 0 1-.356-1.176h1.634c.018.291.1.526.246.704s.337.308.561.39.465.116.711.116c.291 0 .533-.039.724-.116s.344-.183.445-.315a.76.76 0 0 0 .157-.472zm6.514-4.129h-4.197v-1.25h4.197v1.25zm-1.312-3.062v7.123c0 .228.032.401.096.52.063.114.155.191.273.232s.255.062.41.062c.114 0 .224-.007.328-.021l.253-.041v1.306c-.136.045-.296.084-.478.116s-.388.048-.629.048a2.4 2.4 0 0 1-1.012-.205c-.291-.137-.522-.358-.69-.663s-.246-.72-.246-1.231v-7.246h1.695zm4.368 9.208h-1.695v-7.396h1.695V428zm-1.805-9.331c0-.26.085-.474.253-.643s.404-.259.704-.259.538.086.711.259.26.383.26.643a.87.87 0 0 1-.26.643c-.173.168-.41.252-.711.252s-.535-.084-.704-.252a.89.89 0 0 1-.253-.643zm3.282 5.564c0-.72.136-1.362.41-1.927s.665-1.012 1.176-1.34c.515-.333 1.132-.499 1.852-.499.729 0 1.351.166 1.866.499a3.17 3.17 0 0 1 1.176 1.34c.274.565.41 1.207.41 1.927v.144c0 .715-.136 1.358-.41 1.928s-.661 1.011-1.176 1.34-1.128.492-1.852.492-1.345-.164-1.86-.492-.909-.775-1.182-1.34-.41-1.213-.41-1.928v-.144zm1.695.144c0 .437.062.838.185 1.203s.312.649.567.868.595.328 1.005.328c.405 0 .736-.109.991-.328s.449-.508.567-.868.185-.766.185-1.203v-.144a3.72 3.72 0 0 0-.185-1.196c-.118-.364-.307-.656-.567-.875s-.595-.335-1.005-.335-.738.112-.998.335-.444.511-.567.875-.178.763-.178 1.196v.144zm8.251 3.623h-1.695v-7.396h1.592l.103 1.579V428zm-.848-3.958c.005-.716.13-1.34.376-1.873s.59-.955 1.033-1.251.957-.451 1.544-.451c.479 0 .894.091 1.245.273s.624.47.82.875.294.941.294 1.62V428h-1.702v-4.778c0-.342-.05-.613-.151-.814-.095-.2-.241-.342-.437-.424s-.426-.13-.704-.13-.533.057-.752.171a1.65 1.65 0 0 0-.554.465c-.15.201-.267.433-.349.698a3.01 3.01 0 0 0-.116.847l-.547.007z" class="B"/><rect x="121" y="102" width="35" height="35" rx="17.5" class="C"/><path d="M140.255 114.818V125h-2.153v-8.138h-.059l-2.332 1.461v-1.909l2.521-1.596h2.023z" class="B"/><path d="M155.5 121.5h48.055" class="E I"/><path d="M222 105h-18v32h18" class="E"/></g><path d="M163 198h-21v175h21m-21.5-89.5h-16" class="E"/><rect x="91" y="264" width="35" height="35" rx="17.5" class="C"/><path d="M105.825 287v-1.551l3.625-3.356.775-.805c.212-.239.373-.473.482-.701a1.73 1.73 0 0 0 .164-.751c0-.298-.067-.555-.203-.771s-.322-.386-.557-.502a1.75 1.75 0 0 0-.801-.179c-.311 0-.583.063-.815.189s-.411.307-.537.542-.189.515-.189.84h-2.043c0-.666.151-1.244.452-1.735a3.02 3.02 0 0 1 1.268-1.138c.544-.269 1.17-.403 1.879-.403.729 0 1.364.129 1.904.388s.967.61 1.268 1.064.453.974.453 1.561c0 .384-.077.764-.229 1.138s-.416.791-.801 1.248-.926.999-1.625 1.636l-1.487 1.456v.07h4.276V287h-7.259z" class="B"/><rect x="659" y="407" width="35" height="35" rx="17.5" class="C"/><path d="M678.255 419.818V430h-2.153v-8.138h-.059l-2.332 1.461v-1.909l2.521-1.596h2.023z" class="B"/><path d="M589.496 424h69.008" class="E I"/><path d="M48.5 523c.052-.964.25-1.802.594-2.516s1.026-1.362 2.031-1.945l1.5-.867c.672-.391 1.143-.724 1.414-1 .427-.432.641-.927.641-1.484 0-.652-.195-1.167-.586-1.547-.391-.386-.912-.579-1.563-.579-.963 0-1.63.365-2 1.094-.198.391-.307.933-.328 1.625h-1.43c.016-.974.195-1.768.539-2.383.609-1.083 1.685-1.625 3.227-1.625 1.281 0 2.216.347 2.805 1.039.594.693.891 1.464.891 2.313 0 .896-.315 1.661-.945 2.297-.365.37-1.018.818-1.961 1.344l-1.07.593c-.51.282-.911.55-1.203.805-.521.453-.849.956-.984 1.508h6.109V523H48.5zm9.773-1.703h1.633V523h-1.633v-1.703zm8.797-9.774h1.57v4.743h5.969v-4.743h1.57V523h-1.57v-5.367H68.64V523h-1.57v-11.477zm14.82 2.922a3.79 3.79 0 0 1 1.727.422c.557.276.982.636 1.273 1.078.281.422.469.914.563 1.477.083.385.125 1 .125 1.844h-6.133c.026.849.227 1.531.602 2.046s.956.766 1.742.766c.734 0 1.32-.242 1.758-.726a2.45 2.45 0 0 0 .531-.977h1.383c-.036.307-.159.651-.367 1.031s-.432.683-.688.922c-.427.417-.956.698-1.586.844-.338.083-.721.125-1.148.125a3.53 3.53 0 0 1-2.648-1.133c-.724-.76-1.086-1.823-1.086-3.187 0-1.344.365-2.435 1.094-3.274s1.682-1.258 2.859-1.258zm2.242 3.703c-.057-.609-.19-1.096-.398-1.46-.385-.678-1.029-1.016-1.93-1.016a2.13 2.13 0 0 0-1.625.703c-.437.464-.669 1.055-.695 1.773h4.648zm3.219-6.625h1.406V523h-1.406v-11.477zm4.211 3.11l2.234 6.812 2.336-6.812h1.539L94.516 523h-1.5l-3.086-8.367h1.633zm10.796-.188a3.79 3.79 0 0 1 1.727.422c.557.276.982.636 1.273 1.078.282.422.469.914.563 1.477.083.385.125 1 .125 1.844h-6.133c.026.849.227 1.531.602 2.046s.955.766 1.742.766c.734 0 1.32-.242 1.758-.726a2.45 2.45 0 0 0 .531-.977h1.383c-.037.307-.159.651-.368 1.031-.203.375-.432.683-.687.922-.427.417-.956.698-1.586.844-.338.083-.721.125-1.148.125a3.53 3.53 0 0 1-2.649-1.133c-.724-.76-1.086-1.823-1.086-3.187 0-1.344.365-2.435 1.094-3.274s1.682-1.258 2.859-1.258zm2.243 3.703c-.058-.609-.191-1.096-.399-1.46-.385-.678-1.029-1.016-1.93-1.016-.645 0-1.187.234-1.625.703s-.669 1.055-.695 1.773h4.649zm3.46-5.851h1.422v2.336h1.336v1.148h-1.336v5.461c0 .292.099.487.297.586.11.057.292.086.547.086h.219l.273-.023V523a3.11 3.11 0 0 1-.508.102c-.171.02-.359.031-.562.031-.656 0-1.102-.167-1.336-.5-.234-.339-.352-.776-.352-1.313v-5.539h-1.132v-1.148h1.132v-2.336zm4.172 2.375h1.43V523h-1.43v-8.328zm0-3.149h1.43v1.594h-1.43v-1.594zm6.789 2.868c.943 0 1.709.229 2.297.687.594.458.951 1.248 1.071 2.367h-1.368c-.083-.515-.273-.942-.57-1.281s-.773-.516-1.43-.516c-.895 0-1.536.438-1.921 1.313-.25.568-.375 1.268-.375 2.101 0 .839.177 1.545.531 2.118s.911.859 1.672.859c.583 0 1.044-.177 1.382-.531.344-.36.581-.849.711-1.469h1.368c-.157 1.109-.547 1.922-1.172 2.438-.625.51-1.425.765-2.399.765-1.093 0-1.966-.398-2.617-1.195s-.976-1.802-.976-3c0-1.469.356-2.612 1.07-3.43s1.622-1.226 2.726-1.226zm5.852 6.382c0 .407.148.727.445.961s.649.352 1.055.352c.495 0 .974-.115 1.437-.344.782-.38 1.172-1.002 1.172-1.867v-1.133c-.172.11-.393.201-.664.274a5.6 5.6 0 0 1-.797.156l-.851.109c-.511.068-.893.175-1.149.321-.432.244-.648.635-.648 1.171zm3.406-2.843c.323-.042.539-.177.649-.407.062-.125.093-.304.093-.539 0-.479-.171-.825-.515-1.039s-.826-.328-1.461-.328c-.735 0-1.255.198-1.563.594-.172.219-.283.544-.336.977h-1.312c.026-1.032.359-1.748 1-2.149s1.393-.609 2.242-.609c.984 0 1.784.187 2.399.562.609.375.914.959.914 1.75v4.82c0 .146.028.264.086.352s.19.133.382.133l.211-.008.25-.039v1.039c-.218.063-.385.102-.5.117a3.56 3.56 0 0 1-.468.024c-.485 0-.836-.172-1.055-.516-.115-.182-.195-.44-.242-.773-.287.375-.698.7-1.235.976s-1.127.414-1.773.414c-.776 0-1.412-.234-1.906-.703s-.735-1.065-.735-1.773c0-.776.242-1.378.727-1.805s1.12-.69 1.906-.789l2.242-.281zM53.703 491h-1.461v-9.648l-2.906 1.07v-1.305l4.141-1.555h.227V491zm4.422-.758a.88.88 0 0 1 .227-.617c.156-.172.38-.258.672-.258.297 0 .521.086.672.258.156.167.234.372.234.617a.83.83 0 0 1-.234.602c-.151.161-.375.242-.672.242s-.516-.081-.672-.242-.227-.362-.227-.602zm15.82-4.508h-6.141v-1.218h6.141v1.218zM68.039 491h-1.516v-11.375h1.516V491zm7.234 0h-1.516v-11.375h1.516V491zm5.961.156c-.786 0-1.471-.174-2.055-.523-.578-.354-1.029-.839-1.352-1.453-.318-.615-.477-1.318-.477-2.11v-.336c0-.916.174-1.698.523-2.343.354-.651.813-1.146 1.375-1.485.568-.344 1.167-.515 1.797-.515.813 0 1.474.182 1.984.547a3.1 3.1 0 0 1 1.133 1.476c.245.62.367 1.323.367 2.109v.649h-6.312V486h4.852v-.109c-.021-.375-.096-.74-.227-1.094s-.339-.654-.625-.883-.677-.352-1.172-.352a1.91 1.91 0 0 0-1.164.376c-.333.244-.596.604-.789 1.078-.188.468-.281 1.041-.281 1.718v.336c0 .537.099 1.026.297 1.469s.484.789.859 1.055c.375.26.823.39 1.344.39.51 0 .943-.104 1.297-.312s.664-.487.93-.836l.883.687c-.271.417-.661.795-1.172 1.133-.505.334-1.177.5-2.016.5zm8.5 0c-.786 0-1.471-.174-2.055-.523-.578-.354-1.029-.839-1.352-1.453-.318-.615-.477-1.318-.477-2.11v-.336c0-.916.174-1.698.523-2.343.354-.651.813-1.146 1.375-1.485.568-.344 1.167-.515 1.797-.515.813 0 1.474.182 1.984.547a3.1 3.1 0 0 1 1.133 1.476c.245.62.367 1.323.367 2.109v.649h-6.312V486h4.852v-.109c-.021-.375-.096-.74-.227-1.094s-.339-.654-.625-.883-.677-.352-1.172-.352a1.91 1.91 0 0 0-1.164.376c-.333.244-.596.604-.789 1.078-.188.468-.281 1.041-.281 1.718v.336c0 .537.099 1.026.297 1.469s.484.789.859 1.055c.375.26.823.39 1.344.39.51 0 .943-.104 1.297-.312s.664-.487.93-.836l.883.687c-.271.417-.661.795-1.172 1.133-.505.334-1.177.5-2.016.5zM96.18 479v10.359L96.055 491h-1.336v-12h1.461zm5.703 7.867c0 .823-.128 1.557-.383 2.203s-.628 1.157-1.117 1.532c-.49.369-1.084.554-1.781.554-.719 0-1.318-.161-1.797-.484s-.852-.789-1.117-1.383-.44-1.307-.523-2.125v-.758c.083-.828.258-1.541.523-2.14s.635-1.06 1.109-1.383c.479-.328 1.076-.492 1.789-.492.708 0 1.307.179 1.797.539s.862.864 1.117 1.515.383 1.399.383 2.258v.164zm-1.461-.164c0-.562-.07-1.078-.211-1.547s-.373-.851-.695-1.133-.75-.421-1.297-.421c-.359 0-.674.062-.945.187s-.492.294-.68.508a2.68 2.68 0 0 0-.461.719 4.06 4.06 0 0 0-.258.828v1.898a4.02 4.02 0 0 0 .406 1.055 2.38 2.38 0 0 0 .758.82c.323.214.721.321 1.195.321.521 0 .94-.139 1.258-.415s.557-.653.703-1.117.227-.976.227-1.539v-.164zm2.906-.015c0-.818.156-1.55.469-2.196a3.73 3.73 0 0 1 1.328-1.531c.573-.375 1.253-.57 2.039-.57.797 0 1.484.19 2.063.57a3.66 3.66 0 0 1 1.328 1.531c.312.646.468 1.378.468 2.196v.179c0 .813-.156 1.544-.468 2.195a3.66 3.66 0 0 1-1.328 1.532c-.578.375-1.256.562-2.047.562s-1.477-.187-2.055-.562c-.573-.375-1.016-.886-1.328-1.532s-.469-1.382-.469-2.195v-.179zm1.461.179a4.39 4.39 0 0 0 .266 1.547c.177.474.44.854.789 1.141s.799.429 1.336.429c.531 0 .971-.143 1.32-.429a2.64 2.64 0 0 0 .797-1.141 4.39 4.39 0 0 0 .265-1.547v-.179c0-.558-.088-1.073-.265-1.547A2.6 2.6 0 0 0 108.5 484c-.354-.292-.799-.438-1.336-.438-.526 0-.966.146-1.32.438a2.6 2.6 0 0 0-.797 1.141 4.5 4.5 0 0 0-.258 1.547v.179z" class="F"/><defs><filter id="A" x="117" y="71" width="546" height="401" filterUnits="userSpaceOnUse" class="G"><feFlood result="A" class="H"/><feColorMatrix in="SourceAlpha" values="0 0 0 0 0 0 0 0 0 0 0 0 0 0 0 0 0 0 127 0" result="B"/><feOffset dy="4"/><feGaussianBlur stdDeviation="2"/><feComposite in2="B" operator="out"/><feColorMatrix values="0 0 0 0 0.441667 0 0 0 0 0.441667 0 0 0 0 0.441667 0 0 0 0.13 0"/><feBlend in2="A"/><feBlend in="SourceGraphic"/></filter><filter id="B" x="222" y="168" width="379" height="68" filterUnits="userSpaceOnUse" class="G"><feFlood result="A" class="H"/><feColorMatrix in="SourceAlpha" values="0 0 0 0 0 0 0 0 0 0 0 0 0 0 0 0 0 0 127 0" result="B"/><feOffset dy="4"/><feGaussianBlur stdDeviation="5"/><feComposite in2="B" operator="out"/><feColorMatrix values="0 0 0 0 0.441667 0 0 0 0 0.441667 0 0 0 0 0.441667 0 0 0 0.19 0"/><feBlend in2="A"/><feBlend in="SourceGraphic"/></filter><filter id="C" x="219" y="329" width="379" height="68" filterUnits="userSpaceOnUse" class="G"><feFlood result="A" class="H"/><feColorMatrix in="SourceAlpha" values="0 0 0 0 0 0 0 0 0 0 0 0 0 0 0 0 0 0 127 0" result="B"/><feOffset dy="4"/><feGaussianBlur stdDeviation="5"/><feComposite in2="B" operator="out"/><feColorMatrix values="0 0 0 0 0.441667 0 0 0 0 0.441667 0 0 0 0 0.441667 0 0 0 0.19 0"/><feBlend in2="A"/><feBlend in="SourceGraphic"/></filter><filter id="D" x="153" y="244" width="516" height="68" filterUnits="userSpaceOnUse" class="G"><feFlood result="A" class="H"/><feColorMatrix in="SourceAlpha" values="0 0 0 0 0 0 0 0 0 0 0 0 0 0 0 0 0 0 127 0" result="B"/><feOffset dy="4"/><feGaussianBlur stdDeviation="5"/><feComposite in2="B" operator="out"/><feColorMatrix values="0 0 0 0 0.441667 0 0 0 0 0.441667 0 0 0 0 0.441667 0 0 0 0.19 0"/><feBlend in2="A"/><feBlend in="SourceGraphic"/></filter><path id="E" d="M556 189a9 9 0 0 0-9 9 9 9 0 0 0 9 9 9 9 0 0 0 9-9 9 9 0 0 0-9-9zm4.709 6.642l-5.841 5.841c-.173.172-.453.172-.626 0l-2.969-2.967c-.172-.173-.172-.453 0-.626l.168-.167h0c.173-.172.453-.172.626 0l2.493 2.486 5.355-5.363c.173-.172.453-.172.626 0l.168.168h0c.173.174.173.455 0 .628h0z"/></defs></svg>