<svg xmlns="http://www.w3.org/2000/svg" width="460" height="451" fill="none" xmlns:v="https://vecta.io/nano"><path d="M148.444 0H5.664v142.779h142.78V0zm-16.325 126.462H21.992V16.334h110.127v110.128zm251.314 16.324c39.364 0 71.398-32.023 71.398-71.388C454.831 32.027 422.804 0 383.433 0s-71.388 32.03-71.388 71.401c0 39.365 32.023 71.385 71.388 71.385h0zm0-126.461c30.367 0 55.07 24.703 55.07 55.07 0 30.361-24.703 55.061-55.07 55.061-30.361 0-55.067-24.7-55.067-55.061.006-30.364 24.709-55.07 55.067-55.07h0zM0 440.731h154.108L77.055 301.017 0 440.731zm27.654-16.324l49.403-89.578 49.403 89.578H27.654zm355.779-124.898l-75.749 75.742L383.449 451l75.735-75.749-75.751-75.742zm-52.663 75.742l52.663-52.653 52.663 52.653-52.65 52.663-52.676-52.663z" fill="#142547"/><path d="M250.766 100.096l10.698 12.329 47.288-41.027-47.284-41.037-10.706 12.329 23.672 20.544H167.472v16.325h106.962l-23.668 20.537zm-37.767 246.451L202.3 334.218l-47.278 41.038 47.278 41.03 10.699-12.329-23.662-20.541h106.962v-16.324H189.337l23.662-20.545z" fill="#4267b2"/><path d="M375.761 169.441v89.411l-21.013-20.44-11.382 11.711 40.558 39.445 40.556-39.445-11.378-11.711-21.014 20.44v-89.411h-16.327zM85.704 278.169v-89.403l21.014 20.434 11.381-11.704-40.558-39.446-40.558 39.446L48.368 209.2l21.01-20.434v89.403h16.326zm162.738-107.945h35.882v107.178H177.146V170.224h35.869v-16.328h-52.197v139.831h139.831V153.896h-52.207v16.328z" fill="#142547"/><g fill="#4267b2"><path d="M226.301 153.898h13.285v16.328h-13.285v-16.328z"/><circle cx="384" cy="71" r="40"/><path d="M77.5 360l28.146 51.75H49.354L77.5 360z"/></g></svg>