<?xml version="1.0" encoding="UTF-8"?>
<svg width="498px" height="388px" viewBox="0 0 498 388" version="1.1" xmlns="http://www.w3.org/2000/svg" xmlns:xlink="http://www.w3.org/1999/xlink">
    <title>video</title>
    <g id="UX-Portfolio" stroke="none" stroke-width="1" fill="none" fill-rule="evenodd">
        <g id="video" transform="translate(0.655653, 0.814087)" fill="#2E4A6E" fill-rule="nonzero">
            <path d="M182.484347,266.587013 C186.117147,266.587013 248.140347,233.124913 283.794347,215.562913 C287.481847,213.742613 288.099047,208.812913 285.102947,206.125413 C255.895947,179.863413 218.801947,161.480413 186.477947,140.672413 C182.700647,138.250513 177.759147,140.879443 177.614647,145.324713 C176.368547,183.672713 176.075547,222.570713 176.735737,260.934713 C176.786518,264.087013 179.384137,266.587013 182.485737,266.587013 L182.484347,266.587013 Z" id="Path"></path>
            <path d="M438.504347,5.14691285 L435.977047,29.1509128 C435.625487,32.5142128 438.250447,35.5025128 441.707547,35.5025128 C444.613747,35.5025128 447.109847,33.3072128 447.422347,30.3502128 L449.949647,6.34621285 C450.277777,3.19391285 447.988747,0.361812849 444.828547,0.0220128486 C441.676247,-0.247517151 438.840247,1.98681285 438.504347,5.14701285 L438.504347,5.14691285 Z" id="Path"></path>
            <path d="M464.714347,41.3959128 L484.925347,21.1849128 C487.171447,18.9388128 487.171447,15.2982128 484.925347,13.0482128 C482.679247,10.8021128 479.038647,10.8021128 476.788647,13.0482128 L456.577647,33.2592128 C454.331547,35.5053128 454.331547,39.1459128 456.577647,41.3959128 C458.827647,43.6459128 462.468247,43.6459128 464.714347,41.3959128 Z" id="Path"></path>
            <path d="M492.294347,62.0559128 L465.767347,55.7395128 C462.638447,55.0051328 459.572047,56.9153128 458.837647,60.0012128 C458.099367,63.0950128 460.009547,66.1965128 463.099347,66.9309128 L489.626347,73.2473128 C497.184947,75.0090128 499.579447,63.7864128 492.294347,62.0563128 L492.294347,62.0559128 Z" id="Path"></path>
            <path d="M4.38434702,371.565913 C4.51325702,378.870613 10.466347,384.792913 17.771347,384.866913 C160.581347,386.304413 292.301347,386.741913 427.541347,386.042713 C433.092147,386.015369 438.232347,382.964613 440.861347,378.073913 C442.990247,374.116913 444.779347,371.054413 448.158247,365.948913 C449.923847,364.999693 451.173847,363.214513 451.228547,361.077813 C452.396547,317.335813 450.751987,270.526813 449.013747,220.967813 C442.845747,45.2478128 450.271547,51.8478128 445.841847,47.2478128 C444.755947,46.1072128 443.255947,45.4705128 441.689547,45.4705128 C336.459547,45.4705128 157.899547,46.8807128 25.979547,50.7010128 C24.081147,50.7556998 22.502947,51.7830128 21.499047,53.2362128 L6.86604702,67.4942128 C3.61604702,70.6583128 1.68634702,74.9825128 1.50274702,79.5142128 C-2.52455298,178.893213 2.62384702,272.344213 4.38164702,371.564213 L4.38434702,371.565913 Z M439.204347,274.256913 C439.977787,302.299913 440.415247,329.440913 439.864507,355.318913 C419.161507,355.842353 398.333507,356.150943 377.469507,356.338413 C378.000757,328.998413 378.090597,301.572413 377.793727,274.111413 C378.047637,274.146569 378.270287,274.259853 378.532007,274.259853 C379.328887,274.259853 439.981007,274.255947 439.204007,274.255947 L439.204347,274.256913 Z M438.888007,262.752913 L378.528937,262.752913 C378.212527,262.752913 377.935187,262.885723 377.634407,262.932603 C377.032847,222.463603 375.544607,181.948603 373.153907,141.552603 C375.345307,141.661973 419.380907,141.603384 435.184907,141.619009 C435.934907,182.049009 437.474007,216.498009 438.888007,262.759009 L438.888007,262.752913 Z M435.688737,56.9924128 C434.755147,80.7779128 434.716077,105.344913 435.048117,130.109913 C368.775117,130.258353 374.970117,129.859913 372.497117,130.309133 C370.950217,105.891133 369.086917,81.5281328 366.887717,57.2541328 C390.321717,57.1447628 413.328717,57.0588228 435.688737,56.9924128 L435.688737,56.9924128 Z M355.461737,57.3171328 C355.328927,65.5007328 369.313737,185.417133 365.957737,356.387133 C277.582737,356.969163 201.837737,355.375433 105.227737,355.027733 L100.762937,60.3677328 C185.723937,58.5825328 273.112937,57.7505328 355.462937,57.3208328 L355.461737,57.3171328 Z M93.721737,354.977133 C91.483437,354.973226 67.608737,354.809163 33.190737,355.121663 C33.389957,325.023663 33.432927,294.516663 33.389957,264.098663 C35.089157,264.200223 64.588957,264.129913 92.346957,264.153351 L93.721737,354.977133 Z M92.170937,252.647133 C79.467937,252.658851 35.205937,252.600258 33.369937,252.705727 C33.291812,218.990727 33.100407,185.564727 32.838687,152.990727 L90.658687,152.990727 L92.170937,252.647133 Z M89.260737,60.6065268 L90.487337,141.478133 L32.745337,141.474227 C32.514867,114.154227 32.245337,87.4742268 31.964087,62.0362268 C50.851087,61.5010668 69.991087,61.0323268 89.261087,60.6065268 L89.260737,60.6065268 Z" id="Shape"></path>
        </g>
    </g>
</svg>